<svg width="512" height="512" xmlns="http://www.w3.org/2000/svg">

 <g>
  <title>background</title>
  <rect fill="none" id="canvas_background" height="514" width="514" y="-1" x="-1"/>
 </g>
 <g>
  <title>Layer 1</title>
  <path id="svg_2" fill="#f085f2" d="m256.7,507.9c-136.7,-0.4 -248.9,-111.5 -248.2,-252.3c0.6,-139.1 112.7,-250.9 251.5,-249.4c135.2,1.5 246.6,112.2 245.5,252.9c-1,138.4 -112,248.6 -248.8,248.8zm0.4,-482c-124.2,-0.4 -227.7,100.8 -229,228.6c-1.3,130.7 103,232.5 226.4,233.8c126.1,1.3 230.7,-100.7 231.4,-229.1c0.6,-129.7 -101.6,-233.3 -228.8,-233.3z"/>
  <path id="svg_3" fill="#f085f2" d="m413.1,259.9c0,22 -0.6,44 0.1,66c1.4,39 -24.7,71.2 -58.6,83.8c-11.3,4.2 -23,6.5 -35.1,6.5c-41.8,-0.1 -83.6,0.4 -125.5,-0.2c-35.1,-0.5 -62.9,-15.2 -81.8,-45.3c-7.4,-11.8 -11.2,-24.9 -11.3,-38.8c-0.2,-47.8 -0.6,-95.6 0.1,-143.5c0.4,-30.8 16.1,-53.5 41.6,-69.8c16.3,-10.4 34.4,-14.8 53.6,-14.8c41.2,0 82.3,-0.3 123.5,0.1c32.4,0.4 59.1,13.2 78.4,39.7c9.8,13.5 15,28.8 15,45.7c0,23.6 0,47.1 0,70.6zm-289.1,-0.1c0,23.2 0,46.3 0,69.5c0,9 1.9,17.5 6.1,25.5c13.8,26 36.5,37.7 64.9,38.1c40.6,0.6 81.3,0.1 121.9,0.2c10.9,0 21.5,-1.9 31.7,-5.9c25.4,-10 41.4,-33.1 41.4,-60.3c0,-45.1 0,-90.3 0,-135.4c0,-12.9 -3.6,-24.6 -11.4,-35c-14.9,-19.8 -35.3,-29 -59.6,-29.2c-41.3,-0.4 -82.6,-0.2 -123.9,-0.1c-9.2,0 -18.1,1.8 -26.8,4.9c-25.4,9.2 -45.4,32.7 -44.4,63.3c0.7,21.4 0.1,42.9 0.1,64.4z"/>
  <path id="svg_4" fill="#f085f2" d="m257.3,182c40.7,0 73.7,32.5 73.6,72.6c-0.1,39.7 -33.2,72.3 -73.5,72.3c-40.7,0 -73.4,-32.4 -73.4,-72.7c0,-40 32.7,-72.2 73.3,-72.2zm50,72.3c-0.1,-27.1 -22.5,-49.1 -50.1,-49.1c-27.3,0 -50.1,22.4 -50.1,49.3c0,27 22.5,48.9 50.3,48.9c27.9,-0.1 50,-21.8 49.9,-49.1z"/>
  <path id="svg_5" fill="#f085f2" d="m323.9,176.1c-0.1,-9.1 6.7,-16.2 15.3,-16.2c8.5,0 15.7,7.4 15.6,16.1c0,8.8 -7.3,16.1 -15.8,16c-8.4,-0.1 -15.1,-7.1 -15.1,-15.9z"/>
 </g>
</svg>