<?xml version="1.0" ?><!DOCTYPE svg  PUBLIC '-//W3C//DTD SVG 1.1//EN'  'http://www.w3.org/Graphics/SVG/1.1/DTD/svg11.dtd'><svg enable-background="new 0 0 512 512" height="512px" id="Layer_1" version="1.1" viewBox="0 0 512 512" width="512px" xml:space="preserve" xmlns="http://www.w3.org/2000/svg" xmlns:xlink="http://www.w3.org/1999/xlink"><g id="_x36_2-instagram"><g><g><linearGradient gradientUnits="userSpaceOnUse" id="SVGID_1_" x1="86.2949" x2="425.7063" y1="425.7061" y2="86.2946"><stop offset="0" style="stop-color:#FFC107"/><stop offset="0.2211" style="stop-color:#F98D1C"/><stop offset="0.5137" style="stop-color:#F1423B"/><stop offset="0.8329" style="stop-color:#B93088"/><stop offset="0.9944" style="stop-color:#9C27B0"/></linearGradient><circle cx="256" cy="256" fill="url(#SVGID_1_)" r="240"/></g><g><path d="M313.529,107H202.478C151.377,107,110,148.306,110,199.367v110.977C110,361.407,151.377,403,202.478,403     H313.53c51.1,0,92.47-41.593,92.47-92.656V199.367C406,148.306,364.63,107,313.529,107z M378,310.344     C378,346.036,349.247,375,313.529,375H202.478C166.756,375,137,346.036,137,310.344V199.367c0-35.69,29.756-65.367,65.478-65.367     H313.53c35.717,0,64.47,29.677,64.47,65.367V310.344z" fill="#FFFFFF"/><path d="M258.002,180.872c-40.885,0-74.033,33.126-74.033,73.986c0,40.854,33.148,73.979,74.033,73.979     c40.886,0,74.034-33.125,74.034-73.979C332.036,213.998,298.888,180.872,258.002,180.872z M258.002,301.096     c-25.506,0-46.269-20.75-46.269-46.237c0-25.511,20.763-46.241,46.269-46.241c25.505,0,46.271,20.73,46.271,46.241     C304.272,280.346,283.507,301.096,258.002,301.096z" fill="#FFFFFF"/><path d="M337.589,165.466c-5.449,0-9.867,4.414-9.867,9.858c0,5.443,4.418,9.859,9.867,9.859     c5.444,0,9.864-4.416,9.864-9.859C347.453,169.88,343.033,165.466,337.589,165.466z" fill="#FFFFFF"/></g></g><g><linearGradient gradientTransform="matrix(1 0 0 -1 -41.6602 348.04)" gradientUnits="userSpaceOnUse" id="SVGID_2_" x1="297.6602" x2="297.6601" y1="308.4941" y2="-124.416"><stop offset="0" style="stop-color:#FFFFFF"/><stop offset="0.1413" style="stop-color:#FFFFFF;stop-opacity:0.8587"/><stop offset="1" style="stop-color:#FFFFFF;stop-opacity:0"/></linearGradient><circle cx="256" cy="256.001" fill="url(#SVGID_2_)" r="216.455"/></g></g><g id="Layer_1_1_"/><g id="Layer_1_2_"/></svg>