<svg width="551" height="408" viewBox="0 0 551 408" fill="none" xmlns="http://www.w3.org/2000/svg">
<circle cx="89.5" cy="89.5" r="89.5" fill="#E2FAE6"/>
<circle cx="28.5" cy="221.5" r="26.5" fill="#EFF3FF"/>
<circle cx="409" cy="266" r="1" fill="#A5A9C0" stroke="#A5A9C0" stroke-width="0.4"/>
<circle cx="419" cy="266" r="1" fill="#A5A9C0" stroke="#A5A9C0" stroke-width="0.4"/>
<circle cx="429" cy="266" r="1" fill="#A5A9C0" stroke="#A5A9C0" stroke-width="0.4"/>
<circle cx="439" cy="266" r="1" fill="#A5A9C0" stroke="#A5A9C0" stroke-width="0.4"/>
<circle cx="449" cy="266" r="1" fill="#A5A9C0" stroke="#A5A9C0" stroke-width="0.4"/>
<circle cx="459" cy="266" r="1" fill="#A5A9C0" stroke="#A5A9C0" stroke-width="0.4"/>
<circle cx="469" cy="266" r="1" fill="#A5A9C0" stroke="#A5A9C0" stroke-width="0.4"/>
<circle cx="479" cy="266" r="1" fill="#A5A9C0" stroke="#A5A9C0" stroke-width="0.4"/>
<circle cx="489" cy="266" r="1" fill="#A5A9C0" stroke="#A5A9C0" stroke-width="0.4"/>
<circle cx="499" cy="266" r="1" fill="#A5A9C0" stroke="#A5A9C0" stroke-width="0.4"/>
<circle cx="509" cy="266" r="1" fill="#A5A9C0" stroke="#A5A9C0" stroke-width="0.4"/>
<circle cx="519" cy="266" r="1" fill="#A5A9C0" stroke="#A5A9C0" stroke-width="0.4"/>
<circle cx="529" cy="266" r="1" fill="#A5A9C0" stroke="#A5A9C0" stroke-width="0.4"/>
<circle cx="539" cy="266" r="1" fill="#A5A9C0" stroke="#A5A9C0" stroke-width="0.4"/>
<circle cx="549" cy="266" r="1" fill="#A5A9C0" stroke="#A5A9C0" stroke-width="0.4"/>
<circle cx="409" cy="276" r="1" fill="#A5A9C0" stroke="#A5A9C0" stroke-width="0.4"/>
<circle cx="419" cy="276" r="1" fill="#A5A9C0" stroke="#A5A9C0" stroke-width="0.4"/>
<circle cx="429" cy="276" r="1" fill="#A5A9C0" stroke="#A5A9C0" stroke-width="0.4"/>
<circle cx="439" cy="276" r="1" fill="#A5A9C0" stroke="#A5A9C0" stroke-width="0.4"/>
<circle cx="449" cy="276" r="1" fill="#A5A9C0" stroke="#A5A9C0" stroke-width="0.4"/>
<circle cx="459" cy="276" r="1" fill="#A5A9C0" stroke="#A5A9C0" stroke-width="0.4"/>
<circle cx="469" cy="276" r="1" fill="#A5A9C0" stroke="#A5A9C0" stroke-width="0.4"/>
<circle cx="479" cy="276" r="1" fill="#A5A9C0" stroke="#A5A9C0" stroke-width="0.4"/>
<circle cx="489" cy="276" r="1" fill="#A5A9C0" stroke="#A5A9C0" stroke-width="0.4"/>
<circle cx="499" cy="276" r="1" fill="#A5A9C0" stroke="#A5A9C0" stroke-width="0.4"/>
<circle cx="509" cy="276" r="1" fill="#A5A9C0" stroke="#A5A9C0" stroke-width="0.4"/>
<circle cx="519" cy="276" r="1" fill="#A5A9C0" stroke="#A5A9C0" stroke-width="0.4"/>
<circle cx="529" cy="276" r="1" fill="#A5A9C0" stroke="#A5A9C0" stroke-width="0.4"/>
<circle cx="539" cy="276" r="1" fill="#A5A9C0" stroke="#A5A9C0" stroke-width="0.4"/>
<circle cx="549" cy="276" r="1" fill="#A5A9C0" stroke="#A5A9C0" stroke-width="0.4"/>
<circle cx="409" cy="286" r="1" fill="#A5A9C0" stroke="#A5A9C0" stroke-width="0.4"/>
<circle cx="419" cy="286" r="1" fill="#A5A9C0" stroke="#A5A9C0" stroke-width="0.4"/>
<circle cx="429" cy="286" r="1" fill="#A5A9C0" stroke="#A5A9C0" stroke-width="0.4"/>
<circle cx="439" cy="286" r="1" fill="#A5A9C0" stroke="#A5A9C0" stroke-width="0.4"/>
<circle cx="449" cy="286" r="1" fill="#A5A9C0" stroke="#A5A9C0" stroke-width="0.4"/>
<circle cx="459" cy="286" r="1" fill="#A5A9C0" stroke="#A5A9C0" stroke-width="0.4"/>
<circle cx="469" cy="286" r="1" fill="#A5A9C0" stroke="#A5A9C0" stroke-width="0.4"/>
<circle cx="479" cy="286" r="1" fill="#A5A9C0" stroke="#A5A9C0" stroke-width="0.4"/>
<circle cx="489" cy="286" r="1" fill="#A5A9C0" stroke="#A5A9C0" stroke-width="0.4"/>
<circle cx="499" cy="286" r="1" fill="#A5A9C0" stroke="#A5A9C0" stroke-width="0.4"/>
<circle cx="509" cy="286" r="1" fill="#A5A9C0" stroke="#A5A9C0" stroke-width="0.4"/>
<circle cx="519" cy="286" r="1" fill="#A5A9C0" stroke="#A5A9C0" stroke-width="0.4"/>
<circle cx="529" cy="286" r="1" fill="#A5A9C0" stroke="#A5A9C0" stroke-width="0.4"/>
<circle cx="539" cy="286" r="1" fill="#A5A9C0" stroke="#A5A9C0" stroke-width="0.4"/>
<circle cx="549" cy="286" r="1" fill="#A5A9C0" stroke="#A5A9C0" stroke-width="0.4"/>
<circle cx="409" cy="296" r="1" fill="#A5A9C0" stroke="#A5A9C0" stroke-width="0.4"/>
<circle cx="419" cy="296" r="1" fill="#A5A9C0" stroke="#A5A9C0" stroke-width="0.4"/>
<circle cx="429" cy="296" r="1" fill="#A5A9C0" stroke="#A5A9C0" stroke-width="0.4"/>
<circle cx="439" cy="296" r="1" fill="#A5A9C0" stroke="#A5A9C0" stroke-width="0.4"/>
<circle cx="449" cy="296" r="1" fill="#A5A9C0" stroke="#A5A9C0" stroke-width="0.4"/>
<circle cx="459" cy="296" r="1" fill="#A5A9C0" stroke="#A5A9C0" stroke-width="0.4"/>
<circle cx="469" cy="296" r="1" fill="#A5A9C0" stroke="#A5A9C0" stroke-width="0.4"/>
<circle cx="479" cy="296" r="1" fill="#A5A9C0" stroke="#A5A9C0" stroke-width="0.4"/>
<circle cx="489" cy="296" r="1" fill="#A5A9C0" stroke="#A5A9C0" stroke-width="0.4"/>
<circle cx="499" cy="296" r="1" fill="#A5A9C0" stroke="#A5A9C0" stroke-width="0.4"/>
<circle cx="509" cy="296" r="1" fill="#A5A9C0" stroke="#A5A9C0" stroke-width="0.4"/>
<circle cx="519" cy="296" r="1" fill="#A5A9C0" stroke="#A5A9C0" stroke-width="0.4"/>
<circle cx="529" cy="296" r="1" fill="#A5A9C0" stroke="#A5A9C0" stroke-width="0.4"/>
<circle cx="539" cy="296" r="1" fill="#A5A9C0" stroke="#A5A9C0" stroke-width="0.4"/>
<circle cx="549" cy="296" r="1" fill="#A5A9C0" stroke="#A5A9C0" stroke-width="0.4"/>
<circle cx="409" cy="306" r="1" fill="#A5A9C0" stroke="#A5A9C0" stroke-width="0.4"/>
<circle cx="419" cy="306" r="1" fill="#A5A9C0" stroke="#A5A9C0" stroke-width="0.4"/>
<circle cx="429" cy="306" r="1" fill="#A5A9C0" stroke="#A5A9C0" stroke-width="0.4"/>
<circle cx="439" cy="306" r="1" fill="#A5A9C0" stroke="#A5A9C0" stroke-width="0.4"/>
<circle cx="449" cy="306" r="1" fill="#A5A9C0" stroke="#A5A9C0" stroke-width="0.4"/>
<circle cx="459" cy="306" r="1" fill="#A5A9C0" stroke="#A5A9C0" stroke-width="0.4"/>
<circle cx="469" cy="306" r="1" fill="#A5A9C0" stroke="#A5A9C0" stroke-width="0.4"/>
<circle cx="479" cy="306" r="1" fill="#A5A9C0" stroke="#A5A9C0" stroke-width="0.4"/>
<circle cx="489" cy="306" r="1" fill="#A5A9C0" stroke="#A5A9C0" stroke-width="0.4"/>
<circle cx="499" cy="306" r="1" fill="#A5A9C0" stroke="#A5A9C0" stroke-width="0.4"/>
<circle cx="509" cy="306" r="1" fill="#A5A9C0" stroke="#A5A9C0" stroke-width="0.4"/>
<circle cx="519" cy="306" r="1" fill="#A5A9C0" stroke="#A5A9C0" stroke-width="0.4"/>
<circle cx="529" cy="306" r="1" fill="#A5A9C0" stroke="#A5A9C0" stroke-width="0.4"/>
<circle cx="539" cy="306" r="1" fill="#A5A9C0" stroke="#A5A9C0" stroke-width="0.4"/>
<circle cx="549" cy="306" r="1" fill="#A5A9C0" stroke="#A5A9C0" stroke-width="0.4"/>
<circle cx="409" cy="316" r="1" fill="#A5A9C0" stroke="#A5A9C0" stroke-width="0.4"/>
<circle cx="419" cy="316" r="1" fill="#A5A9C0" stroke="#A5A9C0" stroke-width="0.4"/>
<circle cx="429" cy="316" r="1" fill="#A5A9C0" stroke="#A5A9C0" stroke-width="0.4"/>
<circle cx="439" cy="316" r="1" fill="#A5A9C0" stroke="#A5A9C0" stroke-width="0.4"/>
<circle cx="449" cy="316" r="1" fill="#A5A9C0" stroke="#A5A9C0" stroke-width="0.4"/>
<circle cx="459" cy="316" r="1" fill="#A5A9C0" stroke="#A5A9C0" stroke-width="0.4"/>
<circle cx="469" cy="316" r="1" fill="#A5A9C0" stroke="#A5A9C0" stroke-width="0.4"/>
<circle cx="479" cy="316" r="1" fill="#A5A9C0" stroke="#A5A9C0" stroke-width="0.4"/>
<circle cx="489" cy="316" r="1" fill="#A5A9C0" stroke="#A5A9C0" stroke-width="0.4"/>
<circle cx="499" cy="316" r="1" fill="#A5A9C0" stroke="#A5A9C0" stroke-width="0.4"/>
<circle cx="509" cy="316" r="1" fill="#A5A9C0" stroke="#A5A9C0" stroke-width="0.4"/>
<circle cx="519" cy="316" r="1" fill="#A5A9C0" stroke="#A5A9C0" stroke-width="0.4"/>
<circle cx="529" cy="316" r="1" fill="#A5A9C0" stroke="#A5A9C0" stroke-width="0.4"/>
<circle cx="539" cy="316" r="1" fill="#A5A9C0" stroke="#A5A9C0" stroke-width="0.4"/>
<circle cx="549" cy="316" r="1" fill="#A5A9C0" stroke="#A5A9C0" stroke-width="0.4"/>
<circle cx="409" cy="326" r="1" fill="#A5A9C0" stroke="#A5A9C0" stroke-width="0.4"/>
<circle cx="419" cy="326" r="1" fill="#A5A9C0" stroke="#A5A9C0" stroke-width="0.4"/>
<circle cx="429" cy="326" r="1" fill="#A5A9C0" stroke="#A5A9C0" stroke-width="0.4"/>
<circle cx="439" cy="326" r="1" fill="#A5A9C0" stroke="#A5A9C0" stroke-width="0.4"/>
<circle cx="449" cy="326" r="1" fill="#A5A9C0" stroke="#A5A9C0" stroke-width="0.4"/>
<circle cx="459" cy="326" r="1" fill="#A5A9C0" stroke="#A5A9C0" stroke-width="0.4"/>
<circle cx="469" cy="326" r="1" fill="#A5A9C0" stroke="#A5A9C0" stroke-width="0.4"/>
<circle cx="479" cy="326" r="1" fill="#A5A9C0" stroke="#A5A9C0" stroke-width="0.4"/>
<circle cx="489" cy="326" r="1" fill="#A5A9C0" stroke="#A5A9C0" stroke-width="0.4"/>
<circle cx="499" cy="326" r="1" fill="#A5A9C0" stroke="#A5A9C0" stroke-width="0.4"/>
<circle cx="509" cy="326" r="1" fill="#A5A9C0" stroke="#A5A9C0" stroke-width="0.4"/>
<circle cx="519" cy="326" r="1" fill="#A5A9C0" stroke="#A5A9C0" stroke-width="0.4"/>
<circle cx="529" cy="326" r="1" fill="#A5A9C0" stroke="#A5A9C0" stroke-width="0.4"/>
<circle cx="539" cy="326" r="1" fill="#A5A9C0" stroke="#A5A9C0" stroke-width="0.4"/>
<circle cx="549" cy="326" r="1" fill="#A5A9C0" stroke="#A5A9C0" stroke-width="0.4"/>
<circle cx="409" cy="336" r="1" fill="#A5A9C0" stroke="#A5A9C0" stroke-width="0.4"/>
<circle cx="419" cy="336" r="1" fill="#A5A9C0" stroke="#A5A9C0" stroke-width="0.4"/>
<circle cx="429" cy="336" r="1" fill="#A5A9C0" stroke="#A5A9C0" stroke-width="0.4"/>
<circle cx="439" cy="336" r="1" fill="#A5A9C0" stroke="#A5A9C0" stroke-width="0.4"/>
<circle cx="449" cy="336" r="1" fill="#A5A9C0" stroke="#A5A9C0" stroke-width="0.4"/>
<circle cx="459" cy="336" r="1" fill="#A5A9C0" stroke="#A5A9C0" stroke-width="0.4"/>
<circle cx="469" cy="336" r="1" fill="#A5A9C0" stroke="#A5A9C0" stroke-width="0.4"/>
<circle cx="479" cy="336" r="1" fill="#A5A9C0" stroke="#A5A9C0" stroke-width="0.4"/>
<circle cx="489" cy="336" r="1" fill="#A5A9C0" stroke="#A5A9C0" stroke-width="0.4"/>
<circle cx="499" cy="336" r="1" fill="#A5A9C0" stroke="#A5A9C0" stroke-width="0.4"/>
<circle cx="509" cy="336" r="1" fill="#A5A9C0" stroke="#A5A9C0" stroke-width="0.4"/>
<circle cx="519" cy="336" r="1" fill="#A5A9C0" stroke="#A5A9C0" stroke-width="0.4"/>
<circle cx="529" cy="336" r="1" fill="#A5A9C0" stroke="#A5A9C0" stroke-width="0.4"/>
<circle cx="539" cy="336" r="1" fill="#A5A9C0" stroke="#A5A9C0" stroke-width="0.4"/>
<circle cx="549" cy="336" r="1" fill="#A5A9C0" stroke="#A5A9C0" stroke-width="0.4"/>
<circle cx="409" cy="346" r="1" fill="#A5A9C0" stroke="#A5A9C0" stroke-width="0.4"/>
<circle cx="419" cy="346" r="1" fill="#A5A9C0" stroke="#A5A9C0" stroke-width="0.4"/>
<circle cx="429" cy="346" r="1" fill="#A5A9C0" stroke="#A5A9C0" stroke-width="0.4"/>
<circle cx="439" cy="346" r="1" fill="#A5A9C0" stroke="#A5A9C0" stroke-width="0.4"/>
<circle cx="449" cy="346" r="1" fill="#A5A9C0" stroke="#A5A9C0" stroke-width="0.4"/>
<circle cx="459" cy="346" r="1" fill="#A5A9C0" stroke="#A5A9C0" stroke-width="0.4"/>
<circle cx="469" cy="346" r="1" fill="#A5A9C0" stroke="#A5A9C0" stroke-width="0.4"/>
<circle cx="479" cy="346" r="1" fill="#A5A9C0" stroke="#A5A9C0" stroke-width="0.4"/>
<circle cx="489" cy="346" r="1" fill="#A5A9C0" stroke="#A5A9C0" stroke-width="0.4"/>
<circle cx="499" cy="346" r="1" fill="#A5A9C0" stroke="#A5A9C0" stroke-width="0.4"/>
<circle cx="509" cy="346" r="1" fill="#A5A9C0" stroke="#A5A9C0" stroke-width="0.4"/>
<circle cx="519" cy="346" r="1" fill="#A5A9C0" stroke="#A5A9C0" stroke-width="0.4"/>
<circle cx="529" cy="346" r="1" fill="#A5A9C0" stroke="#A5A9C0" stroke-width="0.4"/>
<circle cx="539" cy="346" r="1" fill="#A5A9C0" stroke="#A5A9C0" stroke-width="0.4"/>
<circle cx="549" cy="346" r="1" fill="#A5A9C0" stroke="#A5A9C0" stroke-width="0.4"/>
<circle cx="409" cy="356" r="1" fill="#A5A9C0" stroke="#A5A9C0" stroke-width="0.4"/>
<circle cx="419" cy="356" r="1" fill="#A5A9C0" stroke="#A5A9C0" stroke-width="0.4"/>
<circle cx="429" cy="356" r="1" fill="#A5A9C0" stroke="#A5A9C0" stroke-width="0.4"/>
<circle cx="439" cy="356" r="1" fill="#A5A9C0" stroke="#A5A9C0" stroke-width="0.4"/>
<circle cx="449" cy="356" r="1" fill="#A5A9C0" stroke="#A5A9C0" stroke-width="0.4"/>
<circle cx="459" cy="356" r="1" fill="#A5A9C0" stroke="#A5A9C0" stroke-width="0.4"/>
<circle cx="469" cy="356" r="1" fill="#A5A9C0" stroke="#A5A9C0" stroke-width="0.4"/>
<circle cx="479" cy="356" r="1" fill="#A5A9C0" stroke="#A5A9C0" stroke-width="0.4"/>
<circle cx="489" cy="356" r="1" fill="#A5A9C0" stroke="#A5A9C0" stroke-width="0.4"/>
<circle cx="499" cy="356" r="1" fill="#A5A9C0" stroke="#A5A9C0" stroke-width="0.4"/>
<circle cx="509" cy="356" r="1" fill="#A5A9C0" stroke="#A5A9C0" stroke-width="0.4"/>
<circle cx="519" cy="356" r="1" fill="#A5A9C0" stroke="#A5A9C0" stroke-width="0.4"/>
<circle cx="529" cy="356" r="1" fill="#A5A9C0" stroke="#A5A9C0" stroke-width="0.4"/>
<circle cx="539" cy="356" r="1" fill="#A5A9C0" stroke="#A5A9C0" stroke-width="0.4"/>
<circle cx="549" cy="356" r="1" fill="#A5A9C0" stroke="#A5A9C0" stroke-width="0.4"/>
<circle cx="409" cy="366" r="1" fill="#A5A9C0" stroke="#A5A9C0" stroke-width="0.4"/>
<circle cx="419" cy="366" r="1" fill="#A5A9C0" stroke="#A5A9C0" stroke-width="0.4"/>
<circle cx="429" cy="366" r="1" fill="#A5A9C0" stroke="#A5A9C0" stroke-width="0.4"/>
<circle cx="439" cy="366" r="1" fill="#A5A9C0" stroke="#A5A9C0" stroke-width="0.4"/>
<circle cx="449" cy="366" r="1" fill="#A5A9C0" stroke="#A5A9C0" stroke-width="0.4"/>
<circle cx="459" cy="366" r="1" fill="#A5A9C0" stroke="#A5A9C0" stroke-width="0.4"/>
<circle cx="469" cy="366" r="1" fill="#A5A9C0" stroke="#A5A9C0" stroke-width="0.4"/>
<circle cx="479" cy="366" r="1" fill="#A5A9C0" stroke="#A5A9C0" stroke-width="0.4"/>
<circle cx="489" cy="366" r="1" fill="#A5A9C0" stroke="#A5A9C0" stroke-width="0.4"/>
<circle cx="499" cy="366" r="1" fill="#A5A9C0" stroke="#A5A9C0" stroke-width="0.4"/>
<circle cx="509" cy="366" r="1" fill="#A5A9C0" stroke="#A5A9C0" stroke-width="0.4"/>
<circle cx="519" cy="366" r="1" fill="#A5A9C0" stroke="#A5A9C0" stroke-width="0.4"/>
<circle cx="529" cy="366" r="1" fill="#A5A9C0" stroke="#A5A9C0" stroke-width="0.4"/>
<circle cx="539" cy="366" r="1" fill="#A5A9C0" stroke="#A5A9C0" stroke-width="0.4"/>
<circle cx="549" cy="366" r="1" fill="#A5A9C0" stroke="#A5A9C0" stroke-width="0.4"/>
<circle cx="409" cy="376" r="1" fill="#A5A9C0" stroke="#A5A9C0" stroke-width="0.4"/>
<circle cx="419" cy="376" r="1" fill="#A5A9C0" stroke="#A5A9C0" stroke-width="0.4"/>
<circle cx="429" cy="376" r="1" fill="#A5A9C0" stroke="#A5A9C0" stroke-width="0.4"/>
<circle cx="439" cy="376" r="1" fill="#A5A9C0" stroke="#A5A9C0" stroke-width="0.4"/>
<circle cx="449" cy="376" r="1" fill="#A5A9C0" stroke="#A5A9C0" stroke-width="0.4"/>
<circle cx="459" cy="376" r="1" fill="#A5A9C0" stroke="#A5A9C0" stroke-width="0.4"/>
<circle cx="469" cy="376" r="1" fill="#A5A9C0" stroke="#A5A9C0" stroke-width="0.4"/>
<circle cx="479" cy="376" r="1" fill="#A5A9C0" stroke="#A5A9C0" stroke-width="0.4"/>
<circle cx="489" cy="376" r="1" fill="#A5A9C0" stroke="#A5A9C0" stroke-width="0.4"/>
<circle cx="499" cy="376" r="1" fill="#A5A9C0" stroke="#A5A9C0" stroke-width="0.4"/>
<circle cx="509" cy="376" r="1" fill="#A5A9C0" stroke="#A5A9C0" stroke-width="0.4"/>
<circle cx="519" cy="376" r="1" fill="#A5A9C0" stroke="#A5A9C0" stroke-width="0.4"/>
<circle cx="529" cy="376" r="1" fill="#A5A9C0" stroke="#A5A9C0" stroke-width="0.4"/>
<circle cx="539" cy="376" r="1" fill="#A5A9C0" stroke="#A5A9C0" stroke-width="0.4"/>
<circle cx="549" cy="376" r="1" fill="#A5A9C0" stroke="#A5A9C0" stroke-width="0.4"/>
<circle cx="409" cy="386" r="1" fill="#A5A9C0" stroke="#A5A9C0" stroke-width="0.4"/>
<circle cx="419" cy="386" r="1" fill="#A5A9C0" stroke="#A5A9C0" stroke-width="0.4"/>
<circle cx="429" cy="386" r="1" fill="#A5A9C0" stroke="#A5A9C0" stroke-width="0.4"/>
<circle cx="439" cy="386" r="1" fill="#A5A9C0" stroke="#A5A9C0" stroke-width="0.4"/>
<circle cx="449" cy="386" r="1" fill="#A5A9C0" stroke="#A5A9C0" stroke-width="0.4"/>
<circle cx="459" cy="386" r="1" fill="#A5A9C0" stroke="#A5A9C0" stroke-width="0.4"/>
<circle cx="469" cy="386" r="1" fill="#A5A9C0" stroke="#A5A9C0" stroke-width="0.4"/>
<circle cx="479" cy="386" r="1" fill="#A5A9C0" stroke="#A5A9C0" stroke-width="0.4"/>
<circle cx="489" cy="386" r="1" fill="#A5A9C0" stroke="#A5A9C0" stroke-width="0.4"/>
<circle cx="499" cy="386" r="1" fill="#A5A9C0" stroke="#A5A9C0" stroke-width="0.4"/>
<circle cx="509" cy="386" r="1" fill="#A5A9C0" stroke="#A5A9C0" stroke-width="0.4"/>
<circle cx="519" cy="386" r="1" fill="#A5A9C0" stroke="#A5A9C0" stroke-width="0.4"/>
<circle cx="529" cy="386" r="1" fill="#A5A9C0" stroke="#A5A9C0" stroke-width="0.4"/>
<circle cx="539" cy="386" r="1" fill="#A5A9C0" stroke="#A5A9C0" stroke-width="0.4"/>
<circle cx="549" cy="386" r="1" fill="#A5A9C0" stroke="#A5A9C0" stroke-width="0.4"/>
<circle cx="409" cy="396" r="1" fill="#A5A9C0" stroke="#A5A9C0" stroke-width="0.4"/>
<circle cx="419" cy="396" r="1" fill="#A5A9C0" stroke="#A5A9C0" stroke-width="0.4"/>
<circle cx="429" cy="396" r="1" fill="#A5A9C0" stroke="#A5A9C0" stroke-width="0.4"/>
<circle cx="439" cy="396" r="1" fill="#A5A9C0" stroke="#A5A9C0" stroke-width="0.4"/>
<circle cx="449" cy="396" r="1" fill="#A5A9C0" stroke="#A5A9C0" stroke-width="0.4"/>
<circle cx="459" cy="396" r="1" fill="#A5A9C0" stroke="#A5A9C0" stroke-width="0.4"/>
<circle cx="469" cy="396" r="1" fill="#A5A9C0" stroke="#A5A9C0" stroke-width="0.4"/>
<circle cx="479" cy="396" r="1" fill="#A5A9C0" stroke="#A5A9C0" stroke-width="0.4"/>
<circle cx="489" cy="396" r="1" fill="#A5A9C0" stroke="#A5A9C0" stroke-width="0.4"/>
<circle cx="499" cy="396" r="1" fill="#A5A9C0" stroke="#A5A9C0" stroke-width="0.4"/>
<circle cx="509" cy="396" r="1" fill="#A5A9C0" stroke="#A5A9C0" stroke-width="0.4"/>
<circle cx="519" cy="396" r="1" fill="#A5A9C0" stroke="#A5A9C0" stroke-width="0.4"/>
<circle cx="529" cy="396" r="1" fill="#A5A9C0" stroke="#A5A9C0" stroke-width="0.4"/>
<circle cx="539" cy="396" r="1" fill="#A5A9C0" stroke="#A5A9C0" stroke-width="0.4"/>
<circle cx="549" cy="396" r="1" fill="#A5A9C0" stroke="#A5A9C0" stroke-width="0.4"/>
<circle cx="409" cy="406" r="1" fill="#A5A9C0" stroke="#A5A9C0" stroke-width="0.4"/>
<circle cx="419" cy="406" r="1" fill="#A5A9C0" stroke="#A5A9C0" stroke-width="0.4"/>
<circle cx="429" cy="406" r="1" fill="#A5A9C0" stroke="#A5A9C0" stroke-width="0.4"/>
<circle cx="439" cy="406" r="1" fill="#A5A9C0" stroke="#A5A9C0" stroke-width="0.4"/>
<circle cx="449" cy="406" r="1" fill="#A5A9C0" stroke="#A5A9C0" stroke-width="0.4"/>
<circle cx="459" cy="406" r="1" fill="#A5A9C0" stroke="#A5A9C0" stroke-width="0.4"/>
<circle cx="469" cy="406" r="1" fill="#A5A9C0" stroke="#A5A9C0" stroke-width="0.4"/>
<circle cx="479" cy="406" r="1" fill="#A5A9C0" stroke="#A5A9C0" stroke-width="0.4"/>
<circle cx="489" cy="406" r="1" fill="#A5A9C0" stroke="#A5A9C0" stroke-width="0.4"/>
<circle cx="499" cy="406" r="1" fill="#A5A9C0" stroke="#A5A9C0" stroke-width="0.4"/>
<circle cx="509" cy="406" r="1" fill="#A5A9C0" stroke="#A5A9C0" stroke-width="0.4"/>
<circle cx="519" cy="406" r="1" fill="#A5A9C0" stroke="#A5A9C0" stroke-width="0.4"/>
<circle cx="529" cy="406" r="1" fill="#A5A9C0" stroke="#A5A9C0" stroke-width="0.4"/>
<circle cx="539" cy="406" r="1" fill="#A5A9C0" stroke="#A5A9C0" stroke-width="0.4"/>
<circle cx="549" cy="406" r="1" fill="#A5A9C0" stroke="#A5A9C0" stroke-width="0.4"/>
</svg>
