<svg width="533" height="431" viewBox="0 0 533 431" fill="none" xmlns="http://www.w3.org/2000/svg">
<circle cx="115.5" cy="315.5" r="115.5" fill="#E2FAE6"/>
<circle cx="200" cy="269" r="1" fill="#A5A9C0" stroke="#A5A9C0" stroke-width="0.4"/>
<circle cx="210" cy="269" r="1" fill="#A5A9C0" stroke="#A5A9C0" stroke-width="0.4"/>
<circle cx="220" cy="269" r="1" fill="#A5A9C0" stroke="#A5A9C0" stroke-width="0.4"/>
<circle cx="230" cy="269" r="1" fill="#A5A9C0" stroke="#A5A9C0" stroke-width="0.4"/>
<circle cx="240" cy="269" r="1" fill="#A5A9C0" stroke="#A5A9C0" stroke-width="0.4"/>
<circle cx="250" cy="269" r="1" fill="#A5A9C0" stroke="#A5A9C0" stroke-width="0.4"/>
<circle cx="260" cy="269" r="1" fill="#A5A9C0" stroke="#A5A9C0" stroke-width="0.4"/>
<circle cx="270" cy="269" r="1" fill="#A5A9C0" stroke="#A5A9C0" stroke-width="0.4"/>
<circle cx="280" cy="269" r="1" fill="#A5A9C0" stroke="#A5A9C0" stroke-width="0.4"/>
<circle cx="290" cy="269" r="1" fill="#A5A9C0" stroke="#A5A9C0" stroke-width="0.4"/>
<circle cx="300" cy="269" r="1" fill="#A5A9C0" stroke="#A5A9C0" stroke-width="0.4"/>
<circle cx="310" cy="269" r="1" fill="#A5A9C0" stroke="#A5A9C0" stroke-width="0.4"/>
<circle cx="320" cy="269" r="1" fill="#A5A9C0" stroke="#A5A9C0" stroke-width="0.4"/>
<circle cx="330" cy="269" r="1" fill="#A5A9C0" stroke="#A5A9C0" stroke-width="0.4"/>
<circle cx="340" cy="269" r="1" fill="#A5A9C0" stroke="#A5A9C0" stroke-width="0.4"/>
<circle cx="200" cy="279" r="1" fill="#A5A9C0" stroke="#A5A9C0" stroke-width="0.4"/>
<circle cx="210" cy="279" r="1" fill="#A5A9C0" stroke="#A5A9C0" stroke-width="0.4"/>
<circle cx="220" cy="279" r="1" fill="#A5A9C0" stroke="#A5A9C0" stroke-width="0.4"/>
<circle cx="230" cy="279" r="1" fill="#A5A9C0" stroke="#A5A9C0" stroke-width="0.4"/>
<circle cx="240" cy="279" r="1" fill="#A5A9C0" stroke="#A5A9C0" stroke-width="0.4"/>
<circle cx="250" cy="279" r="1" fill="#A5A9C0" stroke="#A5A9C0" stroke-width="0.4"/>
<circle cx="260" cy="279" r="1" fill="#A5A9C0" stroke="#A5A9C0" stroke-width="0.4"/>
<circle cx="270" cy="279" r="1" fill="#A5A9C0" stroke="#A5A9C0" stroke-width="0.4"/>
<circle cx="280" cy="279" r="1" fill="#A5A9C0" stroke="#A5A9C0" stroke-width="0.4"/>
<circle cx="290" cy="279" r="1" fill="#A5A9C0" stroke="#A5A9C0" stroke-width="0.4"/>
<circle cx="300" cy="279" r="1" fill="#A5A9C0" stroke="#A5A9C0" stroke-width="0.4"/>
<circle cx="310" cy="279" r="1" fill="#A5A9C0" stroke="#A5A9C0" stroke-width="0.4"/>
<circle cx="320" cy="279" r="1" fill="#A5A9C0" stroke="#A5A9C0" stroke-width="0.4"/>
<circle cx="330" cy="279" r="1" fill="#A5A9C0" stroke="#A5A9C0" stroke-width="0.4"/>
<circle cx="340" cy="279" r="1" fill="#A5A9C0" stroke="#A5A9C0" stroke-width="0.4"/>
<circle cx="200" cy="289" r="1" fill="#A5A9C0" stroke="#A5A9C0" stroke-width="0.4"/>
<circle cx="210" cy="289" r="1" fill="#A5A9C0" stroke="#A5A9C0" stroke-width="0.4"/>
<circle cx="220" cy="289" r="1" fill="#A5A9C0" stroke="#A5A9C0" stroke-width="0.4"/>
<circle cx="230" cy="289" r="1" fill="#A5A9C0" stroke="#A5A9C0" stroke-width="0.4"/>
<circle cx="240" cy="289" r="1" fill="#A5A9C0" stroke="#A5A9C0" stroke-width="0.4"/>
<circle cx="250" cy="289" r="1" fill="#A5A9C0" stroke="#A5A9C0" stroke-width="0.4"/>
<circle cx="260" cy="289" r="1" fill="#A5A9C0" stroke="#A5A9C0" stroke-width="0.4"/>
<circle cx="270" cy="289" r="1" fill="#A5A9C0" stroke="#A5A9C0" stroke-width="0.4"/>
<circle cx="280" cy="289" r="1" fill="#A5A9C0" stroke="#A5A9C0" stroke-width="0.4"/>
<circle cx="290" cy="289" r="1" fill="#A5A9C0" stroke="#A5A9C0" stroke-width="0.4"/>
<circle cx="300" cy="289" r="1" fill="#A5A9C0" stroke="#A5A9C0" stroke-width="0.4"/>
<circle cx="310" cy="289" r="1" fill="#A5A9C0" stroke="#A5A9C0" stroke-width="0.4"/>
<circle cx="320" cy="289" r="1" fill="#A5A9C0" stroke="#A5A9C0" stroke-width="0.4"/>
<circle cx="330" cy="289" r="1" fill="#A5A9C0" stroke="#A5A9C0" stroke-width="0.4"/>
<circle cx="340" cy="289" r="1" fill="#A5A9C0" stroke="#A5A9C0" stroke-width="0.4"/>
<circle cx="200" cy="299" r="1" fill="#A5A9C0" stroke="#A5A9C0" stroke-width="0.4"/>
<circle cx="210" cy="299" r="1" fill="#A5A9C0" stroke="#A5A9C0" stroke-width="0.4"/>
<circle cx="220" cy="299" r="1" fill="#A5A9C0" stroke="#A5A9C0" stroke-width="0.4"/>
<circle cx="230" cy="299" r="1" fill="#A5A9C0" stroke="#A5A9C0" stroke-width="0.4"/>
<circle cx="240" cy="299" r="1" fill="#A5A9C0" stroke="#A5A9C0" stroke-width="0.4"/>
<circle cx="250" cy="299" r="1" fill="#A5A9C0" stroke="#A5A9C0" stroke-width="0.4"/>
<circle cx="260" cy="299" r="1" fill="#A5A9C0" stroke="#A5A9C0" stroke-width="0.4"/>
<circle cx="270" cy="299" r="1" fill="#A5A9C0" stroke="#A5A9C0" stroke-width="0.4"/>
<circle cx="280" cy="299" r="1" fill="#A5A9C0" stroke="#A5A9C0" stroke-width="0.4"/>
<circle cx="290" cy="299" r="1" fill="#A5A9C0" stroke="#A5A9C0" stroke-width="0.4"/>
<circle cx="300" cy="299" r="1" fill="#A5A9C0" stroke="#A5A9C0" stroke-width="0.4"/>
<circle cx="310" cy="299" r="1" fill="#A5A9C0" stroke="#A5A9C0" stroke-width="0.4"/>
<circle cx="320" cy="299" r="1" fill="#A5A9C0" stroke="#A5A9C0" stroke-width="0.4"/>
<circle cx="330" cy="299" r="1" fill="#A5A9C0" stroke="#A5A9C0" stroke-width="0.4"/>
<circle cx="340" cy="299" r="1" fill="#A5A9C0" stroke="#A5A9C0" stroke-width="0.4"/>
<circle cx="200" cy="309" r="1" fill="#A5A9C0" stroke="#A5A9C0" stroke-width="0.4"/>
<circle cx="210" cy="309" r="1" fill="#A5A9C0" stroke="#A5A9C0" stroke-width="0.4"/>
<circle cx="220" cy="309" r="1" fill="#A5A9C0" stroke="#A5A9C0" stroke-width="0.4"/>
<circle cx="230" cy="309" r="1" fill="#A5A9C0" stroke="#A5A9C0" stroke-width="0.4"/>
<circle cx="240" cy="309" r="1" fill="#A5A9C0" stroke="#A5A9C0" stroke-width="0.4"/>
<circle cx="250" cy="309" r="1" fill="#A5A9C0" stroke="#A5A9C0" stroke-width="0.4"/>
<circle cx="260" cy="309" r="1" fill="#A5A9C0" stroke="#A5A9C0" stroke-width="0.4"/>
<circle cx="270" cy="309" r="1" fill="#A5A9C0" stroke="#A5A9C0" stroke-width="0.4"/>
<circle cx="280" cy="309" r="1" fill="#A5A9C0" stroke="#A5A9C0" stroke-width="0.4"/>
<circle cx="290" cy="309" r="1" fill="#A5A9C0" stroke="#A5A9C0" stroke-width="0.4"/>
<circle cx="300" cy="309" r="1" fill="#A5A9C0" stroke="#A5A9C0" stroke-width="0.4"/>
<circle cx="310" cy="309" r="1" fill="#A5A9C0" stroke="#A5A9C0" stroke-width="0.4"/>
<circle cx="320" cy="309" r="1" fill="#A5A9C0" stroke="#A5A9C0" stroke-width="0.4"/>
<circle cx="330" cy="309" r="1" fill="#A5A9C0" stroke="#A5A9C0" stroke-width="0.4"/>
<circle cx="340" cy="309" r="1" fill="#A5A9C0" stroke="#A5A9C0" stroke-width="0.4"/>
<circle cx="200" cy="319" r="1" fill="#A5A9C0" stroke="#A5A9C0" stroke-width="0.4"/>
<circle cx="210" cy="319" r="1" fill="#A5A9C0" stroke="#A5A9C0" stroke-width="0.4"/>
<circle cx="220" cy="319" r="1" fill="#A5A9C0" stroke="#A5A9C0" stroke-width="0.4"/>
<circle cx="230" cy="319" r="1" fill="#A5A9C0" stroke="#A5A9C0" stroke-width="0.4"/>
<circle cx="240" cy="319" r="1" fill="#A5A9C0" stroke="#A5A9C0" stroke-width="0.4"/>
<circle cx="250" cy="319" r="1" fill="#A5A9C0" stroke="#A5A9C0" stroke-width="0.4"/>
<circle cx="260" cy="319" r="1" fill="#A5A9C0" stroke="#A5A9C0" stroke-width="0.4"/>
<circle cx="270" cy="319" r="1" fill="#A5A9C0" stroke="#A5A9C0" stroke-width="0.4"/>
<circle cx="280" cy="319" r="1" fill="#A5A9C0" stroke="#A5A9C0" stroke-width="0.4"/>
<circle cx="290" cy="319" r="1" fill="#A5A9C0" stroke="#A5A9C0" stroke-width="0.4"/>
<circle cx="300" cy="319" r="1" fill="#A5A9C0" stroke="#A5A9C0" stroke-width="0.4"/>
<circle cx="310" cy="319" r="1" fill="#A5A9C0" stroke="#A5A9C0" stroke-width="0.4"/>
<circle cx="320" cy="319" r="1" fill="#A5A9C0" stroke="#A5A9C0" stroke-width="0.4"/>
<circle cx="330" cy="319" r="1" fill="#A5A9C0" stroke="#A5A9C0" stroke-width="0.4"/>
<circle cx="340" cy="319" r="1" fill="#A5A9C0" stroke="#A5A9C0" stroke-width="0.4"/>
<circle cx="200" cy="329" r="1" fill="#A5A9C0" stroke="#A5A9C0" stroke-width="0.4"/>
<circle cx="210" cy="329" r="1" fill="#A5A9C0" stroke="#A5A9C0" stroke-width="0.4"/>
<circle cx="220" cy="329" r="1" fill="#A5A9C0" stroke="#A5A9C0" stroke-width="0.4"/>
<circle cx="230" cy="329" r="1" fill="#A5A9C0" stroke="#A5A9C0" stroke-width="0.4"/>
<circle cx="240" cy="329" r="1" fill="#A5A9C0" stroke="#A5A9C0" stroke-width="0.4"/>
<circle cx="250" cy="329" r="1" fill="#A5A9C0" stroke="#A5A9C0" stroke-width="0.4"/>
<circle cx="260" cy="329" r="1" fill="#A5A9C0" stroke="#A5A9C0" stroke-width="0.4"/>
<circle cx="270" cy="329" r="1" fill="#A5A9C0" stroke="#A5A9C0" stroke-width="0.4"/>
<circle cx="280" cy="329" r="1" fill="#A5A9C0" stroke="#A5A9C0" stroke-width="0.4"/>
<circle cx="290" cy="329" r="1" fill="#A5A9C0" stroke="#A5A9C0" stroke-width="0.4"/>
<circle cx="300" cy="329" r="1" fill="#A5A9C0" stroke="#A5A9C0" stroke-width="0.4"/>
<circle cx="310" cy="329" r="1" fill="#A5A9C0" stroke="#A5A9C0" stroke-width="0.4"/>
<circle cx="320" cy="329" r="1" fill="#A5A9C0" stroke="#A5A9C0" stroke-width="0.4"/>
<circle cx="330" cy="329" r="1" fill="#A5A9C0" stroke="#A5A9C0" stroke-width="0.4"/>
<circle cx="340" cy="329" r="1" fill="#A5A9C0" stroke="#A5A9C0" stroke-width="0.4"/>
<circle cx="200" cy="339" r="1" fill="#A5A9C0" stroke="#A5A9C0" stroke-width="0.4"/>
<circle cx="210" cy="339" r="1" fill="#A5A9C0" stroke="#A5A9C0" stroke-width="0.4"/>
<circle cx="220" cy="339" r="1" fill="#A5A9C0" stroke="#A5A9C0" stroke-width="0.4"/>
<circle cx="230" cy="339" r="1" fill="#A5A9C0" stroke="#A5A9C0" stroke-width="0.4"/>
<circle cx="240" cy="339" r="1" fill="#A5A9C0" stroke="#A5A9C0" stroke-width="0.4"/>
<circle cx="250" cy="339" r="1" fill="#A5A9C0" stroke="#A5A9C0" stroke-width="0.4"/>
<circle cx="260" cy="339" r="1" fill="#A5A9C0" stroke="#A5A9C0" stroke-width="0.4"/>
<circle cx="270" cy="339" r="1" fill="#A5A9C0" stroke="#A5A9C0" stroke-width="0.4"/>
<circle cx="280" cy="339" r="1" fill="#A5A9C0" stroke="#A5A9C0" stroke-width="0.4"/>
<circle cx="290" cy="339" r="1" fill="#A5A9C0" stroke="#A5A9C0" stroke-width="0.4"/>
<circle cx="300" cy="339" r="1" fill="#A5A9C0" stroke="#A5A9C0" stroke-width="0.4"/>
<circle cx="310" cy="339" r="1" fill="#A5A9C0" stroke="#A5A9C0" stroke-width="0.4"/>
<circle cx="320" cy="339" r="1" fill="#A5A9C0" stroke="#A5A9C0" stroke-width="0.4"/>
<circle cx="330" cy="339" r="1" fill="#A5A9C0" stroke="#A5A9C0" stroke-width="0.4"/>
<circle cx="340" cy="339" r="1" fill="#A5A9C0" stroke="#A5A9C0" stroke-width="0.4"/>
<circle cx="200" cy="349" r="1" fill="#A5A9C0" stroke="#A5A9C0" stroke-width="0.4"/>
<circle cx="210" cy="349" r="1" fill="#A5A9C0" stroke="#A5A9C0" stroke-width="0.4"/>
<circle cx="220" cy="349" r="1" fill="#A5A9C0" stroke="#A5A9C0" stroke-width="0.4"/>
<circle cx="230" cy="349" r="1" fill="#A5A9C0" stroke="#A5A9C0" stroke-width="0.4"/>
<circle cx="240" cy="349" r="1" fill="#A5A9C0" stroke="#A5A9C0" stroke-width="0.4"/>
<circle cx="250" cy="349" r="1" fill="#A5A9C0" stroke="#A5A9C0" stroke-width="0.4"/>
<circle cx="260" cy="349" r="1" fill="#A5A9C0" stroke="#A5A9C0" stroke-width="0.4"/>
<circle cx="270" cy="349" r="1" fill="#A5A9C0" stroke="#A5A9C0" stroke-width="0.4"/>
<circle cx="280" cy="349" r="1" fill="#A5A9C0" stroke="#A5A9C0" stroke-width="0.4"/>
<circle cx="290" cy="349" r="1" fill="#A5A9C0" stroke="#A5A9C0" stroke-width="0.4"/>
<circle cx="300" cy="349" r="1" fill="#A5A9C0" stroke="#A5A9C0" stroke-width="0.4"/>
<circle cx="310" cy="349" r="1" fill="#A5A9C0" stroke="#A5A9C0" stroke-width="0.4"/>
<circle cx="320" cy="349" r="1" fill="#A5A9C0" stroke="#A5A9C0" stroke-width="0.4"/>
<circle cx="330" cy="349" r="1" fill="#A5A9C0" stroke="#A5A9C0" stroke-width="0.4"/>
<circle cx="340" cy="349" r="1" fill="#A5A9C0" stroke="#A5A9C0" stroke-width="0.4"/>
<circle cx="200" cy="359" r="1" fill="#A5A9C0" stroke="#A5A9C0" stroke-width="0.4"/>
<circle cx="210" cy="359" r="1" fill="#A5A9C0" stroke="#A5A9C0" stroke-width="0.4"/>
<circle cx="220" cy="359" r="1" fill="#A5A9C0" stroke="#A5A9C0" stroke-width="0.4"/>
<circle cx="230" cy="359" r="1" fill="#A5A9C0" stroke="#A5A9C0" stroke-width="0.4"/>
<circle cx="240" cy="359" r="1" fill="#A5A9C0" stroke="#A5A9C0" stroke-width="0.4"/>
<circle cx="250" cy="359" r="1" fill="#A5A9C0" stroke="#A5A9C0" stroke-width="0.4"/>
<circle cx="260" cy="359" r="1" fill="#A5A9C0" stroke="#A5A9C0" stroke-width="0.4"/>
<circle cx="270" cy="359" r="1" fill="#A5A9C0" stroke="#A5A9C0" stroke-width="0.4"/>
<circle cx="280" cy="359" r="1" fill="#A5A9C0" stroke="#A5A9C0" stroke-width="0.4"/>
<circle cx="290" cy="359" r="1" fill="#A5A9C0" stroke="#A5A9C0" stroke-width="0.4"/>
<circle cx="300" cy="359" r="1" fill="#A5A9C0" stroke="#A5A9C0" stroke-width="0.4"/>
<circle cx="310" cy="359" r="1" fill="#A5A9C0" stroke="#A5A9C0" stroke-width="0.4"/>
<circle cx="320" cy="359" r="1" fill="#A5A9C0" stroke="#A5A9C0" stroke-width="0.4"/>
<circle cx="330" cy="359" r="1" fill="#A5A9C0" stroke="#A5A9C0" stroke-width="0.4"/>
<circle cx="340" cy="359" r="1" fill="#A5A9C0" stroke="#A5A9C0" stroke-width="0.4"/>
<circle cx="200" cy="369" r="1" fill="#A5A9C0" stroke="#A5A9C0" stroke-width="0.4"/>
<circle cx="210" cy="369" r="1" fill="#A5A9C0" stroke="#A5A9C0" stroke-width="0.4"/>
<circle cx="220" cy="369" r="1" fill="#A5A9C0" stroke="#A5A9C0" stroke-width="0.4"/>
<circle cx="230" cy="369" r="1" fill="#A5A9C0" stroke="#A5A9C0" stroke-width="0.4"/>
<circle cx="240" cy="369" r="1" fill="#A5A9C0" stroke="#A5A9C0" stroke-width="0.4"/>
<circle cx="250" cy="369" r="1" fill="#A5A9C0" stroke="#A5A9C0" stroke-width="0.4"/>
<circle cx="260" cy="369" r="1" fill="#A5A9C0" stroke="#A5A9C0" stroke-width="0.4"/>
<circle cx="270" cy="369" r="1" fill="#A5A9C0" stroke="#A5A9C0" stroke-width="0.4"/>
<circle cx="280" cy="369" r="1" fill="#A5A9C0" stroke="#A5A9C0" stroke-width="0.4"/>
<circle cx="290" cy="369" r="1" fill="#A5A9C0" stroke="#A5A9C0" stroke-width="0.4"/>
<circle cx="300" cy="369" r="1" fill="#A5A9C0" stroke="#A5A9C0" stroke-width="0.4"/>
<circle cx="310" cy="369" r="1" fill="#A5A9C0" stroke="#A5A9C0" stroke-width="0.4"/>
<circle cx="320" cy="369" r="1" fill="#A5A9C0" stroke="#A5A9C0" stroke-width="0.4"/>
<circle cx="330" cy="369" r="1" fill="#A5A9C0" stroke="#A5A9C0" stroke-width="0.4"/>
<circle cx="340" cy="369" r="1" fill="#A5A9C0" stroke="#A5A9C0" stroke-width="0.4"/>
<circle cx="200" cy="379" r="1" fill="#A5A9C0" stroke="#A5A9C0" stroke-width="0.4"/>
<circle cx="210" cy="379" r="1" fill="#A5A9C0" stroke="#A5A9C0" stroke-width="0.4"/>
<circle cx="220" cy="379" r="1" fill="#A5A9C0" stroke="#A5A9C0" stroke-width="0.4"/>
<circle cx="230" cy="379" r="1" fill="#A5A9C0" stroke="#A5A9C0" stroke-width="0.4"/>
<circle cx="240" cy="379" r="1" fill="#A5A9C0" stroke="#A5A9C0" stroke-width="0.4"/>
<circle cx="250" cy="379" r="1" fill="#A5A9C0" stroke="#A5A9C0" stroke-width="0.4"/>
<circle cx="260" cy="379" r="1" fill="#A5A9C0" stroke="#A5A9C0" stroke-width="0.4"/>
<circle cx="270" cy="379" r="1" fill="#A5A9C0" stroke="#A5A9C0" stroke-width="0.4"/>
<circle cx="280" cy="379" r="1" fill="#A5A9C0" stroke="#A5A9C0" stroke-width="0.4"/>
<circle cx="290" cy="379" r="1" fill="#A5A9C0" stroke="#A5A9C0" stroke-width="0.4"/>
<circle cx="300" cy="379" r="1" fill="#A5A9C0" stroke="#A5A9C0" stroke-width="0.4"/>
<circle cx="310" cy="379" r="1" fill="#A5A9C0" stroke="#A5A9C0" stroke-width="0.4"/>
<circle cx="320" cy="379" r="1" fill="#A5A9C0" stroke="#A5A9C0" stroke-width="0.4"/>
<circle cx="330" cy="379" r="1" fill="#A5A9C0" stroke="#A5A9C0" stroke-width="0.4"/>
<circle cx="340" cy="379" r="1" fill="#A5A9C0" stroke="#A5A9C0" stroke-width="0.4"/>
<circle cx="200" cy="389" r="1" fill="#A5A9C0" stroke="#A5A9C0" stroke-width="0.4"/>
<circle cx="210" cy="389" r="1" fill="#A5A9C0" stroke="#A5A9C0" stroke-width="0.4"/>
<circle cx="220" cy="389" r="1" fill="#A5A9C0" stroke="#A5A9C0" stroke-width="0.4"/>
<circle cx="230" cy="389" r="1" fill="#A5A9C0" stroke="#A5A9C0" stroke-width="0.4"/>
<circle cx="240" cy="389" r="1" fill="#A5A9C0" stroke="#A5A9C0" stroke-width="0.4"/>
<circle cx="250" cy="389" r="1" fill="#A5A9C0" stroke="#A5A9C0" stroke-width="0.4"/>
<circle cx="260" cy="389" r="1" fill="#A5A9C0" stroke="#A5A9C0" stroke-width="0.4"/>
<circle cx="270" cy="389" r="1" fill="#A5A9C0" stroke="#A5A9C0" stroke-width="0.4"/>
<circle cx="280" cy="389" r="1" fill="#A5A9C0" stroke="#A5A9C0" stroke-width="0.4"/>
<circle cx="290" cy="389" r="1" fill="#A5A9C0" stroke="#A5A9C0" stroke-width="0.4"/>
<circle cx="300" cy="389" r="1" fill="#A5A9C0" stroke="#A5A9C0" stroke-width="0.4"/>
<circle cx="310" cy="389" r="1" fill="#A5A9C0" stroke="#A5A9C0" stroke-width="0.4"/>
<circle cx="320" cy="389" r="1" fill="#A5A9C0" stroke="#A5A9C0" stroke-width="0.4"/>
<circle cx="330" cy="389" r="1" fill="#A5A9C0" stroke="#A5A9C0" stroke-width="0.4"/>
<circle cx="340" cy="389" r="1" fill="#A5A9C0" stroke="#A5A9C0" stroke-width="0.4"/>
<circle cx="200" cy="399" r="1" fill="#A5A9C0" stroke="#A5A9C0" stroke-width="0.4"/>
<circle cx="210" cy="399" r="1" fill="#A5A9C0" stroke="#A5A9C0" stroke-width="0.4"/>
<circle cx="220" cy="399" r="1" fill="#A5A9C0" stroke="#A5A9C0" stroke-width="0.4"/>
<circle cx="230" cy="399" r="1" fill="#A5A9C0" stroke="#A5A9C0" stroke-width="0.4"/>
<circle cx="240" cy="399" r="1" fill="#A5A9C0" stroke="#A5A9C0" stroke-width="0.4"/>
<circle cx="250" cy="399" r="1" fill="#A5A9C0" stroke="#A5A9C0" stroke-width="0.4"/>
<circle cx="260" cy="399" r="1" fill="#A5A9C0" stroke="#A5A9C0" stroke-width="0.4"/>
<circle cx="270" cy="399" r="1" fill="#A5A9C0" stroke="#A5A9C0" stroke-width="0.4"/>
<circle cx="280" cy="399" r="1" fill="#A5A9C0" stroke="#A5A9C0" stroke-width="0.4"/>
<circle cx="290" cy="399" r="1" fill="#A5A9C0" stroke="#A5A9C0" stroke-width="0.4"/>
<circle cx="300" cy="399" r="1" fill="#A5A9C0" stroke="#A5A9C0" stroke-width="0.4"/>
<circle cx="310" cy="399" r="1" fill="#A5A9C0" stroke="#A5A9C0" stroke-width="0.4"/>
<circle cx="320" cy="399" r="1" fill="#A5A9C0" stroke="#A5A9C0" stroke-width="0.4"/>
<circle cx="330" cy="399" r="1" fill="#A5A9C0" stroke="#A5A9C0" stroke-width="0.4"/>
<circle cx="340" cy="399" r="1" fill="#A5A9C0" stroke="#A5A9C0" stroke-width="0.4"/>
<circle cx="200" cy="409" r="1" fill="#A5A9C0" stroke="#A5A9C0" stroke-width="0.4"/>
<circle cx="210" cy="409" r="1" fill="#A5A9C0" stroke="#A5A9C0" stroke-width="0.4"/>
<circle cx="220" cy="409" r="1" fill="#A5A9C0" stroke="#A5A9C0" stroke-width="0.4"/>
<circle cx="230" cy="409" r="1" fill="#A5A9C0" stroke="#A5A9C0" stroke-width="0.4"/>
<circle cx="240" cy="409" r="1" fill="#A5A9C0" stroke="#A5A9C0" stroke-width="0.4"/>
<circle cx="250" cy="409" r="1" fill="#A5A9C0" stroke="#A5A9C0" stroke-width="0.4"/>
<circle cx="260" cy="409" r="1" fill="#A5A9C0" stroke="#A5A9C0" stroke-width="0.4"/>
<circle cx="270" cy="409" r="1" fill="#A5A9C0" stroke="#A5A9C0" stroke-width="0.4"/>
<circle cx="280" cy="409" r="1" fill="#A5A9C0" stroke="#A5A9C0" stroke-width="0.4"/>
<circle cx="290" cy="409" r="1" fill="#A5A9C0" stroke="#A5A9C0" stroke-width="0.4"/>
<circle cx="300" cy="409" r="1" fill="#A5A9C0" stroke="#A5A9C0" stroke-width="0.4"/>
<circle cx="310" cy="409" r="1" fill="#A5A9C0" stroke="#A5A9C0" stroke-width="0.4"/>
<circle cx="320" cy="409" r="1" fill="#A5A9C0" stroke="#A5A9C0" stroke-width="0.4"/>
<circle cx="330" cy="409" r="1" fill="#A5A9C0" stroke="#A5A9C0" stroke-width="0.4"/>
<circle cx="340" cy="409" r="1" fill="#A5A9C0" stroke="#A5A9C0" stroke-width="0.4"/>
<circle cx="463.5" cy="69.5" r="69.5" fill="#EFF3FF"/>
</svg>
