<?xml version="1.0" encoding="utf-8"?>
<!-- Generator: Adobe Illustrator 23.0.1, SVG Export Plug-In . SVG Version: 6.00 Build 0)  -->
<svg version="1.1" id="Слой_1" xmlns="http://www.w3.org/2000/svg" xmlns:xlink="http://www.w3.org/1999/xlink" x="0px" y="0px"
	 viewBox="0 0 756 128.2" style="enable-background:new 0 0 756 128.2;" xml:space="preserve">
<style type="text/css">
	.st0{fill:#CC9933;}
	.st1{fill:none;}
	.st2{fill:none;stroke:#CC9933;stroke-width:2;stroke-linecap:round;stroke-linejoin:round;stroke-miterlimit:10;}
</style>
<path class="st0" d="M430.7,79.3c-5.4-5-15.6-10.5-33.5-9.3c-5.3-4.6-13-8.3-23.8-8c-5.5,0.2-17,2.6-23.6,10.5
	c-2.9-0.8-6-1.1-9.3-0.7c0,0,0,0-0.1,0c-10.3,1.3-24.6,11.4-24.6,27c0,9.1,3.9,14.8,12.6,18.6c9.6,4.2,25.9,6.1,51.3,6.1
	c23.7,0,39.7-2.3,48.8-7.1c9.8-5.1,11.1-12.6,11.1-18.5C439.5,91.3,436.2,84.3,430.7,79.3z M379.6,117.3c-53.3,0-57.7-8.8-57.7-18.5
	c0-11.8,11.3-19.8,19.2-20.8c16.5-1.6,21.8,16.6,22.1,17.4c0.5,1.7,2.2,2.6,3.8,2.2s2.6-2.2,2.1-3.8c-0.1-0.2-1.7-6-6-11.6
	c-2.2-2.9-4.7-5.2-7.4-6.9c5-4.8,13.2-6.8,17.8-6.9c10.3-0.3,18.5,3.6,24.2,11.6c4.4,6.2,5.8,12.6,5.8,12.7c0.3,1.5,1.6,2.5,3,2.5
	c0.2,0,0.4,0,0.6-0.1c1.7-0.3,2.8-2,2.4-3.7c-0.1-0.3-1.6-7.7-6.7-14.9c-0.1-0.1-0.2-0.3-0.3-0.4c12.5,0.1,19.8,4.2,23.8,7.8
	c5,4.6,6.8,10.3,6.8,14C433.3,105.1,433.3,117.3,379.6,117.3z"/>
<line class="st1" x1="67" y1="82.3" x2="267.8" y2="83.1"/>
<line class="st2" x1="4.6" y1="114.8" x2="291.8" y2="114.8"/>
<line class="st2" x1="37.6" y1="92.5" x2="270.2" y2="92.9"/>
<line class="st2" x1="483.5" y1="92.5" x2="716.1" y2="92.9"/>
<line class="st2" x1="463.4" y1="114.8" x2="750.6" y2="114.8"/>
<g>
	<path class="st0" d="M346.1,14.2c-1.2,1.9-2.4,3.8-3.3,5.8c-0.9,2-1.6,4.1-1.8,6.1c-0.2,2,0.2,4,1.1,5.6c0.5,0.8,1.1,1.5,1.8,2.2
		c0.7,0.7,1.6,1.5,2.5,2.3c1.7,1.7,3.3,3.9,4.2,6.4c1,2.4,1.2,5,0.9,7.5c-0.2,2.5-0.9,4.8-1.8,7c-0.9,2.2-2.1,4.2-3.5,6.1
		c-0.1,0.1-0.3,0.1-0.4,0c-0.1-0.1-0.1-0.1-0.1-0.2c0.1-2.3,0.4-4.6,0.6-6.7c0.2-2.2,0.3-4.3,0.2-6.3c-0.1-2-0.2-4-0.7-5.8
		c-0.4-1.9-1.2-3.6-2.5-5.2c-0.6-0.8-1.4-1.6-2.2-2.5c-0.8-0.9-1.6-2-2.1-3.2c-1-2.5-1.1-5.1-0.5-7.5c0.5-2.4,1.6-4.5,2.9-6.4
		c1.2-1.9,2.7-3.7,4.3-5.3c0.1-0.1,0.3-0.1,0.4,0C346.2,13.9,346.2,14.1,346.1,14.2z"/>
</g>
<g>
	<path class="st0" d="M375.5,4.7c-1.3,4-2,8.1-1.7,12.1c0.1,2,0.5,4,1.1,5.9c0.6,1.9,1.4,3.7,2.3,5.6c0.9,1.9,1.9,4,2.6,6.2
		c0.7,2.2,0.9,4.6,0.7,6.9c-0.2,2.3-0.7,4.5-1.6,6.6c-0.8,2.1-2,4-3.4,5.7c-0.1,0.1-0.3,0.1-0.4,0c-0.1-0.1-0.1-0.1-0.1-0.2
		c0.1-2.2,0.4-4.3,0.5-6.3c0.1-2,0.1-4,0-5.9c-0.3-3.8-0.5-7.5-2-11.5c-0.7-2-1.4-4.1-1.9-6.3c-0.4-2.2-0.5-4.5-0.4-6.7
		c0.3-4.4,1.7-8.6,3.8-12.3c0.1-0.1,0.2-0.2,0.3-0.1C375.5,4.5,375.5,4.6,375.5,4.7z"/>
</g>
<g>
	<path class="st0" d="M408.6,8.1c-2.3,4-4.4,8.2-5.1,12.6c-0.4,2.2-0.3,4.4,0.2,6.4c0.5,2,1.4,3.8,2.8,5.5c1.4,1.7,3.1,3.8,4.2,6.3
		c1.1,2.4,1.5,5.2,1.3,7.8c-0.2,2.6-0.9,5.1-2,7.3c-1.1,2.2-2.5,4.3-4.2,6c-0.1,0.1-0.3,0.1-0.4,0c-0.1-0.1-0.1-0.2-0.1-0.2
		c0.5-2.4,1-4.6,1.3-6.8c0.3-2.2,0.5-4.3,0.4-6.4c-0.1-2.1-0.4-4-1-5.9c-0.5-1.9-1.5-3.7-2.9-5.7c-0.6-1-1.3-2.2-1.8-3.4
		c-0.5-1.2-0.8-2.5-1-3.8c-0.4-2.6,0-5.2,0.7-7.5c1.5-4.7,4.1-8.7,7.1-12.3c0.1-0.1,0.2-0.1,0.4,0C408.6,7.9,408.6,8,408.6,8.1z"/>
</g>
</svg>
