<?xml version="1.0" encoding="utf-8"?>
<!-- Generator: Adobe Illustrator 23.0.1, SVG Export Plug-In . SVG Version: 6.00 Build 0)  -->
<svg version="1.1" id="Layer_1" xmlns="http://www.w3.org/2000/svg" xmlns:xlink="http://www.w3.org/1999/xlink" x="0px" y="0px"
	 viewBox="0 0 48 48" style="enable-background:new 0 0 48 48;" xml:space="preserve">
<style type="text/css">
	.st0{fill:#CC9933;}
</style>
<path class="st0" d="M24,48C10.8,48,0,37.2,0,24S10.8,0,24,0s24,10.8,24,24S37.2,48,24,48z M24,1C11.3,1,1,11.3,1,24s10.3,23,23,23
	s23-10.3,23-23S36.7,1,24,1z"/>
<path class="st0" d="M27.2,16.1C27,16,26.8,16,26.6,16c0.1-0.3,0.1-0.7,0-1c-0.5-1.7-2-2.9-3.8-2.9C19,12,15.2,13,11.9,15
	c-1.5,0.9-2.3,2.7-1.8,4.4c0.2,0.6,0.6,1.2,1.1,1.5c0.3,0.2,0.6,0.5,0.7,0.9l1.9,7.2c0.2,0.6,0.6,1.2,1.2,1.5
	c0.4,0.2,0.8,0.3,1.2,0.3c0.2,0,0.4,0,0.7-0.1l1.9-0.5c0.2,0.2,0.4,0.4,0.7,0.6l8.4,4.9c0.4,0.2,0.8,0.3,1.2,0.3
	c0.2,0,0.4,0,0.7-0.1c0.6-0.2,1.2-0.6,1.5-1.2l3.7-6.5c0.2-0.3,0.5-0.6,0.9-0.7c0.6-0.2,1.2-0.6,1.5-1.1c0.9-1.5,0.6-3.5-0.6-4.8
	C34.2,19,30.9,17,27.2,16.1z M16.7,29.7c-0.4,0.1-0.8,0.1-1.1-0.1s-0.6-0.5-0.7-0.9L13,21.5c-0.2-0.6-0.6-1.2-1.1-1.5
	c-0.3-0.2-0.6-0.5-0.7-0.9c-0.3-1.3,0.2-2.6,1.3-3.3c3-1.8,6.5-2.8,10-2.8h0.3c1.3,0,2.5,0.9,2.8,2.2c0.1,0.3,0.1,0.5,0,0.8h-0.1
	c-0.2,0-0.4,0.1-0.5,0.2c-0.1,0-0.1,0-0.2,0.1l-0.6,0.3c-0.1,0-0.1,0.1-0.2,0.2s-0.3,0.2-0.4,0.4l-0.2,0.2c-0.2,0.2-0.3,0.4-0.5,0.6
	c-0.3,0.6-0.4,1.2-0.2,1.9c0.1,0.4,0,0.8-0.1,1.1l-3.7,6.5c-0.3,0.6-0.4,1.3-0.2,1.9C18.7,29.4,16.7,29.7,16.7,29.7z M36.6,26
	c-0.2,0.3-0.5,0.6-0.9,0.7c-0.6,0.2-1.2,0.6-1.5,1.1l-3.7,6.5c-0.2,0.3-0.5,0.6-0.9,0.7c-0.4,0.1-0.8,0.1-1.1-0.1l-8.5-5
	c-0.2-0.1-0.4-0.3-0.5-0.6c-0.1-0.2-0.2-0.5-0.2-0.7v-0.1v-0.3v-0.1c0-0.1,0.1-0.2,0.1-0.3l3.7-6.5c0.3-0.6,0.4-1.2,0.2-1.9
	c-0.1-0.4,0-0.8,0.1-1.1c0.1-0.2,0.3-0.4,0.5-0.6c0.1-0.1,0.1-0.1,0.2-0.1c0.1-0.1,0.3-0.2,0.4-0.3c0.1,0,0.1-0.1,0.2-0.1
	c0.1-0.1,0.3-0.1,0.5-0.2c0.1,0,0.2,0,0.3-0.1c0.2,0,0.4-0.1,0.6-0.1s0.5,0,0.7,0.1c3.5,0.9,6.7,2.7,9.3,5.3
	C37.1,23.4,37.3,24.8,36.6,26z"/>
<circle class="st0" cx="15.5" cy="22.5" r="0.5"/>
<circle class="st0" cx="17.5" cy="24.5" r="0.5"/>
<circle class="st0" cx="18.5" cy="22.5" r="0.5"/>
<circle class="st0" cx="17.5" cy="20.5" r="0.5"/>
<circle class="st0" cx="19.5" cy="17.5" r="0.5"/>
<circle class="st0" cx="16.5" cy="18.5" r="0.5"/>
<circle class="st0" cx="21.5" cy="19.5" r="0.5"/>
<circle class="st0" cx="24.5" cy="22.5" r="0.5"/>
<circle class="st0" cx="23.5" cy="15.5" r="0.5"/>
<circle class="st0" cx="25.5" cy="20.5" r="0.5"/>
<circle class="st0" cx="27.5" cy="21.5" r="0.5"/>
<circle class="st0" cx="29.5" cy="22.5" r="0.5"/>
<circle class="st0" cx="28.5" cy="24.5" r="0.5"/>
<circle class="st0" cx="25.5" cy="25.5" r="0.5"/>
<circle class="st0" cx="26.5" cy="28.5" r="0.5"/>
<circle class="st0" cx="28.5" cy="29.5" r="0.5"/>
<circle class="st0" cx="29.5" cy="27.5" r="0.5"/>
<circle class="st0" cx="32.5" cy="27.5" r="0.5"/>
<circle class="st0" cx="32.5" cy="24.5" r="0.5"/>
<circle class="st0" cx="34.5" cy="25.5" r="0.5"/>
<circle class="st0" cx="24.5" cy="27.5" r="0.5"/>
</svg>
