<?xml version="1.0" encoding="utf-8"?>
<!-- Generator: Adobe Illustrator 23.0.1, SVG Export Plug-In . SVG Version: 6.00 Build 0)  -->
<svg version="1.1" id="Слой_1" xmlns="http://www.w3.org/2000/svg" xmlns:xlink="http://www.w3.org/1999/xlink" x="0px" y="0px"
	 viewBox="0 0 800 100" style="enable-background:new 0 0 800 100;" xml:space="preserve">
<style type="text/css">
	.st0{fill:#CC9933;}
	.st1{fill:none;}
	.st2{fill:none;stroke:#CC9933;stroke-width:2;stroke-linecap:round;stroke-linejoin:round;stroke-miterlimit:10;}
</style>
<path class="st0" d="M457.67,36.54c-5.42-4.97-15.61-10.54-33.55-9.29c-5.31-4.57-12.97-8.29-23.78-7.97
	c-5.54,0.16-17.05,2.61-23.63,10.49c-2.92-0.82-6.04-1.07-9.31-0.74c-0.02,0-0.05,0-0.07,0.01c-10.33,1.29-24.64,11.38-24.64,26.98
	c0,9.1,3.9,14.84,12.64,18.63c9.6,4.16,25.89,6.09,51.26,6.09c23.74,0,39.72-2.32,48.84-7.1c9.82-5.14,11.08-12.59,11.08-18.5
	C466.52,48.57,463.21,41.62,457.67,36.54z M406.6,74.53c-53.28,0-57.69-8.76-57.69-18.51c0-11.84,11.32-19.81,19.17-20.81
	c16.46-1.64,21.84,16.6,22.06,17.38c0.46,1.65,2.17,2.61,3.82,2.15c1.65-0.46,2.62-2.17,2.15-3.82c-0.07-0.24-1.72-6.03-5.96-11.6
	c-2.2-2.88-4.69-5.18-7.42-6.88c5.02-4.77,13.16-6.81,17.79-6.94c10.32-0.3,18.48,3.61,24.24,11.64c4.44,6.18,5.78,12.62,5.8,12.7
	c0.29,1.48,1.59,2.5,3.04,2.5c0.2,0,0.4-0.02,0.61-0.06c1.68-0.33,2.77-1.97,2.44-3.65c-0.06-0.31-1.56-7.68-6.72-14.94
	c-0.09-0.13-0.19-0.26-0.29-0.39c12.55,0.11,19.82,4.16,23.82,7.83c5.04,4.62,6.84,10.27,6.84,14.02
	C460.31,62.39,460.31,74.53,406.6,74.53z"/>
<line class="st1" x1="94" y1="39.6" x2="294.8" y2="40.4"/>
<line class="st2" x1="31.6" y1="72.13" x2="318.8" y2="72.13"/>
<line class="st2" x1="64.56" y1="49.81" x2="297.2" y2="50.2"/>
<line class="st2" x1="510.48" y1="49.8" x2="743.12" y2="50.2"/>
<line class="st2" x1="490.42" y1="72.13" x2="777.62" y2="72.13"/>
</svg>
