<?xml version="1.0" encoding="utf-8"?>
<!-- Generator: Adobe Illustrator 23.0.1, SVG Export Plug-In . SVG Version: 6.00 Build 0)  -->
<svg version="1.1" id="Слой_1" xmlns="http://www.w3.org/2000/svg" xmlns:xlink="http://www.w3.org/1999/xlink" x="0px" y="0px"
	 viewBox="0 0 45 45" style="enable-background:new 0 0 45 45;" xml:space="preserve">
<style type="text/css">
	.st0{fill:#CC9933;}
</style>
<g>
	<g>
		<path class="st0" d="M6.7,10.8c0.1-1.5,0.7-2.7,1.4-2.9l0.1-2.4c0-0.2,0.1-0.3,0.3-0.3s0.3,0.1,0.3,0.3L8.7,7.9
			C9.4,8.2,9.9,9.5,9.8,11c-0.1,1.7-0.8,3-1.7,3C7.2,13.9,6.6,12.5,6.7,10.8z"/>
		<path class="st0" d="M1.9,11.4l1.6,1.8c0.7-0.3,1.9,0.3,2.9,1.4c1.1,1.3,1.5,2.7,0.9,3.3s-2.1,0-3.2-1.2c-1-1.1-1.4-2.4-1.1-3.1
			l-1.6-1.8c-0.1-0.1-0.1-0.3,0-0.4C1.6,11.3,1.8,11.3,1.9,11.4z"/>
		<path class="st0" d="M1.7,15.9l1.6,1.8C4,17.4,5.2,18,6.2,19.1c1.1,1.3,1.5,2.7,0.9,3.3c-0.6,0.6-2,0-3.2-1.2
			c-1-1.1-1.4-2.4-1.1-3.1l-1.6-1.8c-0.1-0.1-0.1-0.3,0-0.4S1.6,15.8,1.7,15.9z"/>
		<path class="st0" d="M1.5,20.4l1.6,1.8C3.8,21.9,5,22.5,6,23.6c1.1,1.3,1.5,2.7,0.9,3.3c-0.6,0.6-2,0-3.2-1.2
			c-1-1.1-1.4-2.4-1.1-3.1L1,20.8c-0.1-0.1-0.1-0.3,0-0.4C1.2,20.2,1.4,20.2,1.5,20.4z"/>
		<path class="st0" d="M1.2,24.8l1.6,1.8c0.7-0.3,1.9,0.3,2.9,1.4c1.1,1.3,1.5,2.7,0.9,3.3c-0.6,0.6-2,0-3.2-1.2
			C2.4,29,2,27.7,2.3,27l-1.6-1.8c-0.1-0.1-0.1-0.3,0-0.4C0.9,24.7,1.1,24.7,1.2,24.8z"/>
		<path class="st0" d="M8.4,17.9c-0.6-0.6,0-2,1.2-3.2c1.1-1,2.4-1.4,3.1-1.1l1.8-1.6c0.1-0.1,0.3-0.1,0.4,0s0.1,0.3,0,0.4L13.1,14
			c0.3,0.7-0.3,1.9-1.4,2.9C10.4,18.1,8.9,18.5,8.4,17.9z"/>
		<path class="st0" d="M8.1,22.4c-0.6-0.6,0-2,1.2-3.2c1.1-1,2.4-1.4,3.1-1.1l1.8-1.6c0.1-0.1,0.3-0.1,0.4,0s0.1,0.3,0,0.4l-1.8,1.6
			c0.3,0.7-0.3,1.9-1.4,2.9C10.2,22.6,8.7,23,8.1,22.4z"/>
		<path class="st0" d="M7.9,26.9c-0.6-0.6,0-2,1.2-3.2c1.1-1,2.4-1.4,3.1-1.1l1.7-1.6c0.1-0.1,0.3-0.1,0.4,0s0.1,0.3,0,0.4L12.5,23
			c0.3,0.7-0.3,1.9-1.4,2.9C9.9,27.1,8.5,27.5,7.9,26.9z"/>
		<path class="st0" d="M12,27.1l1.8-1.6c0.1-0.1,0.3-0.1,0.4,0s0.1,0.3,0,0.4l-1.8,1.6c0.3,0.7-0.3,1.9-1.4,2.9
			c-1.3,1.1-2.7,1.5-3.3,0.9s0-2,1.2-3.2C10,27.2,11.3,26.7,12,27.1z"/>
		<path class="st0" d="M7.9,32.9l-0.4,7.3c0,0.5-0.4,0.8-0.9,0.8c-0.2,0-0.4-0.1-0.6-0.3c-0.1-0.2-0.2-0.4-0.2-0.6l0.4-7.3
			c0-0.5,0.4-0.8,0.9-0.8C7.6,32.1,7.9,32.5,7.9,32.9z"/>
	</g>
</g>
<g>
	<g>
		<path class="st0" d="M33.5,7c0.7-1.8,1.9-3.1,2.9-3.1l1-2.9c0.1-0.2,0.3-0.3,0.5-0.2c0.2,0.1,0.3,0.3,0.2,0.5l-1,2.9
			c0.7,0.6,0.8,2.3,0.2,4.1c-0.7,2-2.2,3.4-3.2,3C33,11,32.8,9,33.5,7z"/>
		<path class="st0" d="M27.4,5.9l1.3,2.8c1-0.1,2.3,1.1,3.1,2.8c0.9,2,0.9,3.9-0.1,4.4c-1,0.5-2.5-0.7-3.5-2.7
			C27.4,11.5,27.3,9.7,28,9l-1.3-2.8c-0.1-0.2,0-0.4,0.2-0.5C27.1,5.7,27.4,5.7,27.4,5.9z"/>
		<path class="st0" d="M25.5,11.4l1.3,2.8c1-0.1,2.3,1.1,3.1,2.8c0.9,2,0.9,3.9-0.1,4.4s-2.5-0.8-3.4-2.7c-0.8-1.7-0.9-3.5-0.2-4.2
			l-1.3-2.8c-0.1-0.2,0-0.4,0.2-0.5C25.2,11.1,25.4,11.2,25.5,11.4z"/>
		<path class="st0" d="M23.5,16.8l1.3,2.8c1-0.1,2.3,1.1,3.1,2.8c0.9,2,0.9,3.9-0.1,4.4s-2.5-0.8-3.4-2.7c-0.8-1.7-0.9-3.5-0.2-4.2
			l-1.3-2.8c-0.1-0.2,0-0.4,0.2-0.5C23.2,16.5,23.5,16.6,23.5,16.8z"/>
		<path class="st0" d="M21.6,22.2l1.3,2.8c1-0.1,2.3,1.1,3.1,2.8c0.9,2,0.9,3.9-0.1,4.4c-1,0.5-2.5-0.8-3.5-2.7
			c-0.8-1.7-0.9-3.5-0.2-4.2l-1.3-2.8c-0.1-0.2,0-0.4,0.2-0.5C21.3,21.9,21.5,22,21.6,22.2z"/>
		<path class="st0" d="M33,16.3c-0.5-1,0.8-2.5,2.7-3.5c1.7-0.7,3.5-0.8,4.2-0.1l2.8-1.3c0.2-0.1,0.4,0,0.5,0.2
			c0.1,0.2,0,0.4-0.2,0.5l-2.8,1.3c0.1,1-1.1,2.3-2.8,3.1C35.4,17.4,33.4,17.3,33,16.3z"/>
		<path class="st0" d="M31,21.8c-0.5-1,0.8-2.5,2.7-3.5c1.7-0.8,3.5-0.9,4.2-0.2l2.8-1.3c0.2-0.1,0.4,0,0.5,0.2
			c0.1,0.2,0,0.4-0.2,0.5l-2.8,1.3c0.1,1-1.1,2.3-2.8,3.1C33.4,22.8,31.5,22.7,31,21.8z"/>
		<path class="st0" d="M29.1,27.2c-0.5-1,0.8-2.5,2.7-3.4c1.7-0.8,3.5-0.9,4.2-0.2l2.8-1.3c0.2-0.1,0.4,0,0.5,0.2
			c0.1,0.2,0,0.4-0.2,0.5l-2.8,1.3c0.1,1-1.1,2.3-2.8,3.1C31.5,28.2,29.5,28.2,29.1,27.2z"/>
		<path class="st0" d="M34,29l2.8-1.3c0.2-0.1,0.4,0,0.5,0.2s0,0.4-0.2,0.5l-2.8,1.3c0.1,1-1.1,2.3-2.8,3.1c-2,0.9-3.9,0.9-4.4-0.1
			s0.8-2.5,2.7-3.4C31.5,28.3,33.3,28.3,34,29z"/>
		<path class="st0" d="M26.8,34.7l-3.2,8.8c-0.2,0.6-0.8,0.9-1.4,0.7c-0.3-0.1-0.5-0.3-0.6-0.6c-0.1-0.2-0.1-0.5,0-0.8l3.2-8.8
			c0.2-0.6,0.8-0.9,1.4-0.7C26.7,33.5,27,34.1,26.8,34.7z"/>
	</g>
</g>
</svg>
