<?xml version="1.0" encoding="utf-8"?>
<!-- Generator: Adobe Illustrator 23.0.1, SVG Export Plug-In . SVG Version: 6.00 Build 0)  -->
<svg version="1.1" id="Слой_1" xmlns="http://www.w3.org/2000/svg" xmlns:xlink="http://www.w3.org/1999/xlink" x="0px" y="0px"
	 viewBox="0 0 45 45" style="enable-background:new 0 0 45 45;" xml:space="preserve">
<style type="text/css">
	.st0{fill:#CC9933;}
</style>
<g>
	<g>
		<path class="st0" d="M37.2,10.8c-0.1-1.5-0.7-2.7-1.4-2.9l-0.1-2.4c0-0.2-0.1-0.3-0.3-0.3c-0.2,0-0.3,0.1-0.3,0.3l0.1,2.4
			c-0.7,0.3-1.2,1.6-1.1,3.1c0.1,1.7,0.8,3,1.7,3C36.7,13.9,37.3,12.5,37.2,10.8z"/>
		<path class="st0" d="M42,11.4l-1.6,1.8c-0.7-0.3-1.9,0.3-2.9,1.4c-1.1,1.3-1.5,2.7-0.9,3.3c0.6,0.6,2.1,0,3.2-1.2
			c1-1.1,1.4-2.4,1.1-3.1l1.6-1.8c0.1-0.1,0.1-0.3,0-0.4C42.3,11.3,42.1,11.3,42,11.4z"/>
		<path class="st0" d="M42.2,15.9l-1.6,1.8c-0.7-0.3-1.9,0.3-2.9,1.4c-1.1,1.3-1.5,2.7-0.9,3.3c0.6,0.6,2,0,3.2-1.2
			c1-1.1,1.4-2.4,1.1-3.1l1.6-1.8c0.1-0.1,0.1-0.3,0-0.4S42.3,15.8,42.2,15.9z"/>
		<path class="st0" d="M42.4,20.4l-1.6,1.8c-0.7-0.3-1.9,0.3-2.9,1.4c-1.1,1.3-1.5,2.7-0.9,3.3c0.6,0.6,2,0,3.2-1.2
			c1-1.1,1.4-2.4,1.1-3.1l1.6-1.8c0.1-0.1,0.1-0.3,0-0.4C42.7,20.2,42.5,20.2,42.4,20.4z"/>
		<path class="st0" d="M42.7,24.8l-1.6,1.8c-0.7-0.3-1.9,0.3-2.9,1.4c-1.1,1.3-1.5,2.7-0.9,3.3c0.6,0.6,2,0,3.2-1.2
			c1-1.1,1.4-2.4,1.1-3.1l1.6-1.8c0.1-0.1,0.1-0.3,0-0.4C43,24.7,42.8,24.7,42.7,24.8z"/>
		<path class="st0" d="M35.5,17.9c0.6-0.6,0-2-1.2-3.2c-1.1-1-2.4-1.4-3.1-1.1l-1.8-1.6c-0.1-0.1-0.3-0.1-0.4,0
			c-0.1,0.1-0.1,0.3,0,0.4l1.8,1.6c-0.3,0.7,0.3,1.9,1.4,2.9C33.5,18.1,35,18.5,35.5,17.9z"/>
		<path class="st0" d="M35.8,22.4c0.6-0.6,0-2-1.2-3.2c-1.1-1-2.4-1.4-3.1-1.1l-1.8-1.6c-0.1-0.1-0.3-0.1-0.4,0
			c-0.1,0.1-0.1,0.3,0,0.4l1.8,1.6c-0.3,0.7,0.3,1.9,1.4,2.9C33.7,22.6,35.2,23,35.8,22.4z"/>
		<path class="st0" d="M36,26.9c0.6-0.6,0-2-1.2-3.2c-1.1-1-2.4-1.4-3.1-1.1L30,21c-0.1-0.1-0.3-0.1-0.4,0c-0.1,0.1-0.1,0.3,0,0.4
			l1.8,1.6c-0.3,0.7,0.3,1.9,1.4,2.9C34,27.1,35.4,27.5,36,26.9z"/>
		<path class="st0" d="M31.9,27.1l-1.8-1.6c-0.1-0.1-0.3-0.1-0.4,0s-0.1,0.3,0,0.4l1.8,1.6c-0.3,0.7,0.3,1.9,1.4,2.9
			c1.3,1.1,2.7,1.5,3.3,0.9c0.6-0.6,0-2-1.2-3.2C33.9,27.2,32.6,26.7,31.9,27.1z"/>
		<path class="st0" d="M36,32.9l0.4,7.3c0,0.5,0.4,0.8,0.9,0.8c0.2,0,0.4-0.1,0.6-0.3c0.1-0.2,0.2-0.4,0.2-0.6l-0.4-7.3
			c0-0.5-0.4-0.8-0.9-0.8C36.3,32.1,36,32.5,36,32.9z"/>
	</g>
</g>
<g>
	<g>
		<path class="st0" d="M10.4,7C9.7,5.2,8.5,3.9,7.5,3.9L6.5,1C6.4,0.8,6.2,0.7,6,0.8S5.7,1.1,5.8,1.3l1,2.9C6.1,4.8,6,6.5,6.6,8.3
			c0.7,2,2.2,3.4,3.2,3C10.9,11,11.1,9,10.4,7z"/>
		<path class="st0" d="M16.5,5.9l-1.3,2.8c-1-0.1-2.3,1.1-3.1,2.8c-0.9,2-0.9,3.9,0.1,4.4c1,0.5,2.5-0.7,3.5-2.7
			c0.8-1.7,0.9-3.5,0.2-4.2l1.3-2.8c0.1-0.2,0-0.4-0.2-0.5C16.8,5.7,16.5,5.7,16.5,5.9z"/>
		<path class="st0" d="M18.4,11.4l-1.3,2.8c-1-0.1-2.3,1.1-3.1,2.8c-0.9,2-0.9,3.9,0.1,4.4c1,0.5,2.5-0.8,3.4-2.7
			c0.8-1.7,0.9-3.5,0.2-4.2l1.3-2.8c0.1-0.2,0-0.4-0.2-0.5C18.7,11.1,18.5,11.2,18.4,11.4z"/>
		<path class="st0" d="M20.4,16.8l-1.3,2.8c-1-0.1-2.3,1.1-3.1,2.8c-0.9,2-0.9,3.9,0.1,4.4c1,0.5,2.5-0.8,3.4-2.7
			c0.8-1.7,0.9-3.5,0.2-4.2l1.3-2.8c0.1-0.2,0-0.4-0.2-0.5C20.7,16.5,20.4,16.6,20.4,16.8z"/>
		<path class="st0" d="M22.3,22.2L21,25c-1-0.1-2.3,1.1-3.1,2.8c-0.9,2-0.9,3.9,0.1,4.4c1,0.5,2.5-0.8,3.5-2.7
			c0.8-1.7,0.9-3.5,0.2-4.2l1.3-2.8c0.1-0.2,0-0.4-0.2-0.5C22.6,21.9,22.4,22,22.3,22.2z"/>
		<path class="st0" d="M10.9,16.3c0.5-1-0.8-2.5-2.7-3.5C6.5,12.1,4.7,12,4,12.7l-2.8-1.3c-0.2-0.1-0.4,0-0.5,0.2
			c-0.1,0.2,0,0.4,0.2,0.5l2.8,1.3c-0.1,1,1.1,2.3,2.8,3.1C8.5,17.4,10.5,17.3,10.9,16.3z"/>
		<path class="st0" d="M12.9,21.8c0.5-1-0.8-2.5-2.7-3.5c-1.7-0.8-3.5-0.9-4.2-0.2l-2.8-1.3c-0.2-0.1-0.4,0-0.5,0.2
			c-0.1,0.2,0,0.4,0.2,0.5l2.8,1.3c-0.1,1,1.1,2.3,2.8,3.1C10.5,22.8,12.4,22.7,12.9,21.8z"/>
		<path class="st0" d="M14.8,27.2c0.5-1-0.8-2.5-2.7-3.4c-1.7-0.8-3.5-0.9-4.2-0.2l-2.8-1.3c-0.2-0.1-0.4,0-0.5,0.2
			c-0.1,0.2,0,0.4,0.2,0.5l2.8,1.3c-0.1,1,1.1,2.3,2.8,3.1C12.4,28.2,14.4,28.2,14.8,27.2z"/>
		<path class="st0" d="M9.9,29l-2.8-1.3c-0.2-0.1-0.4,0-0.5,0.2c-0.1,0.2,0,0.4,0.2,0.5l2.8,1.3c-0.1,1,1.1,2.3,2.8,3.1
			c2,0.9,3.9,0.9,4.4-0.1c0.5-1-0.8-2.5-2.7-3.4C12.4,28.3,10.6,28.3,9.9,29z"/>
		<path class="st0" d="M17.1,34.7l3.2,8.8c0.2,0.6,0.8,0.9,1.4,0.7c0.3-0.1,0.5-0.3,0.6-0.6c0.1-0.2,0.1-0.5,0-0.8l-3.2-8.8
			c-0.2-0.6-0.8-0.9-1.4-0.7C17.2,33.5,16.9,34.1,17.1,34.7z"/>
	</g>
</g>
</svg>
