<?xml version="1.0" encoding="utf-8"?>
<!-- Generator: Adobe Illustrator 23.0.1, SVG Export Plug-In . SVG Version: 6.00 Build 0)  -->
<svg version="1.1" id="Слой_1" xmlns="http://www.w3.org/2000/svg" xmlns:xlink="http://www.w3.org/1999/xlink" x="0px" y="0px"
	 viewBox="0 0 130 130" style="enable-background:new 0 0 130 130;" xml:space="preserve">
<style type="text/css">
	.st0{fill:none;stroke:#CC9933;stroke-width:2;stroke-linecap:round;stroke-linejoin:round;stroke-miterlimit:10;}
	.st1{fill:#CC9933;stroke:#CC9933;stroke-width:2;stroke-miterlimit:10;}
	.st2{fill:#FFFFFF;}
</style>
<circle class="st0" cx="65.1" cy="65" r="63.6"/>
<path class="st1" d="M95.3,71.2c2.9-2,4.1-4.6,4.4-7.6c16.3,12.3,14.1,26.8-8.8,27.6l-2,2.2h21.3v3.7l0,0l-89,0.1v0.1l-0.1-4.1v0.1
	h19.2l1.8-2.1C13,90.9,17.1,72.7,35.7,61c3.9,1,7,2.9,9.4,5.7c0.8-0.5,1.5-1.2,1.8-2.1c-0.2-2.5-1.1-5.1-2.9-7.7
	c5.5-1.9,11.5-3.1,18.1-3.6c2.6,1.5,4.9,4.1,7,7.5l3-2.8l0-4.4C86.4,54.6,97.1,59.4,95.3,71.2z"/>
<path class="st2" d="M35.5,83.5c-0.5,0.8-1.6,2-2.6,2.4c-1.3,0.6-3-1.1-2.6-2.4c0.4-1.2,1.5-2.3,2.6-2.4
	C34.3,80.9,36.2,82.3,35.5,83.5z"/>
<path class="st2" d="M40,77.1c-0.4,0.1-2.3,1.9-2.3,2.2s0.8,1.3,1.1,1.1c0.2-0.2,2.2-1.9,2.3-2.2S40.4,77,40,77.1z"/>
<path class="st1" d="M64.8,29.9c-6.7,5.9-8.2,11.8-4.9,17.9c-7.3-7.4-8.6-14.2-1.1-20.3c0.9-4.2-0.2-8.2-2.5-12.3
	C62.1,19.9,65.7,24.7,64.8,29.9z"/>
<path class="st1" d="M79.9,30.7c-6.7,5.9-8.2,11.8-4.9,17.9c-7.3-7.4-8.6-14.2-1.1-20.3c0.9-4.2-0.2-8.2-2.5-12.3
	C77.2,20.6,80.8,25.5,79.9,30.7z"/>
</svg>
