<?xml version="1.0" encoding="utf-8"?>
<!-- Generator: Adobe Illustrator 23.0.1, SVG Export Plug-In . SVG Version: 6.00 Build 0)  -->
<svg version="1.1" id="Слой_1" xmlns="http://www.w3.org/2000/svg" xmlns:xlink="http://www.w3.org/1999/xlink" x="0px" y="0px"
	 viewBox="0 0 130 130" style="enable-background:new 0 0 130 130;" xml:space="preserve">
<style type="text/css">
	.st0{fill:none;stroke:#CC9933;stroke-width:2;stroke-linecap:round;stroke-linejoin:round;stroke-miterlimit:10;}
	.st1{fill:#CC9933;}
</style>
<circle class="st0" cx="65.1" cy="65" r="63.6"/>
<g transform="translate(0.000000,981.000000) scale(0.100000,-0.100000)">
	<path class="st1" d="M576,9621.1c12.1-21,36.9-71.1,52.2-105.2l9.3-20.8l-0.3-11.5c-0.2-13.3,1-18.9,6.2-29.5
		c2.7-5.5,5.6-9,13-16.4c5.4-5.2,10-9.1,10.5-8.6c1.6,1.6,4.7,16.3,4.7,22.3c0,16.5-9.1,32.4-24.2,42.2l-5.9,3.8l-9.2,20
		c-9.8,21-22.5,46.2-33.9,66.5c-9.1,16.3-23.9,41.3-24.5,41.3C573.8,9625.1,574.7,9623.3,576,9621.1z"/>
	<path class="st1" d="M658.4,9594.1c-0.1-0.4,4.6-17.3,10.5-37.4c5.8-20.2,12.5-44.6,14.8-54.4c5.1-20.7,9.3-44.2,8.3-45.6
		c-1.8-2.3-7.5-14.8-8.7-19.2c-0.9-3.1-1.3-9.7-1.3-18.7c0-11.5,0.4-15.3,2.2-21.6c2.2-7.7,9.2-22.7,12.7-27.3l1.8-2.4l2,4.8
		c10.4,24.2,10.1,51.2-1,79.6c-1.7,4.2-3.8,12.3-4.9,17.8c-4,22.5-11.1,48.4-26.3,94.9C658.5,9595.2,658.5,9595.2,658.4,9594.1z"/>
	<path class="st1" d="M563.8,9530.6c5.1-7.4,17-25.7,26.5-40.8c9.5-15.1,22.1-34.2,27.7-42.4c5.8-8.3,11.3-17.4,12.5-20.2
		c10.6-26.8,27.6-46.5,52.1-60.3c4.8-2.8,5.6-3,5.1-1.3c-0.3,1-0.9,4.2-1.2,7.1c-3.6,27.6-25.3,54.4-49.4,60.5
		c-4.9,1.2-5.2,1.5-12.9,12.4c-4.4,6-16.3,23.3-26.5,38.4c-18.7,27.5-35.2,50.8-40.4,56.7C555.9,9542.6,558.8,9538,563.8,9530.6z"/>
	<path class="st1" d="M702.5,9530.5c-0.1-0.6,3.6-18.4,8.1-39.6c10.9-51.8,14.4-72.3,16.7-97.4l0.9-9.5l-3.2-4.4
		c-16.4-23.1-17-56.6-1.5-87.1l3.7-7.5l4.5,9.3c7,14.9,9.4,25.2,9.5,42.5c0.1,16.1-1,23.6-5.7,39.3c-1.8,6.2-3.6,15.1-4.2,21.6
		c-1.5,14.5-5.2,36.3-9.3,54.7C718.1,9470.1,702.6,9532,702.5,9530.5z"/>
	<path class="st1" d="M306.7,9495.1c4.2-4.7,17.7-19.7,29.7-33.1c36.1-40,53.1-60.5,70.8-85.2l6.6-9.2l-0.2-11.1
		c-0.3-13.2,1.4-21.6,6.5-33.7c8.2-18.9,22.5-35.6,41.8-48.4l7.7-5.1l0.3,3.5c0.6,5.5-1.7,20.9-4.3,29.8
		c-5.9,20.5-16.9,37.9-36.2,57.2c-7.6,7.6-16.9,18-21.1,23.9c-15.9,21.8-32.6,40.7-73.6,83.5
		C305.5,9497.9,294.6,9508.7,306.7,9495.1z"/>
	<path class="st1" d="M185.2,9495.2c0-0.2,4.4-3.6,9.9-7.4c38.9-27.7,88-66.2,125.4-98.2c11.9-10.3,12-10.4,14.7-17.7
		c5.6-15.4,15.8-28.4,29.3-37c8.5-5.6,13.9-7.8,26.3-11.1l10.5-2.8l-0.7,5c-2,15.8-7.1,27.3-16.5,37.3
		c-10.7,11.3-23.5,17.8-40.5,20.6l-9.6,1.5l-7.9,6.7c-25.3,21.5-62.9,50.3-93.8,71.9C213,9477.4,185.2,9495.8,185.2,9495.2z"/>
	<path class="st1" d="M580.9,9463.7c5.5-8.1,16-24.6,23.6-36.8c18.2-29.5,28.7-45.9,37.4-58.5c4-5.8,8.3-13.1,9.6-16.3
		c7.2-18.2,17.8-35.3,28.8-46.5c7.9-8,13.7-12.6,25.2-19.5l7.4-4.5v2.8c0,5.7-3.1,19.8-5.8,26.9c-6.1,16-20.6,33.5-33.8,40.7
		c-3.4,1.9-9.1,4.3-13,5.5l-6.8,2l-9.6,13.6c-5.3,7.5-19.3,28.3-31.1,46.2c-18.9,28.5-40.4,59-41.6,59
		C571.1,9478.3,575.5,9471.7,580.9,9463.7z"/>
	<path class="st1" d="M741.8,9466.6c-0.1-1,1.4-11.5,3.2-23.5c9.6-63.2,12.5-88.2,13.6-117.6l0.7-16.9l-3.2-3.6
		c-7.6-8.7-13-19.8-15.9-32.8c-2.2-9.7-2.3-31.4-0.1-41.1c1.7-7.6,6-20,9-25.7l1.9-3.7l4.4,8.1c10.5,19.3,13.9,30.9,14.8,50.4
		c0.7,14.2-0.6,26.2-4.1,40.8c-1.2,5.4-2.3,12.6-2.3,16.1c0,17.1-3.5,48.4-8.7,79.7C750.5,9424.2,741.9,9468.9,741.8,9466.6z"/>
	<path class="st1" d="M385.1,9453.6c19-23.9,64.5-82.8,73.1-94.8c11.5-15.8,24.1-34.7,31.8-47.8c4.8-8.1,4.9-8.5,3.9-12.5
		c-0.5-2.2-1-9.4-1.1-16c-0.1-14.6,2-23.5,8.9-38c8.8-18.5,20.2-32.5,36.6-45.2l9.1-7l0.3,11.3c0.5,18.3-3.2,35.1-11.2,52.5
		c-7.1,15-14.4,25.5-29.8,42.9c-5.3,5.9-13,16.2-18.2,24.5c-10.9,17.1-23.4,34.3-38.3,53.1c-12.3,15.5-69.1,83.5-69.8,83.5
		C380.1,9460,382.2,9457.2,385.1,9453.6z"/>
	<path class="st1" d="M597.2,9396c7.6-11.5,21.7-34.1,31.3-50.2c9.6-16.1,22.5-37,28.9-46.5c8-12.2,12.3-19.9,14.6-26
		c6.8-17.8,15.4-32.4,26.8-45.6c7.9-9.2,18-17.3,33.8-26.8l3.6-2.2l-0.7,7.1c-1.9,21.1-9.6,39.2-23.3,55.4c-8.1,9.4-21,17.7-32.8,21
		l-5.9,1.6l-8,11.6c-4.5,6.4-17.5,26.4-28.9,44.2c-11.4,17.8-24.5,37.9-29,44.5c-9,13.2-23.1,32.6-23.8,32.6
		C583.6,9416.9,589.7,9407.5,597.2,9396z"/>
	<path class="st1" d="M776.4,9413c0-0.8,1.6-20.6,3.7-44.1c5.9-66.7,6.1-70.5,6.1-104.2l0.1-31.7l-5.4-6.2
		c-14.4-16.4-20.5-32.7-21.7-57.1c-0.8-17.3,2-34,8.2-48.3l1.6-4l6,9c3.3,5,7.7,12.8,9.8,17.3c9.3,19.9,12.8,46.6,9,70.7
		c-0.9,5.6-1.7,22.3-2.3,43.2c-0.9,36-1.2,41.8-5.9,83C782.7,9367.7,776.6,9415.5,776.4,9413z"/>
	<path class="st1" d="M461.3,9407.8c1.1-1.5,12.3-17.9,24.9-36.5c45.7-66.7,59.4-88.2,76.6-120.3l8.4-15.7l-1.7-6.8
		c-2.5-10.1-3-28.2-1-38.1c4.3-21.4,15.6-43.8,30.3-59.8c7.9-8.5,20.2-19.1,21.2-18c0.4,0.4,1.1,7,1.3,14.6
		c1.6,36.2-10.1,68.2-37.1,101.8c-5,6.1-10.8,15-15.2,22.9c-18.9,34.6-34.2,57.5-82.4,122.8C465.2,9403.7,455.2,9416.8,461.3,9407.8
		z"/>
	<path class="st1" d="M215.9,9389.3c14.4-8,36-20.9,65.2-39.1c33-20.4,52.1-32,64.8-38.9c4.2-2.3,10.9-7,14.9-10.6
		c29.1-25.4,56.3-37.6,89.6-39.9l9.5-0.7l-5.2,7.6c-10.5,15.2-27.3,29.6-43.6,36.8c-15,6.8-33.3,9.3-47.7,6.7l-5.4-1.1l-10.9,5.9
		c-14.4,7.9-33.7,19-55.5,31.9c-21.9,13-50,28.8-67.3,37.9C210.8,9393.2,205.1,9395.5,215.9,9389.3z"/>
	<path class="st1" d="M531.8,9362.2c0.8-1.3,13.2-22.1,27.8-46.1c48.6-80.2,63.7-108,80-146.1l3.3-7.6l-2.4-7.8
		c-3.6-12.4-4.6-20-4-32.7c1.1-25.1,12.3-53.4,29.7-74.9c6.6-8.2,19.6-21.3,20.2-20.5c0.2,0.2,1.1,5.2,1.9,11.1
		c1.9,13.5,2,34,0.1,44.9c-0.9,4.6-1.3,8.5-1.2,8.7c0.2,0.2,4-6.3,8.5-14.5l8.2-14.9l-0.9-5c-1.2-6.6-0.4-32.5,1.2-38.7l1.3-4.8
		l17.3,0.4c22.4,0.4,41.5,1.4,42.3,2.3c1,1-6.1,10.7-13,17.8c-4.6,4.8-6.9,8.2-9.2,13.7l-3.2,7.4l6.4-5.6
		c7.3-6.2,22.6-17.4,24.1-17.4c0.8,0,4.8-11.8,4.8-14.3c0-0.6,1.7-1.1,4.3-1.1c3,0,4.1,0.4,3.8,1.2c-0.2,0.6-2.1,6.5-4.2,13.1
		c-5.9,18.5-16,47.3-17.9,51c-3.2,6.1-18.5,40.7-18.1,41c0.2,0.2,3-1.4,6.2-3.6c3.3-2.2,6-3.8,6.2-3.6c0.9,0.9-1.6,22.2-3.4,28.5
		c-7.1,25.9-25,48.8-45.3,58.1l-5.3,2.4l-11.3,22.2c-6.1,12.1-11.4,21.9-11.6,21.7c-0.2-0.2,3.9-9.6,9.2-20.8
		c5.3-11.2,9.5-20.6,9.3-20.8c-0.2-0.2-1.7,0-3.4,0.3c-2.7,0.6-4.3,2.6-13.5,16.7c-5.8,8.8-18.1,28.5-27.4,43.8
		c-9.4,15.3-21.6,34.6-27.2,43.1c-10.9,16.7-27.8,40.8-28.6,40.8c-0.2,0,2.1-3.7,5.2-8.3c10.2-15.2,22.7-35.8,39.1-64.1
		c19.2-33.2,25-43,35.6-59.6c5.9-9.3,9.1-15.5,12.3-24.3c9-24.6,24.9-49.2,39-60.5c3.1-2.4,5-5.3,7.7-11c5.3-11.6,5.3-11.6-1.7-6.2
		c-6.9,5.4-19.3,11.8-25.8,13.4c-3.5,1-4.4,1.8-7.6,6.9c-1.9,3.2-7.6,13.8-12.4,23.6c-10.2,20.4-25.1,48.1-44.1,81.2
		c-27.6,48.2-42.4,72.8-36.5,60.9c1-1.8,10.3-19.3,20.6-38.9c21.9-41.1,22.3-41.7,21.7-41.7c-0.2,0-2.9,4.2-5.9,9.4
		c-10,16.6-34.7,53.9-38.2,57.3c-1.2,1.1-0.8,0.6,9.9-16.3c11-17.3,22.1-36.3,39.3-67.6c8.6-15.5,19.6-35.2,24.5-43.7
		c10.6-18.2,22.4-45.1,30.1-68.8l2.2-6.5l-2.8-7.7c-1.4-4.2-3-7.7-3.4-7.7c-0.6,0-10.7,17.8-34.8,61.3c-8.3,15-19.5,34.5-24.9,43.7
		c-5.5,9-13.3,23.1-17.6,31.3c-15.4,29.8-27.2,49-68.5,112.3C536.4,9356.6,527.4,9369.9,531.8,9362.2z"/>
	<path class="st1" d="M810,9348.3c0-2.1,0.4-15.1,0.9-28.8c3.1-78.4,2.9-119.2-0.5-151.4l-1.4-14l-6.9-7
		c-12-12.2-18.7-24.7-23.5-43.7c-2.4-9.4-2.7-12-2.7-28.1c0-17.1,0.1-18.2,3.3-30.5l3.3-12.8l3,3.5c25,29.8,35,63.7,31,105
		c-1.2,11.7-1.2,16.1-0.1,27.8c2.7,30.5,1.5,80.6-3.5,152.1C810.6,9349.9,810.3,9354.5,810,9348.3z"/>
	<path class="st1" d="M261,9330.2c0-0.2,4.4-2.9,9.9-5.9c17.8-10.1,42-24.9,68.3-41.7c33.6-21.6,49.6-31.5,66.6-41.3
		c10.4-5.9,16.4-10.2,24-17c22.1-19.7,46.9-33.2,71.1-38.6c8.7-2,31.8-5,32.5-4.3c0.2,0.2-2.5,4.5-5.9,9.7
		c-13.7,20.5-34.2,36.4-56.6,43.9c-13.3,4.4-26.4,5.5-40,3.4l-6.6-1l-15.2,8.3c-8.3,4.6-33.3,19.2-55.5,32.5
		c-22.2,13.3-46.2,27.4-53.3,31.4C283.4,9319.1,261,9330.8,261,9330.2z"/>
	<path class="st1" d="M841.3,9263.8c-0.4-13.7-1.2-42.6-1.7-64.3c-1.3-52-3.2-76.1-8.3-108.9l-2.5-15.8l-8.8-8.3
		c-9.8-9.1-17.3-19.3-22.2-29.8c-3.6-7.8-6.8-17.7-6.1-18.4c0.5-0.4,29.3,2.6,37.4,3.8c4.1,0.7,4,0.6,5.8,17
		c0.6,6.2,0.9,15.7,0.5,22.4c-0.5,9.1-0.2,14.2,1.2,24c6.3,41.2,7.9,87.9,5.9,176.6l-0.6,26.9L841.3,9263.8z"/>
	<path class="st1" d="M317.6,9263.1c0-0.3,2.5-1.9,5.6-3.6c14.5-8.3,43.2-26.3,74.6-46.9c35.6-23.4,58.1-37.7,74.8-47.5
		c6.2-3.6,13.3-9,20.2-15.3c32.4-29.6,60.8-43.2,99.8-48c6.3-0.8,11.6-1.2,11.9-1.1c0.5,0.6-7.7,13.5-12.9,20.4
		c-5.8,7.7-17.9,19.1-26.5,24.9c-23.2,15.6-46.9,21.9-70.3,18.4l-7.2-1.1l-5.6,3.2c-15.7,8.8-41.7,24.5-73.2,44
		c-19.3,12-42.6,26.1-51.8,31.4C337.7,9253.1,317.6,9263.7,317.6,9263.1z"/>
	<path class="st1" d="M867.2,9245.2c-0.4-6.6-0.7-17.4-0.7-23.8c0-11.4,0.1-11.8,2.2-12.2c1.2-0.3,8-1.6,15.1-3
		c73.7-14.3,130.6-37.7,157.8-65.2c13.4-13.6,18.4-24.9,17.5-39.7c-0.4-7-1.1-9.2-4.5-16.3c-7.3-14.6-25-30.1-49-42.8
		c-56.6-29.9-149.2-49.9-256.3-55.4c-28.6-1.4-106.7-0.6-132.7,1.4c-127.4,10.1-226.3,39.1-266.4,78.3c-24.6,24-25.3,48.7-2.4,72.7
		c4.2,4.4,10.5,10,13.7,12.5c4.8,3.5,5.9,4.7,4.9,5.6c-0.7,0.7-9.1,6.1-18.8,12.3l-17.6,11.2l-7.5-6.3
		c-24.4-20.2-39.8-42.4-45.9-65.6c-2.2-8.7-2.3-10.3-1.9-28.4c1.5-60.9,21.2-132.8,55-201c12.7-25.4,24.9-42.5,47.9-66.1
		c58.1-60,139.8-99.3,235.1-113.3c28.7-4.2,44.7-5.2,82-5.2c36.6-0.1,47.9,0.6,76.8,4.3c49.6,6.4,99.7,21.4,141.3,42.2
		c60.9,30.6,113.5,78.3,141.1,128.3c24.4,43.9,47.5,109.2,56.6,159.5c6,33.3,7.6,65.8,3.6,79.8c-6.5,23.8-21.2,45-44.8,64.8
		c-40.3,33.8-104.8,61.9-181.4,79c-9.5,2.1-17.9,4-18.8,4.2C867.9,9257.3,867.6,9255.7,867.2,9245.2z"/>
	<path class="st1" d="M363.7,9200c0.8-0.6,10.1-6.2,20.6-12.7c18.3-11.1,38.4-24.4,97.4-64.3c14.5-9.8,34.2-22.6,43.7-28.6
		c13.1-8.2,19.2-12.6,25.4-18.7c28.7-27.9,56.4-44.4,87.7-52.3c10.4-2.6,33-6.3,33.8-5.6c0.7,0.7-9.3,17.4-14.7,24.5
		c-13.5,17.9-35.4,33.9-57.6,41.8c-14,5.1-31.2,6.7-45.3,4.5l-6-1.1l-6.9,4c-16.6,9.8-39.1,24-73,45.8
		c-39.5,25.5-54.3,34.6-80.1,49.3C373.8,9195.3,359.8,9202.7,363.7,9200z"/>
	<path class="st1" d="M409.7,9134.5c0.3-0.3,7-4.6,15-9.6c19.7-12.4,48.8-32,70.9-47.5c32.8-23.3,62.2-43.9,72.4-50.8
		c9.7-6.4,10.4-6.7,17.3-7.3l7.2-0.7l-8.6,5.5c-4.7,3.1-29.7,19.6-55.7,36.8c-48.6,32.4-57.6,38.3-76.3,49.6
		C431.6,9123,408.1,9136.3,409.7,9134.5z"/>
	<path class="st1" d="M449.1,9070.2c0.3-0.3,7.9-5.2,16.8-10.9c9-5.8,22-14.3,28.8-19.1c8.3-5.9,13.7-8.9,16.3-9.4l3.8-0.7l-6.2,4.2
		c-9,6.1-36.2,22.9-48,29.6C448.7,9070.8,448.4,9071,449.1,9070.2z"/>
</g>
</svg>
