<?xml version="1.0" encoding="utf-8"?>
<!-- Generator: Adobe Illustrator 23.0.1, SVG Export Plug-In . SVG Version: 6.00 Build 0)  -->
<svg version="1.1" id="Слой_1" xmlns="http://www.w3.org/2000/svg" xmlns:xlink="http://www.w3.org/1999/xlink" x="0px" y="0px"
	 viewBox="0 0 130 130" style="enable-background:new 0 0 130 130;" xml:space="preserve">
<style type="text/css">
	.st0{fill:none;stroke:#CC9933;stroke-width:2;stroke-linecap:round;stroke-linejoin:round;stroke-miterlimit:10;}
	.st1{fill:#CC9933;}
</style>
<circle class="st0" cx="65.1" cy="65" r="63.6"/>
<path class="st1" d="M103,32.5c-10.9-9.1-27.6-7.8-38,2.8c-10.4-10.6-27.2-12-38-2.8C12.8,44.4,14.9,63.8,25,74l33,33.6
	c1.9,1.9,4.4,3,7.1,3c2.7,0,5.2-1.1,7.1-3l33-33.6C115.1,63.8,117.2,44.4,103,32.5z M98.6,67.7l-33,33.6c-0.5,0.5-0.8,0.5-1.3,0
	l-33-33.6c-6.9-7-8.2-20.2,1.4-28.3c7.3-6.1,18.6-5.2,25.6,2l6.6,6.7l6.6-6.7c7.1-7.2,18.4-8.1,25.6-2
	C106.8,47.5,105.4,60.8,98.6,67.7L98.6,67.7z"/>
</svg>
