<?xml version="1.0" encoding="utf-8"?>
<!-- Generator: Adobe Illustrator 23.0.1, SVG Export Plug-In . SVG Version: 6.00 Build 0)  -->
<svg version="1.1" id="Слой_1" xmlns="http://www.w3.org/2000/svg" xmlns:xlink="http://www.w3.org/1999/xlink" x="0px" y="0px"
	 viewBox="0 0 1099 1062" style="enable-background:new 0 0 1099 1062;" xml:space="preserve">
	     <defs>  
        <linearGradient id="st0" x1="50%" y1="0%" x2="50%" y2="100%" > 
            
            <stop offset="0%" stop-color="#FFC31F">
                <animate attributeName="stop-color" values="#FFC31F; #FF8A12; #FFC31F" dur="3s" repeatCount="indefinite"></animate>
            </stop>

            <stop offset="100%" stop-color="#FF8A12">
                <animate attributeName="stop-color" values="#FF8A12; #FFC31F; #FF8A12" dur="3s" repeatCount="indefinite"></animate>
            </stop>

        </linearGradient> 



		<linearGradient id="st5" x1="50%" y1="0%" x2="50%" y2="100%" > 
            
            <stop offset="0%" stop-color="#EF7F1A">
                <animate attributeName="stop-color" values="#EF7F1A; #F8380F; #EF7F1A" dur="3s" repeatCount="indefinite"></animate>
            </stop>

            <stop offset="100%" stop-color="#F8380F">
                <animate attributeName="stop-color" values="#F8380F; #EF7F1A; #F8380F" dur="3s" repeatCount="indefinite"></animate>
            </stop>

        </linearGradient>


				<linearGradient id="st1" x1="50%" y1="0%" x2="50%" y2="100%" > 
            
            <stop offset="0%" stop-color="#F7AA47">
                <animate attributeName="stop-color" values="#F7AA47; #FC713C; #F7AA47" dur="3s" repeatCount="indefinite"></animate>
            </stop>

            <stop offset="100%" stop-color="#FC713C">
                <animate attributeName="stop-color" values="#FC713C; #F7AA47; #FC713C" dur="3s" repeatCount="indefinite"></animate>
            </stop>

        </linearGradient> 


				<linearGradient id="st3" x1="50%" y1="0%" x2="50%" y2="100%" > 
            
            <stop offset="0%" stop-color="#D19563">
                <animate attributeName="stop-color" values="#D19563; #DE725D; #D19563" dur="3s" repeatCount="indefinite"></animate>
            </stop>

            <stop offset="100%" stop-color="#DE725D">
                <animate attributeName="stop-color" values="#DE725D; #D19563; #DE725D" dur="3s" repeatCount="indefinite"></animate>
            </stop>

        </linearGradient> 

    </defs>
<style type="text/css">
	.st0{fill:url('#st0');}
	.st1{fill:url('#st1');}
	.st5{fill:url('#st5');}
	.st3{fill:url('#st3');}
	
	.st2{fill:#9A8879;}
	.st4{fill:#FFE099;}
	.st6{fill:#FFFFFF;}
	.st7{stroke:#FFFFFF;stroke-width:2;stroke-miterlimit:10;}
</style>
<g transform="translate(0.000000,1062.000000) scale(0.100000,-0.100000)">
	<g id="XMLID_1_">
		<g>
			<path class="st0" d="M10556,5506c283-597,252-1346-84-2082c-51-112-162-305-230-399c-131-182-365-427-445-466l-45-22l-134,31
				c-73,17-154,33-180,36c-27,3-68,9-93,12l-46,5l44,49c120,133,158,304,126,560c-15,123-34,190-90,313c-28,60-48,112-44,115
				c3,3,101-7,218-22c257-34,398-34,444,0c66,50,4,98-148,114c-251,26-432,40-510,40c-96,0-91-3-136,80c-17,30-66,114-110,185
				c-117,191-112,173-45,164c274-37,808-59,961-40c100,13,161,34,161,57c0,21-55,50-118,63c-69,13-849,50-1020,48l-124-2l-24,28
				c-13,15-24,31-24,36c0,4,53,70,118,147c64,76,128,154,141,173l24,34l136-7c271-13,469-26,615-42c180-20,347-16,393,9
				c99,53,42,94-177,128c-30,5-235,13-455,20c-220,6-401,12-403,14c-3,3,164,223,255,337c30,37,63,70,72,73c10,3,118-4,241-15
				c370-34,395-32,374,26c-23,67-118,94-365,103c-98,3-180,9-184,12c-3,4-1,26,4,50c24,103,9,192-44,272l-34,50l77,91
				c42,50,112,133,155,183c88,104,77,100,186,60c67-24,210-120,278-187C10338,5871,10492,5639,10556,5506z"/>
			<path class="st1" d="M1010,3340c0-5-5-31-10-57c-6-26-21-133-34-237c-13-103-28-192-33-196c-23-24-483-146-509-136
				c-53,20,99,282,242,417c67,63,151,122,256,179C999,3352,1010,3356,1010,3340z"/>
			<path class="st1" d="M1648,3568c45-13,66-57,57-115c-8-52-166-693-196-796c-25-84-40-92-153-83c-99,8-146,28-216,93l-55,51l1,133
				c2,188,47,424,115,601c32,82,58,109,128,134c45,16,68,17,189,3C1571,3583,1630,3574,1648,3568z"/>
			<path class="st1" d="M2367,2916l45-90l-17-35c-38-82-86-149-112-160c-51-20-257-60-422-81c-91-11-168-23-173-26
				c-14-9-9,165,7,256c8,47,33,153,55,235c136,509,135,501,96,623c-7,20-1,25,46,48c49,23,60,25,148,19c52-3,124-10,160-16
				c85-13,130-35,130-63c0-12-10-64-22-116c-16-73-22-129-22-240C2285,3103,2295,3059,2367,2916z"/>
			<path class="st1" d="M2822,4686c35-81,34-83-41-178c-91-117-222-332-318-523c-53-107-100-188-107-186c-6,2-42,10-81,18
				c-38,7-73,17-78,22c-4,4,17,93,47,197c80,278,101,403,101,604c0,168-8,210-40,210c-37,0-73-120-110-361c-27-173-53-291-111-505
				l-36-132l-46-6c-24-3-59-6-77-6c-60,0-121-29-177-85l-53-54l-80,10c-44,5-130,10-191,11c-181,1-258-33-317-142
				c-29-54-60-73-105-65c-118,21-354,200-497,378c-286,354-390,823-243,1099c96,182,328,286,723,327c107,12,457,6,605-9
				c454-47,843-166,1066-328C2698,4952,2741,4874,2822,4686z M1704,4410c53,218,63,556,17,584c-4,3-17-1-28-9c-33-23-62-107-98-287
				c-19-95-55-255-79-357c-85-355-106-492-75-499c26-5,73,42,106,105C1584,4017,1668,4266,1704,4410z"/>
			<path class="st2" d="M6860,5982c76-22,100-34,100-50c0-12-13-14-82-9c-102,6-188,37-223,79c-44,52-81,138-60,138c3,0,27-11,53-24
				s74-46,107-73C6789,6016,6836,5989,6860,5982z"/>
			<path class="st2" d="M6540,5905c0-42-123,15-199,93c-89,91-168,265-196,430l-7,44l30-16c17-9,51-34,76-56c82-70,144-150,196-251
				C6492,6047,6540,5931,6540,5905z"/>
			<path class="st2" d="M6004,6460c91-101,177-353,148-430c-10-25-10-25-66,33c-63,66-111,156-126,236c-12,66-13,201-1,201
				C5964,6500,5984,6482,6004,6460z"/>
			<path class="st2" d="M5900,6251c0-25-5-64-11-86l-11-39l-23,26c-52,60-94,238-81,342c7,51,9,54,26,44c10-7,28-29,39-49
				C5867,6440,5900,6309,5900,6251z"/>
			<path class="st2" d="M5640,6550c38-41,54-92,47-151c-11-91-49-133-110-122c-27,5-27,7-27,82c0,72,15,195,26,213
				C5586,6588,5613,6579,5640,6550z"/>
			<path class="st2" d="M5501,6570c5,0,6-21,3-47c-19-150-56-263-95-284c-17-9-19-6-19,22C5390,6330,5476,6570,5501,6570z"/>
			<path class="st2" d="M5390,6550c5,0,10-5,10-11c0-43-108-273-178-378c-31-46-109-111-133-111s81,237,152,341
				C5287,6459,5372,6550,5390,6550z"/>
			<path class="st2" d="M5151,6510c20,0,21-3,15-47c-14-103-77-202-236-368c-52-55-110-118-127-140c-32-39-31-37,16,70
				c82,187,102,222,213,365C5122,6505,5127,6510,5151,6510z"/>
			<path class="st2" d="M4822,6320c6,0,6-14,3-32c-26-118-247-410-352-467c-29-15-29-6,1,38c13,20,67,103,120,185
				C4682,6179,4799,6320,4822,6320z"/>
			<path class="st2" d="M4413,5971c-9-36-62-88-122-120c-78-41-150-45-187-10l-25,23l68,16c73,18,208,71,239,95
				C4412,5994,4419,5994,4413,5971z"/>
			<path class="st3" d="M6513,1422c22-19,22-70,1-101c-21-30-73-51-125-51h-42l6,36c10,58,39,108,76,126
				C6464,1449,6483,1447,6513,1422z"/>
			<path class="st3" d="M4567,1268c42-34,56-138,28-205c-18-42-30-53-62-53c-39,0-56,41-61,150c-6,125-2,134,44,127
				C4536,1284,4559,1275,4567,1268z"/>
			<path class="st3" d="M9760,2280v-42l-187,9c-104,4-261,8-350,8c-140,0-165-3-180-18c-13-12-14-20-6-28c6-6,89-24,185-40
				c95-16,229-42,298-58c69-17,142-33,163-37c24-4,37-12,37-22c0-37-174-996-211-1164c-11-46-12-48-65-65c-98-30-105-72-15-81
				c28-2,51-8,51-12s-3-21-6-38l-6-30l-169-4c-107-2-173-8-180-15c-22-22,8-46,97-78c135-49,204-83,204-100c0-46-109-62-495-75
				c-159-5-326-12-370-15c-100-7-1188,11-1935,31c-818,23-1651,28-2548,15c-794-12-1217-24-1392-41c-459-44-557-56-780-96
				c-161-29-192-30-212-6c-20,23-21,27-68,221c-55,232-55,225,25,262c101,45,84,81-29,62c-34-6-63-9-65-7s-7,24-11,49l-7,45l56,16
				c73,21,180,44,208,44c22,0,50,35,35,44c-4,2-73,14-152,26c-80,11-154,23-166,25c-18,4-23,17-34,82c-6,43-18,96-25,118
				c-8,22-16,56-20,76c-5,33-3,37,22,47c48,19,113,30,248,42c176,15,266,27,276,37c4,4,4,14,0,21c-13,21-238,52-423,59
				c-93,3-168,7-168,9c0,1-16,72-36,156c-51,220-104,479-104,509c0,22,7,30,39,42c128,52,480,82,1236,108c182,6,331,12,332,13
				c6,5,131-7,167-16c38-9,73-39,108-90c10-15,46-38,85-54c64-27,75-29,203-28c217,3,427,43,529,103c79,47,126,56,230,42
				c48-6,135-24,192-40c215-60,570-115,1059-166c275-28,356-42,496-85c145-45,218-39,433,32l94,31l211-12c116-7,339-15,496-18
				c257-5,303-3,465,17c101,12,201,20,229,16c29-3,78-21,124-47c104-57,131-54,327,38c83,39,177,78,210,88c33,9,134,56,225,103
				l165,87l300-1c308,0,433-12,521-49C9757,2322,9760,2317,9760,2280z M9000,880v287c0,272-1,289-21,331c-44,90-150,124-246,78
				c-28-13-59-36-69-51c-17-26-17-27,14-54c50-46,55-86,49-353l-6-238h139H9000z M8834,1640c133,0,202,107,125,194
				c-44,51-113,67-187,43c-46-14-92-70-92-110C8680,1695,8746,1640,8834,1640z M8600,890v339v339l-62,11c-80,15-336,22-408,12
				c-30-4-72-11-92-15c-43-8-40,1-59-191c-18-191-66-344-126-407c-32-33-25-59,25-93c29-20,49-25,95-25c74,0,115,18,156,66
				c54,66,67,127,97,452l6,62h49h49v-275V890h135H8600z M7783,880l-6,242c-4,133-7,288-7,345v104l-157-3l-158-3l-60-117
				c-33-65-65-122-71-128c-8-8-28,27-72,120l-62,130h-143h-144l-6-167c-8-214-34-324-104-435c-17-26-17-28,7-53c36-39,73-55,125-55
				c127,0,196,94,213,291l7,84l69-172l68-173h32c31,0,31,0,116,199l85,199l-3-204l-4-204h137H7783z M6639,1164
				c110,38,169,140,140,244c-17,63-96,142-164,166c-60,20-175,28-231,16c-305-65-407-430-179-639c79-71,145-94,260-89
				c106,5,166,31,237,102c47,46,83,109,73,125c-3,6-30-1-59-15c-78-36-165-49-223-35c-56,15-98,43-117,79l-14,27h112
				C6556,1145,6599,1150,6639,1164z M6034,1600c2,148-94,241-284,276c-94,17-177,16-259-2c-136-29-224-94-246-182
				c-21-79,1-148,58-182c39-24,125-27,167-5c28,14,30,20,30,73c0,65,13,96,51,125c56,41,136,16,171-54c53-103-13-197-139-198l-43-1
				v-74v-73l52-7c69-9,104-32,128-81c23-48,25-83,6-128c-38-90-152-108-203-31c-12,19-18,48-18,91c-1,82-14,96-97,101
				c-112,6-171-48-170-153c0-63,18-101,68-145c125-110,403-127,584-35c206,104,216,362,16,450l-50,22l34,11
				C5977,1429,6033,1506,6034,1600z M4525,857c195,1,338,126,337,293c0,76-18,125-67,179c-56,62-122,86-232,85h-93v78v78h-136h-136
				l4-247c3-236,4-251,27-301C4278,913,4381,856,4525,857z M4120,890v339v339l-62,12c-66,12-335,22-378,14c-14-2-55-9-92-15l-67-11
				l-6-66c-21-225-52-378-91-454c-8-15-28-43-45-62c-33-39-31-52,15-95c50-47,173-41,232,11c70,62,95,145,115,391l12,147h49h48v-275
				V890h135H4120z M3300,880v287c0,272-1,289-21,331c-12,24-37,54-59,68c-43,28-120,39-165,22c-42-15-83-46-96-71c-10-18-8-24,13-41
				c52-43,53-52,51-333l-2-263h140H3300z M3136,1640c128,0,199,109,124,193c-43,50-114,67-186,46c-18-5-46-25-63-44
				C2934,1747,3003,1640,3136,1640z M2934,1064c22,42,35,96,22,96c-2,0-27-16-56-35c-164-111-359-73-440,85c-76,149-58,364,40,462
				c46,46,81,56,127,34c42-20,63-66,63-140c0-66,15-78,97-80c83-1,142,55,150,141c12,119-82,214-246,249c-72,15-122,16-191,4
				c-102-18-177-58-252-135c-87-87-148-240-148-370c0-199,120-399,286-477c66-32,74-33,189-33s123,1,185,32
				C2835,934,2897,994,2934,1064z"/>
			<path class="st3" d="M6486,2631c44-20,46-22,40-53c-4-18-18-51-33-72c-51-77-202-243-237-260c-114-54-246-12-246,78
				c1,80,110,261,180,296c22,11,57,25,77,30C6323,2664,6433,2654,6486,2631z"/>
			<path class="st3" d="M10062,6714c0-37-7-57-34-94c-50-73-562-637-606-669l-27-19l-68,61c-44,39-67,66-64,77c5,21,302,452,382,555
				c167,215,240,258,345,205C10042,6803,10062,6772,10062,6714z"/>
			<path class="st3" d="M9467,5657c23-45,11-85-55-190c-111-177-152-228-647-807c-77-90-189-220-249-289c-59-69-190-220-289-336
				c-408-474-674-768-688-759c-5,3-32,41-60,84c-105,164-264,276-479,336c-52,15-97,28-99,30c-11,10,34,80,115,180
				c365,452,702,866,779,954c49,58,110,130,135,160c206,255,864,963,935,1005c46,28,116,33,168,11C9114,6002,9432,5725,9467,5657z"
				/>
			<path class="st4" d="M7403,3228c40-67,49-124,22-135c-21-8-105,50-196,136c-48,44-89,73-108,77c-17,4-31,3-31-2c1-5,28-40,61-79
				c221-257,232-272,209-314c-8-15-20-21-45-21c-30,0-46,12-127,94c-51,51-113,104-138,116c-55,28-108,41-116,29
				c-10-17,40-84,144-191c111-114,136-158,121-211c-11-40-37-67-65-67c-23,0-44,19-163,155c-55,63-131,125-153,125c-4,0-8-13-8-29
				c0-40,67-137,167-243c91-95,101-123,63-170c-58-75-263-105-321-47c-10,10-19,27-19,38c0,16,11,20,75,26c68,6,75,9,75,29
				c0,16-20,35-77,73c-99,65-128,79-233,115c-185,62-363,73-675,38c-99-11-261-25-360-30c-99-6-187-12-195-15c-14-4-720-82-945-104
				c-60-6-187-11-282-11h-171l-11,33c-38,114-58,345-42,470c25,185,166,511,244,562c14,8,44,19,68,24c63,13,274,13,366,0
				c43-5,296-46,563-89c849-139,807-134,1075-120c127,6,293,20,370,32c254,37,532,12,640-59C7245,3424,7361,3298,7403,3228z
				 M4733,3509c40,40,58,65,54,75c-11,29-49,17-91-28c-64-69-108-150-114-208c-4-39-2-50,8-46c8,2,17,11,20,19
				C4655,3418,4681,3458,4733,3509z M4402,3513c127,127,153,177,78,150c-45-16-179-172-224-260c-27-55-37-138-14-131
				c13,5,16,10,57,101C4321,3422,4348,3459,4402,3513z"/>
			<path class="st4" d="M8146,6573c18-43,18-127-1-163c-34-65-132-110-240-110h-65v46c0,40,5,51,38,84c33,32,45,38,101,43
				c67,7,111,27,111,52c0,7-12,23-27,35c-24,19-36,21-82,16c-140-17-178-42-254-171l-42-70l-11-255c-9-202-16-273-33-342
				c-96-379-380-807-658-990c-181-119-471-228-783-293c-294-62-855-13-1155,100c-207,77-646,358-911,581c-202,170-296,286-353,433
				c-55,143-66,217-66,426c1,169,4,204,29,320c15,72,30,162,33,200c5,65,4,73-18,97c-33,36-165,78-247,78c-68,0-79-9-68-53
				c6-25,13-29,114-73c35-15,67-35,72-45c14-26,12-85-4-124c-17-39-58-55-146-55c-74,0-119,24-150,80c-35,63-36,192-2,262
				c29,59,89,121,144,149c61,31,166,24,246-18c31-17,74-33,95-37c36-7,42-4,76,31c24,26,61,93,108,196c129,282,219,414,315,463
				c161,81,735,190,1153,218c130,8,585-3,710-18c473-57,927-190,1201-351c166-98,216-168,241-335c27-189,42-253,63-274
				c18-19,33-21,163-21C8036,6684,8111,6657,8146,6573z M7418,6155c5,183-4,221-60,255c-81,49-170,14-244-96c-62-92-77-99-202-99
				c-93,0-116,4-179,28c-100,39-174,87-315,203c-68,55-145,115-171,133c-108,74-234,114-399,127c-49,4-88,10-88,13c0,13-41,51-54,51
				c-7,0-31-16-53-35c-51-43-97-47-137-10s-38,79,10,261c19,73,34,139,34,148c0,31-29,16-80-41c-78-88-113-169-118-276
				c-5-105-2-101-150-151c-198-67-388-181-556-333c-214-194-264-236-322-269c-33-19-68-34-77-34s-46,35-82,79c-75,90-106,109-159,91
				c-36-12-88-67-105-113c-17-45-24-141-12-184c16-60,98-145,174-183c107-52,181-64,377-64c153,0,189,3,285,26
				c198,46,340,107,579,246c71,41,167,92,213,114c97,45,78,50,213-52c41-31,93-68,115-82c62-38,216-101,370-151
				c501-161,870-134,1081,80C7403,5935,7414,5964,7418,6155z M6948,7048c37,25,26,39-39,51c-33,5-100,28-147,50
				c-97,44-152,53-231,40c-68-12-138-42-173-76c-33-31-35-44-10-66c25-23,67-21,138,4c44,15,77,19,130,17c68-3,77-7,173-66
				c149-91,187-93,153-8C6927,7032,6927,7034,6948,7048z M5760,5770c55,39,79,120,37,128c-9,2-31-8-47-22c-38-31-126-50-197-41
				c-32,4-81,21-118,41l-64,33l-16-21c-21-31-19-40,13-71C5452,5736,5675,5710,5760,5770z M4959,7121c63-26,91-21,91,16
				c0,31-75,108-126,129c-42,17-173,17-234,0c-68-20-91-31-134-65c-21-17-56-35-76-41c-47-13-71-37-49-51c8-5,22-9,32-9
				c16,0,16-2,2-31c-13-24-14-34-4-45c24-29,64-16,127,40c74,66,110,79,226,79C4884,7143,4917,7138,4959,7121z"/>
			<path class="st5" d="M3271,5130l29-85l-27-19c-16-11-93-84-173-163s-150-143-156-143c-20,0-685,1303-836,1640
				c-229,509-395,905-474,1130c-41,116-47,146-48,215c0,92,24,184,60,233c34,44,86,44,175,0c128-64,291-260,496-595
				c53-87,125-213,159-280l64-122l-93-93c-104-103-157-192-157-260c0-45,19-57,57-37c30,16,127,134,186,226c22,34,45,60,50,56
				c10-6,95-183,128-265l18-47l-78-78c-119-118-171-214-156-284c15-65,58-33,192,146c42,55,79,101,83,103c13,5,170-377,170-414
				c0-7-24-37-53-66c-103-102-168-228-147-283c5-14,16-25,25-25c24,0,94,69,160,159c33,45,63,81,67,81c7,0,138-329,138-346
				c0-6-17-33-38-60c-96-123-165-274-160-352c2-26,9-47,16-50c21-7,82,67,151,181c35,59,69,111,76,117
				C3188,5361,3207,5317,3271,5130z M2253,7278c19,37,19,44,7,52c-23,14-51,11-92-10c-20-11-50-37-67-57c-49-59-75-173-39-173
				C2102,7090,2216,7202,2253,7278z"/>
			<path class="st5" d="M3636,5480l37-124l-30-26c-16-14-63-54-103-88c-60-53-75-61-85-50c-8,7-32,58-55,113
				c-133,317-234,545-330,745c-216,451-403,974-481,1345c-27,131-33,331-10,407c30,103,91,124,202,67c130-65,227-204,487-694
				c56-104,104-198,108-208c4-12-6-30-33-60c-57-61-90-123-111-203c-13-50-31-87-66-134c-82-109-114-198-84-228c22-22,43-13,98,43
				l54,55l32-68c17-37,52-92,77-123c26-31,47-60,47-64c0-5-18-36-39-69c-45-69-89-190-93-257c-3-38,0-44,17-47c16-2,44,33,136,170
				c106,159,118,173,142,170l27-3v-182C3580,5734,3592,5635,3636,5480z M3137,7068c10,42-33,54-97,26c-70-30-132-107-149-186
				c-13-58-6-78,26-78C2963,6830,3119,7000,3137,7068z"/>
			<path class="st5" d="M9270,7055c0-250-35-479-120-786l-32-116l-56,13c-31,8-87,14-123,14c-61,0-72-3-122-37
				c-104-71-216-164-272-228c-30-35-70-73-88-83c-38-23-253-62-343-62c-137,0-214-33-214-91c0-63,76-86,243-72c99,8,104,7,92-9
				c-23-34-256-288-263-288c-4,0-29,19-55,43l-47,42l-3,348c-2,402-16,356,118,409c145,59,197,90,236,142c46,60,64,121,64,206
				c-1,117-41,186-134,230c-28,13-51,29-51,36c0,6,20,52,45,100c116,232,464,614,661,730c64,38,172,74,222,74c23,0,57-6,75-14
				C9217,7609,9270,7418,9270,7055z M8964,6745l1,40l-50,2c-38,1-86-11-205-53c-233-82-238-84-270-111c-18-15-30-34-30-48
				c0-31,43-40,154-32c146,11,283,58,352,120C8955,6699,8963,6711,8964,6745z M8528,6149c227,47,299,83,290,143c-8,55-103,61-253,18
				c-55-17-156-41-225-55c-136-28-193-50-198-78C8132,6124,8337,6109,8528,6149z"/>
			<path class="st6" d="M8324,2533c57-115,60-151,13-198c-35-35-115-65-174-65c-29,0-38,8-87,78c-107,150-416,679-416,710
				c0,11,202,212,212,212c5,0,22-19,39-42C7961,3159,8273,2633,8324,2533z"/>
			<path class="st6" d="M4302,4057c4-21-7-33-75-83c-289-213-476-493-542-814c-39-183-36-487,5-644c11-44,20-80,20-81
				c0-7-88-26-160-35c-237-29-272-6-325,212c-47,191-43,357,11,528c31,99,148,334,219,439c87,129,166,223,330,387
				c163,164,205,200,262,219c45,16,82,10,144-21C4248,4136,4296,4089,4302,4057z"/>
			<path class="st4" d="M7687,2570c50-121,17-184-113-219c-94-25-554-62-554-45c0,5,36,45,80,89c46,45,116,132,162,200
				c110,162,195,265,218,265c4,0,23-17,43-39C7576,2762,7661,2631,7687,2570z"/>
			<path class="st4" d="M5968,2584c2-1-14-50-34-108c-55-159-42-150-231-154c-304-7-876,46-953,88c-21,12,42,27,232,55
				C5266,2507,5957,2591,5968,2584z"/>
			<path class="st6" d="M9220,3228c0-179-91-351-239-450c-158-105-343-177-425-163c-55,8-118,46-153,92c-17,21-97,145-179,276
				s-173,270-202,309c-52,69-52,70-35,93c10,12,150,183,311,379c309,376,406,486,427,486c7,0,38-33,68-72
				C9014,3882,9220,3424,9220,3228z"/>
			<path class="st6" d="M7835,5160c13-20-884-1060-913-1060c-4,0-17,16-29,35c-57,87-211,118-306,62c-70-41-102-95-102-172
				c0-104,69-189,164-204l36-6l3-61c3-73,20-65-183-91c-196-25-674-25-860,1c-237,32-572,104-817,177c-63,18-68,22-78,57
				c-5,20-10,71-10,113c0,156,88,349,159,349c9,0,90-20,181-45c754-207,1234-175,1848,120c183,89,294,155,422,251
				c163,123,254,232,364,436l47,87l35-21C7815,5177,7832,5164,7835,5160z M5400,4028c0,73-25,104-122,152c-105,51-174,60-231,30
				c-53-29-71-74-65-166c4-56,12-84,35-125c42-75,80-99,157-99C5309,3820,5400,3904,5400,4028z"/>
			<path class="st6" d="M6759,4126c33-18,51-54,51-107c0-113-113-166-200-93c-32,28-55,92-44,127C6587,4123,6689,4162,6759,4126z"/>
			<path class="st6" d="M5298,4042c5-60-10-92-61-122c-116-71-247,88-155,188c30,31,53,41,105,41c33,1,50-5,74-27
				C5287,4099,5294,4084,5298,4042z"/>
			<path class="st6" d="M4625,4511c73-42,80-49,77-75c-2-20-101-364-136-471c-1-5-15,16-30,47c-39,83-159,177-325,257
				c-71,34-82,36-166,35l-91-2l-16,77c-22,103-34,131-56,131c-33,0-49-31-93-179l-44-145l-68-65c-190-182-405-491-509-732
				c-44-104-178-497-178-525c0-10-5-36-11-56c-8-32-14-38-37-38c-76,0-214,107-304,234c-75,107-101,199-102,361
				c-2,213,48,394,184,670c121,246,287,480,510,719c98,105,320,268,474,350c89,47,100,43,247-99C4132,4831,4346,4674,4625,4511z"/>
			<path class="st6" d="M7353,8361c43-106,77-412,60-535c-7-55-11-60-38-69c-50-16-262-11-370,7c-55,10-167,35-250,56
				c-374,96-521,113-965,113c-571,0-836-23-1222-103c-211-45-236-47-279-24c-89,46-99,221-37,677c24,183,29,192,122,239
				c106,53,219,125,286,182c36,31,71,56,78,56c6,0,54-29,105-64c116-80,196-120,289-146c224-61,644-68,808-13c25,8,102,42,171,74
				l127,60l123-82c145-95,329-189,484-248c128-48,320-105,385-115C7317,8412,7337,8402,7353,8361z"/>
			<path class="st6" d="M8151,9755c115-294,48-563-198-797c-73-69-164-129-303-198c-128-64-167-78-247-90c-102-14-430,21-556,60
				c-34,11-143,64-243,118c-209,115-234,130-234,146c0,6,22,56,50,111c53,105,72,178,86,330c9,99,22,107-181-121
				c-199-222-287-296-420-351c-104-43-149-48-415-48c-210,0-268,3-330,18c-167,39-278,106-437,263c-57,57-108,102-113,99
				s-21-38-36-78c-67-178-126-257-228-307c-97-47-178-65-296-65c-101,0-108,2-183,37c-106,51-206,149-237,233c-41,112-37,338,10,520
				c73,285,311,487,575,489c99,0,152-21,229-94c52-49,53-52,45-88c-12-50-11-102,1-102c5,0,56,35,112,78c235,179,386,265,531,302
				c197,50,534,45,777-11c51-12,174-71,410-196c52-28,105-54,117-57c20-6,21-5,14,22c-20,67-84,144-164,196c-15,10-27,24-27,32
				c0,46,266,134,490,163c96,12,277,13,388,0C7642,10314,8024,10082,8151,9755z"/>
			<path d="M10920,5248c137-543,68-1222-189-1861c-70-177-135-293-304-546c-96-144-156-221-235-305c-183-192-166-167-152-223
				c11-41,10-74-4-198c-30-267-96-754-132-980c-19-121-54-353-78-515c-28-184-53-318-67-355c-30-81-78-128-154-151
				c-64-18-133-18-675,6c-124,5-468,16-765,25c-297,8-663,20-813,25c-753,28-2538,39-3102,20c-162-5-450-15-640-20
				c-619-19-1166-64-1680-140c-113-16-235-30-271-30h-67l-26,64c-32,81-70,225-142,536c-30,135-100,423-155,640
				c-143,566-209,914-195,1017c8,58,30,98,66,119l30,18l-80,42c-44,22-101,58-127,78c-35,27-54,35-73,32c-14-3-126-19-250-36
				c-228-32-277-32-331-5c-66,35-90,158-54,281c41,143,183,354,319,477c42,38,76,73,76,78c0,6-71,81-158,167
				c-171,170-264,293-341,455C30,4217-20,4494,14,4715c43,286,140,463,314,578c150,100,302,141,637,173c342,32,726,11,1220-66
				c104-16,190-28,191-27c0,1-45,103-101,227s-145,329-198,456c-52,127-136,318-185,425c-102,219-367,879-405,1009
				c-54,178-62,329-26,446c17,56,31,77,78,124c45,46,66,59,109,69c129,32,284-43,474-227c55-53,140-149,188-214l87-116l6,101
				c25,435,320,523,649,195c144-145,227-270,408-618c62-118,116-220,121-226c5-7,31-15,56-19c26-4,71-16,101-27c29-11,55-18,57-16
				c8,8,81,173,127,288c58,144,68,197,68,376c0,104,48,694,75,930l6,51l-73,7c-171,16-296,71-404,180c-134,134-186,295-188,576
				c-1,140,2,164,27,254c74,266,205,459,393,578c145,92,290,138,438,138c120,0,186-18,330-89l120-59l140,72c237,121,446,171,711,170
				c205-1,274-16,439-98l110-55l49,45c28,25,86,69,131,98c159,105,280,154,451,180c284,44,611,0,892-120c229-98,378-199,538-366
				c210-218,338-478,361-730c18-205-87-427-309-655c-193-197-344-280-584-318l-43-7l6-41c4-23,23-126,45-228c21-103,45-235,53-295
				c21-156,39-438,32-514c-4-50,0-91,19-175c14-60,32-155,41-210c23-140,25-145,74-145c37,0,43,3,68,46c15,25,99,152,187,282
				c139,208,174,252,280,357c139,140,226,207,345,269c124,64,183,79,299,74c123-5,187-35,270-123c159-171,233-522,188-892
				c-7-57-12-103-11-103s25,31,54,70c129,174,254,241,409,217c163-24,286-160,286-317c0-83-25-129-152-287c-51-64-92-117-90-119
				c1-1,58-28,126-58c188-84,260-134,397-270C10740,5731,10844,5548,10920,5248z M10472,3424c336,736,367,1485,84,2082
				c-64,133-218,365-289,434c-68,67-211,163-278,187c-109,40-98,44-186-60c-43-50-113-133-155-183l-77-91l34-50c53-80,68-169,44-272
				c-5-24-7-46-4-50c4-3,86-9,184-12c247-9,342-36,365-103c21-58-4-60-374-26c-123,11-231,18-241,15c-9-3-42-36-72-73
				c-91-114-258-334-255-337c2-2,183-8,403-14c220-7,425-15,455-20c219-34,276-75,177-128c-46-25-213-29-393-9
				c-146,16-344,29-615,42l-136,7l-24-34c-13-19-77-97-141-173c-65-77-118-143-118-147c0-5,11-21,24-36l24-28l124,2
				c171,2,951-35,1020-48c63-13,118-42,118-63c0-23-61-44-161-57c-153-19-687,3-961,40c-67,9-72,27,45-164c44-71,93-155,110-185
				c45-83,40-80,136-80c78,0,259-14,510-40c152-16,214-64,148-114c-46-34-187-34-444,0c-117,15-215,25-218,22c-4-3,16-55,44-115
				c56-123,75-190,90-313c32-256-6-427-126-560l-44-49l46-5c25-3,66-9,93-12c26-3,107-19,180-36l134-31l45,22c80,39,314,284,445,466
				C10310,3119,10421,3312,10472,3424z M10028,6620c27,37,34,57,34,94c0,58-20,89-72,116c-105,53-178,10-345-205
				c-80-103-377-534-382-555c-3-11,20-38,64-77l68-61l27,19C9466,5983,9978,6547,10028,6620z M9760,2238v42c0,37-3,42-34,55
				c-88,37-213,49-521,49l-300,1l-165-87c-91-47-192-94-225-103c-33-10-127-49-210-88c-196-92-223-95-327-38c-46,26-95,44-124,47
				c-28,4-128-4-229-16c-162-20-208-22-465-17c-157,3-380,11-496,18l-211,12l-94-31c-215-71-288-77-433-32c-140,43-221,57-496,85
				c-489,51-844,106-1059,166c-57,16-144,34-192,40c-104,14-151,5-230-42c-102-60-312-100-529-103c-128-1-139,1-203,28
				c-39,16-75,39-85,54c-35,51-70,81-108,90c-36,9-161,21-167,16c-1-1-150-7-332-13c-756-26-1108-56-1236-108c-32-12-39-20-39-42
				c0-30,53-289,104-509c20-84,36-155,36-156c0-2,75-6,168-9c185-7,410-38,423-59c4-7,4-17,0-21c-10-10-100-22-276-37
				c-135-12-200-23-248-42c-25-10-27-14-22-47c4-20,12-54,20-76c7-22,19-75,25-118c11-65,16-78,34-82c12-2,86-14,166-25
				c79-12,148-24,152-26c15-9-13-44-35-44c-28,0-135-23-208-44l-56-16l7-45c4-25,9-47,11-49s31,1,65,7c113,19,130-17,29-62
				c-80-37-80-30-25-262c47-194,48-198,68-221c20-24,51-23,212,6c223,40,321,52,780,96c175,17,598,29,1392,41c897,13,1730,8,2548-15
				c747-20,1835-38,1935-31c44,3,211,10,370,15c386,13,495,29,495,75c0,17-69,51-204,100c-89,32-119,56-97,78c7,7,73,13,180,15
				l169,4l6,30c3,17,6,34,6,38s-23,10-51,12c-90,9-83,51,15,81c53,17,54,19,65,65c37,168,211,1127,211,1164c0,10-13,18-37,22
				c-21,4-94,20-163,37c-69,16-203,42-298,58c-96,16-179,34-185,40c-8,8-7,16,6,28c15,15,40,18,180,18c89,0,246-4,350-8L9760,2238z
				 M9412,5467c66,105,78,145,55,190c-35,68-353,345-434,379c-52,22-122,17-168-11c-71-42-729-750-935-1005c-25-30-86-102-135-160
				c-77-88-414-502-779-954c-81-100-126-170-115-180c2-2,47-15,99-30c215-60,374-172,479-336c28-43,55-81,60-84
				c14-9,280,285,688,759c99,116,230,267,289,336c60,69,172,199,249,289C9260,5239,9301,5290,9412,5467z M9150,6269
				c85,307,120,536,120,786c0,363-53,554-167,601c-18,8-52,14-75,14c-50,0-158-36-222-74c-197-116-545-498-661-730
				c-25-48-45-94-45-100c0-7,23-23,51-36c93-44,133-113,134-230c0-85-18-146-64-206c-39-52-91-83-236-142c-134-53-120-7-118-409
				l3-348l47-42c26-24,51-43,55-43c7,0,240,254,263,288c12,16,7,17-92,9c-167-14-243,9-243,72c0,58,77,91,214,91c90,0,305,39,343,62
				c18,10,58,48,88,83c56,64,168,157,272,228c50,34,61,37,122,37c36,0,92-6,123-14l56-13L9150,6269z M8981,2778
				c148,99,239,271,239,450c0,196-206,654-427,950c-30,39-61,72-68,72c-21,0-118-110-427-486c-161-196-301-367-311-379
				c-17-23-17-24,35-93c29-39,120-178,202-309s162-255,179-276c35-46,98-84,153-92C8638,2601,8823,2673,8981,2778z M8337,2335
				c47,47,44,83-13,198c-51,100-363,626-413,695c-17,23-34,42-39,42c-10,0-212-201-212-212c0-31,309-560,416-710c49-70,58-78,87-78
				C8222,2270,8302,2300,8337,2335z M7953,8958c246,234,313,503,198,797c-127,327-509,559-1013,614c-111,13-292,12-388,0
				c-224-29-490-117-490-163c0-8,12-22,27-32c80-52,144-129,164-196c7-27,6-28-14-22c-12,3-65,29-117,57c-236,125-359,184-410,196
				c-243,56-580,61-777,11c-145-37-296-123-531-302c-56-43-107-78-112-78c-12,0-13,52-1,102c8,36,7,39-45,88c-77,73-130,94-229,94
				c-264-2-502-204-575-489c-47-182-51-408-10-520c31-84,131-182,237-233c75-35,82-37,183-37c118,0,199,18,296,65
				c102,50,161,129,228,307c15,40,31,75,36,78s56-42,113-99c159-157,270-224,437-263c62-15,120-18,330-18c266,0,311,5,415,48
				c133,55,221,129,420,351c203,228,190,220,181,121c-14-152-33-225-86-330c-28-55-50-105-50-111c0-16,25-31,234-146
				c100-54,209-107,243-118c126-39,454-74,556-60c80,12,119,26,247,90C7789,8829,7880,8889,7953,8958z M8145,6410
				c19,36,19,120,1,163c-35,84-110,111-303,112c-130,0-145,2-163,21c-21,21-36,85-63,274c-25,167-75,237-241,335
				c-274,161-728,294-1201,351c-125,15-580,26-710,18c-418-28-992-137-1153-218c-96-49-186-181-315-463c-47-103-84-170-108-196
				c-34-35-40-38-76-31c-21,4-64,20-95,37c-80,42-185,49-246,18c-55-28-115-90-144-149c-34-70-33-199,2-262c31-56,76-80,150-80
				c88,0,129,16,146,55c16,39,18,98,4,124c-5,10-37,30-72,45c-101,44-108,48-114,73c-11,44,0,53,68,53c82,0,214-42,247-78
				c22-24,23-32,18-97c-3-38-18-128-33-200c-25-116-28-151-29-320c0-209,11-283,66-426c57-147,151-263,353-433
				c265-223,704-504,911-581c300-113,861-162,1155-100c312,65,602,174,783,293c278,183,562,611,658,990c17,69,24,140,33,342l11,255
				l42,70c76,129,114,154,254,171c46,5,58,3,82-16c15-12,27-28,27-35c0-25-44-45-111-52c-56-5-68-11-101-43c-33-33-38-44-38-84v-46
				h65C8013,6300,8111,6345,8145,6410z M6922,4100c29,0,926,1040,913,1060c-3,4-20,17-39,28l-35,21l-47-87c-110-204-201-313-364-436
				c-128-96-239-162-422-251c-614-295-1094-327-1848-120c-91,25-172,45-181,45c-71,0-159-193-159-349c0-42,5-93,10-113
				c10-35,15-39,78-57c245-73,580-145,817-177c186-26,664-26,860-1c203,26,186,18,183,91l-3,61l-36,6c-95,15-164,100-164,204
				c0,77,32,131,102,172c95,56,249,25,306-62C6905,4116,6918,4100,6922,4100z M7574,2351c130,35,163,98,113,219
				c-26,61-111,192-164,251c-20,22-39,39-43,39c-23,0-108-103-218-265c-46-68-116-155-162-200c-44-44-80-84-80-89
				C7020,2289,7480,2326,7574,2351z M7425,3093c27,11,18,68-22,135c-42,70-158,196-218,235c-108,71-386,96-640,59
				c-77-12-243-26-370-32c-268-14-226-19-1075,120c-267,43-520,84-563,89c-92,13-303,13-366,0c-24-5-54-16-68-24
				c-78-51-219-377-244-562c-16-125,4-356,42-470l11-33h171c95,0,222,5,282,11c225,22,931,100,945,104c8,3,96,9,195,15
				c99,5,261,19,360,30c312,35,490,24,675-38c105-36,134-50,233-115c57-38,77-57,77-73c0-20-7-23-75-29c-64-6-75-10-75-26
				c0-11,9-28,19-38c58-58,263-28,321,47c38,47,28,75-63,170c-100,106-167,203-167,243c0,16,4,29,8,29c22,0,98-62,153-125
				c119-136,140-155,163-155c28,0,54,27,65,67c15,53-10,97-121,211c-104,107-154,174-144,191c8,12,61-1,116-29c25-12,87-65,138-116
				c81-82,97-94,127-94c25,0,37,6,45,21c23,42,12,57-209,314c-33,39-60,74-61,79c0,5,14,6,31,2c19-4,60-33,108-77
				C7320,3143,7404,3085,7425,3093z M7413,7826c17,123-17,429-60,535c-16,41-36,51-123,65c-65,10-257,67-385,115
				c-155,59-339,153-484,248l-123,82l-127-60c-69-32-146-66-171-74c-164-55-584-48-808,13c-93,26-173,66-289,146
				c-51,35-99,64-105,64c-7,0-42-25-78-56c-67-57-180-129-286-182c-93-47-98-56-122-239c-62-456-52-631,37-677c43-23,68-21,279,24
				c386,80,651,103,1222,103c444,0,591-17,965-113c83-21,195-46,250-56c108-18,320-23,370-7C7402,7766,7406,7771,7413,7826z
				 M6810,4019c0,53-18,89-51,107c-70,36-172-3-193-73c-11-35,12-99,44-127C6697,3853,6810,3906,6810,4019z M6526,2578
				c6,31,4,33-40,53c-53,23-163,33-219,19c-20-5-55-19-77-30c-70-35-179-216-180-296c0-90,132-132,246-78c35,17,186,183,237,260
				C6508,2527,6522,2560,6526,2578z M5934,2476c20,58,36,107,34,108c-11,7-702-77-986-119c-190-28-253-43-232-55
				c77-42,649-95,953-88C5892,2326,5879,2317,5934,2476z M4702,4436c3,26-4,33-77,75c-279,163-493,320-674,494
				c-147,142-158,146-247,99c-154-82-376-245-474-350c-223-239-389-473-510-719c-136-276-186-457-184-670c1-162,27-254,102-361
				c90-127,228-234,304-234c23,0,29,6,37,38c6,20,11,46,11,56c0,28,134,421,178,525c104,241,319,550,509,732l68,65l44,145
				c44,148,60,179,93,179c22,0,34-28,56-131l16-77l91,2c84,1,95-1,166-35c166-80,286-174,325-257c15-31,29-52,30-47
				C4601,4072,4700,4416,4702,4436z M4227,3974c68,50,79,62,75,83c-6,32-54,79-111,107c-62,31-99,37-144,21c-57-19-99-55-262-219
				c-164-164-243-258-330-387c-71-105-188-340-219-439c-54-171-58-337-11-528c53-218,88-241,325-212c72,9,160,28,160,35
				c0,1-9,37-20,81c-41,157-44,461-5,644C3751,3481,3938,3761,4227,3974z M3673,5356l-37,124c-44,155-56,254-56,487v182l-27,3
				c-24,3-36-11-142-170c-92-137-120-172-136-170c-17,3-20,9-17,47c4,67,48,188,93,257c21,33,39,64,39,69c0,4-21,33-47,64
				c-25,31-60,86-77,123l-32,68l-54-55c-55-56-76-65-98-43c-30,30,2,119,84,228c35,47,53,84,66,134c21,80,54,142,111,203
				c27,30,37,48,33,60c-4,10-52,104-108,208c-260,490-357,629-487,694c-111,57-172,36-202-67c-23-76-17-276,10-407
				c78-371,265-894,481-1345c96-200,197-428,330-745c23-55,47-106,55-113c10-11,25-3,85,50c40,34,87,74,103,88L3673,5356z
				 M3300,5045l-29,85c-64,187-83,231-96,220c-7-6-41-58-76-117c-69-114-130-188-151-181c-7,3-14,24-16,50c-5,78,64,229,160,352
				c21,27,38,54,38,60c0,17-131,346-138,346c-4,0-34-36-67-81c-66-90-136-159-160-159c-9,0-20,11-25,25c-21,55,44,181,147,283
				c29,29,53,59,53,66c0,37-157,419-170,414c-4-2-41-48-83-103c-134-179-177-211-192-146c-15,70,37,166,156,284l78,78l-18,47
				c-33,82-118,259-128,265c-5,4-28-22-50-56c-59-92-156-210-186-226c-38-20-57-8-57,37c0,68,53,157,157,260l93,93l-64,122
				c-34,67-106,193-159,280c-205,335-368,531-496,595c-89,44-141,44-175,0c-36-49-60-141-60-233c1-69,7-99,48-215
				c79-225,245-621,474-1130c151-337,816-1640,836-1640c6,0,76,64,156,143s157,152,173,163L3300,5045z M2781,4508
				c75,95,76,97,41,178c-81,188-124,266-166,296c-223,162-612,281-1066,328c-148,15-498,21-605,9c-395-41-627-145-723-327
				c-147-276-43-745,243-1099c143-178,379-357,497-378c45-8,76,11,105,65c59,109,136,143,317,142c61-1,147-6,191-11l80-10l53,54
				c56,56,117,85,177,85c18,0,53,3,77,6l46,6l36,132c58,214,84,332,111,505c37,241,73,361,110,361c32,0,40-42,40-210
				c0-201-21-326-101-604c-30-104-51-193-47-197c5-5,40-15,78-22c39-8,75-16,81-18c7-2,54,79,107,186C2559,4176,2690,4391,2781,4508
				z M2412,2826l-45,90c-72,143-82,187-81,354c0,111,6,167,22,240c12,52,22,104,22,116c0,28-45,50-130,63c-36,6-108,13-160,16
				c-88,6-99,4-148-19c-47-23-53-28-46-48c39-122,40-114-96-623c-22-82-47-188-55-235c-16-91-21-265-7-256c5,3,82,15,173,26
				c165,21,371,61,422,81c26,11,74,78,112,160L2412,2826z M1705,3453c9,58-12,102-57,115c-18,6-77,15-130,21c-121,14-144,13-189-3
				c-70-25-96-52-128-134c-68-177-113-413-115-601l-1-133l55-51c70-65,117-85,216-93c113-9,128-1,153,83
				C1539,2760,1697,3401,1705,3453z M1000,3283c5,26,10,52,10,57c0,16-11,12-88-30c-105-57-189-116-256-179
				c-143-135-295-397-242-417c26-10,486,112,509,136c5,4,20,93,33,196C979,3150,994,3257,1000,3283z"/>
			<path class="st7" d="M9000,1167V880h-140h-139l6,238c6,267,1,307-49,353c-31,27-31,28-14,54c10,15,41,38,69,51
				c96,46,202,12,246-78C8999,1456,9000,1439,9000,1167z"/>
			<path d="M8965,6785l-1-40c-1-34-9-46-48-82c-69-62-206-109-352-120c-111-8-154,1-154,32c0,14,12,33,30,48c32,27,37,29,270,111
				c119,42,167,54,205,53L8965,6785z"/>
			<path class="st7" d="M8959,1834c77-87,8-194-125-194c-88,0-154,55-154,127c0,40,46,96,92,110C8846,1901,8915,1885,8959,1834z"/>
			<path d="M8818,6292c9-60-63-96-290-143c-191-40-396-25-386,28c5,28,62,50,198,78c69,14,170,38,225,55
				C8715,6353,8810,6347,8818,6292z"/>
			<path class="st7" d="M8600,1229V890h-135h-135v275v275h-49h-49l-6-62c-30-325-43-386-97-452c-41-48-82-66-156-66
				c-46,0-66,5-95,25c-50,34-57,60-25,93c60,63,108,216,126,407c19,192,16,183,59,191c20,4,62,11,92,15c72,10,328,3,408-12l62-11
				V1229z"/>
			<path class="st7" d="M7777,1122l6-242h-138h-137l4,204l3,204l-85-199c-85-199-85-199-116-199h-32l-68,173l-69,172l-7-84
				c-17-197-86-291-213-291c-52,0-89,16-125,55c-24,25-24,27-7,53c70,111,96,221,104,435l6,167h144h143l62-130c44-93,64-128,72-120
				c6,6,38,63,71,128l60,117l158,3l157,3v-104C7770,1410,7773,1255,7777,1122z"/>
			<path d="M7358,6410c56-34,65-72,60-255c-4-191-15-220-112-318c-211-214-580-241-1081-80c-154,50-308,113-370,151
				c-22,14-74,51-115,82c-135,102-116,97-213,52c-46-22-142-73-213-114c-239-139-381-200-579-246c-96-23-132-26-285-26
				c-196,0-270,12-377,64c-76,38-158,123-174,183c-12,43-5,139,12,184c17,46,69,101,105,113c53,18,84-1,159-91c36-44,73-79,82-79
				s44,15,77,34c58,33,108,75,322,269c168,152,358,266,556,333c148,50,145,46,150,151c5,107,40,188,118,276c51,57,80,72,80,41
				c0-9-15-75-34-148c-48-182-50-224-10-261s86-33,137,10c22,19,46,35,53,35c13,0,54-38,54-51c0-3,39-9,88-13c165-13,291-53,399-127
				c26-18,103-78,171-133c141-116,215-164,315-203c63-24,86-28,179-28c125,0,140,7,202,99C7188,6424,7277,6459,7358,6410z
				 M6960,5932c0,16-24,28-100,50c-24,7-71,34-105,61c-33,27-81,60-107,73s-50,24-53,24c-21,0,16-86,60-138c35-42,121-73,223-79
				C6947,5918,6960,5920,6960,5932z M6341,5998c76-78,199-135,199-93c0,26-48,142-100,244c-52,101-114,181-196,251
				c-25,22-59,47-76,56l-30,16l7-44C6173,6263,6252,6089,6341,5998z M6152,6030c29,77-57,329-148,430c-20,22-40,40-45,40
				c-12,0-11-135,1-201c15-80,63-170,126-236C6142,6005,6142,6005,6152,6030z M5889,6165c6,22,11,61,11,86c0,58-33,189-61,238
				c-11,20-29,42-39,49c-17,10-19,7-26-44c-13-104,29-282,81-342l23-26L5889,6165z M5687,6399c7,59-9,110-47,151c-27,29-54,38-64,22
				c-11-18-26-141-26-213c0-75,0-77,27-82C5638,6266,5676,6308,5687,6399z M5504,6523c3,26,2,47-3,47c-25,0-111-240-111-309
				c0-28,2-31,19-22C5448,6260,5485,6373,5504,6523z M5400,6539c0,6-5,11-10,11c-18,0-103-91-149-159c-71-104-176-341-152-341
				s102,65,133,111C5292,6266,5400,6496,5400,6539z M5166,6463c6,44,5,47-15,47c-24,0-29-5-119-120c-111-143-131-178-213-365
				c-47-107-48-109-16-70c17,22,75,85,127,140C5089,6261,5152,6360,5166,6463z M4825,6288c3,18,3,32-3,32c-23,0-140-141-228-276
				c-53-82-107-165-120-185c-30-44-30-53-1-38C4578,5878,4799,6170,4825,6288z M4413,5971c6,23-1,23-27,4c-31-24-166-77-239-95
				l-68-16l25-23c37-35,109-31,187,10C4351,5883,4404,5935,4413,5971z"/>
			<path d="M6909,7099c65-12,76-26,39-51c-21-14-21-16-6-54c34-85-4-83-153,8c-96,59-105,63-173,66c-53,2-86-2-130-17
				c-71-25-113-27-138-4c-25,22-23,35,10,66c35,34,105,64,173,76c79,13,134,4,231-40C6809,7127,6876,7104,6909,7099z"/>
			<path class="st7" d="M6779,1408c29-104-30-206-140-244c-40-14-83-19-165-19h-112l14-27c19-36,61-64,117-79c58-14,145-1,223,35
				c29,14,56,21,59,15c10-16-26-79-73-125c-71-71-131-97-237-102c-115-5-181,18-260,89c-228,209-126,574,179,639c56,12,171,4,231-16
				C6683,1550,6762,1471,6779,1408z M6514,1321c21,31,21,82-1,101c-30,25-49,27-84,10c-37-18-66-68-76-126l-6-36h42
				C6441,1270,6493,1291,6514,1321z"/>
			<path class="st7" d="M5750,1876c190-35,286-128,284-276c-1-94-57-171-144-202l-34-11l50-22c200-88,190-346-16-450
				c-181-92-459-75-584,35c-50,44-68,82-68,145c-1,105,58,159,170,153c83-5,96-19,97-101c0-43,6-72,18-91c51-77,165-59,203,31
				c19,45,17,80-6,128c-24,49-59,72-128,81l-52,7v73v74l43,1c126,1,192,95,139,198c-35,70-115,95-171,54c-38-29-51-60-51-125
				c0-53-2-59-30-73c-42-22-128-19-167,5c-57,34-79,103-58,182c22,88,110,153,246,182C5573,1892,5656,1893,5750,1876z"/>
			<path d="M5797,5898c42-8,18-89-37-128c-85-60-308-34-392,47c-32,31-34,40-13,71l16,21l64-33c37-20,86-37,118-41
				c71-9,159,10,197,41C5766,5890,5788,5900,5797,5898z"/>
			<path d="M5278,4180c97-48,122-79,122-152c0-124-91-208-226-208c-77,0-115,24-157,99c-23,41-31,69-35,125c-6,92,12,137,65,166
				C5104,4240,5173,4231,5278,4180z M5237,3920c51,30,66,62,61,122c-4,42-11,57-37,80c-24,22-41,28-74,27c-52,0-75-10-105-41
				C4990,4008,5121,3849,5237,3920z"/>
			<path d="M5050,7137c0-37-28-42-91-16c-42,17-75,22-145,22c-116,0-152-13-226-79c-63-56-103-69-127-40c-10,11-9,21,4,45
				c14,29,14,31-2,31c-10,0-24,4-32,9c-22,14,2,38,49,51c20,6,55,24,76,41c43,34,66,45,134,65c61,17,192,17,234,0
				C4975,7245,5050,7168,5050,7137z"/>
			<path class="st7" d="M4862,1150c1-167-142-292-337-293c-144-1-247,56-296,165c-23,50-24,65-27,301l-4,247h136h136v-78v-78h93
				c110,1,176-23,232-85C4844,1275,4862,1226,4862,1150z M4595,1063c28,67,14,171-28,205c-8,7-31,16-51,19c-46,7-50-2-44-127
				c5-109,22-150,61-150C4565,1010,4577,1021,4595,1063z"/>
			<path d="M4610,3321c-3-8-12-17-20-19c-10-4-12,7-8,46c6,58,50,139,114,208c42,45,80,57,91,28c4-10-14-35-54-75
				C4681,3458,4655,3418,4610,3321z"/>
			<path d="M4480,3663c75,27,49-23-78-150c-54-54-81-91-103-140c-41-91-44-96-57-101c-23-7-13,76,14,131
				C4301,3491,4435,3647,4480,3663z"/>
			<path class="st7" d="M4120,1229V890h-135h-135v275v275h-48h-49l-12-147c-20-246-45-329-115-391c-59-52-182-58-232-11
				c-46,43-48,56-15,95c17,19,37,47,45,62c39,76,70,229,91,454l6,66l67,11c37,6,78,13,92,15c43,8,312-2,378-14l62-12V1229z"/>
			<path class="st7" d="M3300,1167V880h-139h-140l2,263c2,281,1,290-51,333c-21,17-23,23-13,41c13,25,54,56,96,71
				c45,17,122,6,165-22c22-14,47-44,59-68C3299,1456,3300,1439,3300,1167z"/>
			<path class="st7" d="M3260,1833c75-84,4-193-124-193c-133,0-202,107-125,195c17,19,45,39,63,44C3146,1900,3217,1883,3260,1833z"
				/>
			<path d="M3040,7094c64,28,107,16,97-26c-18-68-174-238-220-238c-32,0-39,20-26,78C2908,6987,2970,7064,3040,7094z"/>
			<path class="st7" d="M2956,1160c13,0,0-54-22-96c-37-70-99-130-174-167c-62-31-70-32-185-32s-123,1-189,33
				c-166,78-286,278-286,477c0,130,61,283,148,370c75,77,150,117,252,135c69,12,119,11,191-4c164-35,258-130,246-249
				c-8-86-67-142-150-141c-82,2-97,14-97,80c0,74-21,120-63,140c-46,22-81,12-127-34c-98-98-116-313-40-462c81-158,276-196,440-85
				C2929,1144,2954,1160,2956,1160z"/>
			<path d="M2260,7330c12-8,12-15-7-52c-37-76-151-188-191-188c-36,0-10,114,39,173c17,20,47,46,67,57
				C2209,7341,2237,7344,2260,7330z"/>
			<path d="M1721,4994c46-28,36-366-17-584c-36-144-120-393-157-463c-33-63-80-110-106-105c-31,7-10,144,75,499
				c24,102,60,262,79,357c36,180,65,264,98,287C1704,4993,1717,4997,1721,4994z"/>
		</g>
	</g>
</g>
</svg>
