<?xml version="1.0" encoding="utf-8"?>
<!-- Generator: Adobe Illustrator 23.0.1, SVG Export Plug-In . SVG Version: 6.00 Build 0)  -->
<svg version="1.1" id="Слой_1" xmlns="http://www.w3.org/2000/svg" xmlns:xlink="http://www.w3.org/1999/xlink" x="0px" y="0px"
	 viewBox="0 0 60.7 88.3" style="enable-background:new 0 0 60.7 88.3;" xml:space="preserve">
<style type="text/css">
	.st0{fill:#CC9933;}
</style>
<path class="st0" d="M26.5,17.3l-3.9-4.2c4.8-2.5,10.5-2.5,15.4,0l-3.8,4.2l2.2,2.2l-4.8,4.8c-0.8-0.2-1.7-0.2-2.5,0l-4.8-4.8
	L26.5,17.3z"/>
<path class="st0" d="M17.4,34.2l-5.7,5.2c0.6-5.2,1.7-10.2,3.2-15.2l2.5,2.3l2.2-2.2l4.8,4.8c-0.2,0.8-0.2,1.7,0,2.5l-4.8,4.8
	L17.4,34.2z"/>
<path class="st0" d="M49.1,39.4l-5.7-5.2l-2.2,2.2l-4.8-4.8c0.2-0.8,0.2-1.7,0-2.5l4.8-4.8l2.2,2.2l2.5-2.3
	C47.4,29.2,48.4,34.3,49.1,39.4z"/>
<path class="st0" d="M50.8,61.4L34.2,43.3l2.2-2.2l-4.8-4.8c-0.8,0.2-1.7,0.2-2.5,0l-4.8,4.8l2.2,2.2L9.9,61.4
	c-0.2,5.5-0.2,9.3-0.2,9.3H51C51,70.7,51,66.9,50.8,61.4z M36.5,69.2H24.2c0,0-0.1-12.6,3-15.2c1.9-1.4,4.5-1.4,6.4,0
	C36.6,56.6,36.5,69.2,36.5,69.2L36.5,69.2z"/>
<path class="st0" d="M43.4,36.6l-2.3,2.3l-6.7-6.7l0.1-0.5c0.3-0.8,0.3-1.7,0-2.5l-0.1-0.5l6.8-6.7l2.3,2.3l1.9-1.7L60.7,8.2L52.4,0
	L39.5,14.1l-3,3.2l2.3,2.3l-6.7,6.8l-0.5-0.2c-0.8-0.2-1.7-0.2-2.5,0l-0.5,0.2l-6.7-6.8l2.3-2.3l-3-3.2L8.2,0L0,8.2l15.4,14.2
	l1.9,1.7l2.3-2.3l6.8,6.7l-0.2,0.5c-0.2,0.8-0.2,1.7,0,2.5l0.2,0.5l-6.8,6.8l-2.2-2.3l-6,5.5L0,52.5l8.2,8.2l1.8-2l14.1-15.3
	l-2.3-2.3l6.7-6.7l0.5,0.1c0.8,0.3,1.7,0.3,2.5,0l0.5-0.1l6.7,6.7l-2.3,2.3l14.1,15.3l1.8,2l8.2-8.2L49.4,42.1L43.4,36.6z
	 M32.2,32.2c-1,1-2.7,1-3.7,0c-1-1-1-2.7,0-3.7c1-1,2.7-1,3.7,0C33.2,29.5,33.2,31.1,32.2,32.2C32.2,32.2,32.2,32.2,32.2,32.2
	L32.2,32.2z"/>
<path class="st0" d="M32.4,59.3h0.3c0.4,0,0.8,0.3,0.8,0.8V62c0,0.4-0.3,0.8-0.8,0.8h-0.3c-0.4,0-0.8-0.3-0.8-0.8v-1.9
	C31.7,59.7,32,59.3,32.4,59.3z"/>
</svg>
