<?xml version="1.0" encoding="utf-8"?>
<!-- Generator: Adobe Illustrator 23.0.1, SVG Export Plug-In . SVG Version: 6.00 Build 0)  -->
<svg version="1.1" id="Слой_2" xmlns="http://www.w3.org/2000/svg" xmlns:xlink="http://www.w3.org/1999/xlink" x="0px" y="0px"
	 viewBox="0 0 100 100" style="enable-background:new 0 0 100 100;" xml:space="preserve">
<style type="text/css">
	.st0{fill:none;stroke:#CC9933;stroke-width:2;stroke-linecap:round;stroke-linejoin:round;stroke-miterlimit:10;}
</style>
<path class="st0" d="M5.62,45.58l3.52-18.61c0.42-0.64,1.08-1.06,1.75-1.02c0.99,0.06,1.92,1.12,1.83,2.5"/>
<path class="st0" d="M2.74,50.76c2.07,6.77,5.24,13.19,9.54,19.26"/>
<path class="st0" d="M5.46,31.54c-1.78-2.4-2.93-1.75-3.8-0.09C1.39,35.23,1,44.47,2.11,48.82c0.22,0.85,0.41,1.54,0.54,1.98"/>
<line class="st0" x1="12.28" y1="70.01" x2="26.32" y2="70.01"/>
<path class="st0" d="M37.18,55.06c-4.97,5.1-11.58,9.24-10.86,14.95"/>
<path class="st0" d="M33.94,51.51c3.24-0.15,4.32,1.03,3.24,3.55"/>
<path class="st0" d="M26.32,56.14c3.31-0.75,5.9-2.24,7.62-4.63"/>
<path class="st0" d="M21.22,50c0.73,2.83,2.34,4.95,5.1,6.14"/>
<path class="st0" d="M26.92,45.58c-2.3,0.76-4.2,2.24-5.7,4.42"/>
<path class="st0" d="M34.3,50c-1.63,0-5.96-4.49-7.38-4.42"/>
<path class="st0" d="M36.82,48.04c0.77,2.44-2.52,2.28-2.52,1.96"/>
<path class="st0" d="M27.16,39.7c3.58,2,6.8,4.78,9.66,8.34"/>
<path class="st0" d="M13.66,46.12c3.63-2.93,8.24-4.97,13.5-6.42"/>
<path class="st0" d="M13.12,48.4c-0.1-0.76,0.08-1.52,0.54-2.28"/>
<line class="st0" x1="7.51" y1="48.04" x2="17.26" y2="25.95"/>
<path class="st0" d="M21.22,26.32c-1.63-1.42-2.96-1.57-3.96-0.37"/>
<path class="st0" d="M17.2,39.7c-0.15,0.3,5.52-9.79,4.02-13.38"/>
<path class="st0" d="M62.42,26.86c7.2-8.67,14.98-9.14,23.39-0.54"/>
<path class="st0" d="M64.12,47.02c-16.92,5.13-18.18-21.88-1.7-20.16"/>
<path class="st0" d="M83.2,45.58c12.78,9.63,24.84-16.74,3.15-18.72"/>
<line class="st0" x1="64.12" y1="47.02" x2="65.38" y2="46.57"/>
<path class="st0" d="M60.88,37.23c3.87,14.92,22.77,15.46,26.64,0"/>
<line class="st0" x1="60.73" y1="47.65" x2="60.73" y2="67.66"/>
<line class="st0" x1="87.82" y1="67.66" x2="60.73" y2="67.66"/>
<line class="st0" x1="88.11" y1="47.67" x2="88.11" y2="67.67"/>
</svg>
