<?xml version="1.0" encoding="utf-8"?>
<!-- Generator: Adobe Illustrator 23.0.1, SVG Export Plug-In . SVG Version: 6.00 Build 0)  -->
<svg version="1.1" id="Слой_1" xmlns="http://www.w3.org/2000/svg" xmlns:xlink="http://www.w3.org/1999/xlink" x="0px" y="0px"
	 viewBox="0 0 130 130" style="enable-background:new 0 0 130 130;" xml:space="preserve">
<style type="text/css">
	.st0{fill:none;stroke:#CC9933;stroke-width:2;stroke-linecap:round;stroke-linejoin:round;stroke-miterlimit:10;}
</style>
<path class="st0" d="M22,64.6L25.5,46c0.4-0.6,1.1-1.1,1.8-1c1,0.1,1.9,1.1,1.8,2.5"/>
<path class="st0" d="M19.1,69.8c2.1,6.8,5.2,13.2,9.5,19.3"/>
<path class="st0" d="M21.9,50.6c-1.8-2.4-2.9-1.8-3.8-0.1c-0.3,3.8-0.7,13,0.5,17.4c0.2,0.8,0.4,1.5,0.5,2"/>
<line class="st0" x1="28.7" y1="89.1" x2="42.7" y2="89.1"/>
<path class="st0" d="M53.6,74.1c-5,5.1-11.6,9.2-10.9,14.9"/>
<path class="st0" d="M50.3,70.6c3.2-0.2,4.3,1,3.2,3.5"/>
<path class="st0" d="M42.7,75.2c3.3-0.8,5.9-2.2,7.6-4.6"/>
<path class="st0" d="M37.6,69.1c0.7,2.8,2.3,5,5.1,6.1"/>
<path class="st0" d="M43.3,64.6c-2.3,0.8-4.2,2.2-5.7,4.4"/>
<path class="st0" d="M50.7,69.1c-1.6,0-6-4.5-7.4-4.4"/>
<path class="st0" d="M53.2,67.1c0.8,2.4-2.5,2.3-2.5,2"/>
<path class="st0" d="M43.6,58.8c3.6,2,6.8,4.8,9.7,8.3"/>
<path class="st0" d="M30.1,65.2c3.6-2.9,8.2-5,13.5-6.4"/>
<path class="st0" d="M29.5,67.5c-0.1-0.8,0.1-1.5,0.5-2.3"/>
<line class="st0" x1="23.9" y1="67.1" x2="33.7" y2="45"/>
<path class="st0" d="M37.6,45.4c-1.6-1.4-3-1.6-4-0.4"/>
<path class="st0" d="M33.6,58.8c-0.2,0.3,5.5-9.8,4-13.4"/>
<path class="st0" d="M78.8,45.9c7.2-8.7,15-9.1,23.4-0.5"/>
<path class="st0" d="M80.5,66.1c-16.9,5.1-18.2-21.9-1.7-20.2"/>
<path class="st0" d="M99.6,64.6c12.8,9.6,24.8-16.7,3.2-18.7"/>
<line class="st0" x1="80.5" y1="66.1" x2="81.8" y2="65.6"/>
<path class="st0" d="M77.3,56.3c3.9,14.9,22.8,15.5,26.6,0"/>
<line class="st0" x1="77.1" y1="66.7" x2="77.1" y2="86.7"/>
<line class="st0" x1="104.2" y1="86.7" x2="77.1" y2="86.7"/>
<line class="st0" x1="104.5" y1="66.7" x2="104.5" y2="86.7"/>
<circle class="st0" cx="65.1" cy="65" r="63.6"/>
</svg>
