<?xml version="1.0" encoding="utf-8"?>
<!-- Generator: Adobe Illustrator 23.0.1, SVG Export Plug-In . SVG Version: 6.00 Build 0)  -->
<svg version="1.1" id="Слой_1" xmlns="http://www.w3.org/2000/svg" xmlns:xlink="http://www.w3.org/1999/xlink" x="0px" y="0px"
	 viewBox="0 0 69.6308289 93.6635895" enable-background="new 0 0 69.6308289 93.6635895" xml:space="preserve">
<g>
	<path fill="#CC9933" d="M35.1380653,44.602581c-4.0545654-1.7920914-8.4674416-2.0760765-12.1730309-0.7147026
		c-1.8664207,0.6790466-3.5265961,1.7352333-5.2304878,3.0043907c-1.7031021,1.267601-3.1536217,2.5744324-4.477253,4.1105347
		c-2.6094322,3.0403786-4.5259247,6.6982765-5.7066903,10.5401649c-1.1316547,3.9738617-1.73913,7.8431168-1.1506233,11.6809998
		c0.5367298,3.8894196,2.0531049,7.7233963,4.7294049,10.7907944c1.320118,1.5558624,2.9410839,2.8149872,4.7796459,3.8098602
		c1.8421021,0.9897079,3.9272156,1.6676941,6.0565491,2.3029709c4.1651306,1.2272263,8.579258,1.5841522,12.9184914,1.1330872
		c4.4035835-0.3487854,8.7009392-1.2494507,12.5270653-3.0149384c1.908474-0.8769913,3.688427-1.9514236,5.2803917-3.2151871
		c1.6021805-1.2544174,2.9635468-2.7477493,4.1883087-4.3086014c1.2278976-1.565094,2.1964645-3.3159866,3.0465012-5.1087952
		c0.7988129-1.8274994,1.4166107-3.7389984,1.8663101-5.7007904c0.8180771-3.9492874,0.9403381-8.0787621,0.4085312-12.0879402
		c-0.3036499-1.9981155-0.7168732-3.9553986-1.3164825-5.8251534c-0.6000519-1.8714256-1.3943863-3.7160263-2.3297577-5.5139847
		c-0.916008-1.8089066-2.0325699-3.5408173-3.2009735-5.2287827c-1.1975937-1.7052765-2.4451065-3.1745644-3.9179153-4.7105942
		c-1.459053-1.5219498-3.0937119-3.0512924-4.7180138-4.6822052c-1.6137047-1.6418839-3.1796608-3.4028625-4.6397552-5.227211
		c-0.723671-0.9246445-1.4282913-1.8379745-2.0962372-2.8155518c-0.686676-0.9979477-1.3093681-2.0300446-1.8807755-3.0800781
		c-0.5654564-1.0542297-1.0872383-2.1269379-1.538559-3.2282867c-0.4482994-1.1285553-0.8121262-2.1889791-1.1638603-3.3410406
		c-0.7324982-2.3134918-0.9545555-4.8307953-0.7479324-7.1696396c0.1019669-1.17733,0.3040771-2.3197708,0.5450859-3.4255984
		c0.2779579-1.1215973,0.5888252-2.2255936,0.8794708-3.3164444c0.0497437-0.1866989,0.2414169-0.2977219,0.4281158-0.2479782
		c0.1570168,0.041832,0.2605057,0.1840591,0.2598572,0.3392792l-0.0002594,0.0392685l-0.0145798,3.3210831
		c0.007885,1.1132281,0.087368,2.2045138,0.2119026,3.2594149c0.2459335,2.1262283,0.8575134,4.0693741,1.776947,5.9080734
		c0.9675407,1.9149628,2.0499268,3.7100363,3.2862129,5.3898687c0.6231422,0.835762,1.2784805,1.6377029,1.9749374,2.3924942
		c0.7239227,0.7680893,1.4554291,1.5643234,2.204319,2.3178024c3.0162277,3.0405273,6.3692932,5.5557327,9.9250946,8.6668625
		c1.7725525,1.530899,3.5274582,3.3869781,4.9934769,5.2673798c1.5019226,1.8883247,2.8398514,3.9028053,4.0208054,6.0367126
		c1.1680756,2.1389046,2.1657257,4.4042397,2.908493,6.7915382c0.7247772,2.394722,1.193718,4.8304405,1.4185562,7.2658386
		c0.2112885,2.437439,0.2086258,4.8781662,0.0305862,7.3075447c-0.2088013,2.4296722-0.6640701,4.8379059-1.2891922,7.2051315
		c-0.6943665,2.3540192-1.5610123,4.6700821-2.7348785,6.8529053c-0.2852707,0.5477066-0.6313858,1.0683517-0.9457016,1.6007843
		c-0.3123627,0.534462-0.6455994,1.0558548-1.027916,1.5490417c-0.3710022,0.4985809-0.7250137,1.0079041-1.1123199,1.4913177
		l-1.2559814,1.3773499c-3.3747635,3.6641159-7.857811,6.1004791-12.3880692,7.4467392
		c-2.2742004,0.6893311-4.5901604,1.0969009-6.8838768,1.3720322c-2.2973862,0.2492676-4.5900383,0.3623276-6.8359299,0.4232483
		c-4.5674171,0.1498032-9.169117-0.2567673-13.6391563-1.3233109c-2.1774063-0.5235214-4.4214096-1.0194473-6.655962-1.8679886
		c-2.2400284-0.82061-4.3877716-2.08078-6.2715168-3.6365967C4.644773,83.7095032,1.8897264,79.231575,0.6768281,74.3792191
		c-0.6227837-2.4522858-0.8060503-5.035347-0.5898418-7.5414276c0.0896683-1.255249,0.3164024-2.489212,0.5704346-3.6744652
		c0.1289558-0.6077423,0.2649727-1.1403351,0.4258843-1.7384605c0.1602345-0.6013107,0.3442402-1.1922684,0.5356712-1.7775993
		c1.553484-4.6491623,4.1466789-8.9587708,7.687624-12.4008369c1.7420177-1.7169037,3.8261948-3.1813965,5.8700066-4.3384438
		c2.0307674-1.1606522,4.3857517-2.1973076,6.8566036-2.6275673c4.9775658-0.9407845,10.0521049,0.6846352,13.4813118,3.7320061
		c0.1470833,0.1288605,0.1618538,0.3525581,0.0329933,0.4996414C35.4436302,44.6306419,35.2753906,44.6619225,35.1380653,44.602581z
		"/>
</g>
<path fill="none" stroke="#CC9933" stroke-width="6" stroke-linecap="round" stroke-linejoin="round" stroke-miterlimit="10" d="
	M27.5710182,54.4392586c-0.0511475,3.0355568-0.1303368,6.1160164-0.2399979,9.2400017
	c-0.1472092,4.1936569-0.3437271,8.3062592-0.5835419,12.3349533"/>
<path fill="none" stroke="#CC9933" stroke-width="6" stroke-linecap="round" stroke-linejoin="round" stroke-miterlimit="10" d="
	M45.3140221,54.6067352c0.3664322,3.072773,0.6362038,6.4282951,0.7369957,10.0325241
	c0.113205,4.0482025-0.003788,7.8014145-0.2534142,11.2074738"/>
</svg>
