<?xml version="1.0" encoding="utf-8"?>
<!-- Generator: Adobe Illustrator 23.0.1, SVG Export Plug-In . SVG Version: 6.00 Build 0)  -->
<svg version="1.1" id="Слой_1" xmlns="http://www.w3.org/2000/svg" xmlns:xlink="http://www.w3.org/1999/xlink" x="0px" y="0px"
	 viewBox="0 0 216.6 16.9" style="enable-background:new 0 0 216.6 16.9;" xml:space="preserve">
<style type="text/css">
	.st0{fill:#FFFFFF;stroke:#FFFFFF;stroke-width:0.25;stroke-miterlimit:10;}
	.st1{stroke:#000000;stroke-width:0.25;stroke-miterlimit:10;}
	.st2{fill:#0005D4;stroke:#0900AA;stroke-width:0.25;stroke-miterlimit:10;}
</style>
<polygon class="st0" points="77.6,0.9 77.6,15.6 85.3,15.6 85.3,12.8 80.7,12.7 80.7,9.8 85.3,9.7 85.3,6.9 80.7,6.9 80.7,4 
	85.3,3.9 85.3,0.9 "/>
<rect x="86.6" y="0.9" class="st0" width="7.9" height="3.1"/>
<rect x="86.6" y="6.9" class="st0" width="3.9" height="2.8"/>
<rect x="86.6" y="12.7" class="st0" width="7.9" height="2.9"/>
<g>
	<polygon class="st0" points="0.4,0.4 5.5,16.7 8,16.7 3,0.4 	"/>
	<polygon class="st0" points="26.9,0.4 21.8,16.7 19.2,16.7 24.2,0.4 	"/>
	<polygon class="st0" points="4.3,0.4 8.4,13.8 11.2,13.8 13.6,5.9 16.1,13.8 18.8,13.8 23,0.4 20.4,0.4 17.5,9.7 15.4,3.2 
		11.8,3.2 9.8,9.7 6.9,0.4 	"/>
</g>
<polygon class="st1" points="28.6,2.3 28.6,14.6 35.1,14.6 35.1,12.1 31.2,12.1 31.2,4.7 35.1,4.6 35.1,2.3 "/>
<polygon class="st1" points="36.2,2.3 40.4,2.3 42.6,3.7 42.6,13.1 40.4,14.6 36.2,14.6 36.2,12.1 40.1,12.1 40.1,4.7 36.2,4.7 "/>
<polygon class="st1" points="46.4,2.3 52.8,2.3 52.8,4.7 48.9,4.7 48.9,7.3 52.8,7.3 52.8,9.6 48.9,9.6 48.9,12.1 52.8,12.1 
	52.8,14.6 46.4,14.6 "/>
<rect x="53.8" y="2.3" class="st1" width="6.6" height="2.5"/>
<rect x="53.8" y="7.3" class="st1" width="3.3" height="2.3"/>
<polygon class="st1" points="61.2,3 63.5,2.3 67.6,9.6 67.6,14.6 "/>
<rect x="53.8" y="12.1" class="st1" width="6.6" height="2.5"/>
<polygon class="st1" points="72.9,2.3 75.1,3 68.7,14.6 68.7,9.7 "/>
<polygon class="st1" points="97.4,2.1 100,2.1 100,12 103.8,12 103.8,14.5 97.4,14.5 "/>
<rect x="104.9" y="11.9" class="st1" width="6.6" height="2.6"/>
<polygon class="st1" points="119.9,2.1 115.6,2.1 113.2,3.6 113.2,13 115.6,14.5 119.9,14.5 119.9,11.9 115.9,11.9 115.9,4.5 
	119.9,4.5 "/>
<polygon class="st1" points="120.7,2.1 125,2.1 127.2,3.6 127.3,13 125,14.5 120.7,14.5 120.7,11.9 124.7,11.9 124.7,4.5 120.7,4.5 
	"/>
<polygon class="st1" points="150.8,2.2 150.8,14.5 153.4,14.5 153.4,5.6 157.3,9.6 157.3,6.4 153.2,2.2 "/>
<polygon class="st1" points="164.9,2.2 164.9,14.5 162.3,14.5 162.3,5.6 158.4,9.6 158.4,6.4 162.5,2.2 "/>
<polygon class="st1" points="168.9,2.2 175.4,2.2 175.4,4.6 171.5,4.6 171.5,7.2 175.4,7.2 175.4,9.6 171.5,9.6 171.4,12.1 
	175.4,12.1 175.4,14.5 168.9,14.5 "/>
<rect x="176.3" y="2.2" class="st1" width="6.6" height="2.5"/>
<rect x="176.3" y="7.2" class="st1" width="3.3" height="2.3"/>
<rect x="176.3" y="12" class="st1" width="6.6" height="2.5"/>
<polygon class="st1" points="185.6,2.2 187.9,2.2 192.1,6.4 192.1,9.5 188.1,5.6 188.2,14.5 185.6,14.5 "/>
<polygon class="st1" points="199.6,14.5 197.3,14.5 193.1,10.3 193.1,7.2 197.1,11.1 197.1,2.2 199.6,2.2 "/>
<polygon class="st1" points="202.3,2.2 216.3,2.2 216.3,4.6 210.5,4.6 210.4,14.5 207.6,14.5 207.6,4.6 202.3,4.6 "/>
<polygon class="st0" points="130.5,0.3 138.7,0.3 138.7,3.2 130.5,3.1 130.5,3.1 "/>
<polygon class="st0" points="139.9,0.3 145.4,0.3 148.2,2 148.3,7.3 145.3,9.2 145.3,3.2 139.9,3.1 "/>
<polygon class="st0" points="135.1,7 138.7,7 138.7,8.9 135.1,8.9 "/>
<polygon class="st0" points="139.9,7 143.2,7 143.2,9 139.9,9.1 "/>
<polygon class="st1" points="131.6,15.6 131.6,3.3 138.7,3.3 138.7,6.8 135,6.8 135,9 138.7,9.1 138.7,12.1 134.6,12.1 132.1,15 "/>
<polygon class="st1" points="139.9,3.3 145.1,3.3 145.1,12 139.8,12 139.8,9.2 143.3,9.1 143.3,6.9 139.9,6.9 "/>
<path class="st2" d="M132,15.3"/>
<polygon class="st0" points="139.7,12.7 139.7,15.8 145.3,15.8 148.2,13.9 148.2,8.6 145.3,10.6 145.3,12.7 "/>
<polygon class="st0" points="134.7,12.6 138.7,12.6 138.7,15.8 131.6,15.8 "/>
</svg>
