<?xml version="1.0" encoding="utf-8"?>
<!-- Generator: Adobe Illustrator 23.0.1, SVG Export Plug-In . SVG Version: 6.00 Build 0)  -->
<svg version="1.1" id="Слой_2" xmlns="http://www.w3.org/2000/svg" xmlns:xlink="http://www.w3.org/1999/xlink" x="0px" y="0px"
	 viewBox="0 0 511 511" style="enable-background:new 0 0 511 511;" xml:space="preserve">
<style type="text/css">
	.st0{fill:#CC9933;stroke:#CC9933;stroke-width:2;stroke-miterlimit:10;}
	.st1{fill:#FFFFFF;}
</style>
<path class="st0" d="M416.4,318c15.7-10.9,22.7-25.2,24.3-41.7c89.7,67.3,77.5,146.8-48.3,151.7c0,0-11,12-11,12h116.8v20.2l0,0
	L9.9,461l0,0.8l-0.5-22.5l0,0.7h105.2l9.8-11.3C-35.4,426.3-12.9,326.3,89.5,262c21.2,5.6,38.4,16,51.7,31.2
	c4.5-2.9,8.1-6.5,9.8-11.4c-1.1-13.7-6.3-27.8-15.9-42.5c30.2-10.3,63-17.1,99.4-19.5c14.3,8.3,27,22.4,38.4,41.2
	c0,0,16.2-15.6,16.2-15.6s-0.1-24.3-0.1-24.3C367.6,226.8,426.1,253.3,416.4,318z"/>
<path class="st1" d="M88,385.3c-2.8,4.4-8.8,10.7-14,13.2c-7,3.3-16.3-6.3-14-13.2c2.1-6.5,8-12.5,14-13.2
	C81.7,371.2,91.9,379.1,88,385.3z"/>
<path class="st1" d="M112.8,350.4C110.6,351,100,361,100,362.5c0,1.5,4.6,7.4,5.9,6.2c1.2-1.2,12.2-10.6,12.8-12.1
	C119.3,355.1,114.9,349.7,112.8,350.4z"/>
<path class="st0" d="M249,91.5c-36.9,32.2-44.9,64.6-26.9,98.2c-40.3-40.4-47.3-77.9-6.3-111.2c5.2-22.8-1-45.2-13.7-67.5
	C234,36.3,253.8,62.7,249,91.5z"/>
<path class="st0" d="M331.9,95.9c-36.9,32.2-44.9,64.6-26.9,98.2c-40.3-40.4-47.3-77.9-6.3-111.2c5.2-22.8-1-45.2-13.7-67.5
	C316.8,40.6,336.7,67.1,331.9,95.9z"/>
</svg>
