<?xml version="1.0" standalone="no"?>
<!DOCTYPE svg PUBLIC "-//W3C//DTD SVG 20010904//EN"
 "http://www.w3.org/TR/2001/REC-SVG-20010904/DTD/svg10.dtd">
<svg version="1.0" xmlns="http://www.w3.org/2000/svg"
 width="980.000000pt" height="981.000000pt" viewBox="0 0 980.000000 981.000000"
 preserveAspectRatio="xMidYMid meet">
<metadata>
Created by potrace 1.15, written by Peter Selinger 2001-2017
</metadata>
<g transform="translate(0.000000,981.000000) scale(0.100000,-0.100000)"
fill="#CC9933" stroke="none">
<path d="M4163 9668 c126 -219 385 -741 544 -1096 l97 -217 -3 -120 c-2 -139
10 -197 65 -307 28 -57 58 -94 136 -171 56 -54 104 -95 109 -90 17 17 49 170
49 232 0 172 -95 338 -252 440 l-61 40 -96 208 c-102 219 -235 481 -353 693
-95 170 -249 430 -255 430 -3 0 6 -19 20 -42z"/>
<path d="M5021 9387 c-1 -4 48 -180 109 -390 60 -210 130 -465 154 -567 53
-216 97 -461 86 -475 -19 -24 -78 -154 -91 -200 -9 -32 -14 -101 -14 -195 0
-120 4 -159 23 -225 23 -80 96 -237 132 -285 l19 -25 21 50 c108 252 105 534
-10 830 -18 44 -40 128 -51 186 -42 235 -116 504 -274 989 -103 318 -103 319
-104 307z"/>
<path d="M4036 8725 c53 -77 177 -268 276 -425 99 -157 230 -356 289 -442 60
-86 118 -181 130 -210 110 -279 288 -485 543 -628 50 -29 58 -31 53 -14 -3 10
-9 44 -12 74 -37 288 -264 567 -515 631 -51 13 -54 16 -134 129 -46 63 -170
243 -276 400 -195 287 -367 529 -421 591 -16 19 14 -29 67 -106z"/>
<path d="M5481 8724 c-1 -6 37 -192 84 -413 114 -540 150 -754 174 -1015 l9
-99 -33 -46 c-171 -241 -177 -590 -16 -908 l39 -78 47 97 c73 155 98 263 99
443 1 168 -10 246 -59 410 -19 65 -37 157 -44 225 -16 151 -54 378 -97 570
-40 185 -202 830 -203 814z"/>
<path d="M1356 8355 c44 -49 184 -205 310 -345 376 -417 553 -631 738 -888
l69 -96 -2 -116 c-3 -138 15 -225 68 -351 85 -197 235 -371 436 -504 l80 -53
3 37 c6 57 -18 218 -45 311 -62 214 -176 395 -377 596 -79 79 -176 188 -220
249 -166 227 -340 424 -767 870 -305 319 -419 432 -293 290z"/>
<path d="M90 8356 c0 -2 46 -37 103 -77 405 -289 917 -690 1307 -1023 124
-107 125 -108 153 -184 58 -161 165 -296 305 -386 89 -58 145 -81 274 -116
l109 -29 -7 52 c-21 165 -74 284 -172 389 -111 118 -245 186 -422 215 l-100
16 -82 70 c-264 224 -656 524 -978 749 -200 139 -490 331 -490 324z"/>
<path d="M4214 8028 c57 -84 167 -256 246 -383 190 -307 299 -478 390 -610 42
-60 87 -137 100 -170 75 -190 185 -368 300 -485 82 -83 143 -131 263 -203 l77
-47 0 29 c0 59 -32 206 -60 280 -64 167 -215 349 -352 424 -35 20 -95 45 -135
57 l-71 21 -100 142 c-55 78 -201 295 -324 482 -197 297 -421 615 -434 615 -2
0 43 -69 100 -152z"/>
<path d="M5891 8058 c-1 -10 15 -120 33 -245 100 -659 130 -919 142 -1226 l7
-176 -33 -37 c-79 -91 -135 -206 -166 -342 -23 -101 -24 -327 -1 -428 18 -79
63 -208 94 -268 l20 -39 46 84 c109 201 145 322 154 525 7 148 -6 273 -43 425
-13 56 -24 131 -24 168 0 178 -36 504 -91 831 -48 286 -137 752 -138 728z"/>
<path d="M2173 7923 c198 -249 672 -863 762 -988 120 -165 251 -362 331 -498
50 -84 51 -89 41 -130 -5 -23 -10 -98 -11 -167 -1 -152 21 -245 93 -396 92
-193 210 -339 381 -471 l95 -73 3 118 c5 191 -33 366 -117 547 -74 156 -150
266 -311 447 -55 62 -135 169 -190 255 -114 178 -244 357 -399 553 -128 162
-720 870 -727 870 -3 0 19 -30 49 -67z"/>
<path d="M4384 7323 c79 -120 226 -355 326 -523 100 -168 235 -386 301 -485
83 -127 128 -207 152 -271 71 -185 161 -338 279 -475 82 -96 188 -180 352
-279 l38 -23 -7 74 c-20 220 -100 409 -243 577 -84 98 -219 184 -342 219 l-62
17 -83 121 c-47 67 -182 275 -301 461 -119 186 -255 395 -302 464 -94 138
-241 340 -248 340 -2 0 61 -98 140 -217z"/>
<path d="M6251 7500 c0 -8 17 -215 39 -460 62 -695 64 -735 64 -1086 l1 -330
-56 -65 c-150 -171 -214 -341 -226 -595 -8 -180 21 -354 85 -503 l17 -42 63
94 c34 52 80 133 102 180 97 207 133 486 94 737 -9 58 -18 232 -24 450 -9 375
-13 436 -61 865 -32 283 -96 781 -98 755z"/>
<path d="M2967 7445 c11 -16 128 -187 260 -380 476 -695 619 -919 798 -1254
l88 -164 -18 -71 c-26 -105 -31 -294 -10 -397 45 -223 163 -456 316 -623 82
-89 210 -199 221 -188 4 4 11 73 14 152 17 377 -105 711 -387 1061 -52 64
-113 156 -158 239 -197 361 -356 599 -859 1280 -224 303 -328 439 -265 345z"/>
<path d="M410 7253 c150 -83 375 -218 680 -408 344 -213 543 -333 675 -405 44
-24 114 -73 155 -110 303 -265 587 -392 934 -416 l99 -7 -54 79 c-109 158
-285 308 -454 384 -156 71 -347 97 -497 70 l-56 -11 -114 62 c-150 82 -351
198 -578 332 -228 136 -521 300 -701 395 -142 75 -202 99 -89 35z"/>
<path d="M3702 6970 c8 -14 138 -230 290 -480 506 -836 664 -1126 834 -1523
l34 -79 -25 -81 c-38 -129 -48 -208 -42 -341 11 -262 128 -557 310 -781 69
-85 204 -222 211 -214 2 2 11 54 20 116 20 141 21 354 1 468 -9 48 -14 89 -12
91 2 2 42 -66 89 -151 l85 -155 -9 -52 c-13 -69 -4 -339 13 -403 l14 -50 180
4 c233 4 433 15 441 24 10 10 -64 112 -135 186 -48 50 -72 85 -96 143 l-33 77
67 -58 c76 -65 236 -181 251 -181 8 0 50 -123 50 -149 0 -6 18 -11 45 -11 31
0 43 4 40 13 -2 6 -22 68 -44 137 -61 193 -167 493 -187 531 -33 64 -193 424
-189 427 2 2 31 -15 65 -38 34 -23 63 -40 65 -38 9 9 -17 231 -35 297 -74 270
-261 509 -472 606 l-55 25 -118 231 c-64 126 -119 228 -121 226 -2 -2 41 -100
96 -217 55 -117 99 -215 97 -217 -2 -2 -18 0 -35 3 -28 6 -45 27 -141 174 -60
92 -189 297 -286 456 -98 159 -225 361 -283 449 -114 174 -290 425 -298 425
-2 0 22 -39 54 -87 106 -158 237 -373 407 -668 200 -346 261 -448 371 -621 62
-97 95 -162 128 -253 94 -256 260 -513 406 -630 32 -25 52 -55 80 -115 55
-121 55 -121 -18 -65 -72 56 -201 123 -269 140 -36 10 -46 19 -79 72 -20 33
-79 144 -129 246 -106 213 -262 501 -460 846 -288 502 -442 759 -380 635 10
-19 107 -201 215 -405 228 -428 232 -435 226 -435 -2 0 -30 44 -61 98 -104
173 -362 562 -398 597 -12 11 -8 6 103 -170 115 -180 230 -378 410 -705 90
-162 204 -367 255 -455 110 -190 233 -470 314 -717 l23 -68 -29 -80 c-15 -44
-31 -80 -35 -80 -6 0 -112 185 -363 639 -86 156 -203 360 -259 455 -57 94
-139 241 -183 326 -161 311 -283 511 -714 1170 -249 382 -343 520 -297 440z"/>
<path d="M6601 6825 c0 -22 4 -157 9 -300 32 -817 30 -1242 -5 -1578 l-15
-146 -72 -73 c-125 -127 -195 -257 -245 -455 -25 -98 -28 -125 -28 -293 0
-178 1 -190 34 -318 l34 -133 31 37 c261 311 365 664 323 1094 -12 122 -12
168 -1 290 28 318 16 840 -36 1585 -22 307 -26 355 -29 290z"/>
<path d="M880 6637 c0 -2 46 -30 103 -62 186 -105 438 -260 712 -435 350 -225
517 -328 694 -430 108 -62 171 -106 250 -177 230 -205 489 -346 741 -402 91
-21 331 -52 339 -45 2 2 -26 47 -62 101 -143 214 -356 379 -590 457 -139 46
-275 57 -417 35 l-69 -10 -158 87 c-87 48 -347 200 -578 339 -231 139 -481
286 -555 327 -177 99 -410 221 -410 215z"/>
<path d="M6928 5945 c-4 -143 -12 -444 -18 -670 -14 -542 -33 -793 -86 -1135
l-26 -165 -92 -87 c-102 -95 -180 -201 -231 -311 -37 -81 -71 -184 -64 -192 5
-4 305 27 390 40 43 7 42 6 60 177 6 65 9 164 5 233 -5 95 -2 148 13 250 66
429 82 916 62 1840 l-6 280 -7 -260z"/>
<path d="M1470 5937 c0 -3 26 -20 58 -38 151 -86 450 -274 777 -489 371 -244
606 -393 780 -495 65 -38 139 -94 210 -159 338 -308 634 -450 1040 -500 66 -8
121 -13 124 -11 5 6 -80 141 -134 213 -60 80 -187 199 -276 259 -242 163 -489
228 -733 192 l-75 -11 -58 33 c-164 92 -435 255 -763 459 -201 125 -444 272
-540 327 -201 116 -410 227 -410 220z"/>
<path d="M7197 5751 c-4 -69 -7 -181 -7 -248 0 -119 1 -123 23 -127 12 -3 83
-17 157 -31 768 -149 1361 -393 1645 -679 140 -142 192 -259 182 -414 -4 -73
-11 -96 -47 -170 -76 -152 -261 -314 -511 -446 -590 -312 -1555 -520 -2671
-577 -298 -15 -1112 -6 -1383 15 -1328 105 -2358 407 -2776 816 -256 250 -264
508 -25 758 44 46 109 104 143 130 50 36 61 49 51 58 -7 7 -95 64 -196 128
l-183 117 -78 -66 c-254 -211 -415 -442 -478 -684 -23 -91 -24 -107 -20 -296
16 -635 221 -1384 573 -2095 132 -265 260 -443 499 -689 605 -625 1457 -1035
2450 -1181 299 -44 466 -54 855 -54 381 -1 499 6 800 45 517 67 1039 223 1473
440 635 319 1183 816 1471 1337 254 457 495 1138 590 1662 63 347 79 686 38
832 -68 248 -221 469 -467 675 -420 352 -1092 645 -1890 823 -99 22 -187 42
-196 44 -14 3 -17 -14 -22 -123z"/>
<path d="M1950 5280 c8 -6 105 -65 215 -132 191 -116 400 -254 1015 -670 151
-102 356 -236 455 -298 137 -85 200 -131 265 -195 299 -291 588 -463 914 -545
108 -27 344 -66 352 -58 7 7 -97 181 -153 255 -141 187 -369 353 -600 436
-146 53 -325 70 -472 47 l-63 -11 -72 42 c-173 102 -408 250 -761 477 -412
266 -566 361 -835 514 -155 89 -301 166 -260 138z"/>
<path d="M2430 4597 c3 -3 73 -48 156 -100 205 -129 509 -333 739 -495 342
-243 648 -457 755 -529 101 -67 108 -70 180 -76 l75 -7 -90 57 c-49 32 -310
204 -580 383 -507 338 -600 399 -795 517 -212 130 -457 269 -440 250z"/>
<path d="M2840 3927 c3 -3 82 -54 175 -114 94 -60 229 -149 300 -199 87 -61
143 -93 170 -98 l40 -7 -65 44 c-94 64 -377 239 -500 309 -124 71 -127 73
-120 65z"/>
</g>
</svg>
