<?xml version="1.0" standalone="no"?>
<!DOCTYPE svg PUBLIC "-//W3C//DTD SVG 20010904//EN"
 "http://www.w3.org/TR/2001/REC-SVG-20010904/DTD/svg10.dtd">
<svg version="1.0" xmlns="http://www.w3.org/2000/svg"
 width="1099.000000pt" height="1099.000000pt" viewBox="0 0 1099.000000 1099.000000"
 preserveAspectRatio="xMidYMid meet">
<metadata>
Created by potrace 1.11, written by Peter Selinger 2001-2013
</metadata>
<g transform="translate(0.000000,1099.000000) scale(0.100000,-0.100000)"
fill="#000000" stroke="none">
<path d="M6800 10803 c-81 -12 -192 -37 -245 -55 -121 -42 -272 -131 -385
-228 l-55 -47 -86 41 c-207 99 -250 108 -475 108 -130 -1 -161 -3 -279 -23
-136 -23 -269 -70 -445 -159 l-115 -58 -100 49 c-171 83 -213 94 -350 94 -83
-1 -140 -6 -185 -19 -68 -18 -233 -93 -238 -107 -2 -5 -8 -9 -14 -9 -18 0
-123 -87 -170 -141 -120 -138 -192 -290 -245 -514 -6 -29 -5 -306 2 -357 31
-223 120 -371 288 -479 75 -49 160 -77 275 -91 l93 -12 -5 -41 c-3 -22 -8 -69
-11 -105 -3 -36 -8 -81 -10 -100 -2 -19 -6 -71 -10 -115 -4 -44 -8 -96 -10
-115 -2 -19 -7 -75 -11 -125 -3 -49 -8 -106 -10 -125 -1 -19 -5 -98 -9 -175
-9 -228 -14 -277 -31 -335 -22 -76 -73 -200 -152 -372 -12 -26 -22 -36 -32
-32 -8 3 -55 16 -103 29 -49 12 -92 27 -97 31 -4 5 -33 59 -65 119 -236 451
-311 567 -461 718 -268 269 -522 269 -615 0 -24 -72 -27 -89 -35 -193 -3 -47
-7 -87 -9 -88 -2 -2 -18 16 -35 40 -36 50 -35 49 -122 155 -176 211 -395 361
-523 358 -85 -3 -114 -15 -174 -75 -73 -74 -93 -128 -96 -265 -5 -168 20 -264
155 -610 94 -241 216 -534 329 -788 56 -125 101 -229 101 -232 0 -2 11 -28 24
-57 43 -95 86 -196 86 -201 0 -3 15 -38 33 -79 95 -206 200 -449 196 -452 -2
-2 -56 4 -119 14 -107 16 -135 21 -245 36 -22 3 -51 7 -65 9 -39 6 -130 16
-180 20 -25 2 -83 7 -130 11 -168 16 -611 10 -765 -10 -17 -3 -51 -7 -77 -10
-26 -3 -58 -8 -70 -11 -13 -2 -34 -7 -48 -9 -164 -26 -332 -109 -440 -216 -98
-98 -166 -240 -206 -430 -61 -285 25 -674 212 -967 58 -89 141 -189 267 -317
45 -46 97 -100 116 -119 l34 -36 -82 -82 c-248 -248 -368 -496 -322 -666 20
-73 63 -103 148 -106 35 -1 172 10 218 19 11 1 40 6 65 9 25 3 56 7 70 10 27
5 90 14 132 20 19 3 46 -8 90 -37 35 -23 93 -58 130 -78 l67 -36 -28 -17 c-60
-35 -79 -132 -57 -287 11 -79 70 -376 101 -505 15 -60 28 -117 30 -125 2 -8
42 -172 89 -365 99 -404 156 -639 162 -675 18 -89 79 -301 110 -379 l17 -44
96 7 c53 3 125 10 161 15 36 5 90 13 120 16 30 4 57 8 60 10 3 1 36 6 73 10
37 3 76 8 85 10 29 5 104 14 177 20 39 4 77 8 85 10 8 2 51 7 95 10 44 3 96 8
115 10 19 3 67 7 105 10 39 2 99 7 135 9 224 17 495 29 870 41 63 2 232 7 375
12 492 15 2411 8 3035 -12 85 -3 232 -7 325 -10 94 -3 238 -7 320 -10 83 -2
231 -7 330 -10 99 -3 234 -8 300 -10 66 -2 203 -7 305 -10 102 -4 226 -8 275
-10 480 -21 564 -17 632 29 72 50 103 127 138 346 6 38 12 74 20 118 6 37 32
217 40 272 3 25 8 56 10 70 11 58 47 301 61 405 3 22 9 67 14 100 5 33 12 80
15 105 3 25 8 56 10 70 2 14 9 63 15 110 14 119 19 160 25 200 31 233 37 340
23 383 -9 23 -6 33 18 65 25 31 105 119 179 196 95 98 361 504 442 678 70 147
201 538 227 673 3 17 12 64 21 105 8 41 18 91 21 110 3 19 8 49 11 65 33 192
37 656 7 810 -2 11 -9 47 -14 80 -23 145 -83 338 -141 457 -34 69 -110 192
-128 208 -4 3 -19 22 -34 43 -57 76 -226 235 -308 289 -46 31 -140 82 -209
113 -69 32 -126 58 -127 59 -1 1 43 58 97 128 53 70 108 148 121 175 66 135
-14 319 -170 392 -45 20 -74 26 -143 28 -82 2 -92 0 -152 -31 -76 -40 -121
-79 -189 -166 -28 -36 -55 -69 -60 -75 -6 -6 -6 16 -2 60 12 105 14 361 4 434
-31 219 -97 385 -196 489 -83 87 -145 114 -277 118 -85 2 -112 -1 -168 -20
-111 -39 -254 -126 -352 -215 -65 -60 -179 -175 -219 -222 -38 -44 -250 -352
-319 -462 -53 -87 -74 -107 -107 -107 -16 0 -34 7 -41 15 -7 8 -21 61 -32 118
-24 135 -23 130 -43 222 -11 51 -18 143 -20 250 -2 94 -7 195 -9 225 -3 30 -8
82 -11 115 -6 55 -18 142 -31 220 -3 17 -23 119 -45 229 -21 109 -39 202 -39
205 0 4 30 13 68 20 98 18 229 64 302 107 125 72 279 216 398 372 51 68 135
237 152 307 53 226 -38 526 -238 790 -56 73 -197 215 -272 274 -159 125 -421
252 -615 297 -26 6 -162 34 -200 40 -36 7 -360 12 -395 7z"/>
</g>
</svg>
