<?xml version="1.0" encoding="utf-8"?>
<!-- Generator: Adobe Illustrator 23.0.1, SVG Export Plug-In . SVG Version: 6.00 Build 0)  -->
<svg version="1.1" id="Слой_1" xmlns="http://www.w3.org/2000/svg" xmlns:xlink="http://www.w3.org/1999/xlink" x="0px" y="0px"
	 viewBox="0 0 560 288" style="enable-background:new 0 0 560 288;" xml:space="preserve">
<g>
	<g>
		<path d="M267,223.5c-8.8,3.5-17.8,6.2-27.2,7.9c-0.2,0-2.6,0.9-1.8,1.4c28.4,17.9,58.3,33.4,88.1,48.8c0.8,0.4,3.8-0.8,2.6-1.5
			c-29.7-15.3-59.4-30.7-87.7-48.5c-0.6,0.5-1.2,0.9-1.8,1.4c9.9-1.8,19.6-4.6,28.9-8.3C270.4,223.7,268.4,222.9,267,223.5
			L267,223.5z"/>
	</g>
</g>
<g>
	<g>
		<path d="M328.2,281.4c11.1-3.8,21.9-9.4,32.6-14.3c10.1-4.7,19.4-10.3,28.5-16.8c10.8-7.7,21.9-13.6,34-19.1
			c11.7-5.3,23.2-11.1,35-16.4c2.1-0.9,0.2-1.8-1.3-1.2c-11.4,5.2-22.6,10.8-34,16c-10.3,4.7-20.4,9.3-29.8,15.7
			c-10.7,7.3-20.9,14.7-32.7,20.2c-10.9,5.1-22.1,10.9-33.5,14.8C324.7,281,326.7,281.9,328.2,281.4L328.2,281.4z"/>
	</g>
</g>
<g>
	<g>
		<path d="M459.2,213.7c-3.7-33.8-3.3-68.1,1.2-101.9c0.2-1.2-3.1-0.6-3.3,0.4c-4.5,33.9-4.9,68.3-1.2,102.3
			C456,215.6,459.3,214.9,459.2,213.7L459.2,213.7z"/>
	</g>
</g>
<g>
	<g>
		<path d="M325.3,145.6c22.3-4.7,44.9-7.6,66.8-14.2c10.6-3.1,20.5-7.9,31-11.3c11.8-3.7,23.2-6.3,35.3-8.4c1.3-0.2,2.9-1.6,0.6-1.3
			c-10.2,1.8-20.3,3.2-30.1,6.6c-5.3,1.8-10.7,3.4-16,5.2c-5.4,1.9-10.4,4.5-15.8,6.3c-23.1,8-47.5,10.7-71.3,15.7
			C324.6,144.6,323,146.1,325.3,145.6L325.3,145.6z"/>
	</g>
</g>
<g>
	<g>
		<path d="M322.6,146.9c-1.3,44.8,5.9,89.3,3.3,134.1c-0.1,1.7,3.2,1.2,3.3-0.3c2.6-44.8-4.6-89.3-3.3-134.1
			C325.9,144.9,322.6,145.4,322.6,146.9L322.6,146.9z"/>
	</g>
</g>
<g>
	<g>
		<path d="M420.9,136.3c-0.9,3.5-2.8,10.2-0.1,13.4c2.4,2.9,8.5-0.7,11.1-1.5c3.1-0.9,6.2-1.8,9.3-2.7c1.1-0.3,2.5-0.6,3.3-1.4
			c1.2-1.2,1.2-2.6,1.2-4.2c0-3.6-0.2-7.3-0.3-10.9c0-0.2-0.5,0-0.6,0c-7.8,2.7-15.5,5.4-23.6,7.1c-0.4,0.1-0.7,0.5-0.1,0.4
			c5.3-1.1,10.5-2.6,15.6-4.3c1.6-0.5,3.4-1.5,5-1.7c2.7-0.4,2.4-0.3,2.8,2.5c0.3,2.3,0.6,6.1,0.2,8.4c-0.7,3.7-5.8,4.4-9,5.4
			c-3,0.9-6.3,2.4-9.4,2.8c-1.4,0.2-4.4,0.1-5.4-1c-0.6-0.6-0.6-2.9-0.7-3.6c-0.1-2.9,0.5-5.9,1.3-8.7
			C421.8,135.9,421,136,420.9,136.3L420.9,136.3z"/>
	</g>
</g>
<g>
	<g>
		<path d="M424.5,143.2c-0.6-2-0.7-4.1-0.5-6.1c-0.3,0.1-0.5,0.1-0.8,0.2c0.8,1.2,1.5,2.5,2.3,3.6c0.5,0.7,1.2,2,2.2,1.8
			c0.1,0,0.5-0.1,0.5-0.3c0.2-2.1-0.1-4.1-0.4-6.2c0-0.2-0.8,0-0.8,0.2c0.3,2.1,0.6,4.1,0.4,6.2c0.2-0.1,0.3-0.2,0.5-0.3
			c-0.5,0.1-1.9-2.3-2.2-2.7c-0.6-0.9-1.1-1.8-1.7-2.6c-0.1-0.2-0.8,0-0.8,0.2c-0.2,2.1,0,4.2,0.5,6.1
			C423.7,143.6,424.6,143.3,424.5,143.2L424.5,143.2z"/>
	</g>
</g>
<g>
	<g>
		<path d="M429.3,138.5c0,1.3,0.4,2.6,0.3,3.9c0,0.4,0.8,0.3,0.8-0.1c0-1.3-0.3-2.6-0.3-3.9C430.1,138,429.3,138.1,429.3,138.5
			L429.3,138.5z"/>
	</g>
</g>
<g>
	<g>
		<path d="M430,137.5c0-0.1,0.1-0.2,0.1-0.3c0.2-0.4-0.6-0.3-0.8,0c0,0.1-0.1,0.2-0.1,0.3C429,137.8,429.9,137.8,430,137.5
			L430,137.5z"/>
	</g>
</g>
<g>
	<g>
		<path d="M431.1,138c-0.1,1.4,0.6,2.7,0.7,4.1c0,0.3,0.8,0.1,0.8-0.2c-0.1-1.4-0.8-2.6-0.7-4C431.9,137.6,431.1,137.8,431.1,138
			L431.1,138z"/>
	</g>
</g>
<g>
	<g>
		<path d="M432.2,138.7c0.3-0.4,0.5-0.7,0.9-0.4c0.3,0.2,0.5,0.6,0.7,1c0.3,0.7,0.5,1.4,0.6,2.1c0,0.2,0.9,0,0.8-0.2
			c-0.2-1-0.5-2.1-1.2-2.9c-0.8-1-2-0.4-2.6,0.4C431.3,138.9,432.1,138.8,432.2,138.7L432.2,138.7z"/>
	</g>
</g>
<g>
	<g>
		<path d="M435.4,137.9c0.2,0.8,0.2,1.7,0.3,2.5c0,0.5,0.1,1.1,0,1.6c0,0.2-0.1,0.5-0.1,0.7c0,0.1-0.1,0.1-0.1,0.2
			c0.1-0.2,0.3,0.1,0-0.2c-0.3-0.2-1,0.2-0.6,0.5c1.1,1,1.6-0.6,1.6-1.5c0-1.3-0.1-2.7-0.3-4C436.1,137.3,435.3,137.5,435.4,137.9
			L435.4,137.9z"/>
	</g>
</g>
<g>
	<g>
		<path d="M435.3,136.3C435.3,136.4,435.2,136.4,435.3,136.3c0.2,0,0.5-0.1,0.7-0.2c0,0,0,0,0,0c0-0.2-0.9,0-0.8,0.2
			C435.2,136.4,435.2,136.4,435.3,136.3c-0.1,0.1-0.1,0.1,0,0.1c0,0,0,0,0.1,0c0.2,0,0.6,0,0.7-0.2c0,0,0,0,0,0
			C436.1,136.1,435.4,136.1,435.3,136.3L435.3,136.3z"/>
	</g>
</g>
<g>
	<g>
		<path d="M438.7,137.2c0-0.1,0-0.4,0.1-0.5c0.1-0.1,0.5,0.1,0.6,0.2c0.4,0.2,0.6,0.4,0.8,0.8c0.3,0.9-0.1,1.9,0.1,2.8
			c0,0.3,0.9,0.1,0.8-0.2c-0.2-1.2,0.5-2.9-0.8-3.6c-0.8-0.5-2.3-0.5-2.3,0.7C437.9,137.6,438.7,137.4,438.7,137.2L438.7,137.2z"/>
	</g>
</g>
<g>
	<g>
		<path d="M440.4,138.2c-0.8-0.2-1.8-0.4-2.5,0.2c-0.4,0.4-0.4,1.1-0.2,1.6c0.2,0.5,0.5,1.1,1.1,1.2c0.7,0.1,1.3-0.3,1.6-1
			c0-0.1-0.7-0.1-0.8,0.1c0,0.1-0.3,0.5-0.3,0.6c0,0,0.3,0,0.2-0.1c0,0-0.1,0-0.1,0c-0.1-0.1-0.2-0.1-0.2-0.1
			c-0.3-0.2-0.5-0.6-0.7-1c-0.1-0.3-0.2-0.8,0-1.1c0-0.1,0.3-0.3,0.2-0.3c0.3-0.1,0.8,0.1,1,0.2
			C439.9,138.5,440.6,138.3,440.4,138.2L440.4,138.2z"/>
	</g>
</g>
<g>
	<g>
		<path d="M327.9,154.9c-1.9,9.9,0.7,19.5,2.5,29.2c0.1,0.8,2.6,0.2,2.5-0.7c-1.7-9.6-4.3-19.1-2.5-28.9
			C330.5,153.7,328,154.1,327.9,154.9L327.9,154.9z"/>
	</g>
</g>
<g>
	<g>
		<path d="M328.7,155.5c10,1.2,20.2-4.6,29.9-6.8c1.5-0.3,1.1-1.9-0.4-1.5c-9,2.1-19.3,7.8-28.6,6.7
			C328.4,153.8,327,155.3,328.7,155.5L328.7,155.5z"/>
	</g>
</g>
<g>
	<g>
		<path d="M357.1,147.7c2.4,7.7,3.6,15.5,3.8,23.6c0,0.4,2.5,0,2.5-0.7c-0.2-8.1-1.4-15.9-3.8-23.6
			C359.4,146.5,356.9,147.2,357.1,147.7L357.1,147.7z"/>
	</g>
</g>
<g>
	<g>
		<path d="M361,169.7c-10.2,4.1-20.2,8.7-30.3,13.1c-1.6,0.7-0.2,1.8,1,1.3c10.1-4.4,20.1-9,30.3-13.1
			C363.6,170.3,362.2,169.2,361,169.7L361,169.7z"/>
	</g>
</g>
<g>
	<g>
		<path d="M336.8,157.3c0.7,1.9,0.8,3.8,0.9,5.9c0.2,2.3,0.7,4.7,0.7,7.1c0,1.9-0.7,3.5-3,3.3c-1.7-0.2-2.9-1.2-3.2-2.9
			c-0.1-0.7-1.8-0.3-1.6,0.4c0.6,3.4,5.1,4.6,7.8,2.8c1.7-1.2,1.7-3,1.6-4.9c-0.2-3.8-0.3-8.4-1.6-12.1
			C338.2,156.1,336.5,156.6,336.8,157.3L336.8,157.3z"/>
	</g>
</g>
<g>
	<g>
		<path d="M353.3,156.5c-2-1.6-4.6-2.7-7.2-1.9c-2.5,0.8-4.5,3.8-2.9,6.2c1.8,2.6,5.6,2.2,8.1,3.6c1.5,0.8,3.3,2.4,2,4.2
			c-1.4,2.1-4,1.9-5.9,0.8c-1-0.6-1.8-1.4-2.5-2.3c-0.3-0.3-1.8,0.2-1.5,0.6c2,2.4,4.9,4,8,3.2c2.1-0.6,5.2-2.8,3.6-5.2
			c-1.5-2.4-4.8-2.6-7.2-3.3c-2.2-0.7-4.3-2.5-3.3-5c1.4-3.5,5.1-2,7.2-0.2C352.1,157.3,353.5,156.7,353.3,156.5L353.3,156.5z"/>
	</g>
</g>
<g>
	<g>
		<path d="M393.5,184c-6.1,1.5-8.9,6.3-6,12.4c2.5,5.2,8.9,5.9,14,4.4c5.4-1.6,8.9-5.9,7.9-11.7c-0.5-3.2-2.2-5.9-5-7.5
			c-4.4-2.5-10.6-4.3-9.9-10.8c0.1-0.8-2.4-0.3-2.4,0.4c-1,9.6,10.8,8.7,14,15.4c2.9,6,0.1,12.5-6.7,13.3c-3.8,0.5-6.9-0.2-8.9-3.6
			c-2.3-3.9-2.5-9.9,3.4-11.3C395.2,184.6,394.9,183.6,393.5,184L393.5,184z"/>
	</g>
</g>
<g>
	<g>
		<path d="M394.3,188.1c0.1,2.6,0.3,5.2,0.6,7.7c0.1,0.7,2.5,0.2,2.5-0.7c-0.3-2.6-0.5-5.1-0.6-7.7
			C396.7,186.8,394.2,187.2,394.3,188.1L394.3,188.1z"/>
	</g>
</g>
<g>
	<g>
		<path d="M400.4,186.6c0.5,2.7,0.8,5.4,0.8,8.1c0,0.3,2.5,0,2.5-0.7c-0.1-2.7-0.3-5.4-0.8-8.1C402.7,185.5,400.3,186.1,400.4,186.6
			L400.4,186.6z"/>
	</g>
</g>
<g>
	<g>
		<path d="M262.1,112.9c7.1,1.1,13.2,4.9,19.1,8.8c3,2,5.8,4,7.6,7.2c1.2,2.2,2,4.5,3.9,6.2c4.2,3.7,10.2,5,14.6,8.8
			c5.3,4.5,8.9,10.4,11.1,16.9c0.3,0.9,3.6,0,3.3-0.9c-2.1-6.4-5.7-12.1-10.6-16.6c-2.3-2.1-5-4-7.8-5.4c-3.3-1.7-6.7-2.6-8.9-5.7
			c-1.6-2.2-2.4-4.9-4.1-7c-2.4-2.8-5.9-4.7-9-6.6c-5.4-3.3-10.7-6.2-17-7.2C263.4,111.2,260.4,112.6,262.1,112.9L262.1,112.9z"/>
	</g>
</g>
<g>
	<g>
		<path d="M265.2,146.6c2.5,13.1,6,26,10.5,38.6c0.3,0.9,2.8,0.2,2.5-0.7c-4.5-12.5-8.1-25.5-10.5-38.6
			C267.5,145,265,145.6,265.2,146.6L265.2,146.6z"/>
	</g>
</g>
<g>
	<g>
		<path d="M303,159.3c-4.6,1-9.8,5.7-12.8,9.1c-3.9,4.3-3.9,10.8-8.2,14.7c-1.4,1.3,1.8,1.6,2.7,0.7c3.2-3,4-6.9,5.7-10.7
			c1.2-2.8,3.2-4.8,5.5-6.7c2-1.6,5-4.6,7.6-5.2C305.5,160.8,305,158.9,303,159.3L303,159.3z"/>
	</g>
</g>
<g>
	<g>
		<path d="M177.9,210.2c3,4,6,8.1,9,12.1c0.9,1.2,4-0.1,3-1.5c-3-4-6-8.1-9-12.1C179.9,207.5,176.8,208.8,177.9,210.2L177.9,210.2z"
			/>
	</g>
</g>
<g>
	<g>
		<path d="M180.4,227.1c5.7-3.3,12.1-4.2,18.4-5.7c5.8-1.4,11.5-3.2,17.1-5.2c11-4,22.6-8.5,32.7-14.6c6-3.6,11.2-6.6,17.9-8.6
			c5.4-1.6,10.6-3.8,15.9-5.7c9.2-3.2,34.8-9.6,38.9,4.3c0.3,1,3.6,0.1,3.3-0.9c-2.9-10.1-17.8-9.4-25.9-8.6
			c-6.7,0.7-13.1,2.5-19.4,4.8c-6.9,2.5-14.1,4.4-20.9,7.2c-5.9,2.4-10.9,6.5-16.6,9.4c-7.2,3.6-14.7,6.8-22.1,9.7
			c-7.5,3-15.2,5.4-23.1,7.3c-6.3,1.5-12.4,2.6-18,5.9C176.6,227.4,179.5,227.6,180.4,227.1L180.4,227.1z"/>
	</g>
</g>
<g>
	<g>
		<path d="M298.6,191.3c4.4,1.8,9.2,1.6,13.6,3.3c3.6,1.3,6.3,3.9,10.1,4.6c1.7,0.3,3.3-2.1,1.1-2.5c-3.9-0.7-6.8-3.7-10.6-4.8
			c-4.1-1.2-8.3-1.2-12.4-2.9C299,188.3,296.6,190.4,298.6,191.3L298.6,191.3z"/>
	</g>
</g>
<g>
	<g>
		<path d="M290.8,200.8c6.2,1.5,12.9,2.4,19,4.4c3,1,4.6,2.6,7.1,4.3c1.9,1.3,4,1.9,5.6,3.7c0.6,0.7,3.7-0.4,3.1-1.2
			c-1.3-1.6-2.9-2.2-4.6-3.2c-2.4-1.4-4.1-3.4-6.7-4.4c-6.4-2.6-14-3.3-20.8-5C292.6,199.2,289.7,200.5,290.8,200.8L290.8,200.8z"/>
	</g>
</g>
<g>
	<g>
		<path d="M290.7,201.7c3.2,6.1,9.5,5.8,14.8,9.2c6.8,4.4,11.8,12.4,17.1,18.4c1,1.2,4.1-0.2,3-1.5c-5-5.6-9.4-12.1-15.2-17.1
			c-5.1-4.4-13.5-4.2-16.7-10.5C293,198.9,289.9,200.1,290.7,201.7L290.7,201.7z"/>
	</g>
</g>
<g>
	<g>
		<path d="M281.9,208.7c1.9,0.6,2.7,2.1,4.1,3.3c2,1.6,4.5,2.6,6.8,3.9c4.7,2.7,9.2,5.7,13.3,9.2c5.8,4.9,10.3,8.4,18.1,6.2
			c2-0.6,1.5-2.3-0.5-1.8c-8.8,2.5-16.5-7.7-23.3-12.2c-3.3-2.2-7-3.8-10.2-5.9c-2.3-1.5-3.7-3.7-6.3-4.6
			C282.8,206.4,280.1,208.1,281.9,208.7L281.9,208.7z"/>
	</g>
</g>
<g>
	<g>
		<path d="M286.1,212.1c4.8,7.3,10.4,14.3,14.3,22.1c0.6,1.1,2.7,4.5,1.9,5.8c-1,1.5-4.2-1.3-4.9-1.8c-3.7-2.3-7.7-4.5-11-7.3
			c-4.5-3.9-5.6-11.5-10.9-14.2c-7.2-3.7-15.3,0.2-22-5.8c-0.9-0.8-4,0.5-3,1.3c3.1,2.8,6.6,4.1,10.7,4.7c5.3,0.8,11.3-0.5,14.9,4.4
			c3,4.2,3.8,8,8.1,11.5c3.8,3.1,8.2,5.5,12.4,8.1c3.6,2.3,10.3,3.2,8.9-3.5c-0.8-4-4.1-8.4-6.3-11.8c-3.2-5-6.7-9.8-10-14.7
			C288.6,209.8,285.4,210.9,286.1,212.1L286.1,212.1z"/>
	</g>
</g>
<g>
	<g>
		<path d="M261.2,218.1c-4.1,4-8.5,7.7-13.1,11c-1.4,1,0.6,1.8,1.6,1.1c4.8-3.4,9.3-7.3,13.5-11.4
			C264.4,217.7,262,217.3,261.2,218.1L261.2,218.1z"/>
	</g>
</g>
<g>
	<g>
		<path d="M244,236.6c2.8,1.8,4.4,4.5,6.6,6.9c2.5,2.8,5.6,5,8.8,7c6.8,4.3,14.2,7.6,21.6,10.7c14.8,6.2,30.1,11.4,43.9,19.8
			c0.4,0.2,1.8-0.4,1.5-0.6c-13.8-8.5-29.1-13.6-43.9-19.8c-7.4-3.1-14.8-6.5-21.6-10.7c-3.2-2-6.3-4.2-8.8-7
			c-2.2-2.5-3.7-5-6.6-6.9C245.2,235.8,243.8,236.5,244,236.6L244,236.6z"/>
	</g>
</g>
<g>
	<g>
		<path d="M117.6,159.4c0.8-4.7,1.7-10,4.6-13.9c4.1-5.5,12.3-6.9,18.7-6.4c12.2,1.1,20.4,10,25,20.7c3.6,8.3,5.4,18,10.7,25.5
			c2.8,3.9,6,6.5,5.4,11.8c-0.4,3.5-1.8,6.4,0.3,9.6c0.7,1,3.8-0.1,3-1.3c-2.9-4.5,1.5-10.4-1.1-15.4c-1.1-2.1-2.8-3.6-4.2-5.4
			c-2-2.7-3.4-5.8-4.6-8.9c-4.5-11.2-7.2-24.2-17.1-32.1c-7.8-6.2-18.2-7.9-27.7-5.3c-10.9,2.9-14.5,11.1-16.3,21.6
			C114.1,161.2,117.4,160.7,117.6,159.4L117.6,159.4z"/>
	</g>
</g>
<g>
	<g>
		<path d="M184.3,206.6c-3.7,0.1-7,0.9-10.3,2.4c-5.5,2.5-10.6,4.9-16.3,6.8c-3.9,1.3-7.8,2.7-11.2,5.1c-4,2.9-6.1,7.4-9.9,10.5
			c-1.3,1,4.7,0.4,5.9-0.6c2.2-1.8,3.7-3.9,5.5-6.1c3.2-4.1,7-6,11.9-7.6c3.1-1,6.3-2,9.3-3.2c3.1-1.3,7.5-4.6,10.8-4.7
			C181.3,209.1,187.3,206.4,184.3,206.6L184.3,206.6z"/>
	</g>
</g>
<g>
	<g>
		<path d="M114.3,159.8c-0.5,7.1,1.8,12.8,4.5,19.2c2.8,6.5,1.7,13.7,4.8,20.2c1.3,2.8,2.9,5.5,4,8.5c1.5,4.2,1.2,7.9,1.4,12.2
			c0.2,4.5,5.2,8,7.5,11.8c0.6,1,3.8-0.1,3-1.3c-1.7-2.8-4.1-5.1-5.8-7.9c-1.7-2.8-1-4.9-1.2-8.1c-0.3-5.9-3.1-10.9-5.6-16.2
			c-2.7-5.7-2-11.6-3.8-17.5c-2.3-7.6-6.2-13-5.6-21.4C117.7,158,114.4,158.6,114.3,159.8L114.3,159.8z"/>
	</g>
</g>
<g>
	<g>
		<path d="M140.4,232.1c8.6,13.3,19.7,27.8,33.2,36.4c12.2,7.8,29.9-0.4,42.4-3.5c2-0.5,1.5-2.2-0.5-1.7c-7.5,1.8-14.8,4.1-22.4,5.5
			c-4.2,0.8-8.4,1.5-12.6,0.2c-4.1-1.2-7.4-4.2-10.5-6.9c-10.3-9.1-19.2-19.7-26.6-31.2C142.8,229.8,139.7,230.9,140.4,232.1
			L140.4,232.1z"/>
	</g>
</g>
<g>
	<g>
		<path d="M217.1,264.2c5.6-4.4,11.5-8.4,17.4-12.3c1.8-1.2,3.7-2.4,5.3-3.9c2.8-2.5,4.4-5.9,7.4-8.3c1.3-1.1-1.9-0.7-2.5-0.2
			c-2,1.6-3.3,3.4-4.9,5.4c-2.2,2.8-4.9,4.8-7.9,6.7c-5.9,4-11.8,8-17.4,12.3C213.2,265,216.5,264.7,217.1,264.2L217.1,264.2z"/>
	</g>
</g>
<g>
	<g>
		<path d="M143.6,136.4c1.5-1.1,1.7-2.6,2.8-4c2.5-3.4,7.9-4.7,11.7-6c7.6-2.6,15.3-4.9,23.2-6.4c1.3-0.2,3-1.5,0.6-1.1
			c-9.1,1.7-18,4.3-26.7,7.4c-2.9,1-5.9,2.1-8.6,3.7c-3,1.7-3.5,4.7-6,6.7C140,137.2,143,136.9,143.6,136.4L143.6,136.4z"/>
	</g>
</g>
<g>
	<g>
		<path d="M184.7,122.4c9.5,17.5,25.4,33.4,46.8,30.8c1.5-0.2,2.8-1.9,0.5-1.6c-20.1,2.5-35.3-13.9-44.1-30
			C187.4,120.6,184.3,121.7,184.7,122.4L184.7,122.4z"/>
	</g>
</g>
<g>
	<g>
		<path d="M188.8,104.8c12.6,6.8,24.1,14.8,34.7,24.4c8,7.2,15.4,6.7,25.2,3c4-1.5,6.8-3.2,8.5-7.2c2.3-5.3,3.7-11.3,5.5-16.8
			c4.7-14.4,4.1-27.8,3.1-42.7c-0.1-1.3-3.4-0.6-3.3,0.9c0.8,11.9,2,23.8-1.1,35.5c-1.4,5.1-3.3,10.1-5,15.1
			c-0.8,2.5-1.3,5.3-2.4,7.7c-1.6,3.5-4.4,4.9-7.8,6.1c-6.2,2.1-11.9,3.3-17.4-1c-3.6-2.8-6.6-6.2-10.2-9
			c-8.5-6.8-17.7-12.7-27.3-17.8C190.2,102.4,187.3,104,188.8,104.8L188.8,104.8z"/>
	</g>
</g>
<g>
	<g>
		<path d="M265.7,65.4c-1.2-3-3.5-5.2-5.1-7.9c-2.2-3.8-3.3-8.3-4.9-12.5c-2.5-6.6-5.2-13.8-10.1-19.1c-9.4-10.2-28.1-11.3-40.8-8.8
			c-6.8,1.4-13.9,3-19.7,7.1c-5.9,4.2-9.6,10.5-12.9,16.7c-6.3,11.7-8.6,26.8-3.4,39.3c3,7,9.6,11.3,12.9,18
			c4.3,9,1.7,21.7,0.1,31.2c-0.2,1.4,3.1,0.9,3.3-0.3c1.5-8.8,3.1-18.5,1.3-27.4c-1.4-7-6.8-11.1-10.9-16.5c-10.7-14.1-6.2-34,2-48
			c6-10.4,13.6-15.1,25.2-17.6c10.3-2.2,20.9-1.8,30.8,1.9c9.9,3.7,14.3,12.5,18,21.9c1.6,3.9,2.7,8,4.4,11.9c1.7,4.1,5,7,6.6,11
			C262.9,67.5,266.2,66.5,265.7,65.4L265.7,65.4z"/>
	</g>
</g>
<g>
	<g>
		<path d="M168.9,73.9c11.5,1,23.8,1,34.5,5.8c8.4,3.7,16.3,9.7,25.5,11.4c5.3,0.9,11.3,0.3,15.2-3.7c0.8-0.8,1.8-3.5,2.6-3.8
			c1.6-0.7,4.3,1.4,6,1.9c3.9,1,7.8,0.7,11.6-0.4c1.9-0.5,1.5-2.2-0.4-1.6c-5.1,1.4-8.4,0.4-12.9-1.4c-0.9-0.4-1.4-0.7-2.2-0.8
			c-1.5-0.2-3,0-4.2,1.1c-1.1,0.9-1.5,2.5-2.4,3.7c-2.2,2.8-5.4,3.8-8.8,3.6c-4.7-0.3-9.1-2.3-13.3-4.4c-7.6-3.8-15.1-8.5-23.5-10.3
			c-8.5-1.9-17.7-2.1-26.4-2.8C168.9,72,166.7,73.8,168.9,73.9L168.9,73.9z"/>
	</g>
</g>
<g>
	<g>
		<path d="M246.8,84.4c1.5,0.1,2.1,1.9,2.5,3.1c0.5,1.3,0.8,2.7,1.6,3.8c0.7,1,3.8-0.1,3-1.3c-2-2.9-1.5-7.2-6-7.6
			c-0.7-0.1-1.8,0.2-2.2,0.9C245.6,84,246.2,84.3,246.8,84.4L246.8,84.4z"/>
	</g>
</g>
<g>
	<g>
		<path d="M215.9,83.1c0.7-4,1.6-7.9,2.8-11.8c1.6-4.9,2.7-8.4,8.4-9.4c10-1.7,19.7-4,29.9-3.4c0.8,0,3.7-1.3,2.1-1.4
			c-11.7-0.7-24.3,1.4-35.6,4.2c-8.3,2.1-9.6,15.3-10.8,22.3C212.5,84.5,215.7,83.9,215.9,83.1L215.9,83.1z"/>
	</g>
</g>
<g>
	<g>
		<path d="M172.7,47.4c25.5-7.2,51.4-9.9,77.8-7c0.7,0.1,3.8-1.2,2.1-1.4c-27.2-3-53.9-0.1-80.2,7.3C170.5,46.9,170.8,48,172.7,47.4
			L172.7,47.4z"/>
	</g>
</g>
<g>
	<g>
		<path d="M167.6,53.4c-5,2.8-11,3.8-14.8-1.2c-2.2-2.9-2.5-6.4-4-9.6c-1.9-4.1-5.4-5.9-9.4-7.5c-0.2,0.8-0.4,1.6-0.6,2.3
			c3.9-0.8,7.8-1.5,11.7-2.1c2.9-0.5,2.8-0.6,5.6,0.7c3.2,1.5,3,2.6,4.5,5.5c1.8,3.7,4.2,6.3,8,8c1.4,0.6,3.8-1.4,1.9-2.3
			c-4.8-2.2-5.7-5.6-7.9-9.9c-1.2-2.3-2.3-4.1-4.9-4.9c-5.5-1.6-14.1,1.5-19.4,2.6c-1.1,0.2-2,1.8-0.6,2.3c5.2,2.1,7.6,4.7,9.3,10
			c1.1,3.2,2.3,5.9,4.8,8.2c5.5,4.9,11.6,3,17.4-0.2C171.1,54.4,169.3,52.5,167.6,53.4L167.6,53.4z"/>
	</g>
</g>
<g>
	<g>
		<path d="M166.6,54.3c-2.4,3.3-3.9,7.8-7,10.5c-4.1,3.7-9.8,3.1-14.7,4.8c-3.1,1.1-10.8,5.9-9.3,10.2c0.7,2,5.3,3,7,3.6
			c3.9,1.4,8,2.4,12.2,1.8c7-1.1,11.4-6.3,15.3-11.7c1-1.4-2.4-1.3-3.1-0.3c-2,2.8-4.2,5.9-7.2,7.8c-4.7,3.1-10.3,2.2-15.3,0.4
			c-2.8-1-6.2-1.8-4.6-5.3c1.8-3.9,6.8-5,10.7-5.8c4-0.8,7.9-1.5,11.1-4.3c3.5-3.1,5.2-7.8,7.9-11.5
			C170.7,53.2,167.4,53.3,166.6,54.3L166.6,54.3z"/>
	</g>
</g>
<g>
	<g>
		<path d="M224,69.5c-1.8,6-1.2,14.9,5.7,17.2c5.1,1.7,10.5-1.3,12.7-5.9c2.6-5.6,3.3-13-3.3-15.9c-5.5-2.4-11.7-0.5-15,4.5
			c-0.6,0.9,1.9,0.6,2.3,0c1.9-2.9,4.7-4.7,8.3-4.1c2.5,0.4,5.1,1.8,6.3,4c1.8,3.3,0.7,7.8-0.7,11.1c-1.3,3.1-3.7,5.9-7.5,5.5
			c-2.6-0.3-4.7-2.2-5.9-4.5c-1.8-3.7-1.6-8.2-0.5-12.1C226.6,68.4,224.2,68.8,224,69.5L224,69.5z"/>
	</g>
</g>
<g>
	<g>
		<path d="M236.2,74.5c0.1,1.6-0.8,2.8-1.8,4c0.8,0,1.5,0.1,2.3,0.1c-0.1-0.3-0.2-0.6-0.2-0.9c0-0.1,0.1-0.4,0-0.5
			c-0.1-0.2,0.1,0,0,0c0,0-0.2,0.1-0.2,0.1c-0.1,0.1,0.1-0.1-0.1,0c-0.2,0.1,0,0,0,0c0,0,0.1,0,0.1,0.1c-0.1-0.1,0.3,0.2,0.2,0.1
			c0.2,0.2,0.1,0.2,0.1,0.2c0-0.1,0-0.1,0,0c0,0-0.2,0.1-0.2,0.1c0,0,0.8,0,0.7,0c0,0-0.2-0.2-0.2-0.5c0-0.1,0.1-0.6,0.1-0.6
			c0,0,0,0,0,0c0.1,0-0.3,0.2-0.4,0.2c-0.2,0.1-0.4,0-0.1,0.1c0.5,0.3,1.3,0.3,1.8-0.1c0.4-0.3,0.7-1,0.1-1.4
			c-1.3-0.8-3.2-0.7-3.8,1c-0.4,1.1,0,2.6,1.1,3c1.3,0.5,3.4-0.6,3.4-2.1c0-1.3-1.5-2.1-2.6-2c-2.2,0.1-2.6,2.1-2.2,3.8
			c0.3,1,1.8,0.7,2.3,0.1c1.2-1.4,2.4-3.1,2.2-5C238.6,73,236.1,73.3,236.2,74.5L236.2,74.5z"/>
	</g>
</g>
<g>
	<g>
		<path d="M265.1,66.9c-3.4-4.3-10.2-7.2-15-3.2c-4.1,3.4-4.2,10.4-2.3,15c2.1,4.8,7.8,8.4,12.8,5.4c5.6-3.4,6.6-11.4,4.7-17
			c-0.4-1.2-2.8-0.5-2.5,0.7c1.3,3.7,1.3,8-0.6,11.6c-1.7,3.2-5.2,5-8.4,2.9c-1.7-1.2-3-2.9-3.7-4.9c-1.1-2.8-1.2-6.3-0.3-9.1
			c2.1-6.7,9.7-4.6,13.1-0.2C263.6,68.9,265.9,67.9,265.1,66.9L265.1,66.9z"/>
	</g>
</g>
<g>
	<g>
		<path d="M257,75.3c0.2-0.5,0.4-1,0.7-1.5c0.1-0.1,0.2-0.2,0.2-0.3c0,0,0.1,0,0.1-0.1c0,0-1.5,0.3-1.5,0.3c0.1,0.2,0.3,0.2,0.3,0.5
			c0,0.2-0.1,0.3-0.1,0.5c0,0.2-0.1,0,0,0.1c0.1-0.1,0.3-0.1,0.4-0.1c0.4,0,0.4,0,0.2-0.1c0-0.1-0.2-0.1-0.3-0.2
			c-0.2-0.2-0.3-0.4-0.3-0.7c-0.1-0.3,0-0.4,0.1-0.7c0-0.1,0.1-0.1-0.1,0c-0.1,0-0.7,0.2-0.7,0.2c0,0,0.1,0,0.2,0
			c0.5,0.1,1.3-0.1,1.7-0.5c0.4-0.3,0.3-0.6-0.2-0.7c-1.1-0.2-3,0.1-3.5,1.4c-0.3,0.8,0.2,1.8,0.9,2.2c1.2,0.6,3.7-0.1,4-1.6
			c0.1-0.5-0.2-1.1-0.7-1.3c-0.7-0.3-1.8,0-2.4,0.4c-0.8,0.6-1.2,1.6-1.5,2.5c-0.2,0.5,0.8,0.4,1,0.4C256,76,256.8,75.7,257,75.3
			L257,75.3z"/>
	</g>
</g>
<g>
	<g>
		<path d="M259.4,74.8c0-1.7-1.2-2.7-2.8-2.7c-1.7,0-3.2,1.2-2.9,2.9c0.2,1,2.7,0.4,2.5-0.7c0-0.2,0-0.3,0-0.5
			c0-0.1,0.1-0.3,0.1-0.2c0.1-0.1,0.1-0.1,0,0c0,0-0.1,0.1-0.2,0.1c0.1-0.1,0,0-0.1,0c0.2-0.1-0.2,0,0,0c-0.2,0-0.1,0,0,0
			c0.2,0.1-0.2-0.1,0.1,0c0.1,0,0,0,0.1,0c0.1,0.1,0.3,0.2,0.3,0.2c0.3,0.3,0.4,0.6,0.4,1C256.9,76.3,259.4,75.8,259.4,74.8
			L259.4,74.8z"/>
	</g>
</g>
<g>
	<g>
		<path d="M258.1,73.2c0.1-0.2,0.2-0.3,0.3-0.5c0.5-1-1.2-1-1.7-0.8c-1,0.5-2.5,1.6-1.4,2.8c0.8,0.8,2.3,1,3.3,0.5
			c0.6-0.3,1-0.8,0.8-1.5c-0.2-0.8-1.1-1.2-1.9-1.2c-1.9,0.1-3.3,2-2.2,3.7c0.5,0.9,2.9,0,2.3-1c-0.2-0.3-0.2-0.6-0.1-0.9
			c0-0.1,0.1-0.1,0-0.1c0,0-0.6,0.1-0.6,0c0,0,0.2,0.2,0.1,0.1c0,0,0,0.1,0,0.1c0.1,0.1,0,0,0,0c0.1-0.1,0.3-0.4,0.6-0.6
			c0.1,0,0.3-0.1,0.3-0.1c-0.1,0-0.2,0,0.1,0c-0.3,0,0.1,0-0.1,0c-0.1,0-0.2-0.1-0.3-0.1c0.2,0.1,0,0-0.1-0.1
			c-0.2-0.1,0,0.1-0.1-0.1c-0.1-0.2,0.1,0.1,0-0.1c0,0.1,0,0.1,0,0c0,0,0-0.1,0,0c0.1-0.1,0,0,0,0c0,0,0.2-0.2,0.1-0.1
			c0,0,0.2-0.1,0.3-0.2c-0.6-0.3-1.1-0.5-1.7-0.8c-0.1,0.2-0.2,0.3-0.3,0.5c-0.3,0.5,0.2,0.9,0.7,0.9
			C257.1,74,257.9,73.8,258.1,73.2L258.1,73.2z"/>
	</g>
</g>
<g>
	<g>
		<path d="M156.1,45.6c0.9,2,2,4,4.1,5.1c2.5,1.3,5.5,1.3,8,2.8c0.4,0.3,1.8-0.4,1.5-0.6c-2.1-1.2-4.4-1.6-6.7-2.3
			c-2.8-0.9-4.1-2.8-5.3-5.4C157.6,44.8,156,45.3,156.1,45.6L156.1,45.6z"/>
	</g>
</g>
<g>
	<g>
		<path d="M162.8,73.4c2.8-3.1,4.8-6.7,5.8-10.8c0.1-0.6-1.5-0.3-1.6,0.2c-1,4-2.9,7.5-5.7,10.6C160.9,73.9,162.5,73.8,162.8,73.4
			L162.8,73.4z"/>
	</g>
</g>
<g>
	<g>
		<path d="M255.6,73.7c0.4,0,0.8-0.1,1.1,0.1c0.5,0.2,0.4,0.6,0.4,1c-0.1,0.4-0.1,0,0.1,0.1c0.1,0,0.1,0,0,0c-0.1,0-0.1,0,0,0
			c-0.1-0.1-0.1,0-0.2-0.1c-0.4-0.2-0.7-0.5-0.9-0.8c-0.2-0.6-0.9-0.7-1.5-0.5c-0.4,0.1-1.2,0.6-1,1.2c0.9,2.1,4.1,3,5.6,0.9
			c0.7-0.9,0.7-2.2-0.2-3c-0.8-0.7-2.1-0.9-3.1-0.8c-0.5,0.1-1.3,0.4-1.4,1C254.4,73.5,255.1,73.7,255.6,73.7L255.6,73.7z"/>
	</g>
</g>
<g>
	<g>
		<path d="M236.8,73.7c-1.7,0.6-3.4,3.1-2.7,5c0.9,2.4,4.2,1.1,5.1-0.5c0.7-1.4,0.8-4.2-1.2-4.5c-2-0.3-3.8,1.1-4,3
			c-0.3,2,0.4,3.8,2.7,3.5c0.4-0.1,1.4-0.3,1.4-0.8c0-0.5-0.7-0.5-1-0.4c0.1,0-0.1-0.1-0.2-0.2c-0.2-0.2-0.3-0.4-0.3-0.6
			c-0.2-0.5-0.2-1.1-0.1-1.7c0.1-0.5,0.4-1,0.5-1.5c0-0.1,0.1-0.1,0.1-0.2c-0.1,0.1-0.2,0.1-0.2,0.1c-0.2,0-0.3,0-0.1,0.1
			c0,0.1,0.4,0.7,0.5,0.8c0.2,0.6,0.2,1.2,0.1,1.8c-0.1,0.4-0.3,0.7-0.5,1.1c-0.1,0.2-0.6,0.5,0.1,0.2c0.5-0.2,0.3-0.1,0-0.5
			c-0.4-0.6-0.3-1.4-0.1-2c0.2-0.5,0.6-1.5,1.1-1.7c0.3-0.1,0.9-0.5,0.7-0.9C238.1,73.2,237.1,73.5,236.8,73.7L236.8,73.7z"/>
	</g>
</g>
</svg>
