<?xml version="1.0" encoding="utf-8"?>
<!-- Generator: Adobe Illustrator 23.0.1, SVG Export Plug-In . SVG Version: 6.00 Build 0)  -->
<svg version="1.1" id="Слой_1" xmlns="http://www.w3.org/2000/svg" xmlns:xlink="http://www.w3.org/1999/xlink" x="0px" y="0px"
	 viewBox="0 0 560 288" style="enable-background:new 0 0 560 288;" xml:space="preserve">
<style type="text/css">
	.st0{fill:#666666;}
	.st1{fill:none;stroke:#000000;stroke-width:8.2381;stroke-linecap:round;stroke-miterlimit:10;}
	.st2{fill:none;stroke:#000000;stroke-width:2.4763;stroke-linecap:round;stroke-miterlimit:10;}
	.st3{fill:none;stroke:#666666;stroke-width:0.8827;stroke-linecap:round;stroke-miterlimit:10;}
	.st4{fill:none;stroke:#000000;stroke-width:0.8827;stroke-linecap:round;stroke-miterlimit:10;}
	.st5{fill:none;stroke:#000000;stroke-width:4.6985;stroke-linecap:round;stroke-miterlimit:10;}
	.st6{fill:none;stroke:#000000;stroke-width:8.2223;stroke-linecap:round;stroke-miterlimit:10;}
	.st7{fill:none;stroke:#000000;stroke-width:2.3492;stroke-linecap:square;stroke-miterlimit:10;}
	.st8{fill:none;stroke:#000000;stroke-width:4.6985;stroke-linecap:square;stroke-miterlimit:10;}
	.st9{fill:none;stroke:#666666;stroke-width:3.5239;stroke-linecap:round;stroke-miterlimit:10;}
	.st10{fill:none;stroke:#000000;stroke-width:0.2937;stroke-linecap:round;stroke-miterlimit:10;}
	.st11{fill:none;stroke:#000000;stroke-width:0.2976;stroke-linecap:square;stroke-miterlimit:10;}
	.st12{fill:none;stroke:#000000;stroke-width:20.3603;stroke-linecap:round;stroke-miterlimit:10;}
	.st13{fill:none;stroke:#000000;stroke-width:15.0023;stroke-linecap:round;stroke-miterlimit:10;}
	.st14{fill:none;stroke:#666666;stroke-width:9.6443;stroke-linecap:round;stroke-miterlimit:10;}
	.st15{fill:none;stroke:#000000;stroke-width:1.6028;stroke-linecap:round;stroke-miterlimit:10;}
	.st16{fill:none;stroke:#000000;stroke-width:0.5358;stroke-linecap:round;stroke-miterlimit:10;}
	.st17{fill:#FFFFFF;}
	.st18{font-family:'ArialMT';}
	.st19{font-size:13.3567px;}
	.st20{font-size:7.4225px;}
	.st21{fill:none;}
	.st22{font-size:7.9567px;glyph-orientation-vertical:0;writing-mode:tb;}
	.st23{font-size:10.6962px;glyph-orientation-vertical:0;writing-mode:tb;}
	.st24{font-size:7.9491px;glyph-orientation-vertical:0;writing-mode:tb;}
	.st25{font-size:7.9881px;glyph-orientation-vertical:0;writing-mode:tb;}
</style>
<g id="XMLID_1_">
	<g>
		<path d="M180.1,264c6.4,1.6,9,5.6,6.8,13l-10.2,3.8l-47-10.9c-15.1,3.1-31.8,7.8-43.7,7.8c-8.7,0-14.8-2.5-15.6-10.1
			c-4.1-19.7-7.8-38.7-6.1-49.7c1.5-5,9.4-7.7,23.6-8.3c5.3,0.7,8.5,3.6,10.2,8.3l-17.5-1.4l27.5,8.3l19.5-14.3
			c7.6-1,10.5,2.6,9.6,9.9l-27,20.2l-29.5-8.1l22.3,14.4l1,9.2l26.1-4L180.1,264z"/>
		<path class="st0" d="M154.4,196.8l-5.2,35.9l-13.7-1.3c20.8-17.1-1.6-30.5-8-28.1l1.5-8.8l19.2,2.4c-4.3-3.8-9.4-8.6-10.3-9.5
			c-0.9-0.9,0.9-3.2,1.4-2.9C139.8,184.9,143,187.3,154.4,196.8z"/>
		<path d="M86.3,170.6c9.8,0,17.7,7.9,17.7,17.7c0,9.8-7.9,17.7-17.7,17.7c-9.8,0-17.7-7.9-17.7-17.7
			C68.6,178.5,76.5,170.6,86.3,170.6z"/>
	</g>
	<g>
		<line class="st1" x1="59.4" y1="135.2" x2="59.9" y2="280.1"/>
		<polyline class="st1" points="186,280.9 176.7,280.9 86,280.9 59.9,280.9 		"/>
		<path class="st2" d="M104,188.3c0,9.8-7.9,17.7-17.7,17.7c-9.8,0-17.7-7.9-17.7-17.7c0-9.8,7.9-17.7,17.7-17.7
			C96.1,170.6,104,178.5,104,188.3z"/>
		<path class="st3" d="M139.2,184.6c0.5,0.3,3.8,2.7,15.1,12.2l-5.2,35.9l-13.7-1.3c20.8-17.1-1.6-30.5-8-28.1l1.5-8.8l19.2,2.4
			c-4.3-3.8-9.4-8.6-10.3-9.5C136.9,186.5,138.7,184.2,139.2,184.6z"/>
		<path class="st4" d="M176.7,280.9l10.2-3.8c2.3-7.4-0.4-11.4-6.8-13l-50-11.7l-26.1,4l-1-9.2l-22.3-14.4l29.5,8.1l27-20.2
			c0.9-7.3-2-10.9-9.6-9.9L108,224.9l-27.5-8.3L98,218c-1.6-4.7-4.9-7.6-10.2-8.3c-14.2,0.6-22.1,3.4-23.6,8.3
			c-1.7,11.1,2,30,6.1,49.7c0.8,7.5,6.9,10.1,15.6,10.1c11.8,0,28.6-4.7,43.7-7.8L176.7,280.9z"/>
	</g>
</g>
<line class="st5" x1="358.8" y1="38.3" x2="358.8" y2="56.7"/>
<line class="st5" x1="221.5" y1="38.3" x2="221.5" y2="56.7"/>
<line class="st6" x1="230.7" y1="33" x2="230.7" y2="61.3"/>
<line class="st6" x1="349.6" y1="33" x2="349.6" y2="61.3"/>
<line class="st7" x1="238.2" y1="44.4" x2="238.3" y2="50.3"/>
<line class="st7" x1="342.1" y1="44.2" x2="342.2" y2="50.1"/>
<g id="XMLID_7_">
	<g>
		<path d="M290.2,22.8c8.1,0,14.6,6.7,14.6,15c0,8.3-6.5,15-14.6,15c-8.1,0-14.6-6.7-14.6-15C275.6,29.6,282.1,22.8,290.2,22.8z"/>
	</g>
	<g>
		<path class="st8" d="M304.8,37.9c0,8.3-6.5,15-14.6,15c-8.1,0-14.6-6.7-14.6-15c0-8.3,6.5-15,14.6-15
			C298.3,22.8,304.8,29.6,304.8,37.9z"/>
	</g>
</g>
<line class="st9" x1="327.6" y1="60" x2="337.5" y2="60"/>
<line class="st9" x1="243.1" y1="60" x2="252.9" y2="60"/>
<g id="XMLID_3_">
	<g>
		<path d="M276.4,51.1h-14.6c1-2.2,0.1-5-1.6-7.9h11.5C272.7,46,274.2,48.7,276.4,51.1z"/>
	</g>
	<g>
		<path class="st10" d="M260.2,43.2h11.5c1,2.8,2.4,5.5,4.7,7.9h-14.6C262.7,48.9,261.9,46.2,260.2,43.2z"/>
	</g>
</g>
<g id="XMLID_2_">
	<g>
		<path d="M253.8,44.5c0-3.9,1.2-4.3,3.1-3l2.7,5.9c0.6,1.2,0.6,2.4,0,3.7l-5.6,5.7h-11.5c-0.6-0.1-0.9-0.5-1.1-1.2v-8.3
			c1.2,1.1,2.5,1.1,3.9,0.3c1.2,0.7,2.3,0.7,3.5,0.1c1.3,0.6,2.5,0.7,3.7,0c1,0.5,2,0.6,3,0.4L253.8,44.5z"/>
		<path d="M256.1,39.7c-4.5,0.9-4.3,3.8-2.3,7.5l-1.4-0.9c-1.3,1.4-2.5,1.6-3.7,0.1c-1.2,1.3-2.5,1.6-3.7-0.2
			c-1.6,1.4-2.7,1.3-3.6-0.1v-6.4c1.2-1.6,2.4-1.5,3.7-0.3c1.3-1.1,2.5-1.2,3.7,0.2c1.2-1.4,2.4-1.3,3.6-0.2
			C253.9,38.1,255.1,38.2,256.1,39.7z"/>
	</g>
	<g>
		<path class="st10" d="M241.4,47.4v8.3c0.1,0.7,0.5,1.1,1.1,1.2h11.5l5.6-5.7c0.6-1.3,0.6-2.6,0-3.7l-2.7-5.9
			c-1.9-1.3-3.1-0.8-3.1,3l1.6,3.7c-1,0.2-2,0.1-3-0.4c-1.2,0.7-2.4,0.6-3.7,0c-1.2,0.6-2.4,0.6-3.5-0.1
			C243.9,48.4,242.6,48.5,241.4,47.4z"/>
		<path class="st10" d="M241.4,39.7c1.2-1.6,2.4-1.5,3.7-0.3c1.3-1.1,2.5-1.2,3.7,0.2c1.2-1.4,2.4-1.3,3.6-0.2
			c1.5-1.2,2.7-1.2,3.7,0.3c-4.5,0.9-4.3,3.8-2.3,7.5l-1.4-0.9c-1.3,1.4-2.5,1.6-3.7,0.1c-1.2,1.3-2.5,1.6-3.7-0.2
			c-1.6,1.4-2.7,1.3-3.6-0.1V39.7z"/>
	</g>
</g>
<g id="XMLID_4_">
	<g>
		<path d="M308.5,43.2h11.8c-2,3.4-2.8,6.3-1.6,8H304C306.2,48.8,307.7,46.1,308.5,43.2z"/>
	</g>
	<g>
		<path class="st10" d="M308.5,43.2h11.8c-2,3.4-2.8,6.3-1.6,8H304C306.2,48.8,307.7,46.1,308.5,43.2z"/>
	</g>
</g>
<g id="XMLID_6_">
	<g>
		<path d="M338.9,47.2v8.3c-0.2,0.7-0.5,1.1-1.1,1.2h-11.5l-5.6-5.7c-0.6-1.3-0.6-2.6,0-3.7l2.7-5.9c1.9-1.3,3.1-0.8,3.1,3l-1.6,3.7
			c1,0.2,1.9,0.1,3-0.4c1.2,0.7,2.4,0.6,3.7,0c1.2,0.6,2.4,0.6,3.5-0.1C336.5,48.3,337.8,48.3,338.9,47.2z"/>
	</g>
	<g>
		<path class="st10" d="M338.9,47.2v8.3c-0.2,0.7-0.5,1.1-1.1,1.2h-11.5l-5.6-5.7c-0.6-1.3-0.6-2.6,0-3.7l2.7-5.9
			c1.9-1.3,3.1-0.8,3.1,3l-1.6,3.7c1,0.2,1.9,0.1,3-0.4c1.2,0.7,2.4,0.6,3.7,0c1.2,0.6,2.4,0.6,3.5-0.1
			C336.5,48.3,337.8,48.3,338.9,47.2z"/>
	</g>
</g>
<g id="XMLID_5_">
	<g>
		<path d="M338.9,39.5v6.4c-0.9,1.4-2.1,1.5-3.7,0.1c-1.3,1.7-2.5,1.5-3.7,0.2c-1.2,1.5-2.4,1.3-3.7-0.1l-1.4,1
			c2-3.7,2.2-6.6-2.3-7.5c1-1.5,2.2-1.5,3.7-0.3c1.3-1.1,2.5-1.2,3.7,0.2c1.2-1.4,2.4-1.3,3.6-0.2C336.5,38,337.8,37.9,338.9,39.5z"
			/>
	</g>
	<g>
		<path class="st10" d="M338.9,39.5c-1.2-1.6-2.4-1.5-3.8-0.3c-1.3-1.1-2.5-1.2-3.6,0.2c-1.2-1.4-2.4-1.3-3.7-0.2
			c-1.5-1.2-2.7-1.2-3.7,0.3c4.6,0.9,4.3,3.8,2.3,7.5l1.4-1c1.3,1.4,2.5,1.6,3.7,0.1c1.2,1.3,2.5,1.6,3.7-0.2
			c1.6,1.4,2.7,1.3,3.7-0.1V39.5z"/>
	</g>
</g>
<g id="XMLID_8_">
	<g>
		<path d="M338.5,64.5v16c0,0.1,0,0.3-0.1,0.4c-1.3,4.4-4.1,6.1-8.4,5c-2-0.6-5.2-1.8-8.4-4.2c-1.9-1.4-3.3-2.9-4.4-4.3
			c-0.6-0.8-1.9-0.6-2.2,0.3c-2.1,5.3-4.3,12-5.8,19.9c-1.7,9-1.9,16.9-1.6,23.1l-0.1,37.7c0,0.2,0,0.3-0.1,0.5
			c-3.5,8.7-14,7.3-16.2,0c0-0.1-0.1-0.3-0.1-0.4l-0.2-36.3c0-0.7-0.6-1.3-1.3-1.3c0,0,0,0,0,0c-0.7,0-1.3,0.6-1.3,1.3l0,36.3
			c0,0.1,0,0.2,0,0.4c-0.4,1.2-1.3,3.5-3.5,4.7c-3.5,1.9-8.9,0.3-12.5-4.6c-0.2-0.2-0.3-0.5-0.3-0.8c-0.1-12.5-0.3-37.3-0.3-37.4
			c0-0.1,0-0.1,0-0.1c0.6-6,0.9-13.8-0.3-22.8c-1-7.8-2.8-14.5-4.7-19.8c-0.3-0.9-1.4-1.1-2.1-0.5c-1.6,1.4-3.7,3-6.2,4.4
			c-3.6,2.1-6.9,3.3-9.5,4.1c0,0-0.1,0-0.1,0c-0.6,0.1-2.7,0.5-4.9-0.8c-1.3-0.8-2.3-2.2-3.1-4.3c0-0.1-0.1-0.3-0.1-0.5V64.4
			c0-0.7,0.6-1.3,1.3-1.3h9.4c0.7,0,1.3,0.6,1.3,1.3v3.9c0,1.1,1.3,1.7,2.1,1c0.9-0.8,1.8-1.6,2.9-2.5c4-3.3,6-5,8.7-6.2
			c1.7-0.8,4.3-1.7,8-2c0,0,0.1,0,0.1,0h30c0.1,0,0.1,0,0.2,0c2.2,0.3,4.9,0.8,7.7,1.8c1.5,0.5,2.4,1,3.4,1.5c0,0,0.7,0.4,0.8,0.5
			c2.1,1.6,3.5,3.6,5.6,5.6c0.6,0.6,1.2,1.1,1.8,1.7c0.8,0.7,2.1,0.2,2.1-0.9l0.1-4.2c0-0.7,0.6-1.3,1.3-1.3l9.2,0.1
			C337.9,63.2,338.5,63.8,338.5,64.5z"/>
	</g>
	<g>
		<path class="st11" d="M271.8,120.9c0-0.1,0-0.1,0-0.1c0.6-6,0.9-13.8-0.3-22.8c-1-7.8-2.8-14.5-4.7-19.8c-0.3-0.9-1.4-1.1-2.1-0.5
			c-1.6,1.4-3.7,3-6.2,4.4c-3.6,2.1-6.9,3.3-9.5,4.1c0,0-0.1,0-0.1,0c-0.6,0.1-2.7,0.5-4.9-0.8c-1.3-0.8-2.3-2.2-3.1-4.3
			c0-0.1-0.1-0.3-0.1-0.5V64.4c0-0.7,0.6-1.3,1.3-1.3h9.4c0.7,0,1.3,0.6,1.3,1.3v3.9c0,1.1,1.3,1.7,2.1,1c0.9-0.8,1.8-1.6,2.9-2.5
			c4-3.3,6-5,8.7-6.2c1.7-0.8,4.3-1.7,8-2c0,0,0.1,0,0.1,0h30c0.1,0,0.1,0,0.2,0c2.2,0.3,4.9,0.8,7.7,1.8c1.5,0.5,2.4,1,3.4,1.5
			c0,0,0.7,0.4,0.8,0.5c2.1,1.6,3.5,3.6,5.6,5.6c0.6,0.6,1.2,1.1,1.8,1.7c0.8,0.7,2.1,0.2,2.1-0.9l0.1-4.2c0-0.7,0.6-1.3,1.3-1.3
			l9.2,0.1c0.7,0,1.3,0.6,1.3,1.3v16c0,0.1,0,0.3-0.1,0.4c-1.3,4.4-4.1,6.1-8.4,5c-2-0.6-5.2-1.8-8.4-4.2c-1.9-1.4-3.3-2.9-4.4-4.3
			c-0.6-0.8-1.9-0.6-2.2,0.3c-2.1,5.3-4.3,12-5.8,19.9c-1.7,9-1.9,16.9-1.6,23.1l-0.1,37.7c0,0.2,0,0.3-0.1,0.5
			c-3.5,8.7-14,7.3-16.2,0c0-0.1-0.1-0.3-0.1-0.4l-0.2-36.3c0-0.7-0.6-1.3-1.3-1.3c0,0,0,0,0,0c-0.7,0-1.3,0.6-1.3,1.3l0,36.3
			c0,0.1,0,0.2,0,0.4c-0.4,1.2-1.3,3.5-3.5,4.7c-3.5,1.9-8.9,0.3-12.5-4.6c-0.2-0.2-0.3-0.5-0.3-0.8
			C272,145.8,271.8,121,271.8,120.9z"/>
	</g>
</g>
<line class="st12" x1="409.3" y1="152.3" x2="431.7" y2="154.4"/>
<line class="st13" x1="449.5" y1="168.8" x2="459.6" y2="195.1"/>
<line class="st13" x1="485.1" y1="203.6" x2="459.6" y2="195.1"/>
<line class="st14" x1="539.9" y1="199.9" x2="521.3" y2="224.2"/>
<line class="st14" x1="510.9" y1="257.8" x2="521.3" y2="224.2"/>
<line class="st14" x1="494.7" y1="261.2" x2="510.9" y2="257.8"/>
<line class="st14" x1="457.4" y1="281.7" x2="494.7" y2="261.2"/>
<g id="XMLID_9_">
	<g>
		<ellipse cx="457.2" cy="142.1" rx="16" ry="14.9"/>
	</g>
	<g>
		<ellipse class="st15" cx="457.2" cy="142.1" rx="16" ry="14.9"/>
	</g>
</g>
<g id="XMLID_10_">
	<g>
		<polygon points="426.2,168.3 423,192.6 406.4,173.1 406.4,166.4 		"/>
		<path d="M422.1,200.6v15.8l-12.5-1.5c-2.9-1.1-5.9-4.4-6.8-7.7l2.1-26.7L422.1,200.6z"/>
	</g>
	<g>
		<polygon class="st15" points="406.4,166.4 426.2,168.3 423,192.6 406.4,173.1 		"/>
		<path class="st15" d="M404.9,180.4l17.2,20.2v15.8l-12.5-1.5c-2.9-1.1-5.9-4.4-6.8-7.7L404.9,180.4z"/>
	</g>
</g>
<g id="XMLID_11_">
	<g>
		<path d="M483.2,253.8c0.6,10.7-12.5,13.6-17.2,4.4l-3.6-20.7l-11.4-7.2l3.6,9.8c0.7,2,0.7,4.1,0,6.3l-8.1,30
			c-5.7,10.2-17.7,6.2-17.6-4.4l7.3-27.9l-8.9-28.9c-0.6-4.9-0.5-9.6,0.6-13.8l15.7-8.7c2.9,11.2,7.7,17,14.6,17.1v3.2l15.2,10.4
			c3.9,1.9,6,4.4,6.7,8.1L483.2,253.8z"/>
		<polygon points="436.1,171.3 441.3,187.3 428.2,194.7 432,168.4 434.3,163.6 437.7,161.1 		"/>
	</g>
	<g>
		<polygon class="st15" points="434.3,163.6 432,168.4 428.2,194.7 441.3,187.3 436.1,171.3 437.7,161.1 		"/>
		<path class="st16" d="M443.5,192.6l-15.7,8.7c-1.2,4.2-1.3,8.9-0.6,13.8l8.9,28.9l-7.3,27.9c-0.1,10.6,12,14.5,17.6,4.4l8.1-30
			c0.7-2.2,0.7-4.3,0-6.3l-3.6-9.8l11.4,7.2l3.6,20.7c4.8,9.2,17.8,6.4,17.2-4.4l-3.2-22.4c-0.7-3.7-2.8-6.2-6.7-8.1l-15.2-10.4
			v-3.2C451.2,209.6,446.4,203.8,443.5,192.6z"/>
	</g>
</g>
<text transform="matrix(1.0068 0 0 1 275.5811 85.4561)" class="st17 st18 st19">GYM</text>
<text transform="matrix(1.1248 0.1143 -0.1011 0.9949 404.0818 154.525)" class="st17 st18 st20">TRAVEL</text>
<rect x="54.6" y="148" class="st21" width="12.2" height="84.7"/>
<text transform="matrix(1 0 0 0.9755 59.2783 148.1026)" class="st17 st18 st22">R</text>
<text transform="matrix(1 -4.225035e-04 2.772679e-04 0.6414 59.4196 155.9848)" class="st17 st18 st23">E</text>
<text transform="matrix(1 0 0 1 59.2783 162.8447)" class="st17 st18 st24">A</text>
<text transform="matrix(1 0 0 1 59.2783 170.9072)" class="st17 st18 st25">D</text>
</svg>
