<?xml version="1.0" encoding="utf-8"?>
<!-- Generator: Adobe Illustrator 23.0.1, SVG Export Plug-In . SVG Version: 6.00 Build 0)  -->
<svg version="1.1" id="Слой_1" xmlns="http://www.w3.org/2000/svg" xmlns:xlink="http://www.w3.org/1999/xlink" x="0px" y="0px"
	 viewBox="0 0 560.00098 288" style="enable-background:new 0 0 560.00098 288;" xml:space="preserve">
<style type="text/css">
	.st0{fill:#FFFFFF;}
	.st1{fill:none;stroke:#000000;stroke-width:3.59647;stroke-miterlimit:10;}
	.st2{fill:none;stroke:#000000;stroke-width:2.12519;stroke-miterlimit:10;}
	.st3{fill:none;stroke:#000000;stroke-width:1.79823;stroke-miterlimit:10;}
	.st4{fill:none;}
	.st5{fill:none;stroke:#000000;stroke-width:3.75994;stroke-miterlimit:10;}
	.pulse{
    fill:none;
    stroke:#666666;
    stroke-linecap:round;
    stroke-linejoin:round;
    stroke-miterlimit:10;
    animation: pulse 3s ease 1s infinite;
	}
  
		@keyframes pulse {
	0%{
		stroke-width:2;
	}
	50%{
		stroke-width:0.5;
	}
	100%{
		stroke-width:2;
	}
	}
</style>
<g id="XMLID_10_">
	<g>
		<path class="st0" d="M77.63,172.66c1.38,0,2.27-0.7,2.27-1.66c0-1.14999-0.9-1.56-2.43-2.24001l-0.84-0.36
			c-2.39999-1.03-4-2.32999-4-5.06999c0-2.52,1.91-4.44,4.88-4.44c2.13,0,3.65,0.75,4.74,2.7l-2.6,1.67
			c-0.57-1.03-1.19-1.43999-2.14-1.43999c-0.98,0-1.6,0.62999-1.6,1.43999c0,1.01001,0.62,1.41,2.06,2.05L78.8,165.66
			c2.82999,1.23,4.43,2.48,4.43,5.28999c0,3.02-2.37,4.68001-5.53001,4.68001c-3.09,0-5.1-1.49001-6.07-3.44l2.71-1.58
			C75.06,171.78999,75.99,172.66,77.63,172.66z"/>
		<path class="st0" d="M64.69,172.63c1.09,0,1.79-0.44,1.79-2.12001v-11.42H69.81v11.47c0,3.48-2.02,5.07001-4.98,5.07001
			c-2.67,0-4.21-1.39-5.01-3.08l2.72-1.65001C63.06,171.83,63.54,172.63,64.69,172.63z"/>
		<path d="M69.81,170.56v-11.47H66.48v11.42c0,1.68001-0.7,2.12001-1.79,2.12001c-1.15,0-1.63-0.8-2.15-1.73001L59.82,172.55
			c0.8,1.69,2.34,3.08,5.01,3.08C67.79,175.63,69.81,174.03999,69.81,170.56z M83.23,170.95c0-2.81-1.60001-4.06-4.43-5.28999
			L77.97,165.31c-1.44-0.64-2.06-1.03999-2.06-2.05c0-0.81,0.62-1.43999,1.6-1.43999c0.95,0,1.57,0.40999,2.14,1.43999l2.6-1.67
			c-1.09-1.95-2.61-2.7-4.74-2.7c-2.97,0-4.88,1.92-4.88,4.44c0,2.74001,1.60001,4.03999,4,5.06999l0.84,0.36
			C79,169.44,79.9,169.85001,79.9,171c0,0.96001-0.89,1.66-2.27,1.66c-1.64,0-2.57-0.87001-3.29-2.05l-2.71,1.58
			c0.97,1.95,2.98,3.44,6.07,3.44C80.86,175.63,83.23,173.97,83.23,170.95z M85.99,142.67v35.75999H50.5V142.67H85.99z"/>
	</g>
</g>
<g id="XMLID_7_">
	<g>
		<path class="st0" d="M148.7,24.15c0,2.87,2.49001,3.66,6.49001,4.02c4.81,0.42,5.17999,1.05,5.17999,1.89
			c0,1.46-1.31999,2.09-4.40999,2.09c-3.88,0-4.73001-0.87-5.01001-2.6c-0.03-0.18-0.20999-0.32-0.42-0.32H148.63
			c-0.24001,0-0.42,0.17-0.42,0.38c0,2.2,1.34,4.84,7.75999,4.84c4.64-0.01,7.3-1.65,7.3-4.5c0-2.83-2.14-3.59-6.64-4.12
			c-4.55-0.54-5.01001-0.81-5.01001-1.76c0-0.79,0.38-1.84,3.76001-1.84c3.00999,0,4.12,0.58,4.58,2.4
			C160,24.8,160.17,24.92,160.37,24.92H162.27c0.12,0,0.23-0.04,0.31-0.12c0.08-0.07,0.12-0.18,0.11-0.29
			c-0.29001-3.13-2.61-4.58-7.31-4.58C151.19,19.93,148.7,21.5,148.7,24.15z M142.47,39.72c2.75999,0,4.34-1.49,4.34-4.09V20.69
			c0-0.21-0.2-0.37-0.42999-0.37H144.53c-0.24001,0-0.42999,0.16-0.42999,0.37v14.94c0,1.15-1.33,2.29-3.52,1.32l-4.00999-2.07
			C136.42,34.82,136.34,34.67,136.34,34.53V19.41c0-0.15,0.08-0.29,0.23001-0.36l14.64-7.57c0.14-0.07,0.31999-0.07,0.45,0
			L166.31,19.04c0.15001,0.08,0.23,0.21,0.23,0.36v15.13c0,0.14-0.07999,0.29-0.21999,0.36l-14.66,7.56
			c-0.12001,0.07-0.31,0.07-0.45,0L147.45,40.46c-0.11-0.07-0.25999-0.09-0.37-0.03c-1.04001,0.53-1.24001,0.6-2.21001,0.9
			c-0.09999,0.03-0.22,0.07-0.26999,0.13L142.47,39.72z"/>
		<path d="M155.19,28.17c-4-0.36-6.49001-1.15-6.49001-4.02c0-2.65,2.49001-4.22,6.68001-4.22c4.7,0,7.01999,1.45,7.31,4.58
			c0.00999,0.11-0.03,0.22-0.11,0.29c-0.08,0.08-0.19,0.12-0.31,0.12H160.37c-0.2,0-0.37-0.12-0.40999-0.29
			c-0.46001-1.82-1.57001-2.4-4.58-2.4c-3.38,0-3.76001,1.05-3.76001,1.84c0,0.95,0.46001,1.22,5.01001,1.76
			c4.5,0.53,6.64,1.29,6.64,4.12c0,2.85-2.66,4.49-7.3,4.5c-6.42,0-7.75999-2.64-7.75999-4.84c0-0.21,0.17999-0.38,0.42-0.38H150.53
			c0.21001,0,0.39,0.14,0.42,0.32c0.28,1.73,1.13,2.6,5.01001,2.6c3.09,0,4.40999-0.63,4.40999-2.09
			C160.37,29.22,160,28.59,155.19,28.17z"/>
		<path d="M135.25999,17.01l14.64-7.56c0.93001-0.47,2.16-0.47,3.08,0l14.66,7.57c0.95,0.49,1.53999,1.4,1.53999,2.39v15.12
			c0,0.98-0.59,1.9-1.53999,2.39l-14.66,7.57c-0.47,0.24-1,0.37-1.53999,0.37c-0.53,0-1.07001-0.13-1.54001-0.37L145,41.9
			c-0.42999-0.22-0.48-0.35-0.39999-0.44c0.04999-0.06,0.17-0.1,0.26999-0.13c0.97-0.3,1.17-0.37,2.21001-0.9
			c0.11-0.06,0.25999-0.04,0.37,0.03l3.76001,1.99c0.14,0.07,0.32999,0.07,0.45,0l14.66-7.56c0.14-0.07,0.21999-0.22,0.21999-0.36
			V19.4c0-0.15-0.07999-0.28-0.23-0.36L151.66,11.48c-0.13-0.07-0.31-0.07-0.45,0l-14.64,7.57
			C136.42,19.12,136.34,19.26,136.34,19.41v15.12c0,0.14,0.08,0.29,0.23001,0.35l4.00999,2.07c2.19,0.97,3.52-0.17,3.52-1.32V20.69
			c0-0.21,0.18999-0.37,0.42999-0.37H146.38c0.23,0,0.42999,0.16,0.42999,0.37v14.94c0,2.6-1.58,4.09-4.34,4.09
			c-0.85001,0-1.50999,0-3.37-0.82l-3.84001-1.98C134.3,36.43,133.72,35.51,133.72,34.53V19.4
			C133.72,18.42,134.3,17.5,135.25999,17.01z"/>
	</g>
</g>
<g id="XMLID_5_">
	<g>
		<path class="st0" d="M196.66,115.72c0-0.55-0.56-0.48-3.16-0.66c-0.17999,0.22-0.36,0.46-0.36,0.75
			C193.14,116.84,196.66,116.84,196.66,115.72z M194.96001,111.04c1.73999,0,1.7-2.48,0.03999-2.48
			C193.25999,108.56,193.19,111.04,194.96001,111.04z M192.92,112.03c-0.66-0.34-1.17-1.08-1.17-2.13c0-2.87,3.03999-2.97,4.38-2.6
			H198.78v1.2l-1.25,0.1c0.24001,0.33,0.5,0.78,0.5,1.43c0,2.71-3.06,2.63-3.98,2.36l-0.44,0.75c3.56,0.23,5.08,0.15,5.08,2.2
			c0,1.63-1.38,2.55-3.75,2.55c-2.47,0-3.41-0.65-3.41-1.77c0-0.64,0.28-0.98,0.75-1.45c-0.45-0.18999-0.59-0.55-0.59-0.93
			C191.69,113.21,192.08,112.83,192.92,112.03z"/>
		<path class="st0" d="M202.61,113.32l0.7,0.1L203.3,114.54h-3.88v-1.12c0.89-0.13,0.91-0.07,0.91-0.38v-4.17
			c0-0.29-0.07001-0.25-0.91-0.56001l0.15001-1.14999H202.39v5.88C202.39,113.26,202.39999,113.29,202.61,113.32z"/>
		<path class="st0" d="M202.42,104.75c0,0.81-0.45,1.28-1.24001,1.28c-0.78,0-1.23-0.47-1.23-1.28c0-0.8,0.45-1.24,1.23-1.24
			C201.97,103.51,202.42,103.95,202.42,104.75z"/>
		<path class="st0" d="M208.69,113.99c-0.58,0.29-1.44,0.56001-2.22,0.56001c-1.62,0-2.23-0.68-2.23-2.28001v-3.71
			c0-0.18,0.03-0.14-1.06001-0.14v-1.26c1.19-0.14001,1.67001-0.76,1.82001-2.3h1.3c0,2.29-0.05,2.15,0.09999,2.15h1.92001v1.41
			h-2.02v3.39c0,0.24001-0.17,1.79,2.02,0.93L208.69,113.99z"/>
		<path d="M198.78,108.5v-1.2H196.13c-1.34001-0.37-4.38-0.27-4.38,2.6c0,1.05,0.50999,1.79,1.17,2.13
			c-0.84,0.8-1.23,1.18-1.23,1.71c0,0.38,0.14,0.74001,0.59,0.93c-0.47,0.47-0.75,0.81001-0.75,1.45c0,1.12,0.94,1.77,3.41,1.77
			c2.37,0,3.75-0.92,3.75-2.55c0-2.05-1.52-1.96999-5.08-2.2l0.44-0.75c0.92,0.27,3.98,0.35,3.98-2.36c0-0.65-0.25999-1.1-0.5-1.43
			L198.78,108.5z M201.17999,106.03c0.79001,0,1.24001-0.47,1.24001-1.28c0-0.8-0.45-1.24-1.24001-1.24
			c-0.78,0-1.23,0.43999-1.23,1.24C199.95,105.56,200.39999,106.03,201.17999,106.03z M202.61,113.32
			c-0.21001-0.03-0.22-0.06-0.22-0.28v-5.88h-2.81999L199.42,108.31c0.84,0.31001,0.91,0.27,0.91,0.56001v4.17
			c0,0.31-0.02,0.25-0.91,0.38v1.12h3.88l0.00999-1.12L202.61,113.32z M204.24001,112.27c0,1.60001,0.61,2.28001,2.23,2.28001
			c0.78,0,1.64-0.27,2.22-0.56001l-0.37-1.25c-2.19,0.86-2.02-0.68999-2.02-0.93v-3.39h2.02v-1.41h-1.92001
			c-0.14999,0-0.09999,0.14-0.09999-2.15H205c-0.14999,1.54-0.63,2.16-1.82001,2.3V108.42c1.09001,0,1.06001-0.04,1.06001,0.14
			V112.27z M212.12,100.89v19.61c0,1.48-1.14999,2.68-2.56999,2.68h-18.87001c-1.42,0-2.57999-1.2-2.57999-2.68v-19.61
			c0-1.48,1.15999-2.67,2.57999-2.67H209.55C210.97,98.22,212.12,99.41,212.12,100.89z"/>
		<path d="M196.66,115.72c0,1.12-3.52,1.12-3.52,0.09c0-0.29,0.18001-0.53,0.36-0.75C196.10001,115.24,196.66,115.17,196.66,115.72z
			"/>
		<path d="M195,108.56c1.66,0,1.7,2.48-0.03999,2.48C193.19,111.04,193.25999,108.56,195,108.56z"/>
	</g>
</g>
<g>
	<g id="XMLID_1_">
		<g>
			<path d="M367.34,59.93c0,1.53-0.87,2.5-2.13,3.1c-0.76999,0.37-1.72,0.5-2.69998,0.5c-0.73001,0-2.72-0.1-3.82001-0.07
				c-0.12-0.04,0.10001-0.62,0.20001-0.71c0.25998-0.02,0.46997-0.03,0.73999-0.13c0.38998-0.11,0.44-0.24,0.48999-0.89
				c0.03-0.56,0.03-2.53,0.03-3.93c0-1.93,0.02002-3.24,0-3.87c-0.00998-0.5-0.16998-0.65-0.48999-0.75
				c-0.25-0.05-0.64999-0.11-0.98999-0.16c-0.07001-0.08,0.17999-0.62,0.25998-0.68c0.14999,0,0.58002,0.04,1.70001,0.04
				c1.06,0,1.89999-0.03,2.92999-0.03c1.26001,0,3,0.5,3,2.56c0,1.02-0.64999,1.84-1.51001,2.23c-0.03998,0.02-0.03998,0.05,0,0.07
				C366.26999,57.54,367.34,58.37,367.34,59.93z M363.48999,62.67c1.14001,0,2.14001-0.7,2.14001-2.34c0-1.58-1.06-2.45-2.97-2.45
				c-0.09,0-0.70001-0.02-0.84,0.01c-0.04001,0.02-0.10001,0.05-0.10001,0.1c0,1.13-0.01999,2.93,0.03,3.63
				c0.03,0.3,0.23001,0.73,0.47,0.86C362.48999,62.64,363.07999,62.67,363.48999,62.67z M364.95001,55.31
				c0-1.54-0.99002-2.13-2.45001-2.13c-0.10001-0.02-0.39001-0.02-0.60999,0.03c-0.07001,0.02-0.14001,0.19-0.14001,0.29
				c-0.01999,0.63-0.03,2.32-0.03,3.47c0,0.03,0.04001,0.09,0.07999,0.09c0.22,0.02,0.74002,0.04,1.19,0.04
				c0.63,0,0.99002-0.1,1.19-0.19C364.70001,56.62,364.95001,56,364.95001,55.31z"/>
			<path d="M357.56,57.65c0,2.41-1,3.79-2,4.59c-1,0.81-2.31,1.29-4.16,1.29c-0.98999,0-2.67999-0.03-4.09-0.05h-0.01001
				c-0.06998-0.14,0.11002-0.7,0.23001-0.72c0.38-0.04,0.48001-0.06,0.67001-0.14c0.29999-0.13,0.35999-0.3,0.39999-0.89
				c0.04999-1.1,0.03-2.42,0.03-3.92c0-1.06,0.01999-3.15-0.01001-3.82c-0.04999-0.56-0.26001-0.7-0.69998-0.79
				c-0.22-0.05-0.51001-0.12-0.91-0.16c-0.06-0.12,0.19998-0.61,0.26999-0.7c0.28,0,1.34,0.04,1.84,0.04
				c0.92001,0,1.57001-0.04,3.29001-0.04c1.44998,0,2.66998,0.43,3.54001,1.24C357.01001,54.58,357.56,55.97,357.56,57.65z
				 M354.53,61.76c0.76999-0.76,1.29999-1.94,1.29999-3.82c0-1.8-0.62-3.26-1.88998-4.12c-0.73001-0.5-1.66-0.7-2.73001-0.7
				c-0.31998,0-0.62,0.01-0.81,0.11c-0.04001,0.03-0.14999,0.17-0.14999,0.25c-0.01999,0.32-0.01999,2.77-0.01999,4.2
				c0,1.49,0,3.56,0.01999,3.79c0,0.24,0.10999,0.61,0.32001,0.77c0.35001,0.3,1.03,0.43,1.63998,0.43
				C352.98999,62.67,353.78,62.51,354.53,61.76z"/>
			<path d="M342.59,56.08c1.88,0,3.20001,1.48,3.20001,3.61c0,1.45-0.52002,2.6-1.52002,3.3c-0.47998,0.35-1.31,0.68-1.98999,0.68
				c-2.45999,0-3.34-1.99-3.34-3.85c0-1.31,0.47-2.31,1.42999-3.03C341.04999,56.33,341.85999,56.08,342.59,56.08z M343.70001,62.52
				c0.41998-0.38,0.63998-1.14,0.63998-2.21c0-2.07-0.94-3.45-2.32001-3.45c-0.29999,0-0.57999,0.08-0.78,0.24
				c-0.56998,0.38-0.85999,1.14-0.85999,2.26c0,2.08,0.95999,3.55,2.32001,3.55C343.10999,62.91,343.42999,62.78,343.70001,62.52z"
				/>
			<path d="M337.85999,56.55c0.02002,0.21-0.03998,0.51-0.18997,0.74c-0.11002,0.17-0.37003,0.3-0.63,0.3h-0.08002
				c-0.25998-0.03-0.37-0.06-0.37-0.06l-0.06,0.03c-0.01001,0.03,0,0.06,0.01001,0.11L336.56,57.7c0.03,0.14,0.09,0.57,0.09,0.69
				c0,1.3-0.47998,1.87-0.98999,2.3c-0.48999,0.4-1.06,0.66-1.70001,0.72c-0.00998,0-0.06998,0-0.19998,0.02
				c-0.07001,0-0.17001,0.01-0.19,0.01H333.56c-0.12,0.03-0.41,0.19-0.41,0.46c0,0.24,0.13,0.53,0.76001,0.58
				c0.13,0.01,0.26001,0.01,0.39999,0.03c0.83002,0.06,1.86002,0.14,2.34,0.32c0.66,0.27,1.08002,0.92,1.08002,1.7
				c0,1.18-0.77002,2.28-2.04001,2.96c-0.62,0.3-1.25,0.46-1.92999,0.46c-0.88,0-1.52002-0.2-2.07001-0.67
				c-0.54001-0.44-0.76999-1.11-0.76999-1.57c0-0.13,0.03-0.48,0.28998-0.8c0.16-0.19,0.51001-0.55,1.33002-1.18
				c0.03-0.01,0.04999-0.03,0.04999-0.06c0-0.03-0.03-0.06-0.06-0.08c-0.67999-0.29-0.88-0.75-0.94-1v-0.03
				c-0.01999-0.1-0.04999-0.19,0.09-0.29c0.10001-0.08,0.24002-0.18,0.39999-0.29c0.25-0.16,0.51001-0.33,0.67001-0.47
				c0.03-0.04,0.03-0.07,0.03-0.1s-0.03-0.06-0.06-0.08c-1.01999-0.37-1.51999-1.19-1.51999-2.44c0-0.81,0.32999-1.54,0.91998-2
				c0.41-0.35,1.42001-0.78,2.09-0.78H334.25c0.69,0.01,1.06,0.17,1.60001,0.38c0.29001,0.11,0.56,0.16,0.94,0.16
				c0.56998,0,0.81-0.19,1.01999-0.41C337.82001,56.27,337.85001,56.35,337.85999,56.55z M334.39999,67.06
				c1.48001,0,2.13-0.87,2.13-1.73c0-0.61-0.28-1.01-0.84-1.23c-0.41-0.19-1.14999-0.29-2.03-0.29c-0.29001,0-0.48999,0.1-0.62,0.18
				c-0.61002,0.43-0.89001,0.84-0.89001,1.34c0,0.46,0.16,0.82,0.51001,1.14C333.07999,66.87,333.66,67.06,334.39999,67.06z
				 M334.88,60.36c0.26999-0.29,0.45999-0.86,0.45999-1.47c0-1.32-0.59-2.11-1.57999-2.11c-0.77002,0-1.24002,0.65-1.24002,1.67
				c0,1.03,0.42001,2.23,1.60001,2.23C334.32999,60.68,334.70001,60.58,334.88,60.36z"/>
			<path d="M329.75,62.86c0.06,0.13,0.03,0.59-0.04999,0.68c-0.23001,0-0.81-0.04-1.71002-0.04c-0.72,0-1.20999,0.04-1.63,0.04
				c-0.07999-0.11-0.10999-0.6,0-0.71c0.30002-0.03,0.56003-0.1,0.66-0.15c0.22-0.08,0.26001-0.24,0.26001-0.87
				c0-1.18,0.03-2.53-0.04001-3.22c-0.03998-0.3-0.13998-0.71-0.45999-1c-0.23999-0.21-0.54001-0.37-1-0.37
				c-0.48001,0-1.01999,0.23-1.35001,0.54c-0.09,0.1-0.16998,0.26-0.16998,0.59c0,1.21,0,3,0.01999,3.84
				c0.01999,0.33,0.09,0.48,0.35001,0.54c0.19,0.07,0.38998,0.1,0.66998,0.11c0.06,0.11,0.03,0.59-0.06998,0.72
				c-0.25,0-0.74002-0.05-1.70001-0.05c-0.70001,0-1.54001,0.05-1.70001,0.05c-0.07999-0.11-0.07999-0.62,0-0.72
				c0.24002-0.03,0.39001-0.07,0.58002-0.11l0.03-0.01c0.25-0.06,0.34-0.22,0.35001-0.59c0.03998-1.01,0.03998-2.84,0.03-4.03
				c0-0.14,0.00998-0.32-0.13-0.45c-0.20001-0.14-0.45999-0.28-0.86002-0.41h-0.00998c-0.36002-0.13-0.28-0.49,0.07001-0.57
				c0.47998-0.05,1.78998-0.39,2.25-0.64c0,0,0.12,0.11,0.09998,0.33c-0.00998,0.24-0.03998,0.59-0.03998,0.77
				c-0.02002,0.17,0.09998,0.06,0.10999,0.05c0.70999-0.67,1.57001-1.15,2.20999-1.15c0.72,0,1.29001,0.35,1.68002,0.95
				c0.32999,0.53,0.45999,1.28,0.45999,2.14c0,1.06,0,2.66,0.03,3.21c0,0.07,0.07001,0.23,0.12,0.26
				C329.12,62.75,329.39001,62.81,329.75,62.86z"/>
			<path d="M317.01999,56.08c1.89001,0,3.21002,1.48,3.21002,3.61c0,1.45-0.53,2.6-1.53,3.3
				c-0.46002,0.35-1.29001,0.68-1.98001,0.68c-2.45999,0-3.35001-1.99-3.35001-3.85c0-1.31,0.48001-2.31,1.44-3.03
				C315.48999,56.33,316.29999,56.08,317.01999,56.08z M318.78,60.31c0-2.07-0.92999-3.45-2.32001-3.45
				c-0.31,0-0.57999,0.08-0.78,0.24c-0.57001,0.38-0.85999,1.14-0.85999,2.26c0,2.08,0.95999,3.55,2.32001,3.55
				c0.40997,0,0.71997-0.13,1-0.39C318.56,62.14,318.78,61.38,318.78,60.31z"/>
			<path d="M312.31,62.95c0.03,0.12-0.03,0.53-0.07999,0.61c-0.09,0-0.22,0-0.37003-0.02c-0.35999-0.02-0.72998-0.03-1.09998-0.03
				c-0.90002,0-1.36002,0.02-1.81,0.05c-0.03-0.13-0.04001-0.51,0-0.61c0.25998-0.04,0.38998-0.09,0.54999-0.14
				c0.29001-0.09,0.35999-0.24,0.38-0.65c0-0.3,0.06-2.88-0.03-3.5c-0.09-0.64-0.52002-1.39-1.48001-1.39
				c-0.35999,0-0.92999,0.16-1.47998,0.62C306.85999,57.92,306.84,58,306.84,58.05v0.02c0.05002,0.33,0.05002,0.71,0.05002,1.3v1.04
				c0,0.71-0.01001,1.38,0,1.89c0,0.35,0.18997,0.43,0.34998,0.5c0.09,0.01,0.15002,0.03,0.22,0.04
				c0.13,0.03,0.26001,0.07,0.46002,0.11c0.03,0.07,0.03,0.28-0.01001,0.45c-0.01999,0.1-0.05002,0.14-0.06,0.16
				c-0.49002-0.02-1-0.03-1.74002-0.03c-0.21997,0-0.59,0.01-0.90997,0.01c-0.26001,0-0.51001,0.02-0.65002,0.02
				C304.53,63.53,304.5,63.42,304.5,63.24c0-0.14,0.03-0.25,0.06-0.29c0.07001-0.01,0.13-0.03,0.20001-0.03
				c0.17999-0.03,0.31998-0.06,0.47-0.09c0.23999-0.08,0.32999-0.23,0.34-0.58c0.04999-0.79,0.09-3.07-0.01001-3.64
				c-0.16998-0.92-0.64999-1.39-1.41998-1.39c-0.45001,0-1.01001,0.24-1.48001,0.62c-0.07001,0.07-0.13,0.23-0.13,0.37v0.94
				c0,1.15,0,2.58,0.01999,3.2c0.01001,0.19,0.07001,0.41,0.40002,0.49c0.06998,0.02,0.19,0.05,0.32999,0.07l0.26999,0.04
				c0.02002,0.1,0.01001,0.48-0.04999,0.61c-0.14001,0-0.32001-0.02-0.51999-0.02c-0.30002-0.01-0.70001-0.03-1.13-0.03
				c-0.51001,0-0.87,0.02-1.16,0.03c-0.20001-0.03-0.36002-0.03-0.54001-0.03c-0.01999-0.05-0.04999-0.19-0.04001-0.36
				c0-0.13,0.03003-0.21,0.04001-0.24c0.31-0.05,0.47-0.1,0.64001-0.15c0.28998-0.08,0.41-0.25,0.41998-0.65
				c0.05002-0.95,0.05002-2.77,0.03-4.03v-0.03c0-0.14,0-0.32-0.16-0.44c-0.22998-0.16-0.50998-0.31-0.87-0.42
				c-0.13-0.05-0.22-0.13-0.19998-0.22c0-0.1,0.09-0.21,0.26999-0.24c0.48001-0.05,1.73001-0.38,2.22-0.62
				c0.03,0.03,0.07001,0.13,0.07001,0.25L302.56,56.54c-0.01001,0.17-0.03,0.38-0.03,0.59c0,0.06,0.06,0.11,0.12,0.11
				c0.03,0,0.05002-0.02,0.08002-0.03c0.92999-0.8,1.76999-1.09,2.20999-1.09c0.70999,0,1.26001,0.37,1.67999,1.14
				c0.03,0.04,0.06,0.06,0.10001,0.06c0.03,0,0.07001-0.02,0.09-0.05c0.85001-0.72,1.70999-1.15,2.26999-1.15
				c1.35001,0,2.15002,1.1,2.15002,2.97c0,0.52,0,1.21-0.02002,1.83c0,0.55-0.00998,1.06-0.00998,1.43
				c0,0.08,0.09998,0.33,0.25998,0.38c0.20001,0.11,0.48001,0.16,0.84,0.22C312.29999,62.95001,312.31,62.95001,312.31,62.95z"/>
			<path d="M296.84,52.54c0.91,5.85-1.78,9.43-3.19,10.86c-0.60001-8.93-1.10999-13.81-1.51999-16.02
				c-0.03-2.11-0.08002-3.96-0.19-4.47v-0.03c0,0,0.32001,0.89,0.64999,1.4C292.89001,45,295.66,46.86,296.84,52.54z"/>
			<path d="M293.64999,63.4c0,0.01,0,0.01,0,0.02c0,0-0.00998,0.01-0.04001,0.02C293.63,63.43,293.64001,63.41,293.64999,63.4z"/>
			<path class="st0" d="M293.64999,63.4c-0.00998,0.01-0.01999,0.03-0.04001,0.04C293.5,63.51,293.19,63.71,292.94,64.04
				c-0.01999,0.02-0.03,0.04-0.04001,0.04c-0.03,0.03-0.04999,0.04-0.04999,0.04c-0.58002-0.3-0.75-1.71-0.77002-3.01
				c0-0.01,0-0.02,0-0.03c0.12003-1.75,0.19-4.02,0.12003-6.37c-0.03-0.68-0.02002-4.27-0.07001-7.33
				C292.54001,49.59,293.04999,54.47,293.64999,63.4z"/>
			<path d="M292.94,64.04c0.25-0.33,0.56-0.53,0.66998-0.6C293.31,63.75,293.06,63.95,292.94,64.04z"/>
			<path d="M292.85001,64.12c0,0,0.01999-0.01,0.04999-0.04c-0.13998,0.18-0.25998,0.41-0.31,0.67
				c-0.16998,0.83-0.06,2.58-0.06,2.58l-0.59-0.22c0,0,0.04001-1.78-0.36002-2.83c0.03,0.03,0.05002,0.04,0.05002,0.04
				c0.16-0.41,0.32999-1.59,0.44998-3.21C292.10001,62.41,292.26999,63.82,292.85001,64.12z"/>
			<path d="M292.20001,54.71c0.06998,2.35,0,4.62-0.12003,6.37c-0.03-1.25,0.07001-2.39,0.07001-2.39l-0.16-11.98
				c0.05002,0.18,0.09,0.41,0.14001,0.67C292.17999,50.44,292.17001,54.03,292.20001,54.71z"/>
			<path class="st0" d="M291.98999,46.71l0.16,11.98c0,0-0.10001,1.14-0.07001,2.39c0,0.01,0,0.02,0,0.03
				c-0.12,1.62-0.28998,2.8-0.44998,3.21c0,0-0.02002-0.01-0.05002-0.04c-0.14999-0.39-0.35999-0.68-0.65997-0.74
				C290.38,62.86,290.70999,41.51,291.98999,46.71z"/>
			<path d="M292.13,47.38c-0.05002-0.26-0.09-0.49-0.14001-0.67l-0.04999-3.8C292.04999,43.42,292.10001,45.27,292.13,47.38z"/>
			<path d="M291.94,42.91l0.04999,3.8c-1.28-5.2-1.60999,16.15-1.06998,16.83c0.29999,0.06,0.50998,0.35,0.65997,0.74
				c-0.51999-0.41-4.81-4.01-4.53998-10.07c0.26999-6.44,3.72-9.61,4.38998-10.18c0.42999-0.51,0.45001-0.7,0.48001-1.21
				C291.92001,42.84,291.92999,42.87,291.94,42.91z"/>
		</g>
	</g>
</g>
<g id="XMLID_8_">
	<g>
		<path class="st0" d="M166.27,201.02V207.12l3.73999-3.03L166.27,201.02z M166.27,198.57001
			c9.51999-4.41,9.95999-1.46001,9.95999-1.46001v10.03999V209.61h-12.44c-0.7,0-1.25-0.53999-1.25-1.23V186.31
			c0-0.69,0.55-1.23,1.25-1.23h4.97v2.45l-2.48999,0.04001C166.27,187.57001,166.25,198.62,166.27,198.57001z"/>
		<path class="st0" d="M168.75999,185.08h12.44c0.7,0,1.25,0.53999,1.25,1.23V208.38c0,0.69-0.55,1.23-1.25,1.23h-4.97v-2.46001
			H178.72v-10c0-6.15999-9.96001-2.25999-9.96001-2.25999v-7.36V185.08z M179.96001,187.53h-3.38c0,0-1.67,2.25999-2.84,3.68001H177
			C178.78,188.95,179.96001,187.53,179.96001,187.53z"/>
		<path d="M176.58,187.53h3.38c0,0-1.18001,1.42-2.96001,3.68001h-3.25999C174.91,189.78999,176.58,187.53,176.58,187.53z"/>
		<polygon points="170.00999,204.09 166.27,207.12 166.27,201.02 		"/>
		<path d="M168.75999,194.89c0,0,9.96001-3.89999,9.96001,2.25999v10H176.23V197.11c0,0-0.44-2.95-9.95999,1.46001
			c-0.02,0.04999,0-11,0-11l2.48999-0.04001V194.89z"/>
		<path d="M184.94,208.38c0,2.01999-1.69,3.67999-3.74001,3.67999h-17.41c-2.04999,0-3.73999-1.66-3.73999-3.67999V186.31
			c0-2.02,1.69-3.67999,3.73999-3.67999h17.41c2.05,0,3.74001,1.65999,3.74001,3.67999V208.38z M181.2,185.08h-12.44h-4.97
			c-0.7,0-1.25,0.53999-1.25,1.23V208.38c0,0.69,0.55,1.23,1.25,1.23h12.44h4.97c0.7,0,1.25-0.53999,1.25-1.23V186.31
			C182.45,185.62,181.89999,185.08,181.2,185.08z"/>
	</g>
</g>
<g id="XMLID_6_">
	<g>
		<polygon class="st0" points="135.22,101.03 134.86,104.4 122.91,104.4 123.26,107.97 134.50999,107.97 133.63,118.88 
			127.31,120.86 120.98,118.88 120.45,113.13 123.62,113.13 123.79,116.1 127.31,117.09 130.82001,116.1 131.17,111.54 
			120.28,111.54 119.4,101.03 		"/>
		<polygon points="138.56,91.31 138.56,93.29 134.34,93.29 134.34,87.34 136.09,87.34 136.09,91.31 		"/>
		<polygon points="130.47,89.52 131.7,87.34 133.46001,87.34 133.46001,93.29 131.7,93.29 131.7,90.31 130.47,92.5 129.24001,90.31 
			129.24001,93.29 127.48,93.29 127.48,87.34 129.42,87.34 		"/>
		<polygon points="123.44,89.32 121.86,89.32 121.86,87.34 126.78,87.34 126.78,89.32 125.2,89.32 125.2,93.29 123.44,93.29 		"/>
		<path d="M120.28,111.54h10.89l-0.34999,4.56l-3.51001,0.99l-3.52-0.99l-0.17-2.97H120.45l0.53001,5.75l6.32999,1.98l6.32001-1.98
			l0.87999-10.91H123.26l-0.35-3.57h11.95l0.36-3.37H119.4L120.28,111.54z M139.61,95.27l-2.11,28.57L127.31,127.01l-10.2-3.17001
			L115,95.27H139.61z"/>
		<polygon points="119.4,89.32 119.4,87.34 121.15,87.34 121.15,93.29 119.4,93.29 119.4,91.31 117.82,91.31 117.82,93.29 
			116.06,93.29 116.06,87.34 117.82,87.34 117.82,89.32 		"/>
	</g>
</g>
<path d="M42.79844,55.22503L31.6699,51.88737l-2.48-30.05062h27.25041l-2.48256,30.046L42.79844,55.22503L42.79844,55.22503z"/>
<path d="M51.83238,49.96951l2.12141-25.67574H42.81511v28.37649L51.83238,49.96951L51.83238,49.96951z"/>
<path class="st0" d="M34.8752,35.43916l0.30571,3.68559h7.63419v-3.68559H34.8752z M34.26078,27.97948l0.31009,3.68559h8.24423
	v-3.68559H34.26078L34.26078,27.97948z M42.81511,45.01104l-0.01495,0.00427l-3.79931-1.10832l-0.2429-2.9394h-3.42459
	l0.47791,5.78694l6.98816,2.0957l0.0157-0.00462v-3.83457H42.81511z"/>
<path d="M35.60316,13.67023h4.13173v1.86674h-2.40384v1.86674h2.40405v1.86662h-4.13194V13.67023z M40.56135,13.67023h4.13184
	v1.62324h-2.40394v0.32463h2.40394v3.73348h-4.13173v-1.7046h2.40395v-0.32463h-2.40416v-3.65212
	C40.56125,13.67023,40.56135,13.67023,40.56135,13.67023z M45.51964,13.67023h4.13184v1.62324h-2.40395v0.32463h2.40395v3.73348
	h-4.13184v-1.7046h2.40395v-0.32463h-2.40384v-3.65212C45.51975,13.67023,45.51964,13.67023,45.51964,13.67023z"/>
<path class="st0" d="M50.73322,35.43916l0.61581-7.45968h-8.54567v3.68559h4.80703l-0.31041,3.7741h-4.49662v3.68559h4.20084
	l-0.39608,4.77994l-3.80487,1.10947v3.83434l6.99371-2.09396l0.05127-0.62271l0.80178-9.70298L50.73322,35.43916L50.73322,35.43916z
	"/>
<g id="XMLID_9_">
	<g>
		<path d="M125.58,259.95999c0.1-0.22,0.17-0.44998,0.2-0.69c0.03-0.26999,0.05-0.53,0.05-0.79999v-1.69
			c0-0.56,0.14-1.06,0.4-1.50999c0.27-0.45,0.7-0.81,1.3-1.07001c-0.6-0.27-1.03-0.62-1.3-1.06999
			c-0.26-0.45001-0.4-0.95001-0.4-1.51001v-1.69c0-0.26999-0.02-0.53999-0.05-0.79999c-0.04-0.24001-0.1-0.47-0.2-0.70001
			c-0.08-0.2-0.21-0.37999-0.36-0.53999c-0.16-0.17-0.36-0.28999-0.59-0.36l0.58-1.45999c0.62,0.15999,1.15,0.37,1.57,0.62999
			c0.4,0.24001,0.74,0.54001,1.01,0.89c0.25999,0.33,0.43999,0.7,0.53999,1.10001c0.12,0.41,0.17,0.81999,0.17,1.23999v1.69
			c0,0.23001,0.02,0.46001,0.08,0.69c0.05,0.18001,0.14,0.36,0.27,0.51001c0.12,0.14,0.28,0.25,0.45,0.32999
			c0.19,0.07001,0.42,0.11,0.67999,0.11v1.89c-0.51999,0-0.89999,0.15001-1.12999,0.45001
			C128.62,255.89,128.5,256.29001,128.5,256.78v1.69c0,0.42001-0.05,0.84-0.17,1.25c-0.10001,0.38998-0.28,0.76001-0.54,1.09
			c-0.25,0.34-0.59,0.64001-1.01,0.89999c-0.42,0.26001-0.95,0.47-1.57,0.63l-0.58-1.47c0.23-0.07999,0.43-0.19998,0.59-0.35999
			C125.37,260.35001,125.5,260.16,125.58,259.95999z"/>
		<path d="M122.4,259.04001c-0.16,0.13-0.34,0.22998-0.54,0.29999c-0.22,0.07001-0.45,0.11002-0.68,0.10001
			c-0.24,0.01001-0.47-0.03-0.7-0.10001c-0.19-0.07001-0.38-0.16998-0.54-0.29999c-0.3-0.26001-0.47-0.62-0.46-1
			c0-0.20001,0.03999-0.39001,0.12-0.56c0.08-0.17001,0.2-0.32001,0.34-0.44c0.16-0.13,0.34-0.23001,0.54-0.30002
			c0.23-0.06998,0.46-0.10999,0.7-0.10999c0.23,0,0.46,0.03,0.68,0.10999c0.2,0.06,0.39,0.17001,0.54,0.30002
			c0.15,0.12,0.27,0.26999,0.35,0.44c0.17,0.34998,0.17,0.75998,0,1.10999C122.67,258.76999,122.55,258.92001,122.4,259.04001z"/>
		<path d="M122.75,251.96001c-0.08,0.17-0.2,0.31999-0.35,0.45c-0.16,0.12999-0.34,0.22-0.54,0.28999
			c-0.22,0.07001-0.45,0.11-0.68,0.11c-0.24,0-0.47-0.03-0.7-0.11c-0.19-0.06999-0.38-0.17-0.54-0.28999
			c-0.3-0.26001-0.47-0.63-0.46-1.01001c0-0.18999,0.03999-0.37999,0.12-0.56c0.08-0.16,0.2-0.31,0.34-0.44
			c0.16-0.12999,0.34-0.23,0.54-0.29999c0.23-0.07001,0.46-0.11,0.7-0.10001c0.23-0.00999,0.46,0.03,0.68,0.10001
			c0.2,0.06999,0.39,0.17,0.54,0.29999c0.15,0.12001,0.27,0.27,0.35,0.44C122.92,251.2,122.92,251.60001,122.75,251.96001z"/>
		<polygon points="109.49,247.24001 114.19,254.78 114.19,247.24001 117.39,247.24001 117.39,259.35001 114.2,259.35001 
			109.49,251.81 109.49,259.35001 106.28,259.35001 106.28,247.24001 		"/>
		<path d="M98.82,249.36c-0.86,0-1.5,0.31999-1.93,0.94c-0.42,0.62-0.63,1.53-0.63,2.73999v0.5c0,1.19,0.22,2.10001,0.65,2.74001
			c0.42999,0.64001,1.07999,0.95999,1.92999,0.95999c0.82001,0,1.45-0.31998,1.88-0.94998c0.44-0.64001,0.66-1.55,0.66-2.75002v-0.5
			c0-1.2-0.21999-2.12-0.67-2.73999C100.27,249.67999,99.64,249.36,98.82,249.36z M96.47,247.49001c0.71-0.28,1.5-0.42,2.36-0.42
			c0.84,0,1.62,0.14,2.34,0.42c0.7,0.26999,1.33,0.67999,1.83,1.18999c0.52,0.52,0.92,1.14001,1.21,1.88
			c0.29,0.73,0.44,1.57001,0.44,2.49001v0.48999c0,0.93001-0.15,1.76001-0.43,2.50002c-0.29,0.73999-0.69,1.37-1.21,1.88
			c-0.51,0.50998-1.14,0.91998-1.84,1.18997c-0.7,0.27002-1.48,0.41-2.33,0.41c-0.85999,0-1.64999-0.13998-2.35999-0.41
			C95.77,258.84,95.14,258.42999,94.63,257.92001c-0.50999-0.52002-0.91-1.14001-1.2-1.88C93.15,255.3,93,254.47,93,253.53999
			V253.05c0-0.92,0.14-1.75,0.43-2.49001c0.28-0.73999,0.68-1.37,1.19-1.88C95.14,248.17,95.77,247.75999,96.47,247.49001z"/>
		<path d="M87.25,252.12c0.64,0.18001,1.28,0.41,1.89,0.68001c0.55,0.25,1.02,0.53999,1.4,0.86c0.37,0.3,0.66,0.67999,0.86,1.09
			c0.21,0.39999,0.31,0.86,0.31,1.37c0,0.55002-0.12,1.03-0.36,1.45999c-0.23,0.42001-0.58,0.79001-1,1.06003
			c-0.42,0.28998-0.93999,0.50998-1.55,0.65997c-0.61,0.15002-1.28001,0.22-2.02,0.22c-0.46,0-0.91-0.03-1.36-0.10999
			c-0.45-0.06-0.88-0.17001-1.3-0.31c-0.41-0.14999-0.79-0.33002-1.16-0.54001c-0.35-0.22-0.66-0.48999-0.92-0.79001
			c-0.26-0.31998-0.47-0.66998-0.61-1.03998c-0.15-0.39001-0.22-0.82001-0.22-1.30002h3.22c0,0.36,0.05,0.64999,0.15,0.89999
			c0.1,0.23001,0.25,0.43002,0.46,0.58002c0.21,0.16,0.46,0.26999,0.73,0.32999c0.33,0.06,0.67001,0.09,1.01,0.09
			c0.3,0,0.56-0.03,0.77-0.09c0.2-0.06,0.38-0.14999,0.53999-0.25998c0.13-0.10001,0.24001-0.24002,0.3-0.38
			c0.08-0.14999,0.12-0.31,0.12-0.47c0-0.17-0.03-0.34001-0.1-0.51001C88.36,255.47,88.25,255.33,88.08,255.19
			c-0.18-0.14-0.42-0.27-0.72-0.41c-0.31-0.13-0.71-0.27-1.21-0.42c-0.58-0.17-1.14-0.37-1.69-0.60001
			c-0.52-0.20999-1-0.47-1.45-0.78999c-0.41-0.29001-0.75-0.64999-1.01-1.06c-0.25-0.41-0.38-0.89-0.38-1.43001
			c0-0.51999,0.13-0.98999,0.39-1.40999C82.27,248.64999,82.63,248.28,83.07,248c0.46-0.28999,1-0.52,1.62-0.67999
			c0.67-0.17001,1.36-0.25,2.05-0.24001c0.72,0,1.39,0.09,2,0.25999c0.61,0.18001,1.14,0.43001,1.57,0.76001
			c0.44,0.31999,0.79,0.73,1.03,1.18999c0.25,0.46001,0.37,0.97,0.37,1.55h-3.2c0.00999-0.22-0.04-0.42999-0.12-0.62999
			C88.32,250.03,88.2,249.86,88.04,249.72c-0.16-0.14-0.35-0.25-0.57-0.32001c-0.22-0.07999-0.49-0.12-0.81-0.12
			c-0.27,0-0.54,0.03-0.8,0.10001c-0.21,0.06-0.41,0.14999-0.58,0.26999c-0.15,0.10001-0.27,0.24001-0.35,0.39
			c-0.08,0.14-0.12,0.3-0.12,0.47s0.05,0.35001,0.16,0.5c0.14,0.16,0.3,0.3,0.49,0.41c0.24,0.14,0.5,0.25999,0.76,0.37
			C86.53,251.89999,86.87,252.00999,87.25,252.12z"/>
		<path d="M74.01,256.94c0.12,0.12,0.25999,0.20001,0.43,0.25c0.18999,0.04999,0.38,0.07999,0.57999,0.07001
			c0.45,0,0.79-0.15002,1.02-0.45001c0.25-0.29999,0.37-0.73001,0.37-1.27c0.00999,0,0.00999-8.29999,0.00999-8.29999h3.19v8.31
			c0,0.61-0.11,1.15999-0.35,1.64c-0.23,0.48001-0.56001,0.89999-0.98,1.25s-0.92,0.62-1.45,0.79999
			c-0.58,0.18002-1.19,0.28-1.8,0.27002c-0.67,0-1.29-0.07001-1.85-0.22c-0.56-0.16-1.05-0.39001-1.46-0.70001
			c-0.41-0.32999-0.73-0.73001-0.95-1.19C70.55,256.92001,70.44,256.34,70.44,255.69h3.21c0,0.31,0.03,0.56,0.09,0.76999
			C73.8,256.66,73.89,256.82001,74.01,256.94z"/>
		<path d="M68.8,248.44c-0.10001,0.22-0.16,0.45999-0.19,0.69c-0.04,0.26999-0.06,0.53999-0.06,0.81v1.69
			c0,0.54999-0.13,1.06-0.4,1.5c-0.27,0.45-0.7,0.81-1.29,1.08c0.59,0.25999,1.02,0.62,1.29,1.07999
			c0.27,0.45001,0.4,0.94002,0.4,1.49001v1.69c0,0.26999,0.02,0.54001,0.06,0.81c0.03,0.23999,0.09,0.47,0.19,0.69
			c0.09,0.20001,0.21,0.38998,0.37,0.54999s0.36,0.28,0.58,0.36002L69.18,262.34c-0.63-0.16-1.15-0.37-1.57-0.63
			c-0.4-0.23999-0.74-0.53998-1.02-0.89999c-0.25-0.32999-0.43999-0.70001-0.55-1.10001c-0.1-0.39999-0.15-0.81998-0.15-1.23999
			v-1.69c0-0.23001-0.03-0.45999-0.09-0.67999c-0.05-0.18001-0.14-0.35001-0.27-0.5c-0.12-0.15001-0.28-0.26001-0.46-0.34001
			c-0.18-0.06999-0.4-0.11-0.67-0.11v-1.89c0.52,0,0.9-0.14999,1.13-0.43999c0.23-0.3,0.35-0.70001,0.35-1.19v-1.69
			c0-0.42,0.05-0.84,0.16-1.25c0.11-0.39,0.29-0.77,0.55-1.10001c0.27-0.34999,0.62-0.64999,1.02-0.89
			c0.42-0.25999,0.94-0.47,1.57-0.62999l0.57,1.46999c-0.22,0.07001-0.42,0.19-0.58,0.35001
			C69.01,248.06,68.89,248.24001,68.8,248.44z"/>
	</g>
</g>
<g id="XMLID_2_">
	<g>
		<path d="M363.34,160.13c-0.25-0.32001-0.51001-0.63-0.82999-1.02c-2.28,2.85001-4.56,5.56-6.70001,8.39
			c-0.76001,1-1.57001,1.44-3,1.09l8.59-10.66L353.41,148.3c1.37-0.24001,2.32001-0.12001,3.16,1.02
			c1.85999,2.51999,3.91,4.90999,5.95999,7.43999c2.04999-2.51999,4.07999-4.92,5.98999-7.40999
			c0.77002-1.01001,1.59-1.39,2.97-1.02c-1.03998,1.28-2.06998,2.55-3.09,3.8c-1.38998,1.69-2.75998,3.39999-4.19998,5.06
			c-0.51001,0.59-0.43002,0.97,0.03,1.53c2.66,3.24001,5.29999,6.50999,8.00998,9.86c-1.44998,0.34-2.34998,0.00999-3.16-1.11
			C367.26999,164.96001,365.26999,162.57001,363.34,160.13z"/>
		<path d="M350.23001,157.31c-0.11002-4.73-3.29001-8.09999-7.65002-8.13c-4.78-0.03-8.22,3.25-8.42999,8.13H350.23001z
			 M348.12,149.53c3.16,2.29001,3.95001,5.53,3.79001,9.18001H334.12c-0.26999,6.56,4.83002,10.50999,11.33002,8.48999
			c2.28-0.7,3.62-2.36,4.28998-4.42c0.34-1.03999,0.91-1.2,1.96002-0.89999c-0.54001,2.58-1.76001,4.73999-4.31,6.09
			c-3.83002,2.02-9.29001,1.37-12.16-1.44c-1.70001-1.64999-2.42001-3.70999-2.74002-5.92999
			c-0.03998-0.35001-0.13998-0.70001-0.22-1.05c0.01001-0.60001,0.01001-1.2,0.01001-1.8c0.23001-1.06,0.38-2.14999,0.70001-3.19
			C334.89001,148.24001,342.73999,145.61,348.12,149.53z"/>
	</g>
</g>
<g id="XMLID_4_">
	<g>
		<polygon class="st0" points="283.89999,110.71 283.89999,119.42 279.12,119.42 279.12,107.78 293.37,107.78 293.37,113.6 
			293.37,119.42 290.98001,119.42 290.98001,110.71 288.59,110.71 288.59,119.48 286.20001,119.41 286.20001,110.71 		"/>
		<path class="st0" d="M272.12,116.48h2.22v-5.77h-2.22v2.89V116.48z M267.25,107.78h9.56l-0.01001,5.83l-0.03,5.82l-4.64999-0.02
			v2.95h-4.87V107.78z"/>
		<polygon class="st0" points="264.95001,107.78 264.95001,113.6 264.95001,119.42 262.54999,119.42 262.54999,110.71 
			260.25,110.71 260.25,119.42 255.38,119.42 255.38,107.78 		"/>
		<polygon points="274.34,110.71 274.34,116.48 272.12,116.48 272.12,113.6 272.12,110.71 		"/>
		<path d="M279.12,107.78v11.64h4.78v-8.71h2.30002v8.7l2.38998,0.07v-8.77h2.39001v8.71H293.37v-5.82v-5.82
			C293.37,107.77999,279.12,107.77999,279.12,107.78z M274.42001,125.3h-9.47v-2.94H253.08v-8.76v-8.76h42.59999v17.52h-21.25998
			V125.3z M264.95001,113.6v-5.82H255.38v11.64h4.87v-8.71h2.29999v8.71h2.40002V113.6z M267.25,122.36h4.87v-2.95l4.64999,0.02
			l0.03-5.82l0.01001-5.83h-9.56V122.36z"/>
	</g>
</g>
<g id="XMLID_3_">
	<g>
		<path d="M455.23999,204.57001l0.22,0.20999c-0.28,0.57001-0.57999,0.99001-0.91998,1.25c-0.33002,0.25-1.11002,0.38-1.68002,0.38
			c-0.59998,0-1.10999-0.15001-1.50998-0.45c-0.39999-0.31001-0.66-0.74001-0.79001-1.3c-0.22-0.95-0.04999-1.82001,0.51999-2.60001
			c0.57001-0.78,1.30002-1.17999,2.20001-1.17999c0.36002,0,0.98999,0.09,1.23999,0.25c0.24002,0.15999,0.40002,0.37,0.46002,0.64
			c0.10999,0.45999-0.47,0.89-1.04001,1.3c-0.57001,0.40999-1.42001,0.68999-2.54001,0.84999c0.01001,0.13,0.03,0.25,0.06,0.38
			c0.22,0.92,0.79001,1.37999,1.74002,1.37999C453.88,205.67999,454.79001,205.31,455.23999,204.57001z M451.41,203.64
			c1.69-0.3,2.42999-0.81999,2.26001-1.58C453.63,201.91,453.51999,201.77,453.34,201.64s-0.35999-0.2-0.54999-0.2
			c-0.43002,0-0.78,0.23-1.05002,0.69C451.47,202.58,451.35999,203.08,451.41,203.64z"/>
		<path class="st0" d="M453.67001,202.06c0.16998,0.76001-0.57001,1.28-2.26001,1.58c-0.05002-0.56,0.06-1.06,0.32999-1.50999
			c0.27002-0.46001,0.62-0.69,1.05002-0.69c0.19,0,0.37,0.06999,0.54999,0.2S453.63,201.91,453.67001,202.06z"/>
		<path d="M449.54001,204.94l0.25998,0.2c-0.84998,0.85001-1.66998,1.27-2.44,1.27c-0.53998,0-0.85999-0.22-0.95999-0.66
			c-0.04999-0.19-0.07001-0.55-0.07001-1.09l0.02002-3.18001h-1.05002l-0.00998-0.26999c0.89999-0.08,1.48999-0.59001,1.75998-1.52
			h0.31v1.36h1.59003l0.00998,0.42999h-1.60999L447.34,205.08c0,0.09999,0.01001,0.17999,0.03,0.25
			c0.07001,0.3,0.25,0.45,0.54001,0.45C448.38,205.78,448.92999,205.5,449.54001,204.94z"/>
		<path d="M444.88,205.97l0.01001,0.25999H441.81l0.01001-0.25999c0.41998,0,0.67999-0.04001,0.78-0.11
			c0.10001-0.07001,0.14999-0.3,0.14999-0.69l0.01999-2.84999c0-0.16-0.00998-0.28001-0.03-0.37001
			c-0.06-0.25999-0.25998-0.39999-0.57999-0.39999l-0.67001,0.08v-0.31l1.94-0.40001H443.78l-0.01001,4.02
			c0,0.28,0.02002,0.48999,0.04001,0.61c0.04001,0.16,0.12,0.27,0.23999,0.33C444.17999,205.92999,444.45999,205.97,444.88,205.97z"
			/>
		<path d="M443.41,199.21001c0.03,0.14,0,0.26999-0.08002,0.37C443.25,199.67999,443.13,199.73,442.97,199.73
			s-0.31-0.05-0.44-0.14999c-0.13998-0.10001-0.23001-0.23-0.26001-0.37s0-0.26001,0.09-0.35001
			c0.09003-0.10001,0.21002-0.14999,0.37003-0.14999S443.03,198.75999,443.16,198.86
			C443.29001,198.95,443.38,199.07001,443.41,199.21001z"/>
		<path d="M440.56,204.85001l-0.16998,1.45H433.84l0.01999-0.29001c0.35001-0.03,0.60001-0.12,0.74002-0.25
			c0.14999-0.12999,0.22-0.42999,0.22998-0.90999v-6.36c0-0.33-0.00998-0.56001-0.03998-0.68001
			c-0.08002-0.34999-0.45001-0.53-1.11002-0.53l-0.01999-0.28999h3.41998l0.02002,0.28999c-0.37,0.02-0.62,0.11-0.76001,0.27
			c-0.13998,0.14999-0.19998,0.47-0.19998,0.94l-0.03003,6.42999c0,0.11,0.01001,0.21001,0.03003,0.31
			c0.10999,0.46001,0.53,0.7,1.25,0.7h0.62c0.78998,0,1.34998-0.07999,1.66-0.23999c0.31-0.16,0.50998-0.44,0.59-0.84H440.56z"/>
		<path d="M433.19,208.73l0.10999,0.24001c-0.48999,0.2-1.04999,0.3-1.66998,0.3c-0.52002,0-0.98999-0.06-1.42999-0.18001
			c-0.45001-0.12-0.86002-0.31-1.24002-0.55c-0.38998-0.25-0.85001-0.67-1.41-1.25c-0.48999-0.50999-0.85999-0.82999-1.12997-0.95
			c-1.14001-0.20999-2.13-0.75-2.96002-1.62999c-0.81998-0.87001-1.22998-1.87001-1.22998-3c0-0.83,0.22998-1.62001,0.70999-2.35001
			c0.47-0.74001,1.10999-1.32001,1.91998-1.74001c0.81003-0.42,1.71002-0.62999,2.70001-0.62999
			c1.51999,0,2.81,0.45999,3.85001,1.37c1.04999,0.91,1.57001,2.03,1.57001,3.35001c0,1.12-0.40002,2.12-1.21002,2.98999
			c-0.79999,0.88-1.82999,1.42-3.09,1.64c0.12,0.09,0.33002,0.31,0.64001,0.66c0.66,0.73,1.20999,1.22,1.64999,1.48
			c0.42999,0.26001,0.87,0.38,1.31,0.38C432.60001,208.86,432.89999,208.82001,433.19,208.73z M431.44,201.78999
			c0-1.37999-0.35001-2.45999-1.04999-3.25999c-0.70001-0.78999-1.61002-1.19-2.73001-1.19c-1.17999,0-2.12,0.40001-2.83002,1.2
			c-0.69998,0.79001-1.04999,1.86-1.04999,3.19c0,1.3,0.34,2.35001,1.04001,3.17c0.69998,0.81001,1.60999,1.21001,2.73999,1.21001
			c1.17001,0,2.11002-0.39,2.82001-1.18001C431.07999,204.14999,431.44,203.10001,431.44,201.78999z"/>
		<path d="M420.28,202.42999c0.37,0.42001,0.54999,0.91,0.54999,1.46001c0,0.71001-0.28,1.31-0.84,1.82001
			c-0.56,0.5-1.22998,0.75-2.00998,0.75c-0.46002,0-1.04001-0.11-1.75-0.34001c-0.29001-0.09-0.47-0.14-0.55002-0.14
			c-0.16998,0-0.29999,0.12001-0.38998,0.35001h-0.30002v-2.44h0.30002c0.00998,0.67,0.25,1.21001,0.72998,1.61
			c0.48001,0.41,1.04001,0.61,1.69,0.61c0.61002,0,1.10001-0.14,1.47-0.44c0.37-0.28999,0.54001-0.67999,0.54001-1.17
			c0-0.36-0.14999-0.71001-0.45001-1.03999C418.97,203.12,418.34,202.7,417.38,202.17c-0.78-0.42999-1.31-0.78-1.57001-1.03
			s-0.45001-0.53-0.57999-0.83c-0.13-0.3-0.19-0.62-0.19-0.98c0-0.69,0.25998-1.25999,0.75998-1.69
			c0.51001-0.42999,1.17001-0.64999,1.98001-0.64999c0.44,0,0.92999,0.09,1.45001,0.25
			c0.25,0.06999,0.41998,0.09999,0.51999,0.09999c0.07999,0,0.13-0.00999,0.16-0.03999S419.97,197.2,420,197.09h0.28v2.11h-0.29999
			c-0.07001-0.58-0.30002-1.03999-0.70001-1.37c-0.41-0.32001-0.91-0.49001-1.51999-0.49001c-0.55002,0-0.98001,0.13-1.31,0.37001
			c-0.33002,0.25-0.5,0.57999-0.5,0.98999c0,0.38,0.13998,0.72,0.40997,1.03c0.28003,0.32001,0.87003,0.72,1.78003,1.21001
			C419.20999,201.50999,419.92001,202,420.28,202.42999z"/>
		<path d="M410.89001,198.17999c0.10999-0.03999,0.34-0.12999,0.73999-0.28c0.44998-0.17,1.79999-0.45999,2.62-0.62999
			c-1.37,1.86-2.54001,3.15999-2.54001,3.15999s-2.38998,0.87001-3.13,2.90001c0.43002-2.17,1.14001-4.43001,2.14001-6.84
			c0.89999-2.15001,3.88998-7.96001,6.10999-9.75c-2.42999,1.73999-5.07999,5.37999-7,9.90999
			c-1.12997,3.01001-1.73999,5.89-1.84,8.28c-0.06998,1.56001,0.08002,2.92001,0.45001,3.95001l-0.17001,0.09
			c-0.25-0.53-0.44998-1.50999-0.54999-2.64999c-0.04001-1.45001,0.10001-3.29001,0.41-5.33c0.01999,0,0.03,0,0.04999,0
			c0.67001-3.17,2.51001-9.04001,4.06-12.96001c0.37-0.67999,0.77002-1.31999,1.18002-1.92c1.37-1.09,2.75998-1.46001,3.89999-0.55
			C420.12,187.8,417.34,192.92,414.79999,196.52C413.17001,196.98,411.32001,197.95,410.89001,198.17999z"/>
		<path d="M396.70999,186.11h16.71002c-0.20001,0.16-0.40002,0.34-0.60001,0.53h-16.11002c-0.79999,0-1.44998,0.58-1.44998,1.3
			v15.34c3.31998-1.14999,8.16-2.14,11.85999-2.28c0.31,1.08,0.52002,2.35001,0.52002,2.35001s0,0.09,0.01999,0.23
			c-0.05002,0.92-0.01999,1.87,0.06,2.74001h-11.01001c-1.12,0-2.03998-0.83-2.03998-1.83v-16.55
			C394.67001,186.92999,395.59,186.11,396.70999,186.11z"/>
		<path d="M412.82001,186.64c0.19998-0.19,0.39999-0.37,0.60001-0.53c-0.41,0.60001-0.81003,1.24001-1.18002,1.92
			C412.44,187.53,412.64001,187.07001,412.82001,186.64z"/>
		<path class="st0" d="M396.70999,186.64h16.11002c-2.34,2.23-4.52002,6.36-5.19,9.50999
			c0.26001,0.48001,0.47,1.09001,0.60001,1.56001c0.03998,0.12,0.06998,0.23,0.09,0.32999c0.03998,0.14,0.06,0.25,0.07001,0.31001
			c-0.01001-0.05-0.04001-0.13-0.08002-0.24001c-0.01999-0.03999-0.04001-0.09-0.06-0.14c-0.01001-0.03-0.01999-0.06-0.03-0.08
			c-0.16-0.31999-0.57999-0.99001-0.76999-1.28999c-0.14001,0.39-0.28,0.78-0.41,1.17999c0.53,0.88,0.85999,2.39,0.85999,2.39
			s-0.03-0.09999-0.16-0.44c-0.12-0.3-0.72-1.23999-0.85999-1.45999c-0.23999,0.8-0.34,1.34-0.25,1.47
			c0.16998,0.25999,0.32999,0.7,0.47,1.17999c0.00998,0.03,0.01999,0.05,0.01999,0.08c-3.69998,0.14-8.54001,1.13-11.85999,2.28
			v-15.34C395.26001,187.22,395.91,186.64,396.70999,186.64z"/>
		<path d="M408.39001,198.35001c-0.01001-0.06001-0.03003-0.17001-0.07001-0.31001c-0.02002-0.09999-0.05002-0.20999-0.09-0.32999
			c-0.13-0.47-0.34-1.08-0.60001-1.56001c0.66998-3.14999,2.85001-7.28,5.19-9.50999c-0.17999,0.43001-0.38,0.89-0.58002,1.39
			c-2.10999,3.87-3.47998,8.8-4.10999,12.96001c-0.32001,0-0.66,0-1.01001,0.00999c0-0.03-0.01001-0.05-0.01999-0.08
			c-0.14001-0.48-0.30002-0.92-0.47-1.17999c-0.09-0.13,0.01001-0.67,0.25-1.47c0.13998,0.22,0.73999,1.15999,0.85999,1.45999
			c0.13,0.34001,0.16,0.44,0.16,0.44s-0.32999-1.50999-0.85999-2.39c0.13-0.39999,0.26999-0.78999,0.41-1.17999
			c0.19,0.29999,0.60999,0.97,0.76999,1.28999c0.01001,0.02,0.01999,0.05,0.03,0.08c0.01999,0.05,0.04001,0.10001,0.06,0.14
			C408.35001,198.22,408.38,198.3,408.39001,198.35001z"/>
		<path d="M412.23999,188.03c-1.54999,3.92-3.38998,9.79001-4.06,12.96001c-0.01999,0-0.03,0-0.04999,0
			C408.76001,196.83,410.13,191.89999,412.23999,188.03z"/>
		<path d="M407.12,201c0.35001-0.00999,0.69-0.00999,1.01001-0.00999c-0.31,2.03999-0.45001,3.87999-0.41,5.33
			c-0.07999-0.87001-0.11002-1.82001-0.06-2.74001c-0.01999-0.14-0.01999-0.23-0.01999-0.23S407.42999,202.08,407.12,201z"/>
	</g>
</g>
<g>
	<ellipse class="st1" cx="252.39453" cy="191.40205" rx="7.61142" ry="7.33681"/>
	<ellipse class="st1" cx="293.64276" cy="191.40205" rx="7.61142" ry="7.33681"/>
	
		<rect x="242.5836" y="190.38463" transform="matrix(0.70711 -0.70711 0.70711 0.70711 -61.28382 234.51793)" class="st2" width="19.72537" height="1.7009"/>
	
		<rect x="297.17987" y="191.10793" transform="matrix(0.73563 -0.67738 0.67738 0.73563 -53.60911 253.55284)" class="st2" width="1.70089" height="8.69776"/>
	<path class="st3" d="M265.474,185.38673c-0.12042-0.10286-0.21689-0.22714-0.30759-0.35626
		c-0.01614-0.02299-0.02524-0.04846-0.03006-0.07458c-0.11743-0.12605-0.23734-0.24788-0.35162-0.37735
		c-0.07791-0.06117-0.14188-0.13518-0.21777-0.19942v14.59512h1.70087v-12.68936
		C266.02338,186.06972,265.724,185.71394,265.474,185.38673z"/>
	<path class="st3" d="M280.05466,186.26114v12.47771h1.49792v-13.93796C281.04462,185.2905,280.55972,185.79648,280.05466,186.26114
		z"/>
	
		<rect x="270.96207" y="189.75983" transform="matrix(0.73563 -0.67738 0.67738 0.73563 -56.01474 237.71347)" class="st3" width="11.14618" height="1.71849"/>
	
		<rect x="268.71783" y="185.32648" transform="matrix(0.70711 -0.70711 0.70711 0.70711 -55.99065 246.52339)" class="st3" width="1.7338" height="11.04381"/>
</g>
<g id="Слой_3">
	<path class="st0" d="M254.68973,186.30161c-0.46754-0.16577-1.19144-0.36537-2.08922-0.38254
		c-0.65465-0.01253-2.24634-0.01976-3.73706,1.08875c-1.3679,1.0172-1.84303,2.37321-1.95775,2.73154
		c-0.62546,1.95381,0.06702,3.60191,0.25107,4.00694C249.66776,191.26472,252.17874,188.78316,254.68973,186.30161z"/>
	<path class="st0" d="M257.55383,188.89105c0.23981,0.44751,0.60095,1.26421,0.64737,2.33444
		c0.08057,1.85793-0.8429,3.19763-1.25296,3.71156c-1.10455,1.38437-2.5101,1.82292-2.77165,1.90053
		c-2.04716,0.60725-3.75787-0.21028-4.15573-0.41356C252.53185,193.91304,255.04283,191.40204,257.55383,188.89105z"/>
	<path class="st0" d="M296.23874,196.34555c-0.3768,0.18021-2.35272,1.07843-4.61981,0.24031
		c-0.30978-0.11452-2.8306-1.09631-3.56052-3.81062c-0.07251-0.26964-0.6235-2.45862,0.6915-4.42856
		c1.56012-2.33708,4.79929-2.94664,7.16516-2.00095c0.62256,0.24886,2.40692,1.09398,3.17798,3.14854
		c0.7478,1.9926,0.02521,3.74443-0.13977,4.1196"/>
	<line class="st4" x1="296.2919" y1="196.40381" x2="292.92868" y2="192.71643"/>
	<line class="st4" x1="295.78757" y1="190.2054" x2="292.9823" y2="192.77524"/>
	<line class="st4" x1="298.99402" y1="193.65775" x2="295.73795" y2="190.15199"/>
	<line class="st5" x1="294.3454" y1="191.52654" x2="301.6727" y2="199.40582"/>
</g>
<line class="pulse" x1="38.99102" y1="92.2" x2="38.91313" y2="100.31035"/>
<line class="pulse" x1="34.82415" y1="95.80161" x2="43.08" y2="95.80161"/>
<line class="pulse" x1="29.92055" y1="209.44487" x2="29.83055" y2="218.48969"/>
<line class="pulse" x1="25.10555" y1="213.46146" x2="34.64555" y2="213.46146"/>
<line class="pulse" x1="194.13217" y1="256.94254" x2="194.03279" y2="266.93073"/>
<line class="pulse" x1="188.81497" y1="261.37805" x2="199.35001" y2="261.37805"/>
<line class="pulse" x1="339.03052" y1="227.92" x2="338.94882" y2="236.9904"/>
<line class="pulse" x1="334.65936" y1="231.94795" x2="343.32001" y2="231.94795"/>
<line class="pulse" x1="236.46877" y1="30.46445" x2="236.37877" y2="39.50927"/>
<line class="pulse" x1="231.65376" y1="34.48104" x2="241.19376" y2="34.48104"/>
<line class="pulse" x1="350.54495" y1="96.18893" x2="361.71606" y2="96.18893"/>
<line class="pulse" x1="356.1832" y1="91.6" x2="356.07782" y2="101.93366"/>
<line class="pulse" x1="424.41592" y1="81.74804" x2="424.34238" y2="89.14069"/>
<line class="pulse" x1="420.48047" y1="85.03094" x2="428.27783" y2="85.03094"/>
<line class="pulse" x1="472.26392" y1="39.04052" x2="472.18753" y2="46.71559"/>
<line class="pulse" x1="468.1781" y1="42.44884" x2="476.27335" y2="42.44884"/>
<line class="pulse" x1="470.46622" y1="155.78516" x2="470.38467" y2="163.98148"/>
<line class="pulse" x1="466.10294" y1="159.42496" x2="474.74796" y2="159.42496"/>
<line class="pulse" x1="466.91159" y1="254.61406" x2="466.83258" y2="262.55515"/>
<line class="pulse" x1="462.68414" y1="258.1405" x2="471.06" y2="258.1405"/>
<line class="pulse" x1="513.40082" y1="86.87544" x2="513.31244" y2="95.75596"/>
<line class="pulse" x1="508.67331" y1="90.81908" x2="518.03998" y2="90.81908"/>
<line class="pulse" x1="532.52893" y1="22.50413" x2="532.45319" y2="30.1194"/>
<line class="pulse" x1="528.47498" y1="25.88589" x2="536.50714" y2="25.88589"/>
<line class="pulse" x1="534.45209" y1="179.83005" x2="534.37988" y2="187.08775"/>
<line class="pulse" x1="530.58844" y1="183.05302" x2="538.24347" y2="183.05302"/>
<line class="pulse" x1="552.97571" y1="268.13501" x2="552.88196" y2="277.55695"/>
<line class="pulse" x1="547.95996" y1="272.31906" x2="557.89771" y2="272.31906"/>
</svg>
