<?xml version="1.0" standalone="no"?>
<!DOCTYPE svg PUBLIC "-//W3C//DTD SVG 20010904//EN"
 "http://www.w3.org/TR/2001/REC-SVG-20010904/DTD/svg10.dtd">
<svg version="1.0" xmlns="http://www.w3.org/2000/svg"
 width="1986.000000pt" height="977.000000pt" viewBox="0 0 1986.000000 977.000000"
 preserveAspectRatio="xMidYMid meet">
<metadata>
Created by potrace 1.15, written by Peter Selinger 2001-2017
</metadata>
<g transform="translate(0.000000,977.000000) scale(0.100000,-0.100000)"
fill="#000000" stroke="none">
<path d="M12185 9759 c-189 -44 -688 -303 -714 -371 -5 -13 -28 -41 -51 -63
-53 -50 -70 -89 -70 -158 0 -40 6 -63 23 -88 13 -19 26 -42 30 -51 3 -10 14
-18 23 -18 10 0 48 -14 86 -32 80 -36 89 -55 63 -126 -10 -26 -19 -65 -20 -87
-2 -22 -7 -75 -11 -118 -5 -62 -3 -90 11 -138 18 -58 29 -72 38 -46 5 16 30
-4 58 -49 19 -32 20 -38 8 -111 -7 -43 -18 -95 -25 -115 -17 -48 -9 -73 32
-99 19 -11 34 -29 34 -39 0 -23 47 -80 66 -80 8 0 23 6 34 12 16 10 24 10 40
0 30 -19 57 -14 77 13 l18 24 41 -18 c24 -11 43 -28 47 -40 8 -31 27 -25 27 9
0 24 -7 33 -37 49 l-38 19 28 6 c15 3 38 8 52 11 42 9 28 25 -22 25 -78 0
-122 17 -145 56 -11 19 -24 34 -29 34 -12 0 -25 35 -35 86 l-6 39 44 -42 c24
-24 57 -68 73 -98 32 -59 45 -68 45 -33 0 35 -39 105 -90 161 -41 45 -90 131
-90 158 0 5 9 9 19 9 18 0 51 34 51 52 0 3 -10 10 -22 14 -12 3 -28 13 -36 20
-7 8 -22 14 -31 14 -10 0 -40 9 -66 21 -33 15 -57 19 -81 15 -30 -6 -34 -4
-40 20 -8 32 27 206 51 258 15 32 19 34 32 20 21 -20 81 -50 119 -58 18 -4 60
0 98 8 78 18 89 19 81 7 -3 -5 -34 -19 -69 -31 -69 -23 -92 -41 -82 -65 6 -17
39 -13 86 10 58 29 70 23 16 -7 -33 -18 -62 -39 -64 -45 -9 -29 33 -23 113 15
48 24 87 37 91 31 8 -14 -46 -62 -95 -84 -23 -10 -41 -24 -41 -30 0 -17 57
-27 82 -14 28 15 34 4 9 -18 -20 -17 -28 -53 -15 -66 4 -3 16 -1 27 4 15 8 22
8 28 -2 15 -23 30 11 24 51 -3 20 -2 46 3 59 8 22 10 19 28 -30 16 -46 23 -54
47 -57 26 -3 27 -2 27 42 0 25 -5 66 -12 90 -11 40 -10 47 7 66 14 16 29 20
59 18 41 -3 41 -3 63 -68 34 -99 29 -105 -31 -42 -56 58 -87 66 -47 12 81
-111 90 -151 46 -211 -13 -19 -32 -44 -41 -56 -22 -31 -13 -47 32 -61 22 -7
59 -30 83 -52 48 -44 47 -36 24 -182 -4 -31 -2 -38 11 -38 22 0 33 33 47 139
10 80 9 101 -10 195 -11 58 -21 128 -21 155 0 48 2 51 25 51 21 0 25 5 25 29
0 66 82 261 110 261 14 0 13 -3 -19 -75 -17 -36 -35 -65 -40 -65 -6 0 -11 -12
-11 -27 0 -16 -7 -55 -14 -87 -9 -36 -11 -67 -6 -80 5 -12 11 -33 14 -48 5
-21 19 -34 59 -54 28 -15 54 -30 55 -35 6 -14 52 -10 58 5 9 22 44 7 44 -19 0
-36 10 -55 30 -55 14 0 20 12 26 57 10 64 31 81 40 33 4 -20 15 -35 29 -40 46
-18 60 -59 59 -177 -1 -70 -7 -127 -18 -163 -9 -30 -21 -73 -26 -96 -5 -22
-16 -59 -25 -82 -14 -35 -23 -44 -56 -52 -21 -6 -74 -37 -119 -70 -44 -33 -83
-60 -86 -60 -3 0 -24 16 -47 35 -63 54 -140 89 -182 82 -19 -3 -35 -3 -35 0 0
2 16 23 35 46 58 68 36 81 -35 20 -45 -39 -42 -17 4 26 25 24 35 51 18 51 -4
0 -35 -22 -67 -50 -55 -46 -77 -59 -175 -104 -19 -9 -43 -21 -52 -28 -17 -12
-16 -13 -91 28 -27 15 -27 17 -13 37 51 70 50 68 35 78 -8 5 -40 9 -71 9 l-58
0 0 -44 c0 -34 7 -53 34 -87 18 -24 36 -53 40 -65 9 -30 52 -49 105 -47 25 1
105 5 178 8 128 7 133 6 192 -20 33 -15 67 -36 77 -46 16 -17 13 -22 -55 -96
-84 -92 -130 -173 -138 -243 l-6 -51 84 6 c97 7 124 -2 96 -33 -9 -10 -17 -26
-17 -35 0 -9 -4 -19 -10 -22 -5 -3 -10 3 -10 15 0 34 -25 17 -28 -19 -2 -18 3
-43 12 -55 8 -13 20 -52 26 -87 16 -91 19 -99 40 -99 24 0 27 -12 36 -160 11
-191 12 -260 3 -260 -5 0 -9 6 -9 13 -1 6 -5 56 -9 110 -8 105 -22 136 -47
103 -12 -18 -14 -7 -14 97 0 93 -3 117 -14 117 -44 0 -58 -77 -45 -266 11
-175 44 -376 85 -516 4 -13 -19 -6 -95 30 -56 26 -101 52 -101 59 0 6 14 52
30 101 17 50 30 104 30 122 0 27 -3 30 -21 25 -20 -7 -21 -5 -14 69 l7 76 -41
45 c-22 24 -41 53 -41 63 0 10 -6 24 -12 31 -31 30 -4 250 38 310 l17 24 24
-29 c18 -23 23 -25 23 -11 0 23 -25 83 -38 91 -22 13 -46 -10 -77 -76 -41 -84
-60 -189 -51 -276 8 -77 26 -123 67 -175 25 -31 32 -50 35 -100 3 -34 6 -78 8
-99 4 -35 3 -36 -39 -47 -74 -18 -120 -108 -113 -216 4 -71 31 -114 62 -102
21 8 20 37 -1 52 -14 10 -17 27 -16 76 2 74 13 99 54 123 37 22 42 18 28 -23
-7 -19 -10 -76 -7 -140 l3 -109 -59 -12 c-53 -10 -116 -33 -173 -64 -11 -6
-54 -37 -95 -69 -40 -31 -93 -73 -118 -92 -25 -19 -58 -47 -75 -64 -29 -29
-92 -54 -280 -111 -38 -12 -124 -50 -190 -85 -137 -72 -162 -80 -298 -96 -79
-9 -104 -9 -123 1 -28 15 -114 0 -174 -30 -19 -10 -55 -23 -80 -30 -25 -7 -62
-21 -82 -31 l-38 -19 -232 44 c-529 101 -917 161 -1113 171 -66 3 -147 8 -181
11 l-61 6 14 51 c32 120 -11 239 -97 266 -55 17 -49 13 -154 84 -110 74 -173
103 -261 121 -154 32 -429 54 -454 37 -8 -5 -11 -16 -7 -26 6 -15 15 -17 73
-11 58 6 65 5 54 -8 -21 -25 -5 -33 81 -40 46 -4 124 -15 173 -26 111 -23 313
-94 339 -119 17 -18 17 -21 1 -77 -23 -80 -49 -128 -79 -148 -29 -19 -116 -34
-116 -19 0 5 21 29 46 53 49 49 104 126 104 147 0 25 -27 13 -51 -23 -13 -19
-59 -64 -102 -100 -84 -68 -124 -88 -57 -28 22 20 40 40 40 45 0 13 -31 11
-49 -4 -29 -24 -139 -87 -152 -87 -7 0 16 29 49 64 58 61 74 86 53 86 -5 0
-46 -28 -92 -61 -79 -59 -121 -79 -164 -79 -16 0 -11 9 25 41 85 77 150 142
150 151 0 22 -40 2 -109 -54 -42 -34 -85 -69 -96 -77 -10 -9 0 6 23 33 36 42
55 86 36 86 -3 0 -32 -23 -64 -51 -101 -90 -156 -113 -95 -41 14 17 25 35 25
41 0 17 -34 13 -52 -6 -9 -10 -35 -31 -58 -48 -23 -16 -52 -40 -65 -52 -22
-23 -45 -30 -45 -15 0 4 20 28 45 52 42 41 59 80 34 80 -5 0 -36 -18 -69 -40
-43 -29 -60 -48 -65 -70 -4 -16 -8 -30 -10 -30 -9 0 -156 73 -160 80 -3 4 6
15 20 24 18 12 25 25 25 50 0 22 10 46 30 71 17 21 30 44 30 52 0 25 -51 6
-87 -32 -26 -28 -33 -31 -33 -16 0 22 34 67 63 83 12 7 58 22 102 33 73 20 80
24 83 48 2 18 13 32 33 42 16 9 29 23 29 32 0 12 -8 15 -39 10 -50 -6 -71 14
-104 102 -33 90 -51 93 -45 8 3 -49 10 -75 31 -105 l26 -41 -56 -16 c-112 -33
-210 -103 -214 -153 -1 -9 -2 -28 -3 -42 -1 -21 -8 -27 -46 -36 -52 -12 -58
-24 -59 -130 l-1 -71 -77 -6 c-78 -5 -339 6 -348 15 -8 7 54 122 86 161 l29
35 184 4 c101 1 188 7 192 11 17 17 -22 25 -145 32 l-127 7 4 66 c3 66 26 125
74 195 19 26 19 27 1 28 -10 0 6 10 35 21 51 20 68 38 36 38 -9 0 -42 -6 -73
-14 -85 -21 -141 -29 -141 -19 0 5 15 27 34 49 27 31 47 43 99 58 37 10 72 25
79 34 12 14 7 15 -37 9 -27 -3 -59 -9 -69 -13 -16 -6 -18 -4 -12 12 15 40 73
128 117 177 39 44 49 50 62 39 8 -7 18 -28 21 -47 4 -19 16 -39 26 -45 11 -6
29 -30 41 -53 12 -23 27 -49 35 -57 7 -9 23 -45 36 -80 18 -50 28 -66 44 -68
16 -2 23 4 28 24 9 34 -3 182 -17 209 -17 36 -50 65 -72 65 -15 0 -32 16 -56
53 -68 104 -69 112 -22 174 30 39 24 53 -43 112 -83 73 -105 46 -24 -28 l51
-47 -25 -23 -25 -24 -30 31 c-45 45 -109 66 -179 59 -31 -3 -65 -8 -74 -12
-14 -5 -18 -2 -18 14 0 31 -36 27 -93 -9 -56 -35 -59 -36 -74 -10 -16 24 -9
42 25 67 58 43 117 66 182 70 36 3 72 7 80 9 29 10 -22 34 -72 34 -52 0 -60
10 -27 34 19 13 30 11 117 -20 54 -18 112 -34 130 -34 18 0 41 -4 50 -9 41
-22 181 -171 213 -226 34 -59 34 -61 35 -185 1 -134 9 -165 49 -180 15 -6 26
-20 30 -42 17 -75 54 -123 78 -99 6 6 21 -7 41 -37 23 -35 37 -47 56 -47 18 0
26 6 28 23 4 24 21 29 39 11 8 -8 17 -5 33 11 22 22 27 23 159 17 134 -7 185
1 152 22 -13 8 -45 12 -226 27 -87 8 -80 22 11 23 86 1 144 12 144 27 0 11
-25 14 -120 14 -119 0 -120 0 -120 23 0 23 4 24 96 30 53 4 101 4 106 1 5 -3
6 -14 3 -25 -9 -26 24 -26 58 1 14 11 38 20 54 20 39 0 103 19 103 30 0 6 -18
10 -39 10 -22 0 -47 3 -56 6 -14 6 -14 8 1 25 10 11 35 22 56 25 44 8 49 20
13 36 -14 6 -25 16 -25 22 1 6 20 47 43 90 35 67 48 82 76 91 41 13 50 31 22
40 -12 3 -21 10 -21 15 0 21 73 194 100 237 18 28 29 58 28 74 -1 15 6 36 15
47 9 10 17 24 17 30 0 44 -105 -38 -216 -168 -38 -44 -75 -80 -82 -80 -10 0
-8 8 6 28 38 52 199 241 235 275 39 36 49 77 21 77 -21 0 -165 -140 -229 -224
-27 -35 -56 -67 -63 -70 -15 -7 168 214 250 301 32 34 58 67 58 74 0 26 18 -7
44 -78 38 -108 94 -332 105 -423 6 -44 15 -88 19 -98 15 -28 21 -78 32 -277
19 -346 36 -446 75 -461 29 -12 38 10 26 67 -6 30 -15 153 -21 274 -21 445
-53 653 -145 958 -36 120 -72 232 -80 248 -10 19 -13 42 -9 67 5 33 3 40 -14
44 -14 4 -19 12 -15 29 3 18 -2 27 -19 34 -12 6 -33 26 -45 45 -63 99 -256
352 -308 405 -44 45 -87 75 -162 113 -130 67 -260 116 -346 132 -56 10 -71 18
-92 43 l-24 32 -31 -30 -30 -29 -38 37 c-47 46 -81 56 -153 47 -76 -11 -323
-111 -327 -133 -6 -29 45 -20 168 29 63 25 138 48 166 51 49 5 52 4 104 -42
50 -44 55 -46 94 -41 61 10 306 -51 306 -75 0 -5 -13 -35 -29 -67 -41 -82 -93
-227 -136 -377 -20 -71 -41 -139 -45 -150 -8 -18 -9 -18 -9 6 -1 40 64 295
104 404 49 135 60 173 52 181 -13 13 -41 -22 -73 -92 -34 -76 -98 -265 -109
-327 -4 -21 -9 -36 -12 -33 -11 11 48 249 81 323 20 45 36 86 36 92 0 20 -29
11 -46 -15 -39 -58 -120 -319 -159 -507 -4 -20 -11 -27 -23 -25 -26 5 -18 63
44 305 30 117 54 218 54 223 0 6 -6 10 -14 10 -25 0 -111 -270 -146 -459 -18
-93 -18 -94 -19 -41 -1 67 39 282 68 365 30 85 26 143 -7 102 -33 -40 -102
-295 -118 -437 -8 -77 -20 -114 -34 -105 -29 18 20 341 76 499 50 143 48 136
31 136 -27 0 -54 -47 -86 -148 -40 -126 -71 -282 -80 -405 -7 -92 -21 -131
-38 -113 -11 11 -5 166 12 277 12 81 35 182 62 272 4 11 0 17 -11 17 -47 0
-103 -235 -121 -510 l-7 -95 -56 -42 c-47 -35 -58 -39 -60 -24 -2 9 2 30 7 44
10 27 11 27 36 11 23 -15 25 -15 31 0 4 10 1 44 -6 77 -16 76 -8 276 15 377
11 50 28 87 51 117 40 54 42 65 10 65 -44 0 -99 -101 -122 -225 -7 -37 -7 -38
-16 -15 -13 34 -3 152 16 189 21 39 20 41 -9 41 -15 0 -31 -9 -41 -25 -14 -21
-15 -43 -9 -152 14 -237 3 -472 -23 -519 -4 -7 -6 47 -4 119 2 95 -1 153 -13
207 -41 191 -47 234 -37 266 6 20 6 36 0 42 -10 10 30 36 137 90 78 39 148 59
235 68 74 7 87 18 43 35 -68 26 -251 -25 -413 -116 -27 -15 -48 -21 -53 -16
-14 14 1 61 18 61 8 0 15 6 15 14 0 18 -273 165 -483 260 -92 42 -230 107
-305 145 -156 78 -266 115 -497 166 -262 59 -382 91 -535 145 -188 67 -402
119 -515 127 -130 8 -244 -11 -435 -73 -91 -29 -199 -58 -240 -64 -41 -7 -127
-25 -190 -41 -63 -16 -160 -35 -215 -44 -409 -61 -1149 -366 -1275 -525 -18
-22 -53 -52 -78 -67 -95 -53 -152 -94 -152 -108 0 -17 31 -20 46 -6 34 35 524
280 829 417 66 30 140 65 165 78 105 56 328 136 415 149 55 8 34 -2 -129 -63
-76 -28 -188 -74 -250 -102 -160 -74 -419 -216 -471 -258 -11 -10 -46 -32 -78
-51 -32 -19 -75 -44 -95 -56 -20 -12 -100 -48 -177 -79 -315 -128 -475 -209
-475 -239 0 -26 29 -17 134 39 102 55 346 160 353 152 4 -4 -247 -163 -273
-173 -7 -2 -17 5 -23 16 -10 19 -14 17 -64 -32 -41 -42 -73 -61 -157 -96 -240
-101 -409 -194 -390 -215 11 -10 95 22 190 72 134 71 158 75 95 17 -104 -95
-173 -141 -334 -221 -162 -80 -240 -134 -195 -134 11 0 62 20 113 45 51 25 94
45 97 45 3 0 0 -9 -6 -20 -15 -27 -140 -130 -159 -130 -20 0 -250 -113 -284
-140 -15 -12 -27 -28 -27 -35 0 -19 31 -8 153 50 54 26 101 45 103 42 5 -5
-81 -123 -125 -170 -14 -16 -56 -47 -93 -68 -80 -47 -87 -64 -23 -56 l44 7
-10 -27 c-26 -69 -44 -84 -161 -145 -72 -36 -126 -71 -140 -89 -13 -16 -36
-45 -51 -64 -19 -23 -28 -43 -26 -62 4 -38 -5 -50 -44 -58 -40 -9 -57 -22 -57
-45 0 -24 18 -29 53 -17 15 5 31 7 34 4 3 -4 -15 -37 -39 -74 -25 -37 -69
-112 -98 -165 -54 -98 -59 -103 -115 -99 -60 3 -75 10 -75 36 0 33 -16 40 -45
21 -51 -33 -17 -78 72 -97 32 -7 62 -15 66 -19 5 -5 -23 -82 -61 -172 -95
-224 -132 -348 -103 -348 10 0 19 21 76 175 36 95 140 315 150 315 2 0 -5 -19
-15 -42 -26 -58 -25 -72 11 -113 30 -34 62 -45 74 -25 9 15 45 12 45 -3 0 -8
-17 -40 -38 -73 -21 -32 -56 -90 -77 -129 -21 -38 -49 -88 -63 -109 -34 -54
-131 -259 -153 -325 -21 -59 -25 -121 -9 -121 16 0 50 38 50 56 0 65 112 303
256 545 94 157 129 199 167 199 16 0 10 -11 -32 -55 -41 -43 -52 -61 -49 -82
4 -34 38 -53 96 -53 23 0 42 -3 42 -6 0 -3 -50 -89 -112 -192 -193 -324 -312
-572 -295 -616 16 -42 56 -1 72 74 15 73 126 293 254 505 72 121 139 226 148
233 20 14 139 16 148 2 3 -6 -19 -50 -49 -100 -31 -49 -56 -92 -56 -96 0 -3
-11 -20 -24 -37 -13 -18 -51 -81 -84 -142 -214 -395 -261 -496 -277 -595 -3
-25 -9 -53 -11 -62 -4 -13 0 -18 15 -18 15 0 23 10 31 43 48 191 212 525 414
844 39 61 78 125 88 142 9 16 35 41 58 56 36 23 41 30 38 58 -3 32 -2 32 42
33 28 0 117 26 240 68 211 74 255 93 284 124 16 19 197 84 332 121 46 12 70
34 59 52 -12 18 -88 4 -220 -41 -290 -99 -554 -167 -591 -153 -11 4 -11 10 -2
26 24 45 115 130 180 168 37 22 69 43 73 48 3 5 48 30 102 55 113 55 153 82
153 103 0 23 -59 13 -315 -56 -121 -32 -221 -57 -223 -56 -12 10 130 208 168
235 61 43 418 156 762 240 254 62 248 61 248 71 0 36 -441 -68 -854 -201 -54
-17 -100 -29 -103 -27 -9 10 70 120 165 228 40 46 109 72 402 154 199 56 230
68 230 86 0 15 -20 11 -239 -51 -117 -33 -246 -67 -288 -75 -41 -9 -85 -22
-98 -31 -37 -24 -343 -130 -351 -121 -2 1 23 38 54 82 56 77 59 80 139 111 45
18 139 51 210 75 70 23 156 53 191 66 72 27 348 103 587 160 88 21 159 43 157
48 -4 16 -46 11 -256 -34 -289 -61 -403 -92 -665 -181 -128 -44 -235 -80 -238
-80 -8 0 78 117 105 142 15 14 61 37 102 53 321 117 524 189 617 215 59 18
116 36 126 41 21 12 22 29 1 29 -28 0 -325 -89 -541 -162 -116 -40 -215 -69
-219 -66 -15 16 122 171 176 198 102 51 704 233 976 295 40 9 80 22 90 30 45
33 -26 22 -296 -45 -308 -77 -387 -99 -673 -192 -103 -34 -190 -58 -193 -55
-10 10 44 75 84 102 63 41 673 257 1021 361 150 45 513 144 528 144 1 0 3 5 3
10 0 19 -51 10 -272 -45 -326 -81 -536 -146 -1047 -324 -80 -28 -147 -48 -150
-45 -7 7 58 66 157 141 62 48 101 66 270 130 373 140 617 214 996 302 157 36
126 57 -39 26 -209 -40 -683 -175 -915 -262 -49 -18 89 67 305 188 86 48 464
167 841 264 117 30 214 55 218 55 3 0 6 5 6 11 0 8 -18 10 -61 5 -67 -8 -366
-80 -526 -127 -57 -17 -108 -29 -115 -27 -26 9 507 286 650 338 124 45 210 66
373 89 245 35 376 43 527 31 314 -25 762 -89 930 -134 45 -12 52 -12 52 0 0
24 -60 43 -294 89 -149 30 -242 53 -282 72 l-59 28 -365 5 -365 5 125 42 c289
97 460 83 940 -77 96 -32 292 -88 435 -124 143 -36 290 -74 327 -85 89 -26
370 -167 414 -208 24 -23 50 -35 91 -43 71 -13 170 -58 282 -128 104 -65 147
-104 162 -150 10 -31 9 -35 -12 -50 -72 -51 -272 -218 -320 -268 -74 -77 -277
-335 -341 -433 -121 -185 -313 -660 -279 -694 14 -14 10 -20 58 103 141 357
252 586 279 576 18 -7 21 -2 104 124 37 58 106 146 152 196 45 50 105 116 131
148 45 52 218 196 237 196 4 0 -4 -28 -19 -62 -23 -56 -26 -76 -25 -178 0
-101 4 -127 32 -214 18 -54 37 -127 44 -162 11 -62 11 -64 -18 -111 -39 -63
-64 -69 -64 -14 0 22 -16 105 -36 185 -24 99 -37 182 -42 261 -7 118 -20 147
-35 78 -13 -57 -1 -193 28 -328 15 -66 30 -138 35 -160 11 -53 3 -84 -26 -95
-33 -13 -33 -50 0 -50 13 0 38 -3 55 -6 29 -6 31 -9 25 -40 -8 -45 8 -44 35 2
35 60 158 199 227 258 63 54 96 68 109 46 12 -19 30 -9 57 30 22 31 34 40 57
40 16 0 34 6 40 14 6 8 27 16 46 18 28 3 35 0 35 -13 0 -27 21 -36 102 -42
102 -7 126 -20 66 -35 -24 -6 -60 -9 -79 -6 -29 5 -41 1 -65 -19 l-29 -26 -23
22 -22 21 -73 -23 c-154 -48 -207 -74 -287 -143 -71 -62 -160 -161 -219 -245
-12 -18 -29 -33 -36 -33 -29 0 -121 -145 -165 -260 -8 -19 -24 -46 -37 -59
-29 -30 -58 -109 -93 -256 -16 -66 -41 -153 -55 -194 -58 -171 -120 -592 -132
-904 -3 -81 -9 -150 -13 -152 -5 -3 -61 -12 -126 -20 -197 -26 -374 -67 -374
-87 0 -14 89 -5 230 22 149 29 240 41 262 35 24 -8 25 -61 0 -74 -14 -7 -592
-111 -620 -111 -3 0 7 14 23 30 26 27 28 33 17 51 -10 16 -11 24 -1 35 9 11 9
18 1 26 -18 18 -14 35 8 41 23 6 27 27 5 27 -9 0 -15 9 -15 24 0 19 10 27 60
45 45 17 60 27 60 42 0 23 -16 24 -64 4 l-37 -16 17 26 c14 22 15 30 3 70 -11
37 -18 45 -37 45 -15 0 -22 5 -19 13 2 6 15 11 28 9 18 -2 36 10 69 43 l45 46
-22 19 c-13 10 -23 26 -23 35 0 9 -4 25 -10 35 -7 13 -4 24 11 44 17 21 19 30
9 41 -7 8 -15 38 -19 67 l-6 53 -37 -3 c-20 -1 -53 4 -74 13 -32 13 -35 17
-23 31 10 12 28 15 75 12 67 -3 94 10 94 44 0 16 -4 18 -17 12 -10 -5 -49 -8
-86 -7 -82 3 -127 -15 -127 -50 0 -35 -47 -72 -130 -102 -298 -107 -334 -118
-801 -245 -58 -16 -114 -27 -125 -25 -10 3 -82 9 -159 14 -297 21 -981 82
-1000 89 -16 7 -6 14 52 36 39 15 77 34 83 42 22 26 -37 16 -131 -21 -96 -39
-166 -51 -224 -41 l-36 7 25 20 c14 11 26 27 26 35 0 21 -39 17 -116 -12 -38
-14 -64 -21 -59 -16 18 16 165 116 209 142 111 65 144 85 181 109 22 14 132
80 245 148 113 67 214 128 224 136 28 20 14 47 -24 47 -43 0 -59 -7 -894 -377
-363 -161 -377 -166 -453 -158 -53 5 -63 4 -63 -9 0 -8 9 -21 20 -29 19 -13
16 -16 -47 -45 -93 -42 -355 -146 -425 -168 -32 -9 -61 -14 -65 -10 -22 22 68
108 222 211 100 67 101 67 608 240 230 78 423 147 430 154 36 36 -33 17 -475
-128 -168 -56 -312 -101 -321 -101 -38 0 -821 -327 -1010 -421 -213 -107 -399
-209 -424 -232 -20 -18 -32 -57 -18 -57 3 0 31 16 61 35 159 102 555 295 869
425 188 78 202 81 139 34 -100 -77 -164 -137 -164 -155 0 -10 9 -24 20 -32 19
-13 10 -19 -122 -77 -372 -165 -688 -333 -688 -365 0 -26 31 -16 124 39 117
68 220 121 376 192 69 31 183 83 253 116 128 59 336 142 666 265 l173 64 97
-12 c145 -18 145 -18 65 -69 -102 -64 -415 -270 -444 -291 -75 -56 -195 -114
-650 -316 -116 -51 -170 -85 -170 -105 0 -17 36 -7 114 31 118 57 254 118 306
136 l44 16 -27 -29 c-59 -61 -8 -72 74 -15 283 195 330 222 532 302 69 28 172
70 229 94 56 24 116 47 131 51 24 6 351 -44 397 -61 8 -3 -104 -45 -250 -94
l-265 -89 -112 0 c-62 0 -113 -4 -113 -8 0 -14 48 -32 83 -32 22 0 -46 -32
-218 -101 -307 -123 -455 -192 -455 -213 0 -22 23 -20 78 8 44 22 153 69 275
117 46 19 47 19 67 -1 19 -19 19 -20 0 -30 -10 -6 -89 -37 -174 -70 -173 -66
-216 -86 -216 -100 0 -17 25 -11 127 26 169 62 172 63 318 48 217 -23 365 -33
715 -49 556 -25 1144 -68 1008 -74 -24 -1 -137 -24 -180 -37 -28 -8 -21 -24
11 -24 16 0 101 14 188 30 l158 31 225 -13 c147 -8 212 -15 190 -20 -34 -7
-347 -28 -416 -28 -30 0 -34 -3 -34 -26 l0 -27 -117 7 c-65 3 -296 11 -513 16
-767 20 -1222 49 -1409 90 -33 8 -63 22 -76 36 -12 13 -27 24 -34 24 -20 0
-12 -40 13 -65 70 -70 262 -85 1596 -125 179 -5 357 -11 395 -11 l70 -2 -52
-6 c-53 -7 -72 -15 -59 -28 3 -4 73 -1 154 6 249 22 363 30 478 30 141 1 264
11 264 22 0 5 -51 10 -112 10 l-113 1 80 13 c44 8 166 26 270 40 105 15 198
29 208 31 11 4 17 0 17 -11 0 -8 10 -20 23 -24 17 -7 18 -10 7 -14 -31 -12
-184 -38 -505 -87 -408 -63 -571 -71 -1265 -59 -527 9 -833 22 -1027 44 -153
17 -203 19 -203 5 0 -45 425 -75 1255 -87 383 -6 429 -8 353 -17 -48 -6 -90
-15 -94 -19 -18 -17 13 -19 123 -8 237 24 334 30 653 41 381 12 599 26 632 40
16 6 -52 9 -214 7 -130 -1 -235 -1 -234 1 2 1 111 18 242 37 131 19 250 38
264 41 18 4 21 3 11 -4 -7 -5 -10 -15 -7 -21 9 -14 63 -14 135 -1 727 134 781
139 806 83 16 -38 37 -28 33 15 -3 35 -2 37 30 40 39 4 72 -20 72 -53 0 -11 6
-30 14 -41 12 -15 18 -17 33 -8 24 15 29 44 8 44 -14 0 -15 3 -5 15 7 8 28 15
46 15 33 0 34 -2 34 -38 0 -36 14 -62 32 -62 4 0 8 18 8 40 0 46 17 59 59 44
16 -6 27 -18 29 -33 3 -21 8 -23 38 -18 30 5 35 3 41 -21 5 -22 56 -82 68 -82
4 0 20 53 29 93 6 25 10 27 60 27 49 0 55 -2 58 -22 2 -17 14 -25 48 -35 67
-20 349 -33 575 -26 l201 6 36 -31 c19 -18 46 -36 59 -41 16 -7 -70 -10 -266
-11 -306 -2 -396 -8 -402 -26 -6 -17 69 -43 201 -69 82 -17 124 -21 131 -14
15 15 -9 26 -92 45 -40 9 -73 17 -73 19 0 1 252 0 559 -3 494 -4 565 -3 608
11 34 11 67 14 106 10 53 -5 57 -4 57 16 0 16 6 21 28 21 15 0 32 4 38 9 5 6
32 11 59 13 43 3 50 6 53 25 3 21 -7 34 -52 66 -16 12 -8 13 65 9 46 -2 90 -9
97 -14 17 -15 15 -38 -5 -44 -63 -20 -73 -27 -73 -50 0 -13 9 -28 20 -34 11
-6 20 -21 20 -34 0 -13 7 -29 15 -36 8 -7 15 -21 15 -30 0 -25 48 -80 70 -80
10 0 20 6 23 14 8 19 -10 91 -33 136 -11 22 -20 41 -20 44 0 2 19 6 41 8 52 5
76 -23 63 -74 -4 -18 -7 -75 -7 -127 1 -111 12 -132 62 -111 38 15 52 32 60
72 9 41 22 44 59 13 28 -24 31 -31 37 -120 4 -53 3 -124 -3 -162 -11 -77 -5
-92 33 -75 25 11 25 11 25 -31 -1 -23 -5 -62 -10 -87 -5 -25 -6 -73 -3 -107 5
-50 9 -62 26 -67 19 -5 19 -11 12 -243 -3 -131 -11 -265 -16 -297 -9 -66 -6
-76 19 -60 28 18 34 112 36 511 1 286 -2 375 -11 384 -7 7 -13 24 -13 37 0 13
-9 35 -20 49 -16 20 -20 41 -21 97 0 39 -3 102 -8 139 -6 59 -11 72 -37 92
-16 13 -39 24 -52 25 -14 0 -27 9 -34 25 -15 34 -38 32 -39 -2 0 -16 -4 -37
-9 -48 -6 -17 -9 -13 -14 20 -4 22 -12 63 -17 90 -6 28 -14 84 -18 125 -7 85
-24 100 -67 59 l-24 -22 0 39 c-1 21 -9 57 -20 79 -14 30 -20 63 -20 130 -1
120 -13 222 -28 237 -9 9 -16 8 -29 -4 -17 -17 -16 -38 10 -388 2 -24 1 -25
-58 -22 -33 2 -87 12 -120 22 -33 10 -74 21 -91 25 -30 6 -31 8 -21 35 13 36
-1 56 -58 80 -38 16 -88 80 -73 95 3 3 35 14 71 24 107 30 146 64 112 101 -28
31 -64 38 -335 69 -159 17 -267 34 -285 44 -34 17 -62 52 -94 116 l-23 43 44
-7 c24 -3 205 -10 403 -15 375 -10 390 -11 750 -54 291 -35 464 -66 670 -121
94 -25 227 -60 298 -77 l127 -32 0 -38 c0 -34 3 -38 38 -49 39 -11 159 -8 200
6 34 12 28 -16 -13 -52 -19 -17 -35 -35 -35 -40 0 -18 48 -54 96 -72 27 -10
67 -30 88 -44 21 -15 46 -27 55 -28 18 0 146 -16 176 -21 30 -5 30 28 0 63
-38 46 -62 98 -80 174 -15 64 -14 69 4 99 11 17 33 44 50 60 l31 30 0 -28 c0
-18 5 -26 13 -24 32 11 51 113 23 124 -8 3 -28 -2 -46 -11 -40 -21 -83 -12
-104 21 -9 13 -26 24 -37 24 -24 0 -79 -51 -79 -74 0 -21 -39 -46 -71 -46 -26
0 -46 -18 -74 -65 -9 -14 -15 -15 -57 -4 l-47 13 22 22 c12 12 30 33 39 46 9
14 31 28 48 32 18 3 45 20 61 37 16 17 61 46 99 65 42 20 70 39 70 49 0 19
-13 19 -56 -1 -19 -9 -37 -14 -40 -11 -3 3 16 13 41 22 35 14 49 15 57 7 7 -7
27 -12 45 -12 29 0 33 -3 33 -25 0 -18 5 -25 19 -25 11 0 23 -4 26 -10 8 -13
52 -13 60 0 3 5 31 17 62 26 53 15 59 15 109 -2 67 -23 73 -51 19 -84 -20 -12
-35 -30 -35 -40 0 -30 -16 -32 -47 -6 -35 30 -63 36 -73 16 -54 -106 -55 -110
-54 -245 1 -71 8 -150 15 -175 7 -25 13 -52 13 -60 1 -12 22 -16 101 -21 85
-5 101 -4 109 10 26 44 94 103 126 110 29 6 35 11 35 33 0 26 30 68 49 68 6 0
5 -5 -2 -12 -7 -7 -12 -22 -12 -35 0 -35 44 -31 82 7 27 27 32 29 42 15 10
-14 22 -15 87 -7 83 11 230 1 345 -23 39 -8 111 -17 160 -19 49 -3 117 -10
152 -16 35 -6 67 -8 73 -4 5 3 43 2 84 -1 54 -5 75 -11 75 -21 0 -10 13 -14
40 -14 42 0 55 18 20 27 -11 3 -20 9 -20 14 0 4 14 3 30 -2 25 -9 30 -16 30
-45 0 -19 -13 -102 -30 -184 -34 -170 -37 -212 -14 -231 9 -8 13 -21 9 -33 -6
-21 -93 -506 -122 -686 -12 -70 -17 -176 -18 -405 -2 -313 2 -356 43 -550 6
-27 14 -93 17 -146 7 -84 5 -100 -13 -135 -26 -51 -78 -218 -97 -314 -8 -41
-19 -131 -24 -198 -6 -68 -14 -129 -19 -135 -35 -46 -113 -569 -116 -777 -1
-113 13 -162 48 -168 16 -3 18 0 12 19 -21 72 -18 217 9 399 15 102 28 187 30
189 12 11 17 -92 11 -215 -6 -137 -6 -143 14 -154 17 -9 20 -20 20 -83 -1 -40
-7 -90 -15 -112 -19 -51 -19 -52 4 -58 15 -4 20 -17 25 -58 41 -413 48 -452
84 -457 12 -2 22 -1 22 1 0 3 -9 56 -19 119 -21 120 -40 334 -42 458 -1 71 49
322 81 405 6 17 25 85 41 152 33 142 54 196 71 191 17 -6 29 -65 22 -103 -4
-16 -31 -114 -60 -217 -60 -211 -111 -408 -116 -452 -2 -16 2 -31 8 -33 16 -5
39 47 68 153 124 450 130 465 143 442 7 -13 19 -44 28 -69 14 -42 14 -51 1
-85 -23 -58 -56 -185 -56 -213 0 -23 1 -24 20 -6 22 20 106 265 116 339 5 31
10 43 15 34 4 -8 72 -198 150 -424 77 -225 150 -426 160 -446 21 -42 46 -49
72 -20 23 25 22 52 -3 52 -27 0 -58 63 -134 283 -36 100 -71 200 -80 222 -50
127 -187 544 -197 599 -11 60 -10 72 15 166 15 56 25 105 21 108 -10 10 -34
-21 -48 -63 l-14 -40 -7 105 c-4 58 -13 159 -21 225 -34 275 -43 521 -25 650
12 83 49 200 60 188 16 -18 70 -219 70 -262 0 -25 7 -57 15 -71 58 -100 98
-213 126 -360 11 -58 24 -129 30 -158 18 -90 58 -81 79 18 l13 61 22 -21 c12
-11 39 -50 60 -86 42 -71 46 -76 62 -66 16 10 17 29 9 105 -6 47 -13 67 -22
67 -8 0 -14 -10 -14 -23 0 -13 -2 -26 -5 -29 -3 -2 -27 17 -55 44 -50 48 -76
58 -97 37 -15 -15 -26 8 -42 81 -14 63 -65 214 -94 280 -11 25 -23 77 -27 115
-4 40 -17 91 -30 120 -13 28 -29 86 -36 130 -7 44 -17 102 -23 129 -12 55 1
436 19 541 5 33 10 72 10 88 0 40 -26 34 -34 -8 -4 -19 -18 -59 -31 -90 -31
-70 -42 -130 -25 -149 8 -11 11 -68 8 -208 -3 -188 -4 -194 -31 -245 -15 -28
-33 -80 -40 -115 -23 -112 -10 268 15 462 29 214 30 522 3 563 -13 20 -15 37
-10 69 13 82 57 258 66 264 25 15 67 -164 49 -211 -9 -23 -6 -38 17 -86 16
-33 34 -57 42 -56 9 1 26 -36 52 -108 36 -105 38 -116 39 -236 0 -69 5 -162
11 -207 10 -75 9 -85 -10 -125 -26 -54 -28 -157 -6 -337 19 -153 42 -254 66
-300 35 -63 114 -155 139 -158 22 -4 23 -2 17 55 -3 32 -13 82 -24 112 -19 58
-43 79 -43 39 -1 -22 -1 -22 -16 5 -8 15 -23 27 -33 27 -28 0 -59 130 -71 296
-13 187 -14 179 6 160 44 -44 50 -10 31 168 -19 171 -22 272 -7 281 17 11 11
50 -19 116 -78 173 -115 347 -130 605 -9 149 -5 213 14 243 11 19 40 -13 92
-101 43 -71 73 -98 73 -65 0 21 -80 172 -112 212 -24 28 -37 36 -54 32 -29 -5
-29 -1 -4 41 23 38 -14 40 345 -18 132 -21 265 -42 295 -46 81 -10 98 -19 108
-56 6 -23 14 -33 28 -33 16 0 18 6 16 33 -3 30 -1 33 19 30 16 -2 25 -14 33
-43 9 -29 17 -41 34 -43 19 -3 22 1 22 32 0 20 4 36 9 36 11 0 21 -25 21 -49
0 -10 9 -26 20 -36 22 -20 27 -14 32 44 2 19 9 36 16 39 9 3 11 -6 7 -35 -7
-47 12 -87 44 -91 23 -4 24 -3 17 58 -7 56 -6 61 11 58 16 -3 28 -41 42 -140
1 -5 10 -8 21 -8 18 0 20 7 20 70 0 93 15 90 16 -3 2 -82 16 -127 40 -127 15
0 16 9 10 79 -7 83 -2 111 19 111 12 0 25 -89 25 -182 0 -41 3 -48 20 -48 18
0 20 7 21 78 l1 77 9 -50 c27 -148 30 -155 51 -155 20 0 20 4 15 78 l-5 77 15
-64 c12 -51 13 -71 4 -100 -13 -38 -16 -66 -13 -118 2 -40 22 -44 22 -5 0 15
4 34 10 42 14 23 30 -31 30 -103 0 -83 -8 -111 -26 -96 -23 19 -28 2 -16 -52
16 -69 15 -108 -3 -115 -13 -5 -15 -25 -15 -103 0 -53 -2 -130 -4 -171 -3 -41
-5 -86 -6 -100 0 -19 -3 -21 -12 -12 -19 19 -38 14 -38 -10 0 -13 9 -43 20
-67 16 -35 20 -65 20 -162 0 -126 -15 -189 -44 -189 -23 0 -20 -23 15 -103 31
-69 31 -73 24 -175 -3 -58 -11 -116 -16 -130 -6 -17 -6 -29 1 -36 6 -6 10
-102 10 -263 0 -220 3 -264 20 -331 33 -128 40 -206 40 -457 0 -264 9 -188
-100 -824 -22 -125 -30 -198 -25 -227 13 -90 55 -31 55 76 0 32 11 118 25 191
54 282 86 499 95 639 11 169 -2 475 -25 583 -8 40 -18 104 -21 142 l-7 70 35
-45 c19 -25 40 -55 46 -66 12 -23 32 -201 57 -519 16 -191 28 -265 45 -265 16
0 19 15 10 56 -5 21 -16 165 -25 319 -8 154 -18 291 -21 305 -7 33 -18 46 232
-284 120 -159 243 -316 273 -349 l55 -59 -12 -171 c-7 -95 -15 -192 -19 -216
-5 -38 -4 -43 13 -39 24 4 30 45 43 273 7 112 7 292 1 528 -9 326 -12 360 -29
385 -12 17 -21 53 -25 95 -4 38 -14 86 -22 108 -13 30 -14 42 -5 53 10 11 9
22 -4 46 -17 33 -48 301 -60 520 -7 129 6 295 42 520 17 110 22 478 7 625 -6
69 -6 70 13 53 39 -35 45 -10 13 52 -11 22 -23 61 -26 87 -3 25 -20 95 -38
155 -25 82 -30 108 -19 108 38 0 93 -162 118 -350 7 -55 42 -117 56 -103 17
17 -16 203 -56 327 -20 59 -34 110 -31 113 2 3 89 -7 193 -22 103 -14 285 -40
403 -56 378 -53 437 -66 495 -109 71 -53 81 -57 175 -70 47 -6 127 -20 179
-31 52 -11 137 -24 189 -30 85 -9 95 -9 107 7 12 17 47 12 591 -80 376 -63
667 -118 829 -156 138 -32 286 -65 330 -74 98 -18 330 -76 443 -110 92 -28
153 -40 306 -61 167 -24 240 -42 408 -100 88 -30 171 -55 185 -55 14 0 50 16
79 35 43 29 53 41 56 68 2 25 8 33 27 35 22 4 23 6 17 62 -13 113 -26 139 -92
190 -71 54 -101 64 -469 146 -276 62 -330 71 -339 56 -9 -16 20 -29 94 -42 36
-6 92 -19 125 -29 33 -10 102 -26 153 -36 50 -10 92 -21 91 -24 0 -3 -13 -16
-28 -28 l-29 -23 -108 42 c-86 33 -126 42 -189 45 -133 7 -145 -26 -18 -47 43
-7 73 -15 67 -17 -6 -2 -114 15 -240 37 -272 49 -830 145 -964 166 -52 9 -140
15 -195 15 -71 0 -168 11 -335 39 -386 65 -599 93 -655 85 -27 -4 -70 -8 -95
-8 l-45 -2 -6 45 c-4 25 -10 69 -14 98 -6 37 -4 52 4 52 6 0 14 -13 17 -30 8
-35 6 -35 224 -50 253 -17 415 -39 1034 -136 159 -25 327 -57 373 -70 46 -13
92 -24 103 -24 36 0 22 29 -20 41 -76 23 -32 19 112 -9 80 -16 166 -39 191
-52 25 -13 53 -20 61 -17 27 10 18 37 -17 52 -40 17 -415 94 -655 135 -97 17
-253 44 -347 60 -269 47 -676 107 -840 125 -259 28 -235 22 -235 55 0 23 5 30
29 35 32 7 87 61 139 136 17 26 50 61 72 79 40 31 40 32 40 98 -1 99 -34 319
-52 340 -24 28 -30 52 -38 153 -7 96 -7 96 -79 220 -57 100 -84 162 -136 319
-36 107 -69 199 -74 205 -4 5 -14 26 -21 45 -25 66 -177 345 -243 446 -37 57
-86 118 -114 141 -33 28 -62 67 -92 124 -74 139 -117 196 -171 225 l-49 27 6
72 6 72 -78 67 c-106 89 -160 115 -274 126 -81 9 -107 17 -199 62 -59 28 -141
61 -182 74 -162 50 -247 82 -290 111 -25 17 -67 43 -94 58 -26 15 -56 41 -65
58 -24 45 -70 96 -102 113 -50 25 -171 13 -177 -18 -3 -15 5 -16 68 -11 l71 6
44 -47 c25 -25 45 -52 45 -59 0 -19 59 -72 106 -95 23 -12 63 -37 89 -58 30
-23 70 -42 105 -50 134 -31 407 -135 423 -161 3 -5 -7 -37 -24 -71 -34 -73
-34 -72 -9 -72 12 0 28 15 44 43 35 59 79 81 154 75 115 -8 262 -110 278 -193
14 -75 -27 -69 -145 23 -30 23 -62 41 -71 40 -27 -6 -23 -38 9 -65 37 -33 39
-43 8 -43 -13 0 -48 -8 -78 -19 -138 -47 -239 -120 -304 -218 -21 -32 -47 -70
-57 -85 -10 -15 -18 -34 -18 -41 0 -8 -7 -21 -16 -28 -22 -18 -12 -89 21 -145
24 -41 24 -42 4 -37 -14 4 -25 0 -31 -11 -5 -9 -16 -16 -23 -16 -17 0 -20 16
-5 25 6 3 10 13 10 22 0 11 -8 14 -29 11 -26 -4 -29 -2 -20 13 17 33 11 42
-25 35 -25 -5 -35 -3 -40 9 -3 8 -1 15 4 15 6 0 10 9 10 20 0 11 -7 20 -15 20
-8 0 -15 4 -15 9 0 5 7 14 15 21 23 19 18 40 -10 40 -33 0 -32 15 5 42 74 55
4 66 -84 13 -67 -40 -66 -40 -66 -19 0 15 39 57 88 97 27 21 19 41 -14 34
l-24 -4 23 40 c23 43 45 54 109 56 33 1 39 6 63 49 20 37 45 60 116 107 84 56
87 60 59 63 -39 4 -102 -33 -189 -114 -58 -54 -77 -66 -121 -74 -28 -5 -56
-12 -61 -15 -44 -28 84 208 149 273 79 81 70 91 -37 41 -120 -56 -266 -181
-307 -261 -27 -54 -30 -86 -10 -143 8 -22 19 -67 25 -100 6 -33 14 -71 18 -85
5 -20 -1 -17 -31 19 -48 57 -55 70 -86 170 -35 112 -55 121 -47 20 5 -55 15
-91 40 -141 19 -39 26 -61 17 -53 -21 19 -44 19 -59 1 -21 -25 -71 -28 -108
-6 -36 21 -98 27 -108 10 -11 -18 -24 -10 -27 18 -2 19 -9 28 -25 30 -20 3
-23 -1 -23 -28 0 -36 -18 -45 -109 -56 l-60 -7 12 27 c7 14 15 26 20 26 4 0 7
6 7 14 0 9 -22 15 -76 20 -106 10 -183 40 -198 77 -12 33 -15 34 -42 15 -18
-14 -18 -17 -4 -43 20 -36 74 -62 160 -77 61 -10 67 -13 59 -29 -6 -10 -9 -23
-6 -30 2 -7 -4 -30 -14 -52 -20 -47 -29 -156 -13 -162 6 -2 16 13 22 34 7 21
21 53 32 71 18 29 25 33 48 27 15 -3 43 -22 63 -41 37 -36 49 -36 49 3 0 18 6
23 24 23 13 0 31 2 38 5 10 4 25 -20 50 -82 52 -127 52 -137 2 -193 -30 -33
-34 -43 -24 -55 7 -8 21 -15 32 -15 18 0 20 -4 14 -47 -20 -139 -47 -217 -110
-323 -35 -58 -70 -119 -80 -137 -17 -33 -22 -113 -8 -113 11 0 42 33 42 45 0
13 53 126 57 121 7 -7 -47 -158 -74 -208 -22 -40 -25 -56 -20 -97 6 -54 37
-134 74 -193 13 -21 28 -62 34 -90 13 -61 19 -71 42 -62 27 10 20 41 -40 168
-66 140 -76 204 -33 197 75 -13 104 5 53 33 -17 9 -22 15 -12 16 17 0 105 176
116 233 5 27 4 30 -14 25 -21 -6 -21 -5 -2 49 28 79 5 101 -26 26 -9 -20 -17
-34 -19 -32 -2 2 9 63 25 134 15 72 35 177 44 234 8 58 17 107 20 109 7 7 65
-117 65 -140 0 -13 -9 -52 -21 -88 -27 -86 -49 -236 -49 -335 0 -68 -7 -100
-45 -214 -37 -109 -43 -137 -33 -148 21 -20 36 -2 63 73 l25 69 -7 -50 c-9
-68 -7 -86 12 -104 12 -13 19 -13 35 -4 10 7 21 9 24 5 12 -19 28 -225 24
-302 -7 -113 -15 -128 -76 -132 -45 -3 -47 -4 -47 -33 l0 -30 55 4 c67 4 90
15 90 44 1 12 7 33 15 47 19 32 19 120 0 243 -15 99 -15 99 8 118 28 23 37 24
38 2 15 -228 15 -235 1 -302 -7 -29 -12 -85 -12 -124 l0 -69 -44 6 c-57 9
-121 -8 -141 -37 -19 -27 -19 -81 0 -97 25 -21 44 -4 47 42 3 36 7 44 31 52
20 7 34 7 47 -2 11 -7 36 -12 55 -12 25 0 38 -5 42 -17 4 -10 28 -38 55 -64
26 -25 48 -53 48 -63 0 -17 -7 -18 -82 -12 -46 4 -132 14 -193 22 -213 29
-214 29 -221 9 -11 -28 22 -45 86 -45 113 0 975 -92 989 -106 8 -7 -42 -4
-169 11 -218 26 -379 18 -329 -17 16 -10 0 -9 -221 16 -80 9 -224 25 -320 36
-96 11 -236 24 -310 30 -185 14 -260 25 -515 71 -121 22 -278 49 -350 60 -71
11 -157 26 -190 34 l-60 14 75 -4 c41 -2 105 -7 143 -11 47 -5 67 -3 67 5 0
13 24 14 48 2 26 -14 113 -42 149 -48 17 -3 49 1 70 8 54 18 182 13 293 -12
52 -11 149 -24 215 -29 66 -5 130 -12 142 -15 30 -9 42 20 19 43 -13 14 -45
18 -154 23 -75 4 -158 12 -183 19 l-47 12 -4 53 c-4 53 -60 185 -78 185 -5 0
-10 -10 -12 -22 -3 -21 -7 -23 -67 -20 -97 3 -141 18 -141 46 0 28 -29 56 -59
56 -22 0 -25 4 -35 53 -4 15 -13 27 -22 27 -12 0 -14 7 -8 35 6 34 5 35 -25
35 l-31 0 0 81 c0 60 -3 80 -12 77 -27 -9 -35 -126 -15 -206 8 -28 26 -69 40
-89 14 -21 33 -58 42 -82 l15 -44 -72 7 c-90 8 -200 46 -249 86 -21 16 -42 30
-47 30 -5 0 -19 12 -33 26 l-24 26 70 -3 70 -4 -3 37 c-5 56 15 178 52 318 52
193 62 229 90 319 27 87 27 103 2 82 -10 -9 -7 8 10 56 25 72 30 103 15 103
-14 0 -91 -192 -91 -227 0 -7 6 -13 14 -13 9 0 12 -8 8 -27 -4 -20 -7 -23 -10
-10 -5 25 -21 21 -33 -10 -6 -16 -24 -57 -39 -93 -28 -65 -111 -318 -130 -397
-10 -40 -43 -73 -58 -58 -4 3 8 34 26 68 36 69 39 89 17 107 -17 14 -20 46 -6
55 5 3 13 20 16 38 4 17 18 65 31 106 13 40 24 83 24 95 0 12 4 26 8 31 5 6
17 31 26 58 17 46 30 59 38 35 7 -21 28 3 28 33 0 22 -5 29 -20 29 -30 0 -56
-31 -75 -91 -9 -30 -23 -67 -30 -84 -7 -16 -28 -75 -46 -130 -30 -89 -34 -96
-37 -64 -2 22 14 86 41 170 25 74 48 150 53 169 7 24 17 36 34 40 19 4 26 15
33 45 11 53 -1 185 -17 185 -6 0 -36 -25 -66 -55 l-54 -55 37 0 c27 0 37 -4
37 -16 0 -30 -97 -318 -119 -353 -6 -9 -14 0 -27 34 -17 45 -17 48 -1 60 13 9
17 28 17 81 0 46 9 95 25 147 14 43 25 89 25 103 0 50 -25 17 -55 -72 l-30
-89 -6 40 c-3 22 -27 118 -53 214 -25 95 -46 181 -46 191 0 14 12 21 53 29 28
5 113 22 187 37 200 40 190 39 190 17 0 -22 18 -43 37 -43 8 0 13 12 13 30 0
17 5 39 12 50 11 17 6 37 -18 78 -2 2 -38 -9 -81 -24 -66 -23 -98 -28 -208
-31 -175 -5 -195 -8 -196 -36 -2 -65 -20 56 -30 204 -9 144 -8 183 6 285 10
66 19 121 20 123 16 17 55 -81 55 -136 0 -19 9 -53 19 -76 11 -24 24 -88 31
-147 14 -127 27 -178 52 -191 36 -19 50 13 24 54 -23 35 -37 180 -30 314 7
126 1 149 -28 103 -7 -11 -16 -20 -20 -20 -21 0 2 105 31 141 18 23 18 23 65
5 44 -17 46 -19 32 -35 -23 -25 -20 -40 10 -52 19 -6 37 -6 60 1 26 9 44 8 88
-6 88 -28 122 1 39 32 -27 10 -49 18 -51 19 -1 1 21 34 50 73 l53 71 7 -52 c3
-29 15 -69 26 -90 28 -52 44 -184 40 -322 -3 -113 -4 -118 -30 -140 -35 -30
-36 -53 -1 -61 88 -23 117 214 57 476 -8 36 -22 115 -30 175 l-16 111 63 147
c58 134 79 170 79 134 0 -8 -14 -63 -31 -123 -41 -143 -45 -207 -25 -367 9
-72 27 -226 41 -341 32 -268 69 -445 95 -461 15 -9 12 24 -15 189 -13 83 -34
245 -45 360 -12 115 -27 241 -34 282 -12 67 -11 75 6 103 18 28 18 32 4 60 -9
16 -16 41 -16 54 0 32 26 117 62 205 36 86 20 76 281 178 105 42 198 78 206
82 8 3 -24 -30 -72 -75 -93 -86 -119 -98 -307 -139 -75 -17 -100 -28 -87 -40
17 -18 188 9 260 41 12 5 -2 -32 -48 -126 -60 -124 -78 -179 -57 -179 15 0 38
33 56 80 24 61 92 184 123 220 35 42 201 151 196 129 -3 -9 -29 -46 -59 -81
-67 -79 -116 -177 -122 -243 l-4 -50 60 -52 c47 -41 70 -72 107 -145 57 -110
95 -149 95 -97 0 61 -118 232 -207 301 -13 10 -23 28 -22 40 1 38 71 141 107
160 52 26 74 50 69 76 -11 59 216 175 260 131 15 -15 54 -7 67 14 17 27 -8 37
-96 37 -68 0 -84 -4 -145 -36 l-68 -35 33 33 c17 19 32 39 32 45 0 7 20 28 44
47 48 40 84 45 143 21 73 -31 87 -10 20 30 -73 42 -150 31 -206 -29 -31 -33
-39 -33 -43 1 -2 22 -9 29 -33 33 -22 4 -31 11 -33 28 -4 27 -15 28 -56 3 -29
-18 -35 -18 -86 -5 -91 25 -179 23 -221 -3 -43 -27 -62 -29 -79 -8 -10 12 -10
15 1 15 16 0 69 63 69 81 0 8 -11 10 -34 6 l-34 -5 16 39 c14 36 14 42 -3 79
-15 34 -22 40 -49 40 -17 -1 -49 -9 -71 -20 -57 -27 -74 -25 -127 18 -25 20
-60 45 -77 54 -37 21 -46 41 -66 155 -8 49 -21 113 -30 143 -21 78 -19 141 9
208 13 31 38 100 57 152 32 91 33 102 34 240 0 133 -2 148 -22 181 -12 19 -31
43 -42 53 -20 18 -20 18 1 57 21 42 19 72 -6 63 -28 -11 -63 -138 -96 -354
-25 -166 -27 -175 -45 -160 -15 12 -13 61 10 247 15 123 26 153 55 153 24 0
25 8 5 35 -10 12 -13 30 -9 52 7 38 -7 44 -28 11 l-15 -23 -54 21 c-73 28
-113 41 -189 58 -83 20 -124 20 -140 1 -22 -27 5 -45 69 -45 31 -1 88 -7 126
-14 165 -33 184 -44 167 -97 -6 -19 -23 -115 -37 -214 -15 -99 -28 -181 -30
-183 -2 -2 -11 10 -19 27 -11 20 -16 57 -16 116 0 64 -3 86 -12 83 -17 -6 -26
-42 -27 -110 -1 -31 -4 -65 -8 -75 -6 -16 -8 -15 -13 6 -5 21 -7 22 -20 9 -24
-24 -52 -36 -108 -46 -50 -9 -52 -8 -52 12 0 33 -19 46 -67 46 -63 0 -261 -44
-334 -75 -35 -14 -90 -35 -121 -47 -32 -11 -58 -25 -58 -32 0 -22 -33 -43 -92
-60 -32 -9 -73 -29 -90 -45 -18 -15 -42 -33 -54 -39 -18 -10 -23 -8 -32 13
-10 21 -8 29 14 54 75 89 419 257 569 277 28 4 45 12 45 20 0 31 -159 3 -289
-50 -94 -38 -262 -130 -329 -181 -33 -25 -62 -45 -66 -45 -3 0 4 16 15 35 21
34 87 81 238 168 115 65 106 94 -12 37 -34 -17 -52 -23 -39 -14 26 20 29 34 5
34 -24 0 -134 -53 -189 -90 -40 -27 -43 -27 -29 -6 8 12 26 29 40 36 22 12 36
50 18 50 -10 0 -113 -80 -164 -127 l-46 -43 -23 25 c-19 20 -22 32 -17 72 5
44 11 54 76 116 40 37 83 72 97 77 13 5 33 25 44 43 22 38 119 95 330 196 126
60 239 96 339 108 64 7 67 -8 8 -46 -20 -13 -37 -33 -37 -43 0 -33 50 -18 103
31 41 37 50 57 37 81 -9 18 -20 20 -93 19 -45 -1 -100 -5 -122 -10z m823 -335
c11 -30 12 -49 3 -82 -6 -23 -11 -62 -11 -87 0 -27 -5 -47 -14 -52 -7 -4 -25
-26 -40 -47 -14 -21 -26 -32 -26 -24 0 24 40 301 46 321 9 28 27 15 42 -29z
m-4947 -1181 c8 -9 -7 -6 -44 8 -66 25 -86 21 -85 -18 0 -16 -17 -56 -40 -94
-22 -36 -69 -124 -105 -195 -36 -71 -72 -138 -81 -149 -14 -18 -14 -15 0 34
23 80 140 350 179 416 39 63 42 75 21 75 -44 0 -146 -177 -220 -384 -50 -137
-71 -184 -60 -131 16 76 168 517 186 540 l20 25 109 -56 c60 -32 114 -63 120
-71z m3713 35 c4 -35 10 -74 13 -88 4 -22 -1 -27 -42 -42 -56 -21 -69 -16 -62
26 10 59 39 151 51 158 25 17 34 5 40 -54z m1384 -72 c40 0 43 -3 52 -34 5
-19 17 -43 26 -53 16 -17 16 -19 -2 -25 -11 -3 -26 -9 -34 -13 -28 -14 -81
-116 -112 -216 -17 -55 -43 -125 -59 -156 -35 -71 -72 -179 -63 -188 3 -3 11
1 16 9 5 8 20 33 34 55 l25 40 -6 -55 c-10 -87 -121 -280 -161 -280 -9 0 -49
16 -91 35 -72 33 -75 36 -68 62 3 16 50 94 104 174 54 80 102 156 106 169 4
12 22 42 40 65 39 52 84 162 84 207 0 18 -2 56 -5 84 -3 28 -1 70 6 93 11 40
13 42 38 35 15 -5 46 -8 70 -8z m-6333 -263 c10 -59 15 -138 13 -198 l-3 -100
-39 115 c-34 101 -39 127 -39 210 -1 61 4 104 13 120 l13 25 13 -37 c7 -20 20
-81 29 -135z m1379 113 c21 -26 27 -40 19 -43 -7 -3 -13 -13 -13 -24 0 -13 7
-19 24 -19 18 0 30 -13 55 -59 34 -65 38 -81 17 -81 -8 0 -67 -63 -131 -140
-163 -197 -165 -188 -8 42 51 76 93 142 93 148 0 43 -106 -65 -216 -220 -29
-42 -63 -85 -75 -95 -22 -20 -22 -20 -15 0 10 26 115 194 167 267 71 98 38 91
-62 -15 -67 -69 -101 -97 -117 -97 -23 0 -21 4 33 108 111 207 157 275 183
270 8 -2 29 -21 46 -42z m5456 -55 c22 -6 15 -11 -50 -35 -136 -51 -272 -97
-277 -93 -10 10 13 40 55 70 40 28 51 31 74 23 22 -8 31 -5 58 17 32 28 82 34
140 18z m-1043 -429 c-2 -21 3 -28 21 -30 13 -2 32 -12 43 -23 20 -20 20 -20
-10 -49 -36 -37 -67 -41 -56 -7 15 49 17 67 7 67 -12 0 -52 -48 -52 -62 0 -6
-9 -21 -20 -35 -23 -30 -26 -47 -6 -40 8 3 23 -5 35 -17 17 -18 21 -35 21 -86
l0 -63 -21 19 c-26 24 -59 87 -59 114 0 32 -25 23 -43 -16 -14 -29 -21 -34
-40 -29 -43 13 -82 41 -84 61 -4 31 59 136 97 162 43 28 49 16 17 -35 -31 -50
-57 -117 -57 -148 0 -38 27 -30 41 13 14 44 49 101 97 160 32 40 34 46 24 78
l-10 34 28 -20 c21 -15 28 -28 27 -48z m-4933 -5 c16 -12 14 -15 -23 -29 -31
-12 -41 -22 -41 -39 0 -20 3 -21 38 -14 55 12 115 11 119 0 2 -6 -16 -19 -39
-30 -25 -11 -45 -28 -47 -39 -3 -17 1 -18 40 -11 68 11 102 11 106 -1 2 -6
-20 -14 -49 -20 -47 -8 -53 -12 -53 -34 0 -19 5 -24 20 -22 88 12 133 13 139
4 4 -6 -14 -13 -46 -17 -74 -10 -98 -21 -98 -44 0 -15 8 -20 33 -23 l32 -3
-37 -25 c-37 -25 -51 -60 -24 -60 7 0 33 7 56 15 23 8 69 15 101 15 64 0 59 5
73 -75 3 -16 8 -40 12 -51 5 -20 1 -22 -68 -29 -40 -3 -100 -11 -132 -16 -57
-10 -61 -9 -77 13 -17 22 -17 24 7 49 34 35 30 42 -17 36 -39 -5 -41 -4 -70
41 -16 25 -29 51 -29 58 0 7 16 22 35 34 19 12 35 28 35 36 0 18 -37 18 -70
-1 -14 -8 -31 -14 -37 -15 -20 0 -15 28 7 40 27 14 45 49 32 62 -7 7 -25 3
-57 -12 -25 -12 -49 -19 -53 -15 -4 4 15 26 42 50 71 63 44 89 -41 39 -25 -14
-47 -23 -51 -20 -3 4 18 30 46 59 29 29 52 60 52 69 0 12 12 19 38 23 20 4 42
8 47 10 20 7 31 5 49 -8z m7127 -290 c-49 -96 -84 -215 -96 -322 -4 -33 -9
-69 -13 -80 -6 -21 -12 3 -31 131 -5 34 -14 71 -21 84 -25 48 -5 89 95 188 52
50 98 92 104 92 5 0 -12 -42 -38 -93z m-13572 -29 c-30 -57 -96 -122 -146
-145 -29 -14 -58 -23 -63 -21 -6 2 11 35 37 73 42 60 56 73 103 92 73 30 84
30 69 1z m14305 -115 c24 -26 26 -26 83 -14 130 27 152 23 186 -39 10 -19 43
-60 72 -90 47 -48 95 -129 95 -159 0 -6 22 -32 48 -58 26 -26 68 -77 92 -113
24 -36 62 -88 85 -115 22 -28 51 -79 64 -115 13 -35 36 -77 52 -93 30 -29 37
-47 19 -47 -16 0 -12 -33 14 -101 34 -90 48 -119 58 -119 14 0 9 48 -12 101
-12 28 -19 53 -17 55 13 13 91 -221 187 -555 33 -118 67 -226 75 -241 17 -33
55 -167 49 -173 -2 -2 -50 -2 -107 1 -84 4 -105 8 -121 24 -16 17 -26 19 -78
13 -44 -5 -59 -4 -54 4 4 6 19 11 32 11 24 0 25 3 19 33 -12 52 -107 277 -207
489 -88 186 -147 282 -163 266 -10 -9 7 -51 89 -220 36 -75 66 -139 66 -143 0
-4 -17 15 -37 42 -61 80 -224 272 -329 386 -203 222 -236 265 -311 412 -106
207 -147 339 -113 360 6 3 10 15 10 26 0 24 -27 25 -52 2 -27 -24 -23 -87 11
-184 17 -46 35 -111 40 -143 18 -98 57 -150 352 -472 158 -171 241 -270 137
-164 -34 36 -89 85 -120 108 -54 42 -230 224 -314 327 -55 66 -104 145 -104
165 0 32 -63 112 -99 127 -45 19 -71 41 -71 61 0 9 -8 24 -17 34 -16 18 -15
23 19 91 43 85 93 157 111 157 7 0 46 16 87 36 127 62 140 64 174 27z m-14464
-99 c0 -3 -15 -24 -32 -47 -18 -23 -38 -51 -44 -62 -16 -30 -81 -71 -154 -99
-36 -13 -73 -27 -83 -31 -15 -6 -16 -4 -7 20 16 42 62 103 88 114 25 12 27 6
7 -29 -8 -14 -14 -31 -15 -37 0 -27 21 -10 57 44 29 44 54 67 103 95 64 37 80
44 80 32z m218 -144 c-23 -34 -49 -73 -56 -86 -7 -13 -17 -24 -21 -24 -5 0
-20 -18 -35 -40 -16 -24 -45 -49 -76 -65 -57 -29 -60 -30 -60 -12 0 23 -33 44
-77 52 -24 4 -43 12 -43 19 0 28 65 99 109 118 66 30 294 108 299 104 2 -3
-16 -32 -40 -66z m13449 -222 c12 -13 23 -34 25 -48 2 -18 12 -28 35 -34 18
-6 36 -20 43 -34 9 -20 16 -23 40 -18 20 4 56 -4 110 -24 l79 -29 48 21 c26
11 68 35 92 51 35 24 46 27 50 16 2 -8 18 -27 36 -44 17 -16 60 -66 95 -110
35 -44 150 -168 256 -275 105 -107 199 -211 209 -230 16 -32 81 -128 236 -351
75 -108 141 -234 137 -261 -2 -13 -11 -24 -23 -27 -25 -4 -145 -82 -145 -94 0
-5 -13 -27 -29 -50 -15 -23 -47 -80 -71 -126 -26 -52 -64 -107 -98 -144 l-56
-58 3 -75 c3 -79 -7 -104 -40 -104 -15 0 -18 5 -15 23 3 12 7 46 11 75 4 41 3
52 -9 52 -21 0 -76 -67 -83 -101 -7 -34 0 -33 -122 -13 -65 11 -107 24 -132
40 -39 26 -196 54 -536 93 -95 11 -177 22 -183 26 -5 3 -10 22 -10 41 0 26 -9
45 -39 77 -37 41 -61 77 -61 94 0 4 9 23 20 41 l21 34 50 -84 c63 -105 143
-188 181 -188 40 0 60 45 60 134 0 84 -21 146 -87 258 -48 83 -150 222 -217
297 -35 39 -44 59 -60 131 -10 47 -25 114 -32 150 -8 36 -24 94 -35 130 -36
113 -31 156 60 555 45 197 50 204 125 205 29 0 46 -6 61 -22z m-13947 -15 c0
-12 -59 -99 -82 -120 -45 -42 -188 -108 -188 -88 0 6 64 121 90 162 14 21 42
37 85 46 33 7 95 8 95 0z m-220 -22 c0 -9 -33 -68 -105 -191 -21 -35 -74 -138
-117 -227 -44 -90 -81 -163 -84 -163 -3 0 -2 26 1 58 4 33 2 69 -4 85 -9 24
-5 39 39 123 27 52 62 114 78 137 16 23 48 72 71 109 24 37 48 69 54 72 21 8
67 6 67 -3z m483 -50 c-42 -67 -122 -177 -134 -187 -34 -27 -232 -69 -258 -54
-11 6 -3 20 38 64 30 30 63 58 75 62 11 4 37 20 57 36 35 28 201 106 227 107
10 1 9 -6 -5 -28z m5975 -128 c-54 -86 -56 -88 -113 -105 -32 -10 -60 -16 -62
-14 -2 2 12 29 31 59 27 42 55 69 113 106 42 28 79 49 81 47 2 -3 -20 -44 -50
-93z m-5669 -7 c-2 -2 -49 -30 -104 -62 -128 -73 -209 -128 -262 -177 -36 -33
-43 -46 -43 -76 0 -28 -14 -57 -56 -121 -31 -47 -61 -88 -67 -92 -14 -7 -159
-38 -182 -38 -12 0 -3 19 31 68 82 115 114 152 152 168 52 21 63 42 37 67 -13
13 -10 22 24 73 21 33 47 66 57 75 10 9 73 30 139 48 66 17 149 39 185 50 63
19 98 25 89 17z m-772 -64 c-15 -15 -27 -36 -27 -45 0 -10 -9 -34 -19 -55 -34
-66 -131 -217 -148 -229 -20 -15 -63 -17 -63 -3 0 15 62 149 120 260 8 15 42
44 75 64 74 44 99 47 62 8z m270 -84 c-9 -13 -32 -46 -52 -75 -47 -69 -61 -78
-189 -118 -157 -50 -156 -51 -95 48 63 102 99 137 142 137 17 1 61 7 97 14 36
8 76 14 89 15 22 1 23 0 8 -21z m2678 -20 c-11 -6 -85 -52 -165 -101 -179
-111 -257 -148 -396 -186 -60 -16 -152 -43 -204 -59 -104 -32 -158 -46 -150
-39 9 7 671 299 790 348 109 45 171 63 125 37z m3515 -98 c0 -5 -17 -22 -37
-37 -84 -64 -119 -112 -73 -100 19 5 18 2 -7 -44 l-28 -49 -64 0 c-60 0 -63 1
-49 18 9 9 27 40 41 68 15 29 35 54 46 57 14 3 18 11 14 25 -6 23 17 38 87 58
57 15 70 16 70 4z m5320 -50 c47 -24 50 -29 83 -146 20 -70 25 -104 20 -147
-3 -32 -8 -57 -11 -57 -20 0 -109 82 -141 131 -42 63 -81 169 -81 221 0 31 0
31 45 25 25 -4 63 -16 85 -27z m-11701 -102 c-7 -13 -32 -53 -56 -90 l-43 -68
-60 0 c-35 0 -60 4 -60 10 0 19 30 70 41 70 6 0 25 11 42 24 36 27 125 76 139
76 5 0 3 -10 -3 -22z m11519 -10 c6 -7 19 -39 30 -70 26 -73 85 -162 131 -196
20 -15 66 -53 102 -85 62 -54 67 -61 78 -118 7 -34 15 -68 17 -78 3 -9 -3 -2
-12 16 -29 53 -72 53 -99 -1 -3 -8 -7 -7 -11 1 -3 7 -16 27 -29 45 -13 18 -47
73 -76 123 -38 64 -85 123 -168 207 -63 65 -111 121 -108 125 8 7 108 42 123
43 6 0 16 -6 22 -12z m-9155 -50 c-13 -6 -23 -15 -23 -20 0 -4 -5 -8 -10 -8
-6 0 -41 -19 -78 -41 -175 -108 -159 -101 -235 -94 -142 15 -140 16 88 89 116
37 221 71 235 76 35 12 49 11 23 -2z m8988 -47 c24 -15 74 -59 110 -97 121
-128 204 -272 228 -401 l8 -41 -81 -4 c-65 -4 -93 0 -143 17 -72 26 -124 62
-150 105 -19 33 -53 41 -53 13 0 -10 5 -25 10 -33 7 -11 4 -16 -13 -20 -32 -8
-27 -31 13 -58 28 -19 44 -23 80 -19 48 6 98 -6 70 -17 -8 -3 -89 -12 -180
-21 -91 -8 -206 -20 -255 -26 -50 -5 -98 -7 -107 -4 -11 4 -38 -7 -73 -30
l-56 -37 -99 4 c-79 3 -103 7 -119 22 -33 30 -21 76 19 76 18 0 21 2 300 185
239 157 240 157 240 146 0 -20 -63 -82 -138 -135 -111 -78 -142 -111 -142
-152 0 -46 21 -44 53 5 15 22 77 82 139 134 62 52 122 104 133 117 20 22 66
50 84 50 21 0 73 -55 107 -113 39 -67 100 -137 121 -137 6 0 24 -11 39 -25 27
-25 54 -33 54 -16 0 5 -15 20 -32 33 -33 23 -70 62 -97 102 -8 12 6 3 30 -20
75 -70 132 -114 146 -114 23 0 14 25 -22 60 -19 19 -35 39 -35 46 0 7 -21 26
-48 42 -26 17 -62 46 -81 64 -33 33 -33 33 -10 38 65 16 11 74 -78 85 -59 6
-113 24 -113 37 0 3 20 30 45 59 45 53 58 89 30 89 -8 0 -15 5 -15 10 0 18 36
10 81 -19z m-6458 -1 c17 0 27 -5 27 -15 0 -9 -9 -15 -22 -15 -45 0 -52 -15
-22 -43 l28 -26 -25 -10 c-194 -78 -385 -146 -504 -180 -60 -18 -162 -47 -225
-66 -191 -57 -341 -93 -441 -104 -98 -11 -317 0 -684 34 -225 21 -825 113
-825 126 0 4 47 26 104 48 119 47 129 48 356 27 867 -80 1539 -123 1515 -98
-5 6 -73 16 -150 22 -131 12 -155 15 -144 23 2 2 94 27 204 56 213 56 468 135
550 171 68 30 186 60 210 55 11 -3 32 -5 48 -5z m1123 -24 c7 -18 -82 -173
-107 -187 -11 -5 -19 -20 -19 -35 0 -24 -44 -120 -72 -157 -13 -18 -15 -16
-27 20 -12 37 -11 42 46 163 85 179 106 210 143 210 17 0 33 -6 36 -14z m9438
-215 c46 -76 124 -239 131 -276 5 -22 -3 -14 -27 30 -32 58 -161 250 -218 325
-14 19 -37 53 -50 75 -23 38 -21 37 53 -29 42 -38 92 -94 111 -125z m-8196
-26 c52 -9 162 -19 245 -22 164 -6 213 -16 134 -28 -63 -10 -374 10 -461 30
-79 17 -95 27 -77 49 10 12 16 12 39 1 15 -8 69 -21 120 -30z m-2470 2 c64 1
112 -2 112 -8 0 -5 -13 -9 -29 -9 -16 0 -57 -8 -92 -19 -35 -10 -80 -23 -99
-28 -38 -9 -53 -39 -23 -45 24 -5 -12 -24 -142 -74 -98 -37 -104 -38 -259 -42
-88 -2 -216 -1 -285 3 l-126 8 150 39 c181 47 499 140 575 167 34 13 65 18 80
14 14 -4 76 -6 138 -6z m1853 -47 c34 -16 78 -32 99 -35 22 -4 44 -13 50 -20
6 -8 14 -57 17 -109 3 -52 9 -100 13 -106 11 -17 30 -3 30 21 0 11 5 17 10 14
13 -8 13 -62 0 -67 -10 -3 -236 13 -387 28 -35 3 -63 9 -63 14 0 5 30 12 68
15 66 7 92 18 92 38 0 6 -23 7 -65 3 -72 -7 -76 -4 -45 46 21 35 27 88 9 88
-23 0 -49 -22 -49 -41 0 -17 -4 -19 -22 -13 -53 17 -96 24 -151 24 -49 0 -60
3 -64 19 -4 14 -18 20 -60 25 -30 3 -59 3 -65 0 -13 -8 -4 8 27 51 l22 30 237
2 237 2 60 -29z m-3816 -129 c94 -11 262 -27 375 -36 333 -26 330 -25 330 -40
0 -24 16 -25 97 -10 81 16 278 18 488 6 l110 -6 -80 -23 c-44 -12 -152 -38
-240 -58 l-160 -36 -220 5 c-219 6 -488 29 -774 67 -176 24 -382 58 -389 65
-9 8 1 13 99 49 112 42 136 43 364 17z m5450 -1 c129 -10 436 -48 442 -54 13
-13 -88 -13 -167 0 -52 8 -181 18 -287 21 -105 3 -196 9 -203 13 -6 4 -8 15
-4 24 6 15 15 17 48 12 23 -3 100 -10 171 -16z m5778 -165 c100 -152 147 -263
147 -347 0 -40 -14 -78 -29 -78 -16 0 -114 142 -133 193 -26 68 -34 77 -74 77
-23 0 -38 -7 -49 -22 -16 -22 -16 -19 -8 52 4 41 8 126 8 188 l0 114 39 -44
c21 -23 66 -83 99 -133z m-7797 150 c49 -9 100 -23 113 -32 l25 -16 -25 -9
c-13 -6 -104 -15 -202 -21 -199 -12 -209 -10 -183 42 19 36 27 39 162 49 12 1
61 -5 110 -13z m-1475 -54 c20 -18 20 -19 -23 -39 -103 -48 -285 -92 -382 -92
-74 0 -126 -9 -126 -21 0 -5 17 -9 38 -10 61 -1 18 -14 -263 -79 -350 -81
-355 -82 -355 -93 0 -19 128 4 525 92 220 49 423 92 450 95 48 5 48 5 10 -4
-81 -19 -115 -31 -115 -40 0 -19 43 -21 126 -5 47 9 88 14 91 12 13 -13 -204
-67 -269 -67 -31 0 -38 -4 -38 -19 0 -22 -19 -31 -65 -31 -37 0 -56 -17 -34
-31 8 -5 43 -7 79 -4 l65 5 -55 -15 c-154 -40 -478 -43 -1240 -10 -190 8 -514
19 -720 25 -206 6 -433 15 -505 20 -71 5 -139 10 -150 10 -39 1 7 19 215 87
244 78 310 103 310 114 0 12 -43 11 -74 -1 -16 -6 -27 -6 -31 0 -4 6 -30 10
-58 11 -29 0 -60 4 -71 8 -15 6 -10 11 29 26 118 45 130 46 218 25 182 -43
605 -97 927 -120 85 -5 187 -13 225 -16 91 -6 593 -5 668 2 110 11 56 24 -105
25 l-163 1 65 15 c36 8 140 32 232 54 99 24 226 46 315 55 120 12 208 25 231
33 2 1 12 -7 23 -18z m4039 -11 c19 -5 91 -17 160 -25 252 -31 680 -129 680
-156 0 -5 -16 -11 -36 -15 -27 -5 -65 2 -153 29 -97 30 -310 85 -451 117 -19
5 -72 13 -116 19 -45 5 -97 17 -115 25 -39 17 -20 21 31 6z m-6640 -109 c22
-7 18 -10 -35 -25 -33 -10 -144 -45 -246 -77 -152 -48 -199 -59 -254 -59 -40
0 -65 4 -60 9 13 11 197 86 315 127 79 28 108 34 175 33 44 -1 91 -4 105 -8z
m4420 -63 c386 -81 479 -97 486 -86 3 5 3 12 0 15 -5 6 -449 103 -470 103 -5
0 -7 2 -4 5 6 7 342 -32 437 -51 42 -8 134 -19 205 -24 138 -10 150 -15 162
-64 l7 -29 -71 5 c-43 3 -82 12 -97 22 -35 23 -55 14 -55 -23 l0 -30 -42 19
c-53 24 -127 28 -108 6 6 -8 28 -17 48 -20 20 -2 -84 -2 -233 1 -239 4 -290 8
-445 34 -96 16 -205 38 -242 49 -36 11 -86 20 -111 20 -31 0 -47 5 -51 15 -9
24 -40 18 -74 -15 -30 -28 -70 -39 -85 -23 -12 11 14 33 39 33 24 0 33 23 14
35 -5 3 -10 13 -10 21 0 12 7 14 28 10 15 -3 51 -8 80 -11 43 -6 52 -4 52 8 0
9 -10 19 -22 24 -17 6 -5 9 47 13 134 10 228 -2 515 -62z m5161 51 c19 -7 41
-18 50 -25 8 -8 30 -14 49 -14 l33 0 -6 -51 c-4 -29 -8 -53 -10 -55 -2 -2
-102 9 -223 25 -120 16 -266 35 -323 41 -79 10 -100 15 -86 23 13 7 24 6 36
-1 14 -9 25 -8 46 3 15 9 102 26 193 39 197 29 198 29 241 15z m-4153 -68 c23
-5 46 -11 49 -15 11 -11 -16 -30 -45 -32 -15 -1 -30 -3 -34 -3 -22 -3 -3 -22
30 -31 20 -5 44 -14 52 -20 24 -16 -9 -13 -60 5 -48 17 -100 20 -100 6 0 -5
25 -21 56 -36 31 -15 53 -29 50 -32 -7 -7 -272 -52 -306 -52 -24 0 -24 0 -5
15 11 8 49 23 86 34 76 23 92 37 87 77 -2 23 1 29 20 31 25 4 25 3 12 36 -9
25 -8 26 28 26 20 -1 56 -5 80 -9z m8415 2 c2 -5 7 -20 11 -35 5 -24 3 -28
-21 -34 -16 -4 -49 -17 -76 -29 -40 -19 -45 -24 -32 -35 11 -9 26 -10 57 -2
24 5 63 7 87 5 43 -5 43 -6 38 -39 -3 -18 -22 -69 -41 -113 -20 -43 -36 -86
-36 -96 0 -10 -36 -53 -80 -97 -44 -43 -80 -84 -80 -91 0 -7 -11 -39 -25 -72
-30 -73 -31 -88 -5 -123 27 -37 36 -96 20 -128 -12 -21 -11 -27 10 -49 l23
-25 -26 0 c-22 0 -26 4 -24 23 2 18 -3 22 -25 22 -15 1 -38 7 -52 15 -22 11
-28 11 -43 -3 -14 -12 -28 -14 -61 -7 -41 7 -82 30 -54 30 18 0 15 25 -8 62
-27 45 -25 88 10 188 35 101 38 130 11 130 -14 0 -25 -16 -42 -59 -16 -42 -27
-57 -35 -50 -14 11 -11 76 5 92 19 19 12 28 -21 25 -27 -2 -33 -7 -34 -28 0
-14 -3 -32 -7 -40 -8 -21 -17 -83 -24 -159 -3 -48 -1 -68 9 -76 7 -6 23 -30
36 -53 l23 -42 -22 0 c-25 0 -82 59 -111 115 -36 68 -40 112 -17 185 31 100
40 120 54 120 16 0 48 36 44 49 -3 6 -25 2 -56 -9 -48 -17 -52 -17 -44 -2 5
10 18 26 30 36 18 16 25 17 50 6 35 -14 57 -5 95 41 21 24 24 34 15 45 -9 11
-5 16 16 26 18 8 25 17 22 30 -4 14 12 26 76 56 45 22 90 42 100 46 10 3 17
12 15 19 -7 19 -43 20 -77 2 -17 -8 -54 -21 -83 -29 -48 -12 -53 -16 -56 -43
-3 -25 -9 -32 -34 -37 -22 -4 -66 -41 -155 -131 -68 -69 -128 -125 -133 -125
-33 0 23 70 68 84 30 10 92 92 92 122 0 20 21 48 86 115 86 87 87 88 103 67
15 -17 21 -19 39 -9 34 18 29 44 -8 39 -24 -4 -27 -2 -18 9 27 32 94 56 178
63 122 10 238 11 243 3z m-5702 -29 c22 -11 29 -20 24 -32 -14 -34 -27 -147
-22 -184 3 -24 16 -49 32 -65 23 -24 29 -26 56 -16 32 13 36 7 14 -23 -12 -18
-20 -20 -55 -14 -45 8 -69 26 -111 84 -24 32 -29 49 -29 96 0 59 13 109 38
148 17 26 15 26 53 6z m-2387 -18 c20 -8 36 -19 36 -24 0 -17 -111 -52 -162
-52 -23 0 -32 8 -54 52 l-26 51 85 -6 c47 -3 101 -13 121 -21z m-2453 -17 c19
-37 -8 -49 -182 -79 -90 -16 -226 -40 -303 -55 -108 -21 -145 -25 -170 -17
-25 8 -27 10 -9 11 15 1 25 9 29 25 3 14 13 27 21 30 8 4 139 27 291 52 152
25 278 47 281 50 11 10 31 2 42 -17z m4535 -68 c1 -73 6 -98 28 -146 14 -31
26 -59 26 -62 0 -2 -12 5 -26 16 -15 12 -32 21 -39 21 -20 0 -46 36 -39 54 9
24 -16 76 -40 85 -19 8 -19 9 10 24 20 10 37 31 48 57 9 22 19 40 23 40 5 0 8
-40 9 -89z m2774 6 c23 -8 42 -25 57 -52 36 -63 34 -65 -69 -64 -51 0 -111 -5
-133 -11 -22 -6 -49 -14 -60 -16 -11 -3 -60 9 -110 26 -81 28 -109 32 -273 41
-185 10 -258 25 -250 51 3 7 9 13 14 13 43 -2 171 -20 272 -41 166 -33 266
-42 260 -24 -2 8 -18 17 -34 21 -16 4 -42 10 -58 14 -27 6 -28 7 -12 23 12 12
41 19 109 23 158 10 251 8 287 -4z m-10360 -41 c567 -18 1294 -44 1465 -54
l120 -7 -236 -43 -237 -43 -278 20 c-331 24 -706 48 -894 56 -340 15 -607 36
-710 56 l-54 11 29 14 c23 10 64 13 170 9 77 -2 358 -11 625 -19z m3036 -24
c-8 -16 -21 -33 -28 -40 -7 -6 -119 -27 -248 -47 -129 -20 -253 -40 -275 -45
-63 -15 -85 -13 -85 9 0 29 18 38 110 56 47 9 112 23 145 31 62 16 332 61 373
63 22 1 22 0 8 -27z m1388 -16 c88 -14 172 -26 188 -26 15 0 28 -4 28 -8 0 -9
-213 -32 -296 -32 -63 0 -114 -9 -114 -21 0 -26 711 20 963 63 37 6 70 8 73 5
4 -4 -1 -26 -10 -51 -18 -47 -36 -56 -118 -56 -21 0 -67 -10 -101 -22 -61 -23
-71 -23 -507 -23 -394 0 -452 2 -510 18 -96 26 -120 37 -120 57 0 22 -55 70
-80 70 -28 0 -34 19 -13 42 17 20 25 20 238 15 166 -4 259 -12 379 -31z
m-2104 4 c0 -18 -48 -60 -67 -60 -29 0 -216 -50 -229 -61 -21 -17 -314 -29
-448 -19 -67 5 -159 10 -206 10 -108 2 -85 11 91 39 74 12 179 30 234 41 93
17 200 29 450 49 147 12 175 12 175 1z m7650 -157 c422 -80 437 -84 345 -78
-38 3 -126 7 -195 11 -69 3 -150 10 -180 16 -66 12 -349 103 -370 119 -18 13
-43 17 400 -68z m-6988 55 c-19 -19 -14 -28 15 -28 59 0 7 -12 -148 -35 -90
-13 -202 -26 -249 -30 -47 -3 -97 -11 -112 -17 -20 -7 -32 -6 -52 8 -15 9 -25
18 -23 20 6 6 518 92 552 93 22 1 26 -2 17 -11z m6638 -77 c0 -3 -32 -36 -71
-72 -60 -57 -70 -71 -67 -95 2 -25 8 -29 36 -32 27 -3 32 -7 32 -29 0 -20 4
-24 20 -20 22 6 24 -2 14 -51 -5 -26 -10 -30 -39 -29 -43 1 -63 -16 -71 -62
-3 -20 -17 -92 -31 -161 -21 -101 -25 -146 -23 -235 11 -330 5 -509 -23 -740
-32 -267 -36 -297 -47 -290 -16 10 -17 74 -5 215 28 308 29 320 12 320 -27 0
-36 -32 -53 -196 -9 -88 -20 -168 -25 -179 -7 -14 -8 -1 -4 40 3 33 7 168 10
300 7 298 12 340 85 710 89 452 126 573 180 586 14 3 25 12 24 21 -1 10 6 13
22 10 13 -2 24 -7 24 -11z m2455 -172 c391 -39 578 -71 605 -104 26 -31 -5
-33 -140 -10 -74 13 -252 42 -395 64 -143 22 -316 50 -385 61 l-125 20 120 -6
c66 -3 210 -14 320 -25z m-660 -120 c140 -18 155 -27 155 -91 0 -24 8 -46 26
-67 23 -28 49 -90 40 -99 -2 -2 -35 26 -73 61 -56 53 -173 145 -260 205 -17
12 -17 12 2 8 11 -2 61 -10 110 -17z m-90 -160 c204 -167 258 -219 258 -252 0
-44 -13 -45 -47 -2 -64 82 -144 160 -252 246 -104 83 -124 104 -124 131 0 12
-14 23 165 -123z m-25 -82 c135 -107 258 -254 260 -308 0 -9 6 -22 14 -28 8
-7 17 -27 20 -46 4 -19 14 -38 23 -43 13 -8 17 -33 20 -133 3 -68 7 -131 10
-139 10 -27 2 -132 -18 -245 -10 -60 -19 -140 -19 -177 0 -38 -4 -68 -8 -68
-23 0 -266 307 -386 488 -88 131 -118 204 -100 241 8 17 20 5 100 -102 90
-121 331 -408 354 -422 6 -4 16 -3 21 2 18 18 -8 62 -94 154 -52 57 -67 91
-69 154 -2 59 -21 92 -39 64 -5 -8 -9 -20 -9 -26 0 -42 -66 17 -150 136 -51
73 -51 73 -55 163 l-4 90 33 -44 c18 -23 70 -97 116 -163 136 -197 181 -255
197 -255 10 0 12 6 8 23 -7 23 -126 208 -272 425 -72 105 -83 128 -83 165 0
65 12 177 19 177 3 0 53 -38 111 -83z m2810 -82 c340 -53 920 -161 882 -164
-6 -1 -57 6 -112 14 -54 8 -178 24 -273 35 -152 17 -283 42 -672 128 -137 31
-74 26 175 -13z m1182 -160 c205 -36 481 -86 613 -110 146 -26 264 -43 302
-42 50 2 67 -2 92 -21 17 -12 44 -25 61 -28 27 -6 30 -4 30 19 0 16 -10 34
-26 46 l-27 21 51 0 c27 0 79 -9 115 -20 l64 -20 -16 -56 c-12 -43 -17 -49
-19 -30 -4 32 -42 37 -42 6 0 -11 -5 -20 -11 -20 -8 0 -10 -17 -7 -52 l5 -52
-18 23 c-11 13 -19 38 -19 57 0 31 -3 34 -30 34 -19 0 -33 -7 -39 -19 -10 -18
-12 -18 -70 5 -62 25 -483 122 -1291 297 -63 14 -110 25 -103 26 6 1 179 -28
385 -64z m-4086 -528 c94 -132 235 -311 333 -421 58 -66 61 -71 61 -122 0 -56
-16 -80 -34 -50 -6 10 -35 48 -63 86 -29 37 -53 71 -53 75 0 4 -22 33 -48 64
-56 65 -296 425 -306 458 -8 25 0 46 15 38 5 -3 48 -61 95 -128z m34 -224
c168 -234 195 -271 279 -375 80 -100 91 -122 91 -178 l0 -45 -55 60 c-92 101
-394 500 -446 590 -33 57 -41 145 -13 145 1 0 66 -89 144 -197z m-78 -120 c88
-120 284 -363 368 -458 34 -38 68 -79 75 -90 17 -26 32 -170 17 -161 -38 23
-246 295 -325 424 -17 28 -74 118 -124 198 -80 127 -108 184 -88 184 3 0 37
-44 77 -97z m-12 -151 c130 -214 287 -425 422 -569 38 -40 70 -83 73 -100 3
-15 13 -53 22 -83 8 -30 18 -91 22 -135 4 -54 13 -90 26 -110 l19 -30 -23 20
c-13 11 -86 112 -163 225 -287 422 -380 556 -403 580 -49 53 -68 106 -73 211
-3 54 -1 99 4 99 5 -1 38 -49 74 -108z m93 -419 c73 -104 191 -273 262 -378
72 -104 154 -214 184 -245 l53 -55 6 -115 5 -115 -58 75 c-80 105 -345 457
-372 494 -13 17 -31 42 -40 55 -10 14 -42 56 -70 94 -32 43 -55 84 -58 106 -3
20 -10 52 -15 71 -5 19 -14 65 -20 102 -5 37 -13 74 -16 82 -15 40 15 2 139
-171z m-1907 -240 c4 -22 -1 -57 -14 -101 -46 -147 -152 -629 -152 -690 0 -21
-2 -24 -10 -12 -14 22 -12 108 5 162 7 26 19 112 25 190 14 182 32 276 77 412
32 98 37 107 49 91 8 -10 17 -34 20 -52z m2282 -563 c96 -124 103 -131 123
-125 18 6 19 0 19 -136 l0 -143 -31 30 c-26 25 -203 256 -439 574 -35 47 -70
101 -78 120 -8 19 -17 82 -20 140 l-5 105 194 -255 c107 -140 213 -280 237
-310z m-2242 408 c-3 -40 -11 -160 -16 -267 l-9 -193 -72 -272 c-39 -149 -75
-275 -79 -279 -14 -15 -21 123 -10 206 14 116 97 567 114 624 8 27 24 91 36
143 12 52 24 98 27 103 12 20 15 0 9 -65z"/>
<path d="M16210 5833 c0 -14 77 -149 146 -257 63 -99 94 -128 94 -90 0 18
-170 295 -203 332 -20 22 -37 29 -37 15z"/>
<path d="M6750 5261 c0 -6 4 -13 10 -16 5 -3 121 -22 257 -41 204 -28 421 -62
596 -92 19 -3 27 0 27 11 0 10 -17 19 -47 26 -102 23 -384 70 -513 85 -74 9
-159 20 -189 26 -67 13 -141 13 -141 1z"/>
<path d="M16368 4618 c-38 -50 -48 -74 -47 -110 1 -49 41 -163 59 -166 21 -4
39 84 42 208 3 80 1 95 -13 98 -9 1 -27 -12 -41 -30z"/>
<path d="M4570 8900 c0 -16 11 -18 200 -35 96 -9 279 -32 405 -51 127 -19 255
-37 285 -40 30 -3 69 -12 87 -20 17 -8 40 -14 50 -14 11 0 89 -16 174 -35 162
-37 222 -44 202 -24 -13 13 -298 83 -398 98 -33 5 -103 19 -155 31 -108 23
-399 63 -634 85 -188 18 -216 18 -216 5z"/>
<path d="M6190 8342 c0 -5 9 -17 20 -27 11 -10 20 -28 20 -41 0 -38 98 -104
178 -120 52 -10 41 21 -18 51 -56 28 -64 40 -22 32 15 -3 34 -1 42 4 19 12 6
21 -70 50 -30 11 -70 29 -88 40 -35 20 -62 25 -62 11z"/>
<path d="M6496 7884 c-11 -30 -6 -259 10 -417 9 -87 13 -161 9 -165 -3 -4 -22
10 -41 31 -41 44 -54 47 -54 10 0 -19 14 -40 50 -74 28 -27 46 -50 40 -54 -18
-11 -11 -43 11 -50 15 -5 25 -1 35 14 9 12 21 21 29 21 24 0 26 17 5 53 -24
41 -57 280 -66 495 -7 135 -14 172 -28 136z"/>
<path d="M14395 7741 c-17 -4 -42 -15 -55 -24 -14 -9 -61 -26 -105 -37 -87
-24 -120 -44 -96 -59 8 -6 25 -5 40 0 14 6 59 17 101 24 57 11 80 20 95 39 14
17 34 27 65 31 68 10 78 14 60 25 -17 11 -61 11 -105 1z"/>
<path d="M14384 7544 c-21 -14 -55 -41 -74 -59 -44 -43 -108 -71 -189 -84 -68
-11 -88 -22 -76 -41 15 -24 114 -4 200 39 73 37 215 140 223 162 7 19 -47 8
-84 -17z"/>
<path d="M13304 7029 c-10 -16 4 -140 31 -264 177 -831 209 -944 304 -1075 17
-24 35 -59 41 -79 11 -41 105 -157 143 -178 33 -17 57 -7 57 22 0 17 -10 28
-37 42 -21 10 -43 28 -48 39 -6 12 -16 29 -23 37 -7 8 -17 44 -23 79 -11 71
-34 110 -70 118 -43 9 -90 125 -153 378 -76 311 -141 605 -161 737 -10 61 -21
120 -26 133 -9 24 -24 29 -35 11z"/>
<path d="M3501 6749 c-13 -5 -49 -25 -80 -43 -31 -18 -94 -53 -141 -78 -47
-25 -148 -80 -225 -124 -146 -81 -278 -144 -306 -144 -25 0 -709 -228 -884
-295 -150 -56 -372 -148 -560 -232 -137 -61 -537 -271 -552 -291 -16 -19 -17
-42 -2 -42 5 0 70 33 142 74 246 137 589 306 622 306 4 0 33 11 64 24 252 110
1082 406 1136 406 6 0 -12 -13 -40 -28 -27 -16 -79 -47 -115 -69 -36 -23 -96
-60 -135 -84 -159 -96 -195 -123 -195 -146 0 -14 72 22 161 81 26 17 59 39 75
48 32 19 43 26 126 81 32 20 66 40 75 44 10 4 42 22 71 40 82 53 209 111 302
140 97 30 97 30 84 43 -6 6 -22 6 -42 1 -18 -5 -32 -8 -32 -6 0 2 21 16 48 31
26 16 56 34 67 41 11 7 30 17 42 22 12 5 62 35 112 66 50 31 113 62 139 70 50
15 102 49 102 66 0 11 -28 11 -59 -2z"/>
<path d="M5701 6740 c-91 -33 -98 -60 -11 -43 43 9 50 8 50 -6 0 -32 -52 -227
-68 -253 -13 -22 -14 -30 -4 -40 24 -24 13 -49 -28 -65 -22 -9 -40 -20 -40
-26 0 -15 92 1 110 18 10 10 24 79 42 198 15 100 30 194 34 210 8 34 -7 35
-85 7z"/>
<path d="M13533 6713 c3 -27 21 -97 40 -158 34 -106 57 -144 57 -91 0 15 6 29
14 32 36 14 27 51 -25 112 -16 18 -29 38 -29 45 0 19 -44 107 -54 107 -5 0 -6
-21 -3 -47z"/>
<path d="M14094 6044 c-85 -133 -124 -249 -84 -249 15 0 138 254 139 288 1 32
-19 18 -55 -39z"/>
<path d="M13464 5565 c-17 -44 43 -210 116 -324 49 -75 120 -124 171 -118 32
4 40 1 58 -24 19 -26 28 -29 77 -29 64 0 91 12 104 46 16 42 1 85 -36 100 -20
8 -45 31 -59 54 -29 46 -45 44 -45 -4 0 -24 11 -46 38 -77 72 -85 72 -83 28
-65 -22 9 -44 23 -50 32 -8 10 -36 18 -81 22 -68 7 -69 8 -79 40 -8 30 -13 33
-38 30 -23 -4 -32 1 -47 26 -32 52 -102 219 -109 261 -8 42 -37 60 -48 30z"/>
<path d="M8766 5365 c-25 -23 -26 -29 -26 -118 0 -75 -3 -96 -15 -101 -19 -7
-19 -36 1 -86 16 -40 34 -53 34 -25 0 13 3 13 20 3 10 -7 22 -9 26 -6 3 4 0
68 -7 143 -9 97 -10 138 -2 146 16 16 29 -271 14 -321 -6 -20 -11 -60 -11 -88
0 -53 16 -70 54 -56 21 8 22 112 0 334 -19 209 -30 229 -88 175z"/>
<path d="M528 5040 c-26 -38 -104 -210 -117 -255 -6 -22 -11 -68 -11 -103 0
-60 1 -63 23 -60 19 3 23 10 28 68 9 102 27 174 65 262 36 85 43 135 12 88z"/>
<path d="M13917 5044 c-16 -16 -5 -42 22 -54 16 -6 44 -23 62 -36 40 -30 41
-30 76 0 16 13 54 29 87 36 76 15 106 29 106 48 0 11 -7 13 -37 6 -45 -11
-235 -10 -278 0 -17 4 -33 4 -38 0z"/>
<path d="M5467 4669 c-50 -29 -348 -67 -828 -104 -666 -53 -892 -74 -902 -84
-18 -18 93 -14 634 24 1005 70 1117 85 1127 153 4 24 -4 27 -31 11z"/>
<path d="M6140 4660 c0 -29 36 -40 168 -51 89 -7 119 -13 139 -29 14 -11 32
-20 40 -20 8 0 28 -11 45 -25 32 -27 49 -30 79 -15 16 9 19 7 19 -13 0 -14 6
-29 13 -35 14 -11 81 -23 145 -25 37 -1 43 -5 48 -27 18 -86 62 -123 142 -118
63 4 63 27 -1 43 -27 7 -52 16 -58 22 -5 5 -13 36 -17 69 l-7 59 -100 5 c-55
4 -106 9 -113 14 -6 4 -12 19 -12 33 0 18 -4 24 -15 19 -9 -3 -15 0 -15 9 0 8
-5 15 -12 15 -7 0 -27 15 -46 33 -32 31 -34 31 -47 13 -13 -17 -15 -17 -30 -2
-13 12 -37 16 -103 16 -48 1 -114 7 -147 15 -86 21 -115 20 -115 -5z"/>
<path d="M5418 4513 c-39 -40 -47 -66 -26 -79 15 -10 -21 -21 -68 -23 -36 -1
-57 -21 -48 -44 9 -23 38 -26 106 -11 88 20 99 29 69 53 -17 13 -22 24 -17 36
5 14 9 16 18 7 17 -17 28 -15 28 7 0 25 26 31 140 31 102 0 127 8 116 35 -5
14 -19 16 -88 14 -46 -1 -108 1 -138 5 -55 8 -55 7 -92 -31z"/>
<path d="M13073 4428 c-26 -48 -23 -172 6 -268 26 -86 88 -214 150 -312 47
-75 66 -86 58 -35 -4 26 2 39 29 69 28 32 94 145 94 163 0 3 -6 5 -14 5 -8 0
-39 -34 -70 -75 -31 -41 -61 -77 -66 -80 -13 -8 -102 172 -129 260 -31 98 -39
221 -17 262 20 40 20 43 -4 43 -12 0 -26 -13 -37 -32z"/>
<path d="M2114 4430 c-85 -11 -124 -25 -124 -44 0 -30 72 -35 176 -10 51 11
109 14 234 12 164 -3 167 -3 202 -30 20 -15 39 -39 42 -53 5 -21 12 -25 44
-25 21 0 88 9 148 20 60 11 189 25 286 31 196 12 271 5 342 -32 33 -17 63 -22
156 -26 170 -6 200 -11 200 -33 0 -10 8 -21 18 -25 9 -3 90 -1 179 6 127 9
166 9 177 0 11 -9 33 -10 94 -1 56 7 99 8 144 0 34 -5 196 -10 358 -10 213 0
320 -4 385 -15 50 -8 109 -12 132 -9 53 8 59 -3 40 -77 l-14 -54 -38 3 -37 4
7 -54 c5 -39 3 -65 -8 -90 -14 -34 -19 -37 -69 -42 -58 -7 -709 -22 -1293 -31
-440 -6 -575 -13 -575 -28 0 -10 595 -7 1526 10 l381 6 6 -68 c4 -38 5 -70 3
-72 -2 -2 -246 -8 -542 -14 -296 -5 -540 -11 -542 -14 -3 -3 -2 -8 2 -12 4 -5
248 -7 541 -6 l532 2 6 -107 c2 -59 12 -138 22 -177 17 -69 17 -71 -7 -165
l-24 -95 -245 -7 c-134 -3 -485 -11 -779 -18 -744 -17 -918 -24 -932 -38 -6
-6 -8 -15 -4 -19 9 -9 44 -9 691 12 451 15 917 21 1030 13 28 -2 94 1 147 5
l97 8 25 -38 25 -38 -35 -100 c-27 -79 -33 -109 -29 -145 5 -37 2 -52 -17 -80
l-23 -34 -290 -22 c-387 -30 -417 -33 -412 -47 6 -19 107 -20 307 -3 102 8
231 17 287 20 93 5 104 3 113 -14 20 -37 9 -118 -70 -514 -99 -501 -99 -496
-106 -586 -5 -60 -3 -79 10 -95 22 -28 32 -9 39 78 3 40 33 214 67 387 76 392
80 410 92 410 6 0 7 -7 2 -17 -7 -17 -24 -194 -26 -278 0 -22 3 -90 7 -150 7
-96 5 -125 -15 -215 -23 -109 -23 -197 1 -226 20 -25 29 -15 29 34 0 26 11 98
25 160 30 132 34 221 15 315 -13 63 -12 73 7 137 17 58 18 77 10 110 -8 29 -8
52 1 85 17 63 15 83 -8 97 -30 19 -25 38 30 122 53 81 62 116 32 116 -10 0
-27 7 -39 15 -26 18 -23 54 8 117 11 21 19 55 19 76 0 21 6 61 14 88 21 75 18
180 -7 221 -17 29 -19 45 -14 111 6 73 38 192 70 257 8 17 26 96 38 178 20
124 26 147 41 147 11 0 20 11 26 32 4 18 16 34 25 36 13 3 17 -7 19 -50 3 -46
6 -53 25 -56 14 -2 23 3 27 15 12 39 26 151 26 205 0 31 3 59 8 62 4 2 37 -22
74 -55 56 -50 70 -70 93 -128 14 -38 35 -77 45 -86 29 -26 26 -106 -11 -288
-30 -148 -31 -157 -24 -342 6 -184 2 -235 -31 -467 -5 -39 -4 -48 8 -48 44 0
52 60 67 475 8 220 14 288 32 365 15 65 22 130 23 207 1 101 -1 113 -21 135
-11 12 -38 52 -59 88 -21 36 -61 89 -88 119 -28 29 -60 72 -71 95 l-20 41 -71
1 c-83 1 -89 4 -102 43 l-11 30 67 -6 c51 -4 72 -1 87 10 34 26 6 37 -121 47
-65 6 -150 17 -189 25 -100 21 -233 35 -355 36 l-105 2 85 8 c46 5 88 13 93
18 19 19 -65 22 -284 11 -123 -6 -296 -14 -384 -17 -206 -7 -700 14 -780 33
-140 35 -154 35 -434 25 -152 -6 -307 -16 -345 -22 l-68 -11 -37 36 c-64 62
-94 69 -301 72 -102 1 -217 -1 -256 -6z"/>
<path d="M2280 4356 c0 -9 3 -16 8 -16 4 0 13 -4 20 -9 11 -7 11 -12 1 -28
-19 -31 -3 -72 34 -88 18 -7 133 -25 257 -39 334 -40 413 -61 425 -115 4 -17
11 -31 17 -31 31 0 51 78 26 97 -37 28 -189 56 -454 83 -110 11 -214 25 -231
31 -29 10 -31 12 -21 39 5 16 8 41 6 57 -3 25 -7 28 -45 31 -34 2 -43 0 -43
-12z"/>
<path d="M8260 4354 c-134 -18 -435 -35 -516 -29 -246 17 -246 17 -242 -7 3
-23 7 -23 198 -33 118 -6 190 -13 181 -19 -7 -5 -122 -12 -255 -17 -132 -4
-315 -14 -406 -20 -130 -9 -226 -9 -450 1 -340 16 -717 9 -799 -14 -66 -18
-90 -38 -72 -60 17 -21 40 -24 266 -41 110 -8 207 -15 215 -16 8 -1 -7 -5 -33
-9 -58 -10 -65 -15 -50 -39 11 -17 2 -20 -119 -40 -142 -24 -148 -25 -148 -47
0 -19 3 -19 276 21 l239 35 185 -16 c179 -16 270 -32 189 -33 -52 -1 -136 -29
-151 -49 -7 -10 -18 -21 -24 -25 -7 -4 -92 -14 -190 -22 -357 -30 -467 -43
-482 -59 -8 -8 -15 -28 -16 -45 -1 -21 -7 -33 -19 -37 -20 -6 -44 -50 -34 -61
4 -3 38 -1 76 6 86 14 138 14 146 1 12 -20 18 -150 7 -150 -21 0 -177 52 -199
66 -13 8 -23 23 -23 34 0 24 -41 28 -60 5 -40 -48 39 -106 187 -136 100 -21
113 -28 113 -66 0 -33 -14 -36 -82 -19 -94 24 -158 56 -164 83 -7 27 -44 32
-65 7 -10 -12 -10 -22 -1 -48 7 -18 12 -46 12 -63 0 -37 41 -82 83 -90 20 -4
25 -9 18 -16 -21 -21 -11 -47 30 -77 23 -16 58 -34 77 -39 19 -6 46 -20 59
-33 22 -20 36 -23 126 -26 133 -4 140 -7 92 -39 -27 -18 -58 -28 -99 -32 -45
-4 -61 -10 -61 -21 0 -11 17 -17 60 -24 52 -7 99 -2 310 34 138 23 275 48 305
56 82 20 338 52 554 69 268 21 250 23 242 -22 -18 -103 -18 -174 -1 -245 20
-83 31 -108 47 -108 5 0 26 -13 45 -30 18 -16 40 -30 48 -30 10 0 15 -10 15
-28 0 -37 21 -65 46 -60 15 3 19 12 18 40 -1 41 -4 39 101 53 54 7 85 20 85
35 0 5 -39 11 -87 12 l-88 3 3 35 c7 63 41 155 77 205 38 55 43 73 20 81 -10
4 -13 14 -9 31 6 23 4 24 -27 21 -29 -3 -34 -7 -37 -32 -3 -26 -1 -28 23 -24
l27 6 -34 -35 -33 -34 -6 32 c-11 52 -51 65 -57 18 -2 -13 -14 -35 -27 -49
-12 -14 -34 -47 -48 -75 l-26 -50 0 35 c1 62 22 112 54 130 20 11 30 24 30 41
0 19 -8 27 -42 37 -24 8 -43 18 -43 23 0 5 47 9 103 9 89 0 107 3 127 20 27
23 33 25 130 40 41 6 84 14 95 16 11 3 -4 -9 -32 -25 -29 -17 -53 -36 -53 -41
0 -16 51 -11 106 9 66 25 363 84 589 116 99 14 185 27 192 30 14 5 33 -78 36
-161 l2 -58 -39 -8 c-22 -5 -44 -12 -50 -17 -6 -5 -39 -11 -74 -13 -67 -5 -89
-17 -78 -44 5 -14 15 -15 59 -10 28 4 84 18 123 32 39 13 74 24 77 24 9 0 8
-117 -1 -185 -6 -42 -11 -51 -29 -53 -29 -4 -30 20 -3 55 26 34 25 55 -4 82
-32 30 -58 24 -68 -16 -11 -41 -35 -57 -117 -78 -36 -9 -92 -29 -126 -44 l-60
-28 -231 10 c-258 11 -286 7 -292 -46 -3 -23 0 -27 22 -27 14 0 28 5 31 10 8
12 315 14 315 1 0 -4 -21 -11 -47 -14 -194 -25 -400 -60 -411 -71 -7 -7 -10
-20 -6 -31 6 -15 16 -17 73 -12 36 3 196 31 354 61 223 43 483 86 521 86 2 0
-7 -28 -19 -63 -13 -34 -26 -88 -30 -120 l-7 -57 -52 -15 c-173 -50 -638 -150
-749 -162 -48 -5 -61 -3 -68 10 -5 8 -22 18 -38 22 -23 5 -30 13 -36 42 -6 31
-9 34 -31 29 -23 -6 -24 -5 -21 41 2 43 0 48 -21 51 -17 3 -25 -2 -29 -18 -5
-21 -7 -20 -19 9 l-13 31 -38 -20 c-20 -11 -38 -18 -40 -17 -1 2 3 18 9 35 11
29 10 37 -12 77 -27 50 -38 53 -113 30 -26 -8 -132 -19 -235 -25 -351 -20
-509 -37 -553 -61 -26 -13 -689 -2 -689 12 0 5 9 9 20 9 24 0 26 16 5 36 -8 9
-15 27 -15 42 0 15 -3 37 -6 49 -5 18 -1 22 23 25 33 4 39 31 7 36 -17 2 -21
10 -20 40 1 46 -28 58 -44 18 -5 -14 -16 -26 -24 -26 -8 0 -54 20 -104 45
-100 50 -192 128 -192 163 0 15 -6 22 -20 22 -17 0 -20 -7 -20 -40 0 -35 7
-48 45 -89 45 -48 143 -107 218 -131 48 -15 67 -35 67 -69 0 -15 5 -32 12 -39
47 -47 -113 37 -221 116 -52 38 -61 39 -61 11 0 -33 75 -94 177 -147 64 -32
93 -53 93 -64 0 -24 -4 -23 -97 17 -83 36 -138 45 -131 23 7 -19 72 -54 168
-88 91 -34 100 -41 100 -82 0 -25 -4 -28 -31 -28 -17 0 -39 -5 -50 -11 -17 -9
-33 -1 -104 50 -99 72 -115 80 -115 55 0 -26 85 -103 165 -149 41 -24 76 -52
87 -71 26 -44 48 -50 71 -22 18 23 19 22 13 -58 -3 -46 -13 -98 -22 -118 -17
-35 -17 -36 4 -59 26 -28 28 -64 6 -96 -15 -21 -15 -29 1 -98 17 -73 43 -113
72 -113 7 0 13 11 13 27 l0 27 16 -22 c21 -31 41 -28 64 11 24 38 26 85 5 93
-8 4 -15 10 -15 15 0 21 66 32 245 39 105 4 285 19 400 34 116 14 298 33 405
41 220 18 260 26 260 57 0 20 -3 21 -120 14 -131 -8 -162 4 -62 24 93 19 101
21 113 36 19 23 -17 29 -96 15 -131 -22 -199 -44 -210 -68 -5 -13 -15 -25 -22
-28 -7 -2 -197 -23 -421 -45 -224 -22 -419 -42 -434 -45 -27 -4 -28 -3 -28 43
0 26 -10 91 -22 145 -21 94 -23 98 -48 95 -23 -3 -25 0 -24 37 1 57 11 92 30
99 9 3 217 10 462 16 605 13 590 11 714 66 57 24 117 44 135 44 44 0 51 18 13
32 l-32 10 43 29 c24 15 44 27 46 25 2 -2 -3 -29 -10 -62 -10 -45 -18 -60 -33
-62 -36 -6 -74 -24 -74 -37 0 -14 24 -36 64 -55 42 -22 53 -53 33 -95 -18 -38
-33 -43 -63 -20 -18 14 -18 16 -1 29 39 30 2 65 -48 46 -49 -19 -41 -80 15
-112 23 -13 30 -24 30 -47 0 -33 32 -63 58 -54 12 5 14 1 10 -15 -4 -16 6 -34
41 -70 39 -40 57 -52 100 -61 64 -14 141 -14 161 -1 13 9 12 12 -4 25 -11 8
-36 15 -55 15 l-36 1 25 13 c14 8 86 27 160 44 124 28 837 172 921 186 l36 6
7 -46 c3 -26 6 -95 6 -154 l0 -108 -27 -11 c-28 -11 -35 -15 -103 -58 -45 -28
-143 -53 -245 -63 -44 -4 -111 -15 -150 -23 -38 -9 -178 -30 -310 -47 -131
-17 -255 -34 -275 -40 -19 -5 -66 -12 -104 -16 -58 -6 -74 -12 -105 -39 -20
-18 -53 -40 -73 -48 l-37 -16 6 44 c3 25 1 50 -5 57 -18 23 -24 94 -11 137 15
49 0 74 -40 69 -26 -3 -26 -3 -25 -93 0 -49 4 -113 8 -141 8 -46 6 -53 -12
-63 -23 -12 -201 -36 -387 -51 -71 -6 -134 -16 -140 -21 -19 -19 19 -30 90
-25 39 3 126 8 193 12 l124 7 -4 -23 c-3 -25 -38 -36 -196 -62 -67 -11 -75
-11 -83 5 -13 23 -35 21 -52 -3 -17 -24 -123 -40 -289 -44 -55 -1 -103 -7
-111 -14 -7 -6 -65 -18 -128 -27 -63 -8 -139 -19 -168 -25 -85 -16 -101 -14
-101 14 0 31 -57 156 -71 156 -8 0 -10 -12 -6 -35 5 -31 3 -35 -15 -35 -11 0
-36 9 -54 21 -30 18 -34 26 -34 64 0 23 7 62 15 85 19 54 19 57 -5 63 -17 4
-20 14 -20 59 0 29 -3 63 -6 76 -9 33 -32 27 -38 -10 -42 -299 -84 -498 -105
-498 -4 0 -30 7 -57 15 -27 8 -66 15 -86 15 -35 0 -38 -2 -38 -29 0 -16 4 -41
9 -54 8 -22 7 -24 -10 -20 -10 3 -26 3 -34 -1 -14 -5 -14 -9 -1 -34 20 -39 44
-58 57 -45 7 7 25 5 57 -7 26 -10 73 -28 106 -40 46 -18 60 -20 66 -10 11 18
4 36 -38 94 -25 36 -29 47 -16 41 11 -4 31 -10 47 -13 27 -4 27 -4 27 52 0 31
4 56 8 56 12 0 37 -30 46 -54 4 -12 13 -17 26 -13 11 3 20 1 20 -4 0 -5 35 -9
79 -9 57 0 82 4 91 15 7 8 29 19 49 25 61 16 322 52 329 45 10 -10 7 -240 -4
-315 -11 -76 6 -68 -208 -105 -160 -27 -199 -40 -204 -68 -5 -24 25 -22 178 7
176 35 206 36 226 8 18 -27 28 -23 -136 -52 -180 -31 -185 -32 -188 -58 -3
-22 -1 -22 111 -22 122 0 147 4 147 25 0 21 36 26 229 32 l183 6 -7 -34 c-4
-19 -13 -48 -20 -66 l-14 -32 -50 21 c-28 12 -53 19 -57 15 -9 -8 78 -107 94
-107 27 0 70 57 88 116 10 32 21 63 26 69 5 5 81 13 171 17 231 10 286 23 287
67 0 11 -12 12 -57 6 -32 -4 -89 -11 -128 -15 -38 -5 -116 -9 -172 -10 l-102
0 6 33 c13 71 -9 65 332 88 l164 11 19 -24 19 -23 16 23 c12 17 25 22 59 22
58 0 94 15 94 39 0 21 -18 31 -57 31 -25 0 -26 0 -8 20 17 18 17 20 1 20 -9 0
-33 -7 -54 -16 -20 -9 -75 -18 -122 -21 -47 -2 -103 -11 -124 -19 -24 -9 -94
-18 -179 -21 l-140 -6 6 24 c3 13 9 100 13 192 6 160 8 169 28 177 12 4 107
13 212 20 104 6 202 16 218 21 16 5 30 8 31 7 21 -27 25 -50 10 -70 -21 -31
-19 -71 6 -94 21 -19 21 -18 45 9 26 31 30 47 12 47 -7 0 -2 7 10 16 12 8 22
22 22 31 0 28 124 184 164 205 24 13 25 15 -36 -62 -56 -71 -136 -194 -160
-247 -12 -26 -24 -51 -26 -55 -2 -5 11 -8 30 -8 18 0 41 -7 52 -15 29 -22 50
-4 96 83 38 74 98 156 86 119 -3 -9 -8 -46 -12 -82 -5 -52 -4 -65 7 -65 8 0
-2 -8 -21 -18 -42 -21 -50 -52 -20 -80 13 -12 17 -22 11 -26 -16 -11 -68 -106
-101 -190 -32 -80 -34 -126 -5 -126 8 0 15 -1 15 -3 0 -2 -5 -28 -10 -59 -12
-66 -1 -108 29 -108 28 0 45 34 29 59 -26 41 38 226 122 355 60 92 78 105 45
32 -14 -31 -36 -80 -49 -109 -60 -133 -95 -304 -66 -322 28 -17 73 26 50 49
-18 18 -11 65 21 144 35 90 120 253 155 299 25 33 62 59 71 50 2 -3 -16 -40
-41 -84 -72 -124 -158 -329 -163 -394 -9 -97 35 -131 78 -61 l21 32 -27 0
c-25 0 -26 2 -20 32 7 32 24 76 76 198 47 108 156 285 178 288 12 2 21 0 21
-3 0 -4 -20 -44 -45 -89 -52 -95 -90 -192 -114 -291 -15 -58 -21 -71 -40 -73
-16 -3 -21 -9 -19 -25 4 -26 9 -26 185 -8 143 14 178 23 209 52 18 17 37 22
98 24 72 3 77 4 109 39 30 32 40 36 83 37 27 0 65 5 84 12 28 10 36 19 47 55
6 24 23 57 37 73 31 37 33 79 5 105 -33 30 -41 51 -28 76 22 44 62 78 91 78
15 0 28 -1 28 -2 0 -2 -15 -79 -34 -173 -45 -225 -52 -270 -38 -261 15 9 42
100 86 286 52 224 58 245 81 248 43 5 48 -9 57 -165 17 -341 42 -522 74 -553
18 -16 18 -33 -7 215 -5 50 -12 206 -15 347 l-7 257 24 5 c13 3 277 13 586 22
671 18 765 24 771 43 4 12 -34 13 -259 8 -145 -4 -456 -10 -690 -14 l-426 -6
-6 24 c-4 13 -6 78 -5 144 l2 120 3 -102 c3 -82 7 -103 18 -103 12 0 15 22 15
130 l0 130 36 0 c30 0 34 3 25 14 -9 11 -2 14 39 19 28 3 79 4 114 0 38 -3 85
-1 117 7 29 7 69 13 89 12 19 -1 42 3 50 8 35 23 -20 30 -242 30 l-226 0 -6
63 c-2 34 -10 121 -15 192 -14 165 -58 517 -72 570 -5 22 -17 74 -24 115 -13
63 -13 77 -1 88 12 12 16 8 26 -24 17 -55 38 -84 59 -84 21 0 31 35 31 106 0
51 -16 58 -32 13 -12 -35 -28 -23 -28 22 0 14 -6 34 -14 44 -12 17 -17 18 -41
7 -15 -7 -29 -11 -31 -10 -6 7 -44 285 -43 323 0 22 9 58 19 80 l19 40 0 -68
c1 -81 12 -107 42 -100 19 5 20 11 15 57 -17 150 -17 233 -2 304 16 72 16 75
-5 103 -25 35 -55 53 -64 39 -4 -6 -1 -32 5 -58 11 -43 10 -52 -14 -107 -23
-50 -26 -68 -20 -112 l6 -52 -54 -54 c-97 -98 -170 -121 -408 -133 -69 -3
-219 -21 -333 -40 -193 -31 -257 -35 -257 -14 0 5 6 10 13 13 9 3 7 13 -7 41
-17 31 -17 40 -6 61 11 20 11 30 0 56 -12 27 -11 36 5 65 15 29 16 40 7 73 -7
21 -12 48 -12 60 0 28 -26 38 -49 17 -31 -28 -56 -20 -67 22 l-10 39 195 27
c108 14 261 33 341 41 184 20 498 71 564 93 32 11 52 24 54 35 4 20 -30 23
-74 7 -41 -16 -535 -64 -914 -89 -141 -10 -229 -4 -202 13 17 10 342 41 642
60 420 27 533 37 554 48 46 25 -22 27 -330 13 -278 -13 -402 -21 -786 -52 -74
-6 -78 -5 -78 15 0 16 8 21 38 26 77 12 434 46 637 61 380 28 425 36 425 71 0
13 -7 15 -32 11 -56 -10 -233 -26 -473 -42 -126 -9 -292 -23 -369 -31 -265
-27 -280 -9 -21 25 338 45 516 62 827 79 76 5 140 11 144 14 51 51 -521 26
-984 -42 -176 -26 -212 -26 -212 0 0 10 9 24 19 30 42 22 504 73 821 90 193
10 230 16 230 33 0 7 -76 8 -237 4 -263 -7 -431 -19 -598 -43 -129 -18 -188
-16 -193 7 -2 14 12 17 95 22 107 6 329 52 353 74 12 11 10 13 -15 12 -17 -1
-73 -8 -125 -15z m-517 -154 c-56 -6 -82 -15 -118 -39 l-46 -31 -172 0 c-95 0
-246 -5 -337 -11 -220 -15 -304 -16 -308 -4 -4 15 240 43 438 50 96 3 207 13
245 20 110 22 113 22 245 22 113 0 118 0 53 -7z m-1067 -7 l139 -7 -90 -12
c-49 -6 -136 -17 -193 -24 -83 -11 -142 -12 -314 -2 -116 6 -215 15 -220 20
-6 6 26 12 89 16 54 4 109 8 123 10 53 6 333 6 466 -1z m847 -110 l107 -6 0
-28 c0 -18 -7 -32 -20 -39 -28 -15 -25 -33 10 -58 62 -46 57 -47 -388 -49
-444 -2 -474 2 -270 38 61 10 114 21 116 24 2 2 2 11 -1 19 -8 21 -66 35 -202
47 -66 5 -124 11 -130 13 -11 3 386 35 485 39 149 7 192 7 293 0z m-771 -395
c3 -22 7 -23 103 -23 55 0 151 4 213 9 106 8 112 8 112 -10 0 -17 49 -74 64
-74 11 0 6 66 -6 78 -18 18 -1 20 232 27 118 3 229 8 246 11 21 4 36 1 48 -11
22 -22 11 -33 -38 -37 -22 -2 -41 -8 -43 -14 -6 -19 26 -44 60 -46 19 -1 10
-4 -23 -7 -72 -8 -73 -28 -2 -51 29 -10 55 -20 58 -23 14 -14 -10 -25 -66 -31
-56 -6 -61 -9 -58 -29 3 -19 10 -22 59 -25 53 -3 56 -4 52 -26 -3 -13 0 -27 6
-30 19 -12 13 -65 -9 -78 -22 -14 -28 -58 -7 -58 29 -1 -21 -18 -68 -24 -43
-5 -46 -4 -22 5 26 10 38 39 17 39 -21 0 -8 16 22 28 24 9 29 15 21 23 -9 9
-52 6 -170 -12 -147 -22 -193 -24 -675 -27 -285 -2 -518 -2 -518 0 -1 2 -5 87
-10 189 -5 102 -12 198 -15 212 l-7 26 143 4 c79 1 174 4 211 5 62 2 67 1 70
-20z m173 -479 c-49 -10 -128 -23 -175 -28 -96 -13 -420 -27 -420 -19 0 3 5
19 11 37 l11 31 331 -1 332 -1 -90 -19z m2280 -864 c4 -224 3 -388 -3 -415
l-10 -45 -1 56 c-1 31 -8 78 -16 105 -8 27 -18 101 -21 165 -7 111 -6 118 15
135 26 23 27 50 1 57 -12 3 -20 14 -20 25 0 34 -11 52 -31 52 -10 0 -19 -5
-19 -11 0 -5 -4 -7 -10 -4 -14 8 -13 48 2 63 9 9 7 16 -7 32 -21 23 -24 124
-6 173 10 25 15 28 39 22 21 -4 33 0 48 16 l19 21 7 -38 c4 -22 10 -205 13
-409z m-1865 205 c177 -1 171 -16 -10 -27 -58 -3 -108 -10 -111 -15 -6 -10
-234 -20 -690 -33 l-225 -6 -11 47 -11 46 452 -6 c248 -3 521 -6 606 -6z m530
-145 c-6 -51 -8 -104 -5 -118 8 -30 32 -42 51 -26 11 9 14 5 14 -20 0 -33 -21
-48 -93 -66 -22 -6 -27 -4 -27 12 0 11 9 28 20 38 19 17 27 45 13 45 -3 0 -14
-7 -24 -16 -15 -14 -14 -6 6 51 29 78 31 103 10 111 -20 8 -19 30 1 38 12 5
15 14 11 35 -5 23 -2 30 11 33 24 5 26 -12 12 -117z m1145 60 c0 -18 -20 -24
-175 -57 -96 -21 -314 -69 -485 -108 -170 -39 -320 -73 -332 -75 -29 -7 -29 7
-2 80 15 40 25 55 40 55 14 0 19 -7 19 -30 0 -27 3 -30 33 -30 38 1 303 57
607 128 300 70 295 69 295 37z m55 -70 c22 -27 19 -27 -251 -75 -96 -17 -296
-55 -446 -85 -242 -49 -319 -62 -288 -49 6 2 80 20 165 40 491 113 632 146
695 163 87 24 109 25 125 6z m54 -508 c8 -12 19 -54 24 -94 8 -70 8 -71 -12
-61 -12 7 -51 8 -103 4 -46 -3 -83 -4 -83 -1 0 2 14 20 31 39 21 24 42 37 67
41 75 12 82 15 82 35 0 13 -9 22 -25 26 -25 6 -31 15 -18 27 11 12 22 8 37
-16z m-302 -155 l36 -19 -76 -11 c-43 -7 -140 -19 -217 -27 -159 -17 -192 -23
-217 -39 -22 -14 -23 -34 -1 -58 20 -23 29 -23 36 0 5 23 30 28 185 42 64 6
158 17 207 25 50 7 146 19 215 26 69 6 135 15 148 20 21 8 22 6 21 -34 -2 -73
-11 -91 -49 -97 -29 -4 -36 -10 -38 -31 -3 -30 -23 -39 -84 -39 -20 0 -49 -5
-63 -12 -21 -9 -31 -9 -46 1 -17 10 -28 8 -72 -13 -66 -33 -178 -61 -320 -82
-67 -9 -124 -24 -143 -35 -40 -24 -42 -24 -46 8 -5 40 -20 38 -74 -9 -27 -24
-58 -50 -69 -58 -17 -13 -17 -12 3 17 47 66 20 71 -50 8 -55 -49 -95 -66 -108
-45 -14 23 10 59 39 57 26 -2 26 -2 32 94 4 53 12 113 19 133 26 81 -12 87
-90 14 -31 -29 -25 -22 12 15 38 37 79 72 92 77 13 4 145 22 293 39 148 18
290 35 314 40 65 13 72 13 111 -7z m-1706 -337 c-4 -14 -1 -78 5 -142 12 -135
6 -198 -20 -213 -23 -12 -328 -47 -336 -38 -4 3 -1 23 5 45 7 21 15 102 19
180 3 82 11 147 17 153 12 12 191 37 273 39 41 1 43 0 37 -24z m1414 -130 c0
-2 -20 -33 -45 -69 -57 -81 -118 -204 -140 -280 -9 -32 -26 -67 -36 -77 -24
-24 -52 -25 -45 -1 3 9 10 37 16 61 27 105 163 355 198 364 24 7 52 8 52 2z
m171 -76 c-55 -104 -85 -201 -78 -255 l5 -44 -45 0 c-24 0 -58 -7 -74 -16 -17
-8 -33 -13 -36 -11 -8 8 55 127 112 212 67 99 145 198 151 192 3 -2 -13 -38
-35 -78z m149 9 c0 -15 -112 -222 -133 -245 -16 -18 -22 -20 -32 -9 -22 21 35
177 91 253 22 29 27 31 49 21 14 -6 25 -15 25 -20z m-1750 -238 c0 -6 -7 -26
-14 -45 l-15 -35 -135 0 -136 0 0 25 c0 33 24 43 130 54 123 12 170 12 170 1z"/>
<path d="M7088 4343 c-19 -5 -31 -30 -22 -45 4 -6 24 -7 48 -4 22 3 102 11
176 17 141 11 161 16 139 30 -14 9 -309 11 -341 2z"/>
<path d="M13431 3904 c-56 -63 -113 -119 -126 -124 -44 -17 -41 -69 4 -70 36
0 251 256 251 299 0 30 -36 0 -129 -105z"/>
<path d="M13550 3730 c-73 -77 -137 -140 -141 -140 -5 0 -20 22 -34 49 -42 85
-72 83 -37 -2 27 -65 27 -61 -3 -91 -40 -40 -33 -56 24 -56 l49 0 7 -50 c6
-47 5 -53 -24 -85 -35 -41 -37 -48 -16 -65 13 -11 20 -11 40 0 14 7 26 11 28
9 37 -45 37 -52 11 -80 -30 -31 -27 -59 6 -59 11 0 39 17 61 38 46 40 182 215
201 257 25 56 -9 35 -97 -58 l-92 -99 -12 45 -13 45 55 73 c49 67 87 129 87
144 0 3 -7 5 -15 5 -8 0 -36 -27 -62 -60 -42 -55 -48 -59 -63 -45 -22 20 -40
19 -40 -2 0 -14 -2 -14 -20 2 -21 19 -20 19 33 74 145 150 246 291 209 291 -5
0 -70 -63 -142 -140z"/>
<path d="M8599 3786 c-2 -2 -65 -12 -139 -21 -170 -20 -180 -22 -180 -40 0 -7
16 -29 35 -47 19 -18 43 -48 53 -67 18 -37 52 -59 37 -25 -4 11 -10 31 -13 46
-2 15 -10 33 -18 39 -23 19 -16 27 29 34 163 25 307 60 307 75 0 9 -102 15
-111 6z"/>
<path d="M3181 3662 c-7 -5 -11 -16 -9 -23 3 -10 25 -14 74 -15 38 0 164 -4
279 -9 207 -8 305 -3 305 16 0 5 -42 9 -92 9 -51 0 -149 5 -218 10 -229 18
-325 21 -339 12z"/>
<path d="M4525 3353 c-290 -6 -620 -38 -668 -65 -21 -11 -21 -12 13 -19 19 -4
82 -1 140 6 148 19 351 33 592 41 170 6 210 4 224 -7 25 -20 181 -17 202 5 9
8 12 19 8 23 -18 19 -178 24 -511 16z"/>
<path d="M5344 3195 c-12 -67 0 -147 30 -191 23 -36 28 -57 35 -143 4 -56 11
-104 14 -108 16 -15 22 15 25 122 3 105 2 116 -23 165 -15 29 -32 82 -39 118
-14 75 -32 91 -42 37z"/>
<path d="M5907 3143 c-15 -15 -5 -51 21 -75 70 -67 273 -154 339 -146 57 6 30
32 -73 69 -147 53 -153 58 -69 59 39 0 76 4 84 9 20 13 4 31 -27 31 -15 0 -35
7 -45 15 -12 8 -31 11 -52 8 -27 -4 -35 -1 -44 16 -10 18 -21 21 -70 21 -32 0
-61 -3 -64 -7z"/>
<path d="M4395 2821 c-127 -7 -155 -13 -155 -31 0 -14 823 -7 827 7 2 6 -9 13
-24 17 -46 9 -508 15 -648 7z"/>
<path d="M5963 2409 c-5 -17 -11 -19 -32 -14 -48 13 -56 11 -59 -16 -2 -19 8
-39 36 -72 30 -35 38 -51 35 -71 -7 -35 9 -52 88 -91 36 -19 84 -51 105 -71
l39 -37 -23 -10 c-17 -8 -32 -7 -55 2 -18 7 -50 18 -72 25 -22 6 -46 15 -53
20 -17 11 -27 0 -41 -46 -7 -20 -19 -42 -27 -48 -19 -16 -18 -60 1 -60 18 0
18 14 -1 -213 -9 -103 -14 -194 -10 -202 3 -8 14 -15 25 -15 20 0 22 11 37
211 3 48 11 93 16 100 6 9 7 -10 2 -56 -5 -38 -8 -106 -9 -150 0 -75 1 -80 22
-83 26 -4 29 11 38 178 l6 115 37 32 37 33 -39 0 c-52 0 -40 9 30 24 61 12 80
30 42 39 -13 4 -54 20 -92 37 -50 23 -66 34 -58 42 8 8 31 2 82 -21 52 -24 78
-31 98 -26 42 10 52 24 52 71 0 38 -4 46 -43 78 -23 19 -68 50 -100 68 -51 29
-61 41 -88 97 l-29 64 47 -7 c76 -9 85 5 35 53 -47 45 -71 52 -79 20z"/>
<path d="M10655 2340 c-11 -19 7 -32 36 -26 16 3 52 1 81 -4 29 -5 253 -30
498 -55 412 -41 521 -56 656 -87 81 -18 142 8 71 31 -56 19 -373 60 -664 86
-153 14 -343 34 -423 45 -160 22 -246 25 -255 10z"/>
<path d="M4366 2265 c-111 -14 -140 -25 -118 -47 9 -9 52 -8 188 6 97 10 224
16 282 15 78 -3 106 -1 109 8 3 7 -7 17 -22 23 -36 14 -307 11 -439 -5z"/>
<path d="M7800 1866 c0 -19 9 -32 33 -46 27 -17 49 -20 147 -19 131 1 203 15
208 42 3 14 -5 17 -52 17 -31 0 -56 4 -56 10 0 6 -34 9 -82 7 -46 -1 -109 2
-140 6 -58 8 -58 8 -58 -17z"/>
<path d="M14385 1718 c28 -92 219 -328 266 -328 10 0 19 3 19 6 0 3 -34 44
-76 92 -41 47 -93 113 -114 147 -59 92 -70 105 -86 105 -11 0 -14 -6 -9 -22z"/>
<path d="M5801 1106 c-7 -8 -10 -20 -6 -26 11 -17 -25 -109 -57 -146 -31 -35
-58 -45 -58 -20 0 7 -10 26 -22 42 -16 20 -23 42 -23 73 0 46 -19 67 -29 33
-4 -11 -7 -45 -8 -76 -1 -54 0 -59 42 -101 l43 -44 38 20 c21 10 41 19 44 19
3 0 5 -15 5 -34 0 -43 31 -82 71 -90 60 -12 152 -111 219 -236 45 -83 65 -99
99 -78 45 28 14 85 -121 225 -62 64 -68 74 -57 92 10 15 10 25 1 46 -11 23
-10 32 3 51 20 31 19 34 -8 34 -31 0 -67 27 -67 50 0 14 5 18 17 13 13 -5 15
-2 10 11 -4 10 -7 26 -7 37 0 13 -7 19 -22 19 -36 0 -46 12 -50 55 -2 32 -7
41 -24 43 -11 2 -26 -4 -33 -12z"/>
<path d="M9140 1105 c-6 -8 -14 -31 -17 -52 -5 -41 34 -373 45 -385 4 -4 13
-4 19 0 17 11 18 364 1 415 -14 39 -28 46 -48 22z"/>
<path d="M9530 885 c0 -19 36 -25 229 -36 97 -5 188 -12 204 -15 32 -7 35 6 7
31 -21 19 -51 22 -292 29 -116 3 -148 1 -148 -9z"/>
<path d="M7588 768 c-32 -25 -32 -56 1 -88 16 -17 39 -30 50 -30 12 0 21 -6
21 -13 0 -22 -33 -46 -100 -72 -34 -13 -67 -31 -74 -40 -16 -21 -224 -36 -730
-52 -97 -3 -127 -1 -157 13 -32 14 -47 15 -106 5 -129 -22 -143 -28 -143 -61
0 -25 4 -29 40 -35 22 -4 42 -11 46 -16 11 -18 83 -12 354 31 30 5 154 16 275
25 306 22 433 33 560 50 137 19 135 19 135 -5 0 -11 14 -29 30 -42 17 -12 30
-27 30 -34 0 -29 28 -37 91 -25 69 14 100 2 50 -18 -31 -13 -46 -35 -35 -53 7
-12 43 -7 141 21 39 11 124 27 190 36 150 20 193 32 193 51 0 25 -25 27 -180
11 -83 -9 -162 -12 -177 -8 -26 8 -24 9 32 26 95 28 135 46 135 61 0 19 -8 18
-164 -21 -137 -34 -219 -44 -230 -26 -3 5 10 12 30 15 34 7 59 36 36 44 -6 2
-8 10 -5 18 8 22 -40 34 -141 34 -51 0 -96 3 -99 6 -4 4 1 20 10 35 17 29 17
29 -22 69 -37 38 -38 40 -21 59 10 11 15 25 11 30 -9 15 -58 14 -77 -1z"/>
<path d="M8846 659 c-141 -21 -358 -94 -370 -124 -3 -8 1 -19 9 -25 11 -9 42
-2 137 29 166 54 276 75 347 67 92 -10 125 31 43 54 -42 11 -82 11 -166 -1z"/>
<path d="M13120 531 c0 -5 11 -52 25 -105 30 -114 60 -177 115 -241 22 -25 45
-55 50 -66 15 -26 30 -24 30 5 0 14 -16 44 -37 68 -21 24 -46 64 -56 88 -11
25 -25 59 -32 75 -7 17 -28 65 -46 108 -29 67 -49 96 -49 68z"/>
<path d="M8860 434 c-146 -16 -281 -43 -624 -125 -250 -60 -291 -74 -316 -104
-32 -39 13 -33 325 46 449 112 430 109 640 119 217 11 290 24 290 55 0 18 -7
20 -95 22 -52 0 -151 -5 -220 -13z"/>
</g>
</svg>
