<?xml version="1.0" encoding="utf-8"?>
<!-- Generator: Adobe Illustrator 23.0.1, SVG Export Plug-In . SVG Version: 6.00 Build 0)  -->
<svg version="1.1" id="Слой_1" xmlns="http://www.w3.org/2000/svg" xmlns:xlink="http://www.w3.org/1999/xlink" x="0px" y="0px"
	 viewBox="0 0 1986 977" style="enable-background:new 0 0 1986 977;" xml:space="preserve">
<style type="text/css">
	.st0{fill:#403F40;}
</style>
<g transform="translate(0.000000,977.000000) scale(0.100000,-0.100000)">
	<path class="st0" d="M12185,9759c-189-44-688-303-714-371c-5-13-28-41-51-63c-53-50-70-89-70-158c0-40,6-63,23-88
		c13-19,26-42,30-51c3-10,14-18,23-18c10,0,48-14,86-32c80-36,89-55,63-126c-10-26-19-65-20-87c-2-22-7-75-11-118c-5-62-3-90,11-138
		c18-58,29-72,38-46c5,16,30-4,58-49c19-32,20-38,8-111c-7-43-18-95-25-115c-17-48-9-73,32-99c19-11,34-29,34-39c0-23,47-80,66-80
		c8,0,23,6,34,12c16,10,24,10,40,0c30-19,57-14,77,13l18,24l41-18c24-11,43-28,47-40c8-31,27-25,27,9c0,24-7,33-37,49l-38,19l28,6
		c15,3,38,8,52,11c42,9,28,25-22,25c-78,0-122,17-145,56c-11,19-24,34-29,34c-12,0-25,35-35,86l-6,39l44-42c24-24,57-68,73-98
		c32-59,45-68,45-33s-39,105-90,161c-41,45-90,131-90,158c0,5,9,9,19,9c18,0,51,34,51,52c0,3-10,10-22,14c-12,3-28,13-36,20
		c-7,8-22,14-31,14c-10,0-40,9-66,21c-33,15-57,19-81,15c-30-6-34-4-40,20c-8,32,27,206,51,258c15,32,19,34,32,20
		c21-20,81-50,119-58c18-4,60,0,98,8c78,18,89,19,81,7c-3-5-34-19-69-31c-69-23-92-41-82-65c6-17,39-13,86,10c58,29,70,23,16-7
		c-33-18-62-39-64-45c-9-29,33-23,113,15c48,24,87,37,91,31c8-14-46-62-95-84c-23-10-41-24-41-30c0-17,57-27,82-14c28,15,34,4,9-18
		c-20-17-28-53-15-66c4-3,16-1,27,4c15,8,22,8,28-2c15-23,30,11,24,51c-3,20-2,46,3,59c8,22,10,19,28-30c16-46,23-54,47-57
		c26-3,27-2,27,42c0,25-5,66-12,90c-11,40-10,47,7,66c14,16,29,20,59,18c41-3,41-3,63-68c34-99,29-105-31-42c-56,58-87,66-47,12
		c81-111,90-151,46-211c-13-19-32-44-41-56c-22-31-13-47,32-61c22-7,59-30,83-52c48-44,47-36,24-182c-4-31-2-38,11-38
		c22,0,33,33,47,139c10,80,9,101-10,195c-11,58-21,128-21,155c0,48,2,51,25,51c21,0,25,5,25,29c0,66,82,261,110,261c14,0,13-3-19-75
		c-17-36-35-65-40-65c-6,0-11-12-11-27c0-16-7-55-14-87c-9-36-11-67-6-80c5-12,11-33,14-48c5-21,19-34,59-54c28-15,54-30,55-35
		c6-14,52-10,58,5c9,22,44,7,44-19c0-36,10-55,30-55c14,0,20,12,26,57c10,64,31,81,40,33c4-20,15-35,29-40c46-18,60-59,59-177
		c-1-70-7-127-18-163c-9-30-21-73-26-96c-5-22-16-59-25-82c-14-35-23-44-56-52c-21-6-74-37-119-70c-44-33-83-60-86-60s-24,16-47,35
		c-63,54-140,89-182,82c-19-3-35-3-35,0c0,2,16,23,35,46c58,68,36,81-35,20c-45-39-42-17,4,26c25,24,35,51,18,51c-4,0-35-22-67-50
		c-55-46-77-59-175-104c-19-9-43-21-52-28c-17-12-16-13-91,28c-27,15-27,17-13,37c51,70,50,68,35,78c-8,5-40,9-71,9h-58v-44
		c0-34,7-53,34-87c18-24,36-53,40-65c9-30,52-49,105-47c25,1,105,5,178,8c128,7,133,6,192-20c33-15,67-36,77-46c16-17,13-22-55-96
		c-84-92-130-173-138-243l-6-51l84,6c97,7,124-2,96-33c-9-10-17-26-17-35s-4-19-10-22c-5-3-10,3-10,15c0,34-25,17-28-19
		c-2-18,3-43,12-55c8-13,20-52,26-87c16-91,19-99,40-99c24,0,27-12,36-160c11-191,12-260,3-260c-5,0-9,6-9,13c-1,6-5,56-9,110
		c-8,105-22,136-47,103c-12-18-14-7-14,97c0,93-3,117-14,117c-44,0-58-77-45-266c11-175,44-376,85-516c4-13-19-6-95,30
		c-56,26-101,52-101,59c0,6,14,52,30,101c17,50,30,104,30,122c0,27-3,30-21,25c-20-7-21-5-14,69l7,76l-41,45c-22,24-41,53-41,63
		s-6,24-12,31c-31,30-4,250,38,310l17,24l24-29c18-23,23-25,23-11c0,23-25,83-38,91c-22,13-46-10-77-76c-41-84-60-189-51-276
		c8-77,26-123,67-175c25-31,32-50,35-100c3-34,6-78,8-99c4-35,3-36-39-47c-74-18-120-108-113-216c4-71,31-114,62-102
		c21,8,20,37-1,52c-14,10-17,27-16,76c2,74,13,99,54,123c37,22,42,18,28-23c-7-19-10-76-7-140l3-109l-59-12c-53-10-116-33-173-64
		c-11-6-54-37-95-69c-40-31-93-73-118-92s-58-47-75-64c-29-29-92-54-280-111c-38-12-124-50-190-85c-137-72-162-80-298-96
		c-79-9-104-9-123,1c-28,15-114,0-174-30c-19-10-55-23-80-30s-62-21-82-31l-38-19l-232,44c-529,101-917,161-1113,171
		c-66,3-147,8-181,11l-61,6l14,51c32,120-11,239-97,266c-55,17-49,13-154,84c-110,74-173,103-261,121c-154,32-429,54-454,37
		c-8-5-11-16-7-26c6-15,15-17,73-11s65,5,54-8c-21-25-5-33,81-40c46-4,124-15,173-26c111-23,313-94,339-119c17-18,17-21,1-77
		c-23-80-49-128-79-148c-29-19-116-34-116-19c0,5,21,29,46,53c49,49,104,126,104,147c0,25-27,13-51-23c-13-19-59-64-102-100
		c-84-68-124-88-57-28c22,20,40,40,40,45c0,13-31,11-49-4c-29-24-139-87-152-87c-7,0,16,29,49,64c58,61,74,86,53,86
		c-5,0-46-28-92-61c-79-59-121-79-164-79c-16,0-11,9,25,41c85,77,150,142,150,151c0,22-40,2-109-54c-42-34-85-69-96-77
		c-10-9,0,6,23,33c36,42,55,86,36,86c-3,0-32-23-64-51c-101-90-156-113-95-41c14,17,25,35,25,41c0,17-34,13-52-6c-9-10-35-31-58-48
		c-23-16-52-40-65-52c-22-23-45-30-45-15c0,4,20,28,45,52c42,41,59,80,34,80c-5,0-36-18-69-40c-43-29-60-48-65-70c-4-16-8-30-10-30
		c-9,0-156,73-160,80c-3,4,6,15,20,24c18,12,25,25,25,50c0,22,10,46,30,71c17,21,30,44,30,52c0,25-51,6-87-32c-26-28-33-31-33-16
		c0,22,34,67,63,83c12,7,58,22,102,33c73,20,80,24,83,48c2,18,13,32,33,42c16,9,29,23,29,32c0,12-8,15-39,10c-50-6-71,14-104,102
		c-33,90-51,93-45,8c3-49,10-75,31-105l26-41l-56-16c-112-33-210-103-214-153c-1-9-2-28-3-42c-1-21-8-27-46-36c-52-12-58-24-59-130
		l-1-71l-77-6c-78-5-339,6-348,15c-8,7,54,122,86,161l29,35l184,4c101,1,188,7,192,11c17,17-22,25-145,32l-127,7l4,66
		c3,66,26,125,74,195c19,26,19,27,1,28c-10,0,6,10,35,21c51,20,68,38,36,38c-9,0-42-6-73-14c-85-21-141-29-141-19c0,5,15,27,34,49
		c27,31,47,43,99,58c37,10,72,25,79,34c12,14,7,15-37,9c-27-3-59-9-69-13c-16-6-18-4-12,12c15,40,73,128,117,177c39,44,49,50,62,39
		c8-7,18-28,21-47c4-19,16-39,26-45c11-6,29-30,41-53s27-49,35-57c7-9,23-45,36-80c18-50,28-66,44-68s23,4,28,24c9,34-3,182-17,209
		c-17,36-50,65-72,65c-15,0-32,16-56,53c-68,104-69,112-22,174c30,39,24,53-43,112c-83,73-105,46-24-28l51-47l-25-23l-25-24l-30,31
		c-45,45-109,66-179,59c-31-3-65-8-74-12c-14-5-18-2-18,14c0,31-36,27-93-9c-56-35-59-36-74-10c-16,24-9,42,25,67
		c58,43,117,66,182,70c36,3,72,7,80,9c29,10-22,34-72,34c-52,0-60,10-27,34c19,13,30,11,117-20c54-18,112-34,130-34s41-4,50-9
		c41-22,181-171,213-226c34-59,34-61,35-185c1-134,9-165,49-180c15-6,26-20,30-42c17-75,54-123,78-99c6,6,21-7,41-37
		c23-35,37-47,56-47c18,0,26,6,28,23c4,24,21,29,39,11c8-8,17-5,33,11c22,22,27,23,159,17c134-7,185,1,152,22c-13,8-45,12-226,27
		c-87,8-80,22,11,23c86,1,144,12,144,27c0,11-25,14-120,14c-119,0-120,0-120,23s4,24,96,30c53,4,101,4,106,1s6-14,3-25
		c-9-26,24-26,58,1c14,11,38,20,54,20c39,0,103,19,103,30c0,6-18,10-39,10c-22,0-47,3-56,6c-14,6-14,8,1,25c10,11,35,22,56,25
		c44,8,49,20,13,36c-14,6-25,16-25,22c1,6,20,47,43,90c35,67,48,82,76,91c41,13,50,31,22,40c-12,3-21,10-21,15c0,21,73,194,100,237
		c18,28,29,58,28,74c-1,15,6,36,15,47c9,10,17,24,17,30c0,44-105-38-216-168c-38-44-75-80-82-80c-10,0-8,8,6,28
		c38,52,199,241,235,275c39,36,49,77,21,77c-21,0-165-140-229-224c-27-35-56-67-63-70c-15-7,168,214,250,301c32,34,58,67,58,74
		c0,26,18-7,44-78c38-108,94-332,105-423c6-44,15-88,19-98c15-28,21-78,32-277c19-346,36-446,75-461c29-12,38,10,26,67
		c-6,30-15,153-21,274c-21,445-53,653-145,958c-36,120-72,232-80,248c-10,19-13,42-9,67c5,33,3,40-14,44c-14,4-19,12-15,29
		c3,18-2,27-19,34c-12,6-33,26-45,45c-63,99-256,352-308,405c-44,45-87,75-162,113c-130,67-260,116-346,132c-56,10-71,18-92,43
		l-24,32l-31-30l-30-29l-38,37c-47,46-81,56-153,47c-76-11-323-111-327-133c-6-29,45-20,168,29c63,25,138,48,166,51
		c49,5,52,4,104-42c50-44,55-46,94-41c61,10,306-51,306-75c0-5-13-35-29-67c-41-82-93-227-136-377c-20-71-41-139-45-150
		c-8-18-9-18-9,6c-1,40,64,295,104,404c49,135,60,173,52,181c-13,13-41-22-73-92c-34-76-98-265-109-327c-4-21-9-36-12-33
		c-11,11,48,249,81,323c20,45,36,86,36,92c0,20-29,11-46-15c-39-58-120-319-159-507c-4-20-11-27-23-25c-26,5-18,63,44,305
		c30,117,54,218,54,223c0,6-6,10-14,10c-25,0-111-270-146-459c-18-93-18-94-19-41c-1,67,39,282,68,365c30,85,26,143-7,102
		c-33-40-102-295-118-437c-8-77-20-114-34-105c-29,18,20,341,76,499c50,143,48,136,31,136c-27,0-54-47-86-148c-40-126-71-282-80-405
		c-7-92-21-131-38-113c-11,11-5,166,12,277c12,81,35,182,62,272c4,11,0,17-11,17c-47,0-103-235-121-510l-7-95l-56-42
		c-47-35-58-39-60-24c-2,9,2,30,7,44c10,27,11,27,36,11c23-15,25-15,31,0c4,10,1,44-6,77c-16,76-8,276,15,377c11,50,28,87,51,117
		c40,54,42,65,10,65c-44,0-99-101-122-225c-7-37-7-38-16-15c-13,34-3,152,16,189c21,39,20,41-9,41c-15,0-31-9-41-25
		c-14-21-15-43-9-152c14-237,3-472-23-519c-4-7-6,47-4,119c2,95-1,153-13,207c-41,191-47,234-37,266c6,20,6,36,0,42
		c-10,10,30,36,137,90c78,39,148,59,235,68c74,7,87,18,43,35c-68,26-251-25-413-116c-27-15-48-21-53-16c-14,14,1,61,18,61
		c8,0,15,6,15,14c0,18-273,165-483,260c-92,42-230,107-305,145c-156,78-266,115-497,166c-262,59-382,91-535,145
		c-188,67-402,119-515,127c-130,8-244-11-435-73c-91-29-199-58-240-64c-41-7-127-25-190-41s-160-35-215-44
		c-409-61-1149-366-1275-525c-18-22-53-52-78-67c-95-53-152-94-152-108c0-17,31-20,46-6c34,35,524,280,829,417c66,30,140,65,165,78
		c105,56,328,136,415,149c55,8,34-2-129-63c-76-28-188-74-250-102c-160-74-419-216-471-258c-11-10-46-32-78-51s-75-44-95-56
		s-100-48-177-79c-315-128-475-209-475-239c0-26,29-17,134,39c102,55,346,160,353,152c4-4-247-163-273-173c-7-2-17,5-23,16
		c-10,19-14,17-64-32c-41-42-73-61-157-96c-240-101-409-194-390-215c11-10,95,22,190,72c134,71,158,75,95,17
		c-104-95-173-141-334-221c-162-80-240-134-195-134c11,0,62,20,113,45s94,45,97,45s0-9-6-20c-15-27-140-130-159-130
		c-20,0-250-113-284-140c-15-12-27-28-27-35c0-19,31-8,153,50c54,26,101,45,103,42c5-5-81-123-125-170c-14-16-56-47-93-68
		c-80-47-87-64-23-56l44,7l-10-27c-26-69-44-84-161-145c-72-36-126-71-140-89c-13-16-36-45-51-64c-19-23-28-43-26-62
		c4-38-5-50-44-58c-40-9-57-22-57-45c0-24,18-29,53-17c15,5,31,7,34,4c3-4-15-37-39-74c-25-37-69-112-98-165c-54-98-59-103-115-99
		c-60,3-75,10-75,36c0,33-16,40-45,21c-51-33-17-78,72-97c32-7,62-15,66-19c5-5-23-82-61-172C17,5784-20,5660,9,5660
		c10,0,19,21,76,175c36,95,140,315,150,315c2,0-5-19-15-42c-26-58-25-72,11-113c30-34,62-45,74-25c9,15,45,12,45-3c0-8-17-40-38-73
		c-21-32-56-90-77-129c-21-38-49-88-63-109c-34-54-131-259-153-325c-21-59-25-121-9-121s50,38,50,56c0,65,112,303,256,545
		c94,157,129,199,167,199c16,0,10-11-32-55c-41-43-52-61-49-82c4-34,38-53,96-53c23,0,42-3,42-6s-50-89-112-192
		c-193-324-312-572-295-616c16-42,56-1,72,74c15,73,126,293,254,505c72,121,139,226,148,233c20,14,139,16,148,2c3-6-19-50-49-100
		c-31-49-56-92-56-96c0-3-11-20-24-37c-13-18-51-81-84-142c-214-395-261-496-277-595c-3-25-9-53-11-62c-4-13,0-18,15-18s23,10,31,43
		c48,191,212,525,414,844c39,61,78,125,88,142c9,16,35,41,58,56c36,23,41,30,38,58c-3,32-2,32,42,33c28,0,117,26,240,68
		c211,74,255,93,284,124c16,19,197,84,332,121c46,12,70,34,59,52c-12,18-88,4-220-41c-290-99-554-167-591-153c-11,4-11,10-2,26
		c24,45,115,130,180,168c37,22,69,43,73,48c3,5,48,30,102,55c113,55,153,82,153,103c0,23-59,13-315-56c-121-32-221-57-223-56
		c-12,10,130,208,168,235c61,43,418,156,762,240c254,62,248,61,248,71c0,36-441-68-854-201c-54-17-100-29-103-27
		c-9,10,70,120,165,228c40,46,109,72,402,154c199,56,230,68,230,86c0,15-20,11-239-51c-117-33-246-67-288-75c-41-9-85-22-98-31
		c-37-24-343-130-351-121c-2,1,23,38,54,82c56,77,59,80,139,111c45,18,139,51,210,75c70,23,156,53,191,66c72,27,348,103,587,160
		c88,21,159,43,157,48c-4,16-46,11-256-34c-289-61-403-92-665-181c-128-44-235-80-238-80c-8,0,78,117,105,142c15,14,61,37,102,53
		c321,117,524,189,617,215c59,18,116,36,126,41c21,12,22,29,1,29c-28,0-325-89-541-162c-116-40-215-69-219-66
		c-15,16,122,171,176,198c102,51,704,233,976,295c40,9,80,22,90,30c45,33-26,22-296-45c-308-77-387-99-673-192
		c-103-34-190-58-193-55c-10,10,44,75,84,102c63,41,673,257,1021,361c150,45,513,144,528,144c1,0,3,5,3,10c0,19-51,10-272-45
		c-326-81-536-146-1047-324c-80-28-147-48-150-45c-7,7,58,66,157,141c62,48,101,66,270,130c373,140,617,214,996,302
		c157,36,126,57-39,26c-209-40-683-175-915-262c-49-18,89,67,305,188c86,48,464,167,841,264c117,30,214,55,218,55c3,0,6,5,6,11
		c0,8-18,10-61,5c-67-8-366-80-526-127c-57-17-108-29-115-27c-26,9,507,286,650,338c124,45,210,66,373,89c245,35,376,43,527,31
		c314-25,762-89,930-134c45-12,52-12,52,0c0,24-60,43-294,89c-149,30-242,53-282,72l-59,28l-365,5l-365,5l125,42
		c289,97,460,83,940-77c96-32,292-88,435-124s290-74,327-85c89-26,370-167,414-208c24-23,50-35,91-43c71-13,170-58,282-128
		c104-65,147-104,162-150c10-31,9-35-12-50c-72-51-272-218-320-268c-74-77-277-335-341-433c-121-185-313-660-279-694
		c14-14,10-20,58,103c141,357,252,586,279,576c18-7,21-2,104,124c37,58,106,146,152,196c45,50,105,116,131,148
		c45,52,218,196,237,196c4,0-4-28-19-62c-23-56-26-76-25-178c0-101,4-127,32-214c18-54,37-127,44-162c11-62,11-64-18-111
		c-39-63-64-69-64-14c0,22-16,105-36,185c-24,99-37,182-42,261c-7,118-20,147-35,78c-13-57-1-193,28-328c15-66,30-138,35-160
		c11-53,3-84-26-95c-33-13-33-50,0-50c13,0,38-3,55-6c29-6,31-9,25-40c-8-45,8-44,35,2c35,60,158,199,227,258c63,54,96,68,109,46
		c12-19,30-9,57,30c22,31,34,40,57,40c16,0,34,6,40,14s27,16,46,18c28,3,35,0,35-13c0-27,21-36,102-42c102-7,126-20,66-35
		c-24-6-60-9-79-6c-29,5-41,1-65-19l-29-26l-23,22l-22,21l-73-23c-154-48-207-74-287-143c-71-62-160-161-219-245c-12-18-29-33-36-33
		c-29,0-121-145-165-260c-8-19-24-46-37-59c-29-30-58-109-93-256c-16-66-41-153-55-194c-58-171-120-592-132-904c-3-81-9-150-13-152
		c-5-3-61-12-126-20c-197-26-374-67-374-87c0-14,89-5,230,22c149,29,240,41,262,35c24-8,25-61,0-74c-14-7-592-111-620-111
		c-3,0,7,14,23,30c26,27,28,33,17,51c-10,16-11,24-1,35c9,11,9,18,1,26c-18,18-14,35,8,41c23,6,27,27,5,27c-9,0-15,9-15,24
		c0,19,10,27,60,45c45,17,60,27,60,42c0,23-16,24-64,4l-37-16l17,26c14,22,15,30,3,70c-11,37-18,45-37,45c-15,0-22,5-19,13
		c2,6,15,11,28,9c18-2,36,10,69,43l45,46l-22,19c-13,10-23,26-23,35s-4,25-10,35c-7,13-4,24,11,44c17,21,19,30,9,41
		c-7,8-15,38-19,67l-6,53l-37-3c-20-1-53,4-74,13c-32,13-35,17-23,31c10,12,28,15,75,12c67-3,94,10,94,44c0,16-4,18-17,12
		c-10-5-49-8-86-7c-82,3-127-15-127-50s-47-72-130-102c-298-107-334-118-801-245c-58-16-114-27-125-25c-10,3-82,9-159,14
		c-297,21-981,82-1000,89c-16,7-6,14,52,36c39,15,77,34,83,42c22,26-37,16-131-21c-96-39-166-51-224-41l-36,7l25,20
		c14,11,26,27,26,35c0,21-39,17-116-12c-38-14-64-21-59-16c18,16,165,116,209,142c111,65,144,85,181,109c22,14,132,80,245,148
		c113,67,214,128,224,136c28,20,14,47-24,47c-43,0-59-7-894-377c-363-161-377-166-453-158c-53,5-63,4-63-9c0-8,9-21,20-29
		c19-13,16-16-47-45c-93-42-355-146-425-168c-32-9-61-14-65-10c-22,22,68,108,222,211c100,67,101,67,608,240c230,78,423,147,430,154
		c36,36-33,17-475-128c-168-56-312-101-321-101c-38,0-821-327-1010-421c-213-107-399-209-424-232c-20-18-32-57-18-57
		c3,0,31,16,61,35c159,102,555,295,869,425c188,78,202,81,139,34c-100-77-164-137-164-155c0-10,9-24,20-32c19-13,10-19-122-77
		c-372-165-688-333-688-365c0-26,31-16,124,39c117,68,220,121,376,192c69,31,183,83,253,116c128,59,336,142,666,265l173,64l97-12
		c145-18,145-18,65-69c-102-64-415-270-444-291c-75-56-195-114-650-316c-116-51-170-85-170-105c0-17,36-7,114,31
		c118,57,254,118,306,136l44,16l-27-29c-59-61-8-72,74-15c283,195,330,222,532,302c69,28,172,70,229,94c56,24,116,47,131,51
		c24,6,351-44,397-61c8-3-104-45-250-94l-265-89h-112c-62,0-113-4-113-8c0-14,48-32,83-32c22,0-46-32-218-101
		c-307-123-455-192-455-213c0-22,23-20,78,8c44,22,153,69,275,117c46,19,47,19,67-1c19-19,19-20,0-30c-10-6-89-37-174-70
		c-173-66-216-86-216-100c0-17,25-11,127,26c169,62,172,63,318,48c217-23,365-33,715-49c556-25,1144-68,1008-74c-24-1-137-24-180-37
		c-28-8-21-24,11-24c16,0,101,14,188,30l158,31l225-13c147-8,212-15,190-20c-34-7-347-28-416-28c-30,0-34-3-34-26v-27l-117,7
		c-65,3-296,11-513,16c-767,20-1222,49-1409,90c-33,8-63,22-76,36c-12,13-27,24-34,24c-20,0-12-40,13-65c70-70,262-85,1596-125
		c179-5,357-11,395-11l70-2l-52-6c-53-7-72-15-59-28c3-4,73-1,154,6c249,22,363,30,478,30c141,1,264,11,264,22c0,5-51,10-112,10
		l-113,1l80,13c44,8,166,26,270,40c105,15,198,29,208,31c11,4,17,0,17-11c0-8,10-20,23-24c17-7,18-10,7-14c-31-12-184-38-505-87
		c-408-63-571-71-1265-59c-527,9-833,22-1027,44c-153,17-203,19-203,5c0-45,425-75,1255-87c383-6,429-8,353-17c-48-6-90-15-94-19
		c-18-17,13-19,123-8c237,24,334,30,653,41c381,12,599,26,632,40c16,6-52,9-214,7c-130-1-235-1-234,1c2,1,111,18,242,37
		s250,38,264,41c18,4,21,3,11-4c-7-5-10-15-7-21c9-14,63-14,135-1c727,134,781,139,806,83c16-38,37-28,33,15c-3,35-2,37,30,40
		c39,4,72-20,72-53c0-11,6-30,14-41c12-15,18-17,33-8c24,15,29,44,8,44c-14,0-15,3-5,15c7,8,28,15,46,15c33,0,34-2,34-38
		s14-62,32-62c4,0,8,18,8,40c0,46,17,59,59,44c16-6,27-18,29-33c3-21,8-23,38-18s35,3,41-21c5-22,56-82,68-82c4,0,20,53,29,93
		c6,25,10,27,60,27c49,0,55-2,58-22c2-17,14-25,48-35c67-20,349-33,575-26l201,6l36-31c19-18,46-36,59-41c16-7-70-10-266-11
		c-306-2-396-8-402-26c-6-17,69-43,201-69c82-17,124-21,131-14c15,15-9,26-92,45c-40,9-73,17-73,19c0,1,252,0,559-3
		c494-4,565-3,608,11c34,11,67,14,106,10c53-5,57-4,57,16c0,16,6,21,28,21c15,0,32,4,38,9c5,6,32,11,59,13c43,3,50,6,53,25
		c3,21-7,34-52,66c-16,12-8,13,65,9c46-2,90-9,97-14c17-15,15-38-5-44c-63-20-73-27-73-50c0-13,9-28,20-34s20-21,20-34s7-29,15-36
		s15-21,15-30c0-25,48-80,70-80c10,0,20,6,23,14c8,19-10,91-33,136c-11,22-20,41-20,44c0,2,19,6,41,8c52,5,76-23,63-74
		c-4-18-7-75-7-127c1-111,12-132,62-111c38,15,52,32,60,72c9,41,22,44,59,13c28-24,31-31,37-120c4-53,3-124-3-162c-11-77-5-92,33-75
		c25,11,25,11,25-31c-1-23-5-62-10-87s-6-73-3-107c5-50,9-62,26-67c19-5,19-11,12-243c-3-131-11-265-16-297c-9-66-6-76,19-60
		c28,18,34,112,36,511c1,286-2,375-11,384c-7,7-13,24-13,37s-9,35-20,49c-16,20-20,41-21,97c0,39-3,102-8,139c-6,59-11,72-37,92
		c-16,13-39,24-52,25c-14,0-27,9-34,25c-15,34-38,32-39-2c0-16-4-37-9-48c-6-17-9-13-14,20c-4,22-12,63-17,90c-6,28-14,84-18,125
		c-7,85-24,100-67,59l-24-22v39c-1,21-9,57-20,79c-14,30-20,63-20,130c-1,120-13,222-28,237c-9,9-16,8-29-4c-17-17-16-38,10-388
		c2-24,1-25-58-22c-33,2-87,12-120,22s-74,21-91,25c-30,6-31,8-21,35c13,36-1,56-58,80c-38,16-88,80-73,95c3,3,35,14,71,24
		c107,30,146,64,112,101c-28,31-64,38-335,69c-159,17-267,34-285,44c-34,17-62,52-94,116l-23,43l44-7c24-3,205-10,403-15
		c375-10,390-11,750-54c291-35,464-66,670-121c94-25,227-60,298-77l127-32v-38c0-34,3-38,38-49c39-11,159-8,200,6c34,12,28-16-13-52
		c-19-17-35-35-35-40c0-18,48-54,96-72c27-10,67-30,88-44c21-15,46-27,55-28c18,0,146-16,176-21s30,28,0,63c-38,46-62,98-80,174
		c-15,64-14,69,4,99c11,17,33,44,50,60l31,30v-28c0-18,5-26,13-24c32,11,51,113,23,124c-8,3-28-2-46-11c-40-21-83-12-104,21
		c-9,13-26,24-37,24c-24,0-79-51-79-74c0-21-39-46-71-46c-26,0-46-18-74-65c-9-14-15-15-57-4l-47,13l22,22c12,12,30,33,39,46
		c9,14,31,28,48,32c18,3,45,20,61,37s61,46,99,65c42,20,70,39,70,49c0,19-13,19-56-1c-19-9-37-14-40-11s16,13,41,22
		c35,14,49,15,57,7c7-7,27-12,45-12c29,0,33-3,33-25c0-18,5-25,19-25c11,0,23-4,26-10c8-13,52-13,60,0c3,5,31,17,62,26
		c53,15,59,15,109-2c67-23,73-51,19-84c-20-12-35-30-35-40c0-30-16-32-47-6c-35,30-63,36-73,16c-54-106-55-110-54-245
		c1-71,8-150,15-175s13-52,13-60c1-12,22-16,101-21c85-5,101-4,109,10c26,44,94,103,126,110c29,6,35,11,35,33c0,26,30,68,49,68
		c6,0,5-5-2-12s-12-22-12-35c0-35,44-31,82,7c27,27,32,29,42,15s22-15,87-7c83,11,230,1,345-23c39-8,111-17,160-19
		c49-3,117-10,152-16s67-8,73-4c5,3,43,2,84-1c54-5,75-11,75-21s13-14,40-14c42,0,55,18,20,27c-11,3-20,9-20,14c0,4,14,3,30-2
		c25-9,30-16,30-45c0-19-13-102-30-184c-34-170-37-212-14-231c9-8,13-21,9-33c-6-21-93-506-122-686c-12-70-17-176-18-405
		c-2-313,2-356,43-550c6-27,14-93,17-146c7-84,5-100-13-135c-26-51-78-218-97-314c-8-41-19-131-24-198c-6-68-14-129-19-135
		c-35-46-113-569-116-777c-1-113,13-162,48-168c16-3,18,0,12,19c-21,72-18,217,9,399c15,102,28,187,30,189c12,11,17-92,11-215
		c-6-137-6-143,14-154c17-9,20-20,20-83c-1-40-7-90-15-112c-19-51-19-52,4-58c15-4,20-17,25-58c41-413,48-452,84-457c12-2,22-1,22,1
		c0,3-9,56-19,119c-21,120-40,334-42,458c-1,71,49,322,81,405c6,17,25,85,41,152c33,142,54,196,71,191c17-6,29-65,22-103
		c-4-16-31-114-60-217c-60-211-111-408-116-452c-2-16,2-31,8-33c16-5,39,47,68,153c124,450,130,465,143,442c7-13,19-44,28-69
		c14-42,14-51,1-85c-23-58-56-185-56-213c0-23,1-24,20-6c22,20,106,265,116,339c5,31,10,43,15,34c4-8,72-198,150-424
		c77-225,150-426,160-446c21-42,46-49,72-20c23,25,22,52-3,52c-27,0-58,63-134,283c-36,100-71,200-80,222c-50,127-187,544-197,599
		c-11,60-10,72,15,166c15,56,25,105,21,108c-10,10-34-21-48-63l-14-40l-7,105c-4,58-13,159-21,225c-34,275-43,521-25,650
		c12,83,49,200,60,188c16-18,70-219,70-262c0-25,7-57,15-71c58-100,98-213,126-360c11-58,24-129,30-158c18-90,58-81,79,18l13,61
		l22-21c12-11,39-50,60-86c42-71,46-76,62-66s17,29,9,105c-6,47-13,67-22,67c-8,0-14-10-14-23s-2-26-5-29c-3-2-27,17-55,44
		c-50,48-76,58-97,37c-15-15-26,8-42,81c-14,63-65,214-94,280c-11,25-23,77-27,115c-4,40-17,91-30,120c-13,28-29,86-36,130
		s-17,102-23,129c-12,55,1,436,19,541c5,33,10,72,10,88c0,40-26,34-34-8c-4-19-18-59-31-90c-31-70-42-130-25-149c8-11,11-68,8-208
		c-3-188-4-194-31-245c-15-28-33-80-40-115c-23-112-10,268,15,462c29,214,30,522,3,563c-13,20-15,37-10,69c13,82,57,258,66,264
		c25,15,67-164,49-211c-9-23-6-38,17-86c16-33,34-57,42-56c9,1,26-36,52-108c36-105,38-116,39-236c0-69,5-162,11-207
		c10-75,9-85-10-125c-26-54-28-157-6-337c19-153,42-254,66-300c35-63,114-155,139-158c22-4,23-2,17,55c-3,32-13,82-24,112
		c-19,58-43,79-43,39c-1-22-1-22-16,5c-8,15-23,27-33,27c-28,0-59,130-71,296c-13,187-14,179,6,160c44-44,50-10,31,168
		c-19,171-22,272-7,281c17,11,11,50-19,116c-78,173-115,347-130,605c-9,149-5,213,14,243c11,19,40-13,92-101c43-71,73-98,73-65
		c0,21-80,172-112,212c-24,28-37,36-54,32c-29-5-29-1-4,41c23,38-14,40,345-18c132-21,265-42,295-46c81-10,98-19,108-56
		c6-23,14-33,28-33c16,0,18,6,16,33c-3,30-1,33,19,30c16-2,25-14,33-43c9-29,17-41,34-43c19-3,22,1,22,32c0,20,4,36,9,36
		c11,0,21-25,21-49c0-10,9-26,20-36c22-20,27-14,32,44c2,19,9,36,16,39c9,3,11-6,7-35c-7-47,12-87,44-91c23-4,24-3,17,58
		c-7,56-6,61,11,58c16-3,28-41,42-140c1-5,10-8,21-8c18,0,20,7,20,70c0,93,15,90,16-3c2-82,16-127,40-127c15,0,16,9,10,79
		c-7,83-2,111,19,111c12,0,25-89,25-182c0-41,3-48,20-48c18,0,20,7,21,78l1,77l9-50c27-148,30-155,51-155c20,0,20,4,15,78l-5,77
		l15-64c12-51,13-71,4-100c-13-38-16-66-13-118c2-40,22-44,22-5c0,15,4,34,10,42c14,23,30-31,30-103c0-83-8-111-26-96
		c-23,19-28,2-16-52c16-69,15-108-3-115c-13-5-15-25-15-103c0-53-2-130-4-171c-3-41-5-86-6-100c0-19-3-21-12-12c-19,19-38,14-38-10
		c0-13,9-43,20-67c16-35,20-65,20-162c0-126-15-189-44-189c-23,0-20-23,15-103c31-69,31-73,24-175c-3-58-11-116-16-130
		c-6-17-6-29,1-36c6-6,10-102,10-263c0-220,3-264,20-331c33-128,40-206,40-457c0-264,9-188-100-824c-22-125-30-198-25-227
		c13-90,55-31,55,76c0,32,11,118,25,191c54,282,86,499,95,639c11,169-2,475-25,583c-8,40-18,104-21,142l-7,70l35-45
		c19-25,40-55,46-66c12-23,32-201,57-519c16-191,28-265,45-265c16,0,19,15,10,56c-5,21-16,165-25,319c-8,154-18,291-21,305
		c-7,33-18,46,232-284c120-159,243-316,273-349l55-59l-12-171c-7-95-15-192-19-216c-5-38-4-43,13-39c24,4,30,45,43,273
		c7,112,7,292,1,528c-9,326-12,360-29,385c-12,17-21,53-25,95c-4,38-14,86-22,108c-13,30-14,42-5,53c10,11,9,22-4,46
		c-17,33-48,301-60,520c-7,129,6,295,42,520c17,110,22,478,7,625c-6,69-6,70,13,53c39-35,45-10,13,52c-11,22-23,61-26,87
		c-3,25-20,95-38,155c-25,82-30,108-19,108c38,0,93-162,118-350c7-55,42-117,56-103c17,17-16,203-56,327c-20,59-34,110-31,113
		c2,3,89-7,193-22c103-14,285-40,403-56c378-53,437-66,495-109c71-53,81-57,175-70c47-6,127-20,179-31s137-24,189-30
		c85-9,95-9,107,7c12,17,47,12,591-80c376-63,667-118,829-156c138-32,286-65,330-74c98-18,330-76,443-110c92-28,153-40,306-61
		c167-24,240-42,408-100c88-30,171-55,185-55s50,16,79,35c43,29,53,41,56,68c2,25,8,33,27,35c22,4,23,6,17,62c-13,113-26,139-92,190
		c-71,54-101,64-469,146c-276,62-330,71-339,56c-9-16,20-29,94-42c36-6,92-19,125-29s102-26,153-36c50-10,92-21,91-24
		c0-3-13-16-28-28l-29-23l-108,42c-86,33-126,42-189,45c-133,7-145-26-18-47c43-7,73-15,67-17s-114,15-240,37
		c-272,49-830,145-964,166c-52,9-140,15-195,15c-71,0-168,11-335,39c-386,65-599,93-655,85c-27-4-70-8-95-8l-45-2l-6,45
		c-4,25-10,69-14,98c-6,37-4,52,4,52c6,0,14-13,17-30c8-35,6-35,224-50c253-17,415-39,1034-136c159-25,327-57,373-70s92-24,103-24
		c36,0,22,29-20,41c-76,23-32,19,112-9c80-16,166-39,191-52s53-20,61-17c27,10,18,37-17,52c-40,17-415,94-655,135
		c-97,17-253,44-347,60c-269,47-676,107-840,125c-259,28-235,22-235,55c0,23,5,30,29,35c32,7,87,61,139,136c17,26,50,61,72,79
		c40,31,40,32,40,98c-1,99-34,319-52,340c-24,28-30,52-38,153c-7,96-7,96-79,220c-57,100-84,162-136,319c-36,107-69,199-74,205
		c-4,5-14,26-21,45c-25,66-177,345-243,446c-37,57-86,118-114,141c-33,28-62,67-92,124c-74,139-117,196-171,225l-49,27l6,72l6,72
		l-78,67c-106,89-160,115-274,126c-81,9-107,17-199,62c-59,28-141,61-182,74c-162,50-247,82-290,111c-25,17-67,43-94,58
		c-26,15-56,41-65,58c-24,45-70,96-102,113c-50,25-171,13-177-18c-3-15,5-16,68-11l71,6l44-47c25-25,45-52,45-59c0-19,59-72,106-95
		c23-12,63-37,89-58c30-23,70-42,105-50c134-31,407-135,423-161c3-5-7-37-24-71c-34-73-34-72-9-72c12,0,28,15,44,43
		c35,59,79,81,154,75c115-8,262-110,278-193c14-75-27-69-145,23c-30,23-62,41-71,40c-27-6-23-38,9-65c37-33,39-43,8-43
		c-13,0-48-8-78-19c-138-47-239-120-304-218c-21-32-47-70-57-85s-18-34-18-41c0-8-7-21-16-28c-22-18-12-89,21-145c24-41,24-42,4-37
		c-14,4-25,0-31-11c-5-9-16-16-23-16c-17,0-20,16-5,25c6,3,10,13,10,22c0,11-8,14-29,11c-26-4-29-2-20,13c17,33,11,42-25,35
		c-25-5-35-3-40,9c-3,8-1,15,4,15c6,0,10,9,10,20s-7,20-15,20s-15,4-15,9s7,14,15,21c23,19,18,40-10,40c-33,0-32,15,5,42
		c74,55,4,66-84,13c-67-40-66-40-66-19c0,15,39,57,88,97c27,21,19,41-14,34l-24-4l23,40c23,43,45,54,109,56c33,1,39,6,63,49
		c20,37,45,60,116,107c84,56,87,60,59,63c-39,4-102-33-189-114c-58-54-77-66-121-74c-28-5-56-12-61-15c-44-28,84,208,149,273
		c79,81,70,91-37,41c-120-56-266-181-307-261c-27-54-30-86-10-143c8-22,19-67,25-100s14-71,18-85c5-20-1-17-31,19
		c-48,57-55,70-86,170c-35,112-55,121-47,20c5-55,15-91,40-141c19-39,26-61,17-53c-21,19-44,19-59,1c-21-25-71-28-108-6
		c-36,21-98,27-108,10c-11-18-24-10-27,18c-2,19-9,28-25,30c-20,3-23-1-23-28c0-36-18-45-109-56l-60-7l12,27c7,14,15,26,20,26
		c4,0,7,6,7,14c0,9-22,15-76,20c-106,10-183,40-198,77c-12,33-15,34-42,15c-18-14-18-17-4-43c20-36,74-62,160-77c61-10,67-13,59-29
		c-6-10-9-23-6-30c2-7-4-30-14-52c-20-47-29-156-13-162c6-2,16,13,22,34c7,21,21,53,32,71c18,29,25,33,48,27c15-3,43-22,63-41
		c37-36,49-36,49,3c0,18,6,23,24,23c13,0,31,2,38,5c10,4,25-20,50-82c52-127,52-137,2-193c-30-33-34-43-24-55c7-8,21-15,32-15
		c18,0,20-4,14-47c-20-139-47-217-110-323c-35-58-70-119-80-137c-17-33-22-113-8-113c11,0,42,33,42,45c0,13,53,126,57,121
		c7-7-47-158-74-208c-22-40-25-56-20-97c6-54,37-134,74-193c13-21,28-62,34-90c13-61,19-71,42-62c27,10,20,41-40,168
		c-66,140-76,204-33,197c75-13,104,5,53,33c-17,9-22,15-12,16c17,0,105,176,116,233c5,27,4,30-14,25c-21-6-21-5-2,49
		c28,79,5,101-26,26c-9-20-17-34-19-32s9,63,25,134c15,72,35,177,44,234c8,58,17,107,20,109c7,7,65-117,65-140c0-13-9-52-21-88
		c-27-86-49-236-49-335c0-68-7-100-45-214c-37-109-43-137-33-148c21-20,36-2,63,73l25,69l-7-50c-9-68-7-86,12-104c12-13,19-13,35-4
		c10,7,21,9,24,5c12-19,28-225,24-302c-7-113-15-128-76-132c-45-3-47-4-47-33v-30l55,4c67,4,90,15,90,44c1,12,7,33,15,47
		c19,32,19,120,0,243c-15,99-15,99,8,118c28,23,37,24,38,2c15-228,15-235,1-302c-7-29-12-85-12-124v-69l-44,6c-57,9-121-8-141-37
		c-19-27-19-81,0-97c25-21,44-4,47,42c3,36,7,44,31,52c20,7,34,7,47-2c11-7,36-12,55-12c25,0,38-5,42-17c4-10,28-38,55-64
		c26-25,48-53,48-63c0-17-7-18-82-12c-46,4-132,14-193,22c-213,29-214,29-221,9c-11-28,22-45,86-45c113,0,975-92,989-106
		c8-7-42-4-169,11c-218,26-379,18-329-17c16-10,0-9-221,16c-80,9-224,25-320,36s-236,24-310,30c-185,14-260,25-515,71
		c-121,22-278,49-350,60c-71,11-157,26-190,34l-60,14l75-4c41-2,105-7,143-11c47-5,67-3,67,5c0,13,24,14,48,2c26-14,113-42,149-48
		c17-3,49,1,70,8c54,18,182,13,293-12c52-11,149-24,215-29s130-12,142-15c30-9,42,20,19,43c-13,14-45,18-154,23c-75,4-158,12-183,19
		l-47,12l-4,53c-4,53-60,185-78,185c-5,0-10-10-12-22c-3-21-7-23-67-20c-97,3-141,18-141,46s-29,56-59,56c-22,0-25,4-35,53
		c-4,15-13,27-22,27c-12,0-14,7-8,35c6,34,5,35-25,35h-31v81c0,60-3,80-12,77c-27-9-35-126-15-206c8-28,26-69,40-89
		c14-21,33-58,42-82l15-44l-72,7c-90,8-200,46-249,86c-21,16-42,30-47,30s-19,12-33,26l-24,26l70-3l70-4l-3,37c-5,56,15,178,52,318
		c52,193,62,229,90,319c27,87,27,103,2,82c-10-9-7,8,10,56c25,72,30,103,15,103c-14,0-91-192-91-227c0-7,6-13,14-13c9,0,12-8,8-27
		c-4-20-7-23-10-10c-5,25-21,21-33-10c-6-16-24-57-39-93c-28-65-111-318-130-397c-10-40-43-73-58-58c-4,3,8,34,26,68
		c36,69,39,89,17,107c-17,14-20,46-6,55c5,3,13,20,16,38c4,17,18,65,31,106c13,40,24,83,24,95s4,26,8,31c5,6,17,31,26,58
		c17,46,30,59,38,35c7-21,28,3,28,33c0,22-5,29-20,29c-30,0-56-31-75-91c-9-30-23-67-30-84c-7-16-28-75-46-130c-30-89-34-96-37-64
		c-2,22,14,86,41,170c25,74,48,150,53,169c7,24,17,36,34,40c19,4,26,15,33,45c11,53-1,185-17,185c-6,0-36-25-66-55l-54-55h37
		c27,0,37-4,37-16c0-30-97-318-119-353c-6-9-14,0-27,34c-17,45-17,48-1,60c13,9,17,28,17,81c0,46,9,95,25,147c14,43,25,89,25,103
		c0,50-25,17-55-72l-30-89l-6,40c-3,22-27,118-53,214c-25,95-46,181-46,191c0,14,12,21,53,29c28,5,113,22,187,37
		c200,40,190,39,190,17s18-43,37-43c8,0,13,12,13,30c0,17,5,39,12,50c11,17,6,37-18,78c-2,2-38-9-81-24c-66-23-98-28-208-31
		c-175-5-195-8-196-36c-2-65-20,56-30,204c-9,144-8,183,6,285c10,66,19,121,20,123c16,17,55-81,55-136c0-19,9-53,19-76
		c11-24,24-88,31-147c14-127,27-178,52-191c36-19,50,13,24,54c-23,35-37,180-30,314c7,126,1,149-28,103c-7-11-16-20-20-20
		c-21,0,2,105,31,141c18,23,18,23,65,5c44-17,46-19,32-35c-23-25-20-40,10-52c19-6,37-6,60,1c26,9,44,8,88-6c88-28,122,1,39,32
		c-27,10-49,18-51,19c-1,1,21,34,50,73l53,71l7-52c3-29,15-69,26-90c28-52,44-184,40-322c-3-113-4-118-30-140c-35-30-36-53-1-61
		c88-23,117,214,57,476c-8,36-22,115-30,175l-16,111l63,147c58,134,79,170,79,134c0-8-14-63-31-123c-41-143-45-207-25-367
		c9-72,27-226,41-341c32-268,69-445,95-461c15-9,12,24-15,189c-13,83-34,245-45,360c-12,115-27,241-34,282c-12,67-11,75,6,103
		c18,28,18,32,4,60c-9,16-16,41-16,54c0,32,26,117,62,205c36,86,20,76,281,178c105,42,198,78,206,82c8,3-24-30-72-75
		c-93-86-119-98-307-139c-75-17-100-28-87-40c17-18,188,9,260,41c12,5-2-32-48-126c-60-124-78-179-57-179c15,0,38,33,56,80
		c24,61,92,184,123,220c35,42,201,151,196,129c-3-9-29-46-59-81c-67-79-116-177-122-243l-4-50l60-52c47-41,70-72,107-145
		c57-110,95-149,95-97c0,61-118,232-207,301c-13,10-23,28-22,40c1,38,71,141,107,160c52,26,74,50,69,76c-11,59,216,175,260,131
		c15-15,54-7,67,14c17,27-8,37-96,37c-68,0-84-4-145-36l-68-35l33,33c17,19,32,39,32,45c0,7,20,28,44,47c48,40,84,45,143,21
		c73-31,87-10,20,30c-73,42-150,31-206-29c-31-33-39-33-43,1c-2,22-9,29-33,33c-22,4-31,11-33,28c-4,27-15,28-56,3
		c-29-18-35-18-86-5c-91,25-179,23-221-3c-43-27-62-29-79-8c-10,12-10,15,1,15c16,0,69,63,69,81c0,8-11,10-34,6l-34-5l16,39
		c14,36,14,42-3,79c-15,34-22,40-49,40c-17-1-49-9-71-20c-57-27-74-25-127,18c-25,20-60,45-77,54c-37,21-46,41-66,155
		c-8,49-21,113-30,143c-21,78-19,141,9,208c13,31,38,100,57,152c32,91,33,102,34,240c0,133-2,148-22,181c-12,19-31,43-42,53
		c-20,18-20,18,1,57c21,42,19,72-6,63c-28-11-63-138-96-354c-25-166-27-175-45-160c-15,12-13,61,10,247c15,123,26,153,55,153
		c24,0,25,8,5,35c-10,12-13,30-9,52c7,38-7,44-28,11l-15-23l-54,21c-73,28-113,41-189,58c-83,20-124,20-140,1c-22-27,5-45,69-45
		c31-1,88-7,126-14c165-33,184-44,167-97c-6-19-23-115-37-214c-15-99-28-181-30-183s-11,10-19,27c-11,20-16,57-16,116
		c0,64-3,86-12,83c-17-6-26-42-27-110c-1-31-4-65-8-75c-6-16-8-15-13,6s-7,22-20,9c-24-24-52-36-108-46c-50-9-52-8-52,12
		c0,33-19,46-67,46c-63,0-261-44-334-75c-35-14-90-35-121-47c-32-11-58-25-58-32c0-22-33-43-92-60c-32-9-73-29-90-45
		c-18-15-42-33-54-39c-18-10-23-8-32,13c-10,21-8,29,14,54c75,89,419,257,569,277c28,4,45,12,45,20c0,31-159,3-289-50
		c-94-38-262-130-329-181c-33-25-62-45-66-45c-3,0,4,16,15,35c21,34,87,81,238,168c115,65,106,94-12,37c-34-17-52-23-39-14
		c26,20,29,34,5,34s-134-53-189-90c-40-27-43-27-29-6c8,12,26,29,40,36c22,12,36,50,18,50c-10,0-113-80-164-127l-46-43l-23,25
		c-19,20-22,32-17,72c5,44,11,54,76,116c40,37,83,72,97,77c13,5,33,25,44,43c22,38,119,95,330,196c126,60,239,96,339,108
		c64,7,67-8,8-46c-20-13-37-33-37-43c0-33,50-18,103,31c41,37,50,57,37,81c-9,18-20,20-93,19C12262,9768,12207,9764,12185,9759z
		 M13008,9424c11-30,12-49,3-82c-6-23-11-62-11-87c0-27-5-47-14-52c-7-4-25-26-40-47c-14-21-26-32-26-24c0,24,40,301,46,321
		C12975,9481,12993,9468,13008,9424z M8061,8243c8-9-7-6-44,8c-66,25-86,21-85-18c0-16-17-56-40-94c-22-36-69-124-105-195
		s-72-138-81-149c-14-18-14-15,0,34c23,80,140,350,179,416c39,63,42,75,21,75c-44,0-146-177-220-384c-50-137-71-184-60-131
		c16,76,168,517,186,540l20,25l109-56C8001,8282,8055,8251,8061,8243z M11774,8278c4-35,10-74,13-88c4-22-1-27-42-42
		c-56-21-69-16-62,26c10,59,39,151,51,158C11759,8349,11768,8337,11774,8278z M13158,8206c40,0,43-3,52-34c5-19,17-43,26-53
		c16-17,16-19-2-25c-11-3-26-9-34-13c-28-14-81-116-112-216c-17-55-43-125-59-156c-35-71-72-179-63-188c3-3,11,1,16,9s20,33,34,55
		l25,40l-6-55c-10-87-121-280-161-280c-9,0-49,16-91,35c-72,33-75,36-68,62c3,16,50,94,104,174s102,156,106,169c4,12,22,42,40,65
		c39,52,84,162,84,207c0,18-2,56-5,84s-1,70,6,93c11,40,13,42,38,35C13103,8209,13134,8206,13158,8206z M6825,7943
		c10-59,15-138,13-198l-3-100l-39,115c-34,101-39,127-39,210c-1,61,4,104,13,120l13,25l13-37C6803,8058,6816,7997,6825,7943z
		 M8204,8056c21-26,27-40,19-43c-7-3-13-13-13-24c0-13,7-19,24-19c18,0,30-13,55-59c34-65,38-81,17-81c-8,0-67-63-131-140
		c-163-197-165-188-8,42c51,76,93,142,93,148c0,43-106-65-216-220c-29-42-63-85-75-95c-22-20-22-20-15,0c10,26,115,194,167,267
		c71,98,38,91-62-15c-67-69-101-97-117-97c-23,0-21,4,33,108c111,207,157,275,183,270C8166,8096,8187,8077,8204,8056z M13660,8001
		c22-6,15-11-50-35c-136-51-272-97-277-93c-10,10,13,40,55,70c40,28,51,31,74,23c22-8,31-5,58,17C13552,8011,13602,8017,13660,8001z
		 M12617,7572c-2-21,3-28,21-30c13-2,32-12,43-23c20-20,20-20-10-49c-36-37-67-41-56-7c15,49,17,67,7,67c-12,0-52-48-52-62
		c0-6-9-21-20-35c-23-30-26-47-6-40c8,3,23-5,35-17c17-18,21-35,21-86v-63l-21,19c-26,24-59,87-59,114c0,32-25,23-43-16
		c-14-29-21-34-40-29c-43,13-82,41-84,61c-4,31,59,136,97,162c43,28,49,16,17-35c-31-50-57-117-57-148c0-38,27-30,41,13
		c14,44,49,101,97,160c32,40,34,46,24,78l-10,34l28-20C12611,7605,12618,7592,12617,7572z M7684,7567c16-12,14-15-23-29
		c-31-12-41-22-41-39c0-20,3-21,38-14c55,12,115,11,119,0c2-6-16-19-39-30c-25-11-45-28-47-39c-3-17,1-18,40-11c68,11,102,11,106-1
		c2-6-20-14-49-20c-47-8-53-12-53-34c0-19,5-24,20-22c88,12,133,13,139,4c4-6-14-13-46-17c-74-10-98-21-98-44c0-15,8-20,33-23l32-3
		l-37-25c-37-25-51-60-24-60c7,0,33,7,56,15s69,15,101,15c64,0,59,5,73-75c3-16,8-40,12-51c5-20,1-22-68-29c-40-3-100-11-132-16
		c-57-10-61-9-77,13c-17,22-17,24,7,49c34,35,30,42-17,36c-39-5-41-4-70,41c-16,25-29,51-29,58s16,22,35,34s35,28,35,36
		c0,18-37,18-70-1c-14-8-31-14-37-15c-20,0-15,28,7,40c27,14,45,49,32,62c-7,7-25,3-57-12c-25-12-49-19-53-15s15,26,42,50
		c71,63,44,89-41,39c-25-14-47-23-51-20c-3,4,18,30,46,59c29,29,52,60,52,69c0,12,12,19,38,23c20,4,42,8,47,10
		C7655,7582,7666,7580,7684,7567z M14811,7277c-49-96-84-215-96-322c-4-33-9-69-13-80c-6-21-12,3-31,131c-5,34-14,71-21,84
		c-25,48-5,89,95,188c52,50,98,92,104,92C14854,7370,14837,7328,14811,7277z M1239,7248c-30-57-96-122-146-145c-29-14-58-23-63-21
		c-6,2,11,35,37,73c42,60,56,73,103,92C1243,7277,1254,7277,1239,7248z M15544,7133c24-26,26-26,83-14c130,27,152,23,186-39
		c10-19,43-60,72-90c47-48,95-129,95-159c0-6,22-32,48-58s68-77,92-113s62-88,85-115c22-28,51-79,64-115c13-35,36-77,52-93
		c30-29,37-47,19-47c-16,0-12-33,14-101c34-90,48-119,58-119c14,0,9,48-12,101c-12,28-19,53-17,55c13,13,91-221,187-555
		c33-118,67-226,75-241c17-33,55-167,49-173c-2-2-50-2-107,1c-84,4-105,8-121,24c-16,17-26,19-78,13c-44-5-59-4-54,4
		c4,6,19,11,32,11c24,0,25,3,19,33c-12,52-107,277-207,489c-88,186-147,282-163,266c-10-9,7-51,89-220c36-75,66-139,66-143
		s-17,15-37,42c-61,80-224,272-329,386c-203,222-236,265-311,412c-106,207-147,339-113,360c6,3,10,15,10,26c0,24-27,25-52,2
		c-27-24-23-87,11-184c17-46,35-111,40-143c18-98,57-150,352-472c158-171,241-270,137-164c-34,36-89,85-120,108
		c-54,42-230,224-314,327c-55,66-104,145-104,165c0,32-63,112-99,127c-45,19-71,41-71,61c0,9-8,24-17,34c-16,18-15,23,19,91
		c43,85,93,157,111,157c7,0,46,16,87,36C15497,7168,15510,7170,15544,7133z M1080,7034c0-3-15-24-32-47c-18-23-38-51-44-62
		c-16-30-81-71-154-99c-36-13-73-27-83-31c-15-6-16-4-7,20c16,42,62,103,88,114c25,12,27,6,7-29c-8-14-14-31-15-37c0-27,21-10,57,44
		c29,44,54,67,103,95C1064,7039,1080,7046,1080,7034z M1298,6890c-23-34-49-73-56-86s-17-24-21-24c-5,0-20-18-35-40
		c-16-24-45-49-76-65c-57-29-60-30-60-12c0,23-33,44-77,52c-24,4-43,12-43,19c0,28,65,99,109,118c66,30,294,108,299,104
		C1340,6953,1322,6924,1298,6890z M14747,6668c12-13,23-34,25-48c2-18,12-28,35-34c18-6,36-20,43-34c9-20,16-23,40-18
		c20,4,56-4,110-24l79-29l48,21c26,11,68,35,92,51c35,24,46,27,50,16c2-8,18-27,36-44c17-16,60-66,95-110s150-168,256-275
		c105-107,199-211,209-230c16-32,81-128,236-351c75-108,141-234,137-261c-2-13-11-24-23-27c-25-4-145-82-145-94c0-5-13-27-29-50
		c-15-23-47-80-71-126c-26-52-64-107-98-144l-56-58l3-75c3-79-7-104-40-104c-15,0-18,5-15,23c3,12,7,46,11,75c4,41,3,52-9,52
		c-21,0-76-67-83-101s0-33-122-13c-65,11-107,24-132,40c-39,26-196,54-536,93c-95,11-177,22-183,26c-5,3-10,22-10,41
		c0,26-9,45-39,77c-37,41-61,77-61,94c0,4,9,23,20,41l21,34l50-84c63-105,143-188,181-188c40,0,60,45,60,134c0,84-21,146-87,258
		c-48,83-150,222-217,297c-35,39-44,59-60,131c-10,47-25,114-32,150c-8,36-24,94-35,130c-36,113-31,156,60,555
		c45,197,50,204,125,205C14715,6690,14732,6684,14747,6668z M800,6653c0-12-59-99-82-120c-45-42-188-108-188-88c0,6,64,121,90,162
		c14,21,42,37,85,46C738,6660,800,6661,800,6653z M580,6631c0-9-33-68-105-191c-21-35-74-138-117-227c-44-90-81-163-84-163
		s-2,26,1,58c4,33,2,69-4,85c-9,24-5,39,39,123c27,52,62,114,78,137s48,72,71,109c24,37,48,69,54,72C534,6642,580,6640,580,6631z
		 M1063,6581c-42-67-122-177-134-187c-34-27-232-69-258-54c-11,6-3,20,38,64c30,30,63,58,75,62c11,4,37,20,57,36
		c35,28,201,106,227,107C1078,6610,1077,6603,1063,6581z M7038,6453c-54-86-56-88-113-105c-32-10-60-16-62-14s12,29,31,59
		c27,42,55,69,113,106c42,28,79,49,81,47C7090,6543,7068,6502,7038,6453z M1369,6446c-2-2-49-30-104-62c-128-73-209-128-262-177
		c-36-33-43-46-43-76c0-28-14-57-56-121c-31-47-61-88-67-92c-14-7-159-38-182-38c-12,0-3,19,31,68c82,115,114,152,152,168
		c52,21,63,42,37,67c-13,13-10,22,24,73c21,33,47,66,57,75s73,30,139,48c66,17,149,39,185,50C1343,6448,1378,6454,1369,6446z
		 M597,6382c-15-15-27-36-27-45c0-10-9-34-19-55c-34-66-131-217-148-229c-20-15-63-17-63-3c0,15,62,149,120,260c8,15,42,44,75,64
		C609,6418,634,6421,597,6382z M867,6298c-9-13-32-46-52-75c-47-69-61-78-189-118c-157-50-156-51-95,48c63,102,99,137,142,137
		c17,1,61,7,97,14c36,8,76,14,89,15C881,6320,882,6319,867,6298z M3545,6278c-11-6-85-52-165-101c-179-111-257-148-396-186
		c-60-16-152-43-204-59c-104-32-158-46-150-39c9,7,671,299,790,348C3529,6286,3591,6304,3545,6278z M7060,6180c0-5-17-22-37-37
		c-84-64-119-112-73-100c19,5,18,2-7-44l-28-49h-64c-60,0-63,1-49,18c9,9,27,40,41,68c15,29,35,54,46,57c14,3,18,11,14,25
		c-6,23,17,38,87,58C7047,6191,7060,6192,7060,6180z M12380,6130c47-24,50-29,83-146c20-70,25-104,20-147c-3-32-8-57-11-57
		c-20,0-109,82-141,131c-42,63-81,169-81,221c0,31,0,31,45,25C12320,6153,12358,6141,12380,6130z M679,6028c-7-13-32-53-56-90
		l-43-68h-60c-35,0-60,4-60,10c0,19,30,70,41,70c6,0,25,11,42,24c36,27,125,76,139,76C687,6050,685,6040,679,6028z M12198,6018
		c6-7,19-39,30-70c26-73,85-162,131-196c20-15,66-53,102-85c62-54,67-61,78-118c7-34,15-68,17-78c3-9-3-2-12,16c-29,53-72,53-99-1
		c-3-8-7-7-11,1c-3,7-16,27-29,45s-47,73-76,123c-38,64-85,123-168,207c-63,65-111,121-108,125c8,7,108,42,123,43
		C12182,6030,12192,6024,12198,6018z M3043,5968c-13-6-23-15-23-20c0-4-5-8-10-8c-6,0-41-19-78-41c-175-108-159-101-235-94
		c-142,15-140,16,88,89c116,37,221,71,235,76C3055,5982,3069,5981,3043,5968z M12031,5921c24-15,74-59,110-97
		c121-128,204-272,228-401l8-41l-81-4c-65-4-93,0-143,17c-72,26-124,62-150,105c-19,33-53,41-53,13c0-10,5-25,10-33c7-11,4-16-13-20
		c-32-8-27-31,13-58c28-19,44-23,80-19c48,6,98-6,70-17c-8-3-89-12-180-21c-91-8-206-20-255-26c-50-5-98-7-107-4c-11,4-38-7-73-30
		l-56-37l-99,4c-79,3-103,7-119,22c-33,30-21,76,19,76c18,0,21,2,300,185c239,157,240,157,240,146c0-20-63-82-138-135
		c-111-78-142-111-142-152c0-46,21-44,53,5c15,22,77,82,139,134s122,104,133,117c20,22,66,50,84,50c21,0,73-55,107-113
		c39-67,100-137,121-137c6,0,24-11,39-25c27-25,54-33,54-16c0,5-15,20-32,33c-33,23-70,62-97,102c-8,12,6,3,30-20
		c75-70,132-114,146-114c23,0,14,25-22,60c-19,19-35,39-35,46s-21,26-48,42c-26,17-62,46-81,64c-33,33-33,33-10,38
		c65,16,11,74-78,85c-59,6-113,24-113,37c0,3,20,30,45,59c45,53,58,89,30,89c-8,0-15,5-15,10C11950,5958,11986,5950,12031,5921z
		 M5573,5920c17,0,27-5,27-15c0-9-9-15-22-15c-45,0-52-15-22-43l28-26l-25-10c-194-78-385-146-504-180c-60-18-162-47-225-66
		c-191-57-341-93-441-104c-98-11-317,0-684,34c-225,21-825,113-825,126c0,4,47,26,104,48c119,47,129,48,356,27
		c867-80,1539-123,1515-98c-5,6-73,16-150,22c-131,12-155,15-144,23c2,2,94,27,204,56c213,56,468,135,550,171c68,30,186,60,210,55
		C5536,5922,5557,5920,5573,5920z M6696,5896c7-18-82-173-107-187c-11-5-19-20-19-35c0-24-44-120-72-157c-13-18-15-16-27,20
		c-12,37-11,42,46,163c85,179,106,210,143,210C6677,5910,6693,5904,6696,5896z M16134,5681c46-76,124-239,131-276c5-22-3-14-27,30
		c-32,58-161,250-218,325c-14,19-37,53-50,75c-23,38-21,37,53-29C16065,5768,16115,5712,16134,5681z M7938,5655c52-9,162-19,245-22
		c164-6,213-16,134-28c-63-10-374,10-461,30c-79,17-95,27-77,49c10,12,16,12,39,1C7833,5677,7887,5664,7938,5655z M5468,5657
		c64,1,112-2,112-8c0-5-13-9-29-9s-57-8-92-19c-35-10-80-23-99-28c-38-9-53-39-23-45c24-5-12-24-142-74c-98-37-104-38-259-42
		c-88-2-216-1-285,3l-126,8l150,39c181,47,499,140,575,167c34,13,65,18,80,14C5344,5659,5406,5657,5468,5657z M7321,5610
		c34-16,78-32,99-35c22-4,44-13,50-20c6-8,14-57,17-109s9-100,13-106c11-17,30-3,30,21c0,11,5,17,10,14c13-8,13-62,0-67
		c-10-3-236,13-387,28c-35,3-63,9-63,14s30,12,68,15c66,7,92,18,92,38c0,6-23,7-65,3c-72-7-76-4-45,46c21,35,27,88,9,88
		c-23,0-49-22-49-41c0-17-4-19-22-13c-53,17-96,24-151,24c-49,0-60,3-64,19c-4,14-18,20-60,25c-30,3-59,3-65,0c-13-8-4,8,27,51
		l22,30l237,2l237,2L7321,5610z M3505,5481c94-11,262-27,375-36c333-26,330-25,330-40c0-24,16-25,97-10c81,16,278,18,488,6l110-6
		l-80-23c-44-12-152-38-240-58l-160-36l-220,5c-219,6-488,29-774,67c-176,24-382,58-389,65c-9,8,1,13,99,49
		C3253,5506,3277,5507,3505,5481z M8955,5480c129-10,436-48,442-54c13-13-88-13-167,0c-52,8-181,18-287,21c-105,3-196,9-203,13
		c-6,4-8,15-4,24c6,15,15,17,48,12C8807,5493,8884,5486,8955,5480z M14733,5315c100-152,147-263,147-347c0-40-14-78-29-78
		c-16,0-114,142-133,193c-26,68-34,77-74,77c-23,0-38-7-49-22c-16-22-16-19-8,52c4,41,8,126,8,188v114l39-44
		C14655,5425,14700,5365,14733,5315z M6936,5465c49-9,100-23,113-32l25-16l-25-9c-13-6-104-15-202-21c-199-12-209-10-183,42
		c19,36,27,39,162,49C6838,5479,6887,5473,6936,5465z M5461,5411c20-18,20-19-23-39c-103-48-285-92-382-92c-74,0-126-9-126-21
		c0-5,17-9,38-10c61-1,18-14-263-79c-350-81-355-82-355-93c0-19,128,4,525,92c220,49,423,92,450,95c48,5,48,5,10-4
		c-81-19-115-31-115-40c0-19,43-21,126-5c47,9,88,14,91,12c13-13-204-67-269-67c-31,0-38-4-38-19c0-22-19-31-65-31
		c-37,0-56-17-34-31c8-5,43-7,79-4l65,5l-55-15c-154-40-478-43-1240-10c-190,8-514,19-720,25s-433,15-505,20c-71,5-139,10-150,10
		c-39,1,7,19,215,87c244,78,310,103,310,114c0,12-43,11-74-1c-16-6-27-6-31,0s-30,10-58,11c-29,0-60,4-71,8c-15,6-10,11,29,26
		c118,45,130,46,218,25c182-43,605-97,927-120c85-5,187-13,225-16c91-6,593-5,668,2c110,11,56,24-105,25l-163,1l65,15
		c36,8,140,32,232,54c99,24,226,46,315,55c120,12,208,25,231,33C5440,5430,5450,5422,5461,5411z M9500,5400c19-5,91-17,160-25
		c252-31,680-129,680-156c0-5-16-11-36-15c-27-5-65,2-153,29c-97,30-310,85-451,117c-19,5-72,13-116,19c-45,5-97,17-115,25
		C9430,5411,9449,5415,9500,5400z M2860,5291c22-7,18-10-35-25c-33-10-144-45-246-77c-152-48-199-59-254-59c-40,0-65,4-60,9
		c13,11,197,86,315,127c79,28,108,34,175,33C2799,5298,2846,5295,2860,5291z M7280,5228c386-81,479-97,486-86c3,5,3,12,0,15
		c-5,6-449,103-470,103c-5,0-7,2-4,5c6,7,342-32,437-51c42-8,134-19,205-24c138-10,150-15,162-64l7-29l-71,5c-43,3-82,12-97,22
		c-35,23-55,14-55-23v-30l-42,19c-53,24-127,28-108,6c6-8,28-17,48-20c20-2-84-2-233,1c-239,4-290,8-445,34c-96,16-205,38-242,49
		c-36,11-86,20-111,20c-31,0-47,5-51,15c-9,24-40,18-74-15c-30-28-70-39-85-23c-12,11,14,33,39,33c24,0,33,23,14,35
		c-5,3-10,13-10,21c0,12,7,14,28,10c15-3,51-8,80-11c43-6,52-4,52,8c0,9-10,19-22,24c-17,6-5,9,47,13C6899,5300,6993,5288,7280,5228
		z M12441,5279c19-7,41-18,50-25c8-8,30-14,49-14h33l-6-51c-4-29-8-53-10-55s-102,9-223,25c-120,16-266,35-323,41
		c-79,10-100,15-86,23c13,7,24,6,36-1c14-9,25-8,46,3c15,9,102,26,193,39C12397,5293,12398,5293,12441,5279z M8288,5211
		c23-5,46-11,49-15c11-11-16-30-45-32c-15-1-30-3-34-3c-22-3-3-22,30-31c20-5,44-14,52-20c24-16-9-13-60,5c-48,17-100,20-100,6
		c0-5,25-21,56-36s53-29,50-32c-7-7-272-52-306-52c-24,0-24,0-5,15c11,8,49,23,86,34c76,23,92,37,87,77c-2,23,1,29,20,31
		c25,4,25,3,12,36c-9,25-8,26,28,26C8228,5219,8264,5215,8288,5211z M16703,5213c2-5,7-20,11-35c5-24,3-28-21-34c-16-4-49-17-76-29
		c-40-19-45-24-32-35c11-9,26-10,57-2c24,5,63,7,87,5c43-5,43-6,38-39c-3-18-22-69-41-113c-20-43-36-86-36-96s-36-53-80-97
		c-44-43-80-84-80-91s-11-39-25-72c-30-73-31-88-5-123c27-37,36-96,20-128c-12-21-11-27,10-49l23-25h-26c-22,0-26,4-24,23
		c2,18-3,22-25,22c-15,1-38,7-52,15c-22,11-28,11-43-3c-14-12-28-14-61-7c-41,7-82,30-54,30c18,0,15,25-8,62c-27,45-25,88,10,188
		c35,101,38,130,11,130c-14,0-25-16-42-59c-16-42-27-57-35-50c-14,11-11,76,5,92c19,19,12,28-21,25c-27-2-33-7-34-28c0-14-3-32-7-40
		c-8-21-17-83-24-159c-3-48-1-68,9-76c7-6,23-30,36-53l23-42h-22c-25,0-82,59-111,115c-36,68-40,112-17,185c31,100,40,120,54,120
		c16,0,48,36,44,49c-3,6-25,2-56-9c-48-17-52-17-44-2c5,10,18,26,30,36c18,16,25,17,50,6c35-14,57-5,95,41c21,24,24,34,15,45
		s-5,16,16,26c18,8,25,17,22,30c-4,14,12,26,76,56c45,22,90,42,100,46c10,3,17,12,15,19c-7,19-43,20-77,2c-17-8-54-21-83-29
		c-48-12-53-16-56-43c-3-25-9-32-34-37c-22-4-66-41-155-131c-68-69-128-125-133-125c-33,0,23,70,68,84c30,10,92,92,92,122
		c0,20,21,48,86,115c86,87,87,88,103,67c15-17,21-19,39-9c34,18,29,44-8,39c-24-4-27-2-18,9c27,32,94,56,178,63
		C16582,5220,16698,5221,16703,5213z M11001,5184c22-11,29-20,24-32c-14-34-27-147-22-184c3-24,16-49,32-65c23-24,29-26,56-16
		c32,13,36,7,14-23c-12-18-20-20-55-14c-45,8-69,26-111,84c-24,32-29,49-29,96c0,59,13,109,38,148C10965,5204,10963,5204,11001,5184
		z M8614,5166c20-8,36-19,36-24c0-17-111-52-162-52c-23,0-32,8-54,52l-26,51l85-6C8540,5184,8594,5174,8614,5166z M6161,5149
		c19-37-8-49-182-79c-90-16-226-40-303-55c-108-21-145-25-170-17s-27,10-9,11c15,1,25,9,29,25c3,14,13,27,21,30c8,4,139,27,291,52
		s278,47,281,50C6130,5176,6150,5168,6161,5149z M10696,5081c1-73,6-98,28-146c14-31,26-59,26-62c0-2-12,5-26,16c-15,12-32,21-39,21
		c-20,0-46,36-39,54c9,24-16,76-40,85c-19,8-19,9,10,24c20,10,37,31,48,57c9,22,19,40,23,40C10692,5170,10695,5130,10696,5081z
		 M13470,5087c23-8,42-25,57-52c36-63,34-65-69-64c-51,0-111-5-133-11s-49-14-60-16c-11-3-60,9-110,26c-81,28-109,32-273,41
		c-185,10-258,25-250,51c3,7,9,13,14,13c43-2,171-20,272-41c166-33,266-42,260-24c-2,8-18,17-34,21s-42,10-58,14c-27,6-28,7-12,23
		c12,12,41,19,109,23C13341,5101,13434,5099,13470,5087z M3110,5046c567-18,1294-44,1465-54l120-7l-236-43l-237-43l-278,20
		c-331,24-706,48-894,56c-340,15-607,36-710,56l-54,11l29,14c23,10,64,13,170,9C2562,5063,2843,5054,3110,5046z M6146,5022
		c-8-16-21-33-28-40c-7-6-119-27-248-47s-253-40-275-45c-63-15-85-13-85,9c0,29,18,38,110,56c47,9,112,23,145,31
		c62,16,332,61,373,63C6160,5050,6160,5049,6146,5022z M7534,5006c88-14,172-26,188-26c15,0,28-4,28-8c0-9-213-32-296-32
		c-63,0-114-9-114-21c0-26,711,20,963,63c37,6,70,8,73,5c4-4-1-26-10-51c-18-47-36-56-118-56c-21,0-67-10-101-22
		c-61-23-71-23-507-23c-394,0-452,2-510,18c-96,26-120,37-120,57c0,22-55,70-80,70c-28,0-34,19-13,42c17,20,25,20,238,15
		C7321,5033,7414,5025,7534,5006z M5430,5010c0-18-48-60-67-60c-29,0-216-50-229-61c-21-17-314-29-448-19c-67,5-159,10-206,10
		c-108,2-85,11,91,39c74,12,179,30,234,41c93,17,200,29,450,49C5402,5021,5430,5021,5430,5010z M13080,4853c422-80,437-84,345-78
		c-38,3-126,7-195,11c-69,3-150,10-180,16c-66,12-349,103-370,119C12662,4934,12637,4938,13080,4853z M6092,4908c-19-19-14-28,15-28
		c59,0,7-12-148-35c-90-13-202-26-249-30c-47-3-97-11-112-17c-20-7-32-6-52,8c-15,9-25,18-23,20c6,6,518,92,552,93
		C6097,4920,6101,4917,6092,4908z M12730,4831c0-3-32-36-71-72c-60-57-70-71-67-95c2-25,8-29,36-32c27-3,32-7,32-29c0-20,4-24,20-20
		c22,6,24-2,14-51c-5-26-10-30-39-29c-43,1-63-16-71-62c-3-20-17-92-31-161c-21-101-25-146-23-235c11-330,5-509-23-740
		c-32-267-36-297-47-290c-16,10-17,74-5,215c28,308,29,320,12,320c-27,0-36-32-53-196c-9-88-20-168-25-179c-7-14-8-1-4,40
		c3,33,7,168,10,300c7,298,12,340,85,710c89,452,126,573,180,586c14,3,25,12,24,21c-1,10,6,13,22,10
		C12719,4840,12730,4835,12730,4831z M15185,4659c391-39,578-71,605-104c26-31-5-33-140-10c-74,13-252,42-395,64s-316,50-385,61
		l-125,20l120-6C14931,4681,15075,4670,15185,4659z M14525,4539c140-18,155-27,155-91c0-24,8-46,26-67c23-28,49-90,40-99
		c-2-2-35,26-73,61c-56,53-173,145-260,205c-17,12-17,12,2,8C14426,4554,14476,4546,14525,4539z M14435,4379
		c204-167,258-219,258-252c0-44-13-45-47-2c-64,82-144,160-252,246c-104,83-124,104-124,131C14270,4514,14256,4525,14435,4379z
		 M14410,4297c135-107,258-254,260-308c0-9,6-22,14-28c8-7,17-27,20-46c4-19,14-38,23-43c13-8,17-33,20-133c3-68,7-131,10-139
		c10-27,2-132-18-245c-10-60-19-140-19-177c0-38-4-68-8-68c-23,0-266,307-386,488c-88,131-118,204-100,241c8,17,20,5,100-102
		c90-121,331-408,354-422c6-4,16-3,21,2c18,18-8,62-94,154c-52,57-67,91-69,154c-2,59-21,92-39,64c-5-8-9-20-9-26
		c0-42-66,17-150,136c-51,73-51,73-55,163l-4,90l33-44c18-23,70-97,116-163c136-197,181-255,197-255c10,0,12,6,8,23
		c-7,23-126,208-272,425c-72,105-83,128-83,165c0,65,12,177,19,177C14302,4380,14352,4342,14410,4297z M17220,4215
		c340-53,920-161,882-164c-6-1-57,6-112,14c-54,8-178,24-273,35c-152,17-283,42-672,128C16908,4259,16971,4254,17220,4215z
		 M18402,4055c205-36,481-86,613-110c146-26,264-43,302-42c50,2,67-2,92-21c17-12,44-25,61-28c27-6,30-4,30,19c0,16-10,34-26,46
		l-27,21h51c27,0,79-9,115-20l64-20l-16-56c-12-43-17-49-19-30c-4,32-42,37-42,6c0-11-5-20-11-20c-8,0-10-17-7-52l5-52l-18,23
		c-11,13-19,38-19,57c0,31-3,34-30,34c-19,0-33-7-39-19c-10-18-12-18-70,5c-62,25-483,122-1291,297c-63,14-110,25-103,26
		C18023,4120,18196,4091,18402,4055z M14316,3527c94-132,235-311,333-421c58-66,61-71,61-122c0-56-16-80-34-50c-6,10-35,48-63,86
		c-29,37-53,71-53,75s-22,33-48,64c-56,65-296,425-306,458c-8,25,0,46,15,38C14226,3652,14269,3594,14316,3527z M14350,3303
		c168-234,195-271,279-375c80-100,91-122,91-178v-45l-55,60c-92,101-394,500-446,590c-33,57-41,145-13,145
		C14207,3500,14272,3411,14350,3303z M14272,3183c88-120,284-363,368-458c34-38,68-79,75-90c17-26,32-170,17-161
		c-38,23-246,295-325,424c-17,28-74,118-124,198c-80,127-108,184-88,184C14198,3280,14232,3236,14272,3183z M14260,3032
		c130-214,287-425,422-569c38-40,70-83,73-100c3-15,13-53,22-83c8-30,18-91,22-135c4-54,13-90,26-110l19-30l-23,20
		c-13,11-86,112-163,225c-287,422-380,556-403,580c-49,53-68,106-73,211c-3,54-1,99,4,99C14191,3139,14224,3091,14260,3032z
		 M14353,2613c73-104,191-273,262-378c72-104,154-214,184-245l53-55l6-115l5-115l-58,75c-80,105-345,457-372,494c-13,17-31,42-40,55
		c-10,14-42,56-70,94c-32,43-55,84-58,106c-3,20-10,52-15,71s-14,65-20,102c-5,37-13,74-16,82C14199,2824,14229,2786,14353,2613z
		 M12446,2373c4-22-1-57-14-101c-46-147-152-629-152-690c0-21-2-24-10-12c-14,22-12,108,5,162c7,26,19,112,25,190
		c14,182,32,276,77,412c32,98,37,107,49,91C12434,2415,12443,2391,12446,2373z M14728,1810c96-124,103-131,123-125c18,6,19,0,19-136
		v-143l-31,30c-26,25-203,256-439,574c-35,47-70,101-78,120s-17,82-20,140l-5,105l194-255C14598,1980,14704,1840,14728,1810z
		 M12486,2218c-3-40-11-160-16-267l-9-193l-72-272c-39-149-75-275-79-279c-14-15-21,123-10,206c14,116,97,567,114,624
		c8,27,24,91,36,143s24,98,27,103C12489,2303,12492,2283,12486,2218z"/>
	<path class="st0" d="M16210,5833c0-14,77-149,146-257c63-99,94-128,94-90c0,18-170,295-203,332C16227,5840,16210,5847,16210,5833z"
		/>
	<path class="st0" d="M6750,5261c0-6,4-13,10-16c5-3,121-22,257-41c204-28,421-62,596-92c19-3,27,0,27,11c0,10-17,19-47,26
		c-102,23-384,70-513,85c-74,9-159,20-189,26C6824,5273,6750,5273,6750,5261z"/>
	<path class="st0" d="M16368,4618c-38-50-48-74-47-110c1-49,41-163,59-166c21-4,39,84,42,208c3,80,1,95-13,98
		C16400,4649,16382,4636,16368,4618z"/>
	<path class="st0" d="M4570,8900c0-16,11-18,200-35c96-9,279-32,405-51c127-19,255-37,285-40s69-12,87-20c17-8,40-14,50-14
		c11,0,89-16,174-35c162-37,222-44,202-24c-13,13-298,83-398,98c-33,5-103,19-155,31c-108,23-399,63-634,85
		C4598,8913,4570,8913,4570,8900z"/>
	<path class="st0" d="M6190,8342c0-5,9-17,20-27s20-28,20-41c0-38,98-104,178-120c52-10,41,21-18,51c-56,28-64,40-22,32
		c15-3,34-1,42,4c19,12,6,21-70,50c-30,11-70,29-88,40C6217,8351,6190,8356,6190,8342z"/>
	<path class="st0" d="M6496,7884c-11-30-6-259,10-417c9-87,13-161,9-165c-3-4-22,10-41,31c-41,44-54,47-54,10c0-19,14-40,50-74
		c28-27,46-50,40-54c-18-11-11-43,11-50c15-5,25-1,35,14c9,12,21,21,29,21c24,0,26,17,5,53c-24,41-57,280-66,495
		C6517,7883,6510,7920,6496,7884z"/>
	<path class="st0" d="M14395,7741c-17-4-42-15-55-24c-14-9-61-26-105-37c-87-24-120-44-96-59c8-6,25-5,40,0c14,6,59,17,101,24
		c57,11,80,20,95,39c14,17,34,27,65,31c68,10,78,14,60,25C14483,7751,14439,7751,14395,7741z"/>
	<path class="st0" d="M14384,7544c-21-14-55-41-74-59c-44-43-108-71-189-84c-68-11-88-22-76-41c15-24,114-4,200,39
		c73,37,215,140,223,162C14475,7580,14421,7569,14384,7544z"/>
	<path class="st0" d="M13304,7029c-10-16,4-140,31-264c177-831,209-944,304-1075c17-24,35-59,41-79c11-41,105-157,143-178
		c33-17,57-7,57,22c0,17-10,28-37,42c-21,10-43,28-48,39c-6,12-16,29-23,37s-17,44-23,79c-11,71-34,110-70,118c-43,9-90,125-153,378
		c-76,311-141,605-161,737c-10,61-21,120-26,133C13330,7042,13315,7047,13304,7029z"/>
	<path class="st0" d="M3501,6749c-13-5-49-25-80-43s-94-53-141-78s-148-80-225-124c-146-81-278-144-306-144c-25,0-709-228-884-295
		c-150-56-372-148-560-232c-137-61-537-271-552-291c-16-19-17-42-2-42c5,0,70,33,142,74c246,137,589,306,622,306c4,0,33,11,64,24
		c252,110,1082,406,1136,406c6,0-12-13-40-28c-27-16-79-47-115-69c-36-23-96-60-135-84c-159-96-195-123-195-146c0-14,72,22,161,81
		c26,17,59,39,75,48c32,19,43,26,126,81c32,20,66,40,75,44c10,4,42,22,71,40c82,53,209,111,302,140c97,30,97,30,84,43
		c-6,6-22,6-42,1c-18-5-32-8-32-6s21,16,48,31c26,16,56,34,67,41s30,17,42,22s62,35,112,66s113,62,139,70c50,15,102,49,102,66
		C3560,6762,3532,6762,3501,6749z"/>
	<path class="st0" d="M5701,6740c-91-33-98-60-11-43c43,9,50,8,50-6c0-32-52-227-68-253c-13-22-14-30-4-40c24-24,13-49-28-65
		c-22-9-40-20-40-26c0-15,92,1,110,18c10,10,24,79,42,198c15,100,30,194,34,210C5794,6767,5779,6768,5701,6740z"/>
	<path class="st0" d="M13533,6713c3-27,21-97,40-158c34-106,57-144,57-91c0,15,6,29,14,32c36,14,27,51-25,112c-16,18-29,38-29,45
		c0,19-44,107-54,107C13531,6760,13530,6739,13533,6713z"/>
	<path class="st0" d="M14094,6044c-85-133-124-249-84-249c15,0,138,254,139,288C14150,6115,14130,6101,14094,6044z"/>
	<path class="st0" d="M13464,5565c-17-44,43-210,116-324c49-75,120-124,171-118c32,4,40,1,58-24c19-26,28-29,77-29
		c64,0,91,12,104,46c16,42,1,85-36,100c-20,8-45,31-59,54c-29,46-45,44-45-4c0-24,11-46,38-77c72-85,72-83,28-65c-22,9-44,23-50,32
		c-8,10-36,18-81,22c-68,7-69,8-79,40c-8,30-13,33-38,30c-23-4-32,1-47,26c-32,52-102,219-109,261C13504,5577,13475,5595,13464,5565
		z"/>
	<path class="st0" d="M8766,5365c-25-23-26-29-26-118c0-75-3-96-15-101c-19-7-19-36,1-86c16-40,34-53,34-25c0,13,3,13,20,3
		c10-7,22-9,26-6c3,4,0,68-7,143c-9,97-10,138-2,146c16,16,29-271,14-321c-6-20-11-60-11-88c0-53,16-70,54-56c21,8,22,112,0,334
		C8835,5399,8824,5419,8766,5365z"/>
	<path class="st0" d="M528,5040c-26-38-104-210-117-255c-6-22-11-68-11-103c0-60,1-63,23-60c19,3,23,10,28,68c9,102,27,174,65,262
		C552,5037,559,5087,528,5040z"/>
	<path class="st0" d="M13917,5044c-16-16-5-42,22-54c16-6,44-23,62-36c40-30,41-30,76,0c16,13,54,29,87,36c76,15,106,29,106,48
		c0,11-7,13-37,6c-45-11-235-10-278,0C13938,5048,13922,5048,13917,5044z"/>
	<path class="st0" d="M5467,4669c-50-29-348-67-828-104c-666-53-892-74-902-84c-18-18,93-14,634,24c1005,70,1117,85,1127,153
		C5502,4682,5494,4685,5467,4669z"/>
	<path class="st0" d="M6140,4660c0-29,36-40,168-51c89-7,119-13,139-29c14-11,32-20,40-20s28-11,45-25c32-27,49-30,79-15
		c16,9,19,7,19-13c0-14,6-29,13-35c14-11,81-23,145-25c37-1,43-5,48-27c18-86,62-123,142-118c63,4,63,27-1,43c-27,7-52,16-58,22
		c-5,5-13,36-17,69l-7,59l-100,5c-55,4-106,9-113,14c-6,4-12,19-12,33c0,18-4,24-15,19c-9-3-15,0-15,9c0,8-5,15-12,15s-27,15-46,33
		c-32,31-34,31-47,13c-13-17-15-17-30-2c-13,12-37,16-103,16c-48,1-114,7-147,15C6169,4686,6140,4685,6140,4660z"/>
	<path class="st0" d="M5418,4513c-39-40-47-66-26-79c15-10-21-21-68-23c-36-1-57-21-48-44s38-26,106-11c88,20,99,29,69,53
		c-17,13-22,24-17,36c5,14,9,16,18,7c17-17,28-15,28,7c0,25,26,31,140,31c102,0,127,8,116,35c-5,14-19,16-88,14c-46-1-108,1-138,5
		C5455,4552,5455,4551,5418,4513z"/>
	<path class="st0" d="M13073,4428c-26-48-23-172,6-268c26-86,88-214,150-312c47-75,66-86,58-35c-4,26,2,39,29,69
		c28,32,94,145,94,163c0,3-6,5-14,5s-39-34-70-75s-61-77-66-80c-13-8-102,172-129,260c-31,98-39,221-17,262c20,40,20,43-4,43
		C13098,4460,13084,4447,13073,4428z"/>
	<path class="st0" d="M2114,4430c-85-11-124-25-124-44c0-30,72-35,176-10c51,11,109,14,234,12c164-3,167-3,202-30c20-15,39-39,42-53
		c5-21,12-25,44-25c21,0,88,9,148,20s189,25,286,31c196,12,271,5,342-32c33-17,63-22,156-26c170-6,200-11,200-33c0-10,8-21,18-25
		c9-3,90-1,179,6c127,9,166,9,177,0s33-10,94-1c56,7,99,8,144,0c34-5,196-10,358-10c213,0,320-4,385-15c50-8,109-12,132-9
		c53,8,59-3,40-77l-14-54l-38,3l-37,4l7-54c5-39,3-65-8-90c-14-34-19-37-69-42c-58-7-709-22-1293-31c-440-6-575-13-575-28
		c0-10,595-7,1526,10l381,6l6-68c4-38,5-70,3-72s-246-8-542-14c-296-5-540-11-542-14c-3-3-2-8,2-12c4-5,248-7,541-6l532,2l6-107
		c2-59,12-138,22-177c17-69,17-71-7-165l-24-95l-245-7c-134-3-485-11-779-18c-744-17-918-24-932-38c-6-6-8-15-4-19c9-9,44-9,691,12
		c451,15,917,21,1030,13c28-2,94,1,147,5l97,8l25-38l25-38l-35-100c-27-79-33-109-29-145c5-37,2-52-17-80l-23-34l-290-22
		c-387-30-417-33-412-47c6-19,107-20,307-3c102,8,231,17,287,20c93,5,104,3,113-14c20-37,9-118-70-514c-99-501-99-496-106-586
		c-5-60-3-79,10-95c22-28,32-9,39,78c3,40,33,214,67,387c76,392,80,410,92,410c6,0,7-7,2-17c-7-17-24-194-26-278c0-22,3-90,7-150
		c7-96,5-125-15-215c-23-109-23-197,1-226c20-25,29-15,29,34c0,26,11,98,25,160c30,132,34,221,15,315c-13,63-12,73,7,137
		c17,58,18,77,10,110c-8,29-8,52,1,85c17,63,15,83-8,97c-30,19-25,38,30,122c53,81,62,116,32,116c-10,0-27,7-39,15
		c-26,18-23,54,8,117c11,21,19,55,19,76s6,61,14,88c21,75,18,180-7,221c-17,29-19,45-14,111c6,73,38,192,70,257c8,17,26,96,38,178
		c20,124,26,147,41,147c11,0,20,11,26,32c4,18,16,34,25,36c13,3,17-7,19-50c3-46,6-53,25-56c14-2,23,3,27,15c12,39,26,151,26,205
		c0,31,3,59,8,62c4,2,37-22,74-55c56-50,70-70,93-128c14-38,35-77,45-86c29-26,26-106-11-288c-30-148-31-157-24-342
		c6-184,2-235-31-467c-5-39-4-48,8-48c44,0,52,60,67,475c8,220,14,288,32,365c15,65,22,130,23,207c1,101-1,113-21,135
		c-11,12-38,52-59,88s-61,89-88,119c-28,29-60,72-71,95l-20,41l-71,1c-83,1-89,4-102,43l-11,30l67-6c51-4,72-1,87,10
		c34,26,6,37-121,47c-65,6-150,17-189,25c-100,21-233,35-355,36l-105,2l85,8c46,5,88,13,93,18c19,19-65,22-284,11
		c-123-6-296-14-384-17c-206-7-700,14-780,33c-140,35-154,35-434,25c-152-6-307-16-345-22l-68-11l-37,36c-64,62-94,69-301,72
		C2268,4437,2153,4435,2114,4430z"/>
	<path class="st0" d="M2280,4356c0-9,3-16,8-16c4,0,13-4,20-9c11-7,11-12,1-28c-19-31-3-72,34-88c18-7,133-25,257-39
		c334-40,413-61,425-115c4-17,11-31,17-31c31,0,51,78,26,97c-37,28-189,56-454,83c-110,11-214,25-231,31c-29,10-31,12-21,39
		c5,16,8,41,6,57c-3,25-7,28-45,31C2289,4370,2280,4368,2280,4356z"/>
	<path class="st0" d="M8260,4354c-134-18-435-35-516-29c-246,17-246,17-242-7c3-23,7-23,198-33c118-6,190-13,181-19
		c-7-5-122-12-255-17c-132-4-315-14-406-20c-130-9-226-9-450,1c-340,16-717,9-799-14c-66-18-90-38-72-60c17-21,40-24,266-41
		c110-8,207-15,215-16s-7-5-33-9c-58-10-65-15-50-39c11-17,2-20-119-40c-142-24-148-25-148-47c0-19,3-19,276,21l239,35l185-16
		c179-16,270-32,189-33c-52-1-136-29-151-49c-7-10-18-21-24-25c-7-4-92-14-190-22c-357-30-467-43-482-59c-8-8-15-28-16-45
		c-1-21-7-33-19-37c-20-6-44-50-34-61c4-3,38-1,76,6c86,14,138,14,146,1c12-20,18-150,7-150c-21,0-177,52-199,66c-13,8-23,23-23,34
		c0,24-41,28-60,5c-40-48,39-106,187-136c100-21,113-28,113-66c0-33-14-36-82-19c-94,24-158,56-164,83c-7,27-44,32-65,7
		c-10-12-10-22-1-48c7-18,12-46,12-63c0-37,41-82,83-90c20-4,25-9,18-16c-21-21-11-47,30-77c23-16,58-34,77-39c19-6,46-20,59-33
		c22-20,36-23,126-26c133-4,140-7,92-39c-27-18-58-28-99-32c-45-4-61-10-61-21s17-17,60-24c52-7,99-2,310,34c138,23,275,48,305,56
		c82,20,338,52,554,69c268,21,250,23,242-22c-18-103-18-174-1-245c20-83,31-108,47-108c5,0,26-13,45-30c18-16,40-30,48-30
		c10,0,15-10,15-28c0-37,21-65,46-60c15,3,19,12,18,40c-1,41-4,39,101,53c54,7,85,20,85,35c0,5-39,11-87,12l-88,3l3,35
		c7,63,41,155,77,205c38,55,43,73,20,81c-10,4-13,14-9,31c6,23,4,24-27,21c-29-3-34-7-37-32c-3-26-1-28,23-24l27,6l-34-35l-33-34
		l-6,32c-11,52-51,65-57,18c-2-13-14-35-27-49c-12-14-34-47-48-75l-26-50v35c1,62,22,112,54,130c20,11,30,24,30,41c0,19-8,27-42,37
		c-24,8-43,18-43,23s47,9,103,9c89,0,107,3,127,20c27,23,33,25,130,40c41,6,84,14,95,16c11,3-4-9-32-25c-29-17-53-36-53-41
		c0-16,51-11,106,9c66,25,363,84,589,116c99,14,185,27,192,30c14,5,33-78,36-161l2-58l-39-8c-22-5-44-12-50-17s-39-11-74-13
		c-67-5-89-17-78-44c5-14,15-15,59-10c28,4,84,18,123,32c39,13,74,24,77,24c9,0,8-117-1-185c-6-42-11-51-29-53c-29-4-30,20-3,55
		c26,34,25,55-4,82c-32,30-58,24-68-16c-11-41-35-57-117-78c-36-9-92-29-126-44l-60-28l-231,10c-258,11-286,7-292-46
		c-3-23,0-27,22-27c14,0,28,5,31,10c8,12,315,14,315,1c0-4-21-11-47-14c-194-25-400-60-411-71c-7-7-10-20-6-31c6-15,16-17,73-12
		c36,3,196,31,354,61c223,43,483,86,521,86c2,0-7-28-19-63c-13-34-26-88-30-120l-7-57l-52-15c-173-50-638-150-749-162
		c-48-5-61-3-68,10c-5,8-22,18-38,22c-23,5-30,13-36,42c-6,31-9,34-31,29c-23-6-24-5-21,41c2,43,0,48-21,51c-17,3-25-2-29-18
		c-5-21-7-20-19,9l-13,31l-38-20c-20-11-38-18-40-17c-1,2,3,18,9,35c11,29,10,37-12,77c-27,50-38,53-113,30c-26-8-132-19-235-25
		c-351-20-509-37-553-61c-26-13-689-2-689,12c0,5,9,9,20,9c24,0,26,16,5,36c-8,9-15,27-15,42s-3,37-6,49c-5,18-1,22,23,25
		c33,4,39,31,7,36c-17,2-21,10-20,40c1,46-28,58-44,18c-5-14-16-26-24-26s-54,20-104,45c-100,50-192,128-192,163c0,15-6,22-20,22
		c-17,0-20-7-20-40c0-35,7-48,45-89c45-48,143-107,218-131c48-15,67-35,67-69c0-15,5-32,12-39c47-47-113,37-221,116
		c-52,38-61,39-61,11c0-33,75-94,177-147c64-32,93-53,93-64c0-24-4-23-97,17c-83,36-138,45-131,23c7-19,72-54,168-88
		c91-34,100-41,100-82c0-25-4-28-31-28c-17,0-39-5-50-11c-17-9-33-1-104,50c-99,72-115,80-115,55c0-26,85-103,165-149
		c41-24,76-52,87-71c26-44,48-50,71-22c18,23,19,22,13-58c-3-46-13-98-22-118c-17-35-17-36,4-59c26-28,28-64,6-96c-15-21-15-29,1-98
		c17-73,43-113,72-113c7,0,13,11,13,27v27l16-22c21-31,41-28,64,11c24,38,26,85,5,93c-8,4-15,10-15,15c0,21,66,32,245,39
		c105,4,285,19,400,34c116,14,298,33,405,41c220,18,260,26,260,57c0,20-3,21-120,14c-131-8-162,4-62,24c93,19,101,21,113,36
		c19,23-17,29-96,15c-131-22-199-44-210-68c-5-13-15-25-22-28c-7-2-197-23-421-45s-419-42-434-45c-27-4-28-3-28,43
		c0,26-10,91-22,145c-21,94-23,98-48,95c-23-3-25,0-24,37c1,57,11,92,30,99c9,3,217,10,462,16c605,13,590,11,714,66
		c57,24,117,44,135,44c44,0,51,18,13,32l-32,10l43,29c24,15,44,27,46,25s-3-29-10-62c-10-45-18-60-33-62c-36-6-74-24-74-37
		c0-14,24-36,64-55c42-22,53-53,33-95c-18-38-33-43-63-20c-18,14-18,16-1,29c39,30,2,65-48,46c-49-19-41-80,15-112
		c23-13,30-24,30-47c0-33,32-63,58-54c12,5,14,1,10-15s6-34,41-70c39-40,57-52,100-61c64-14,141-14,161-1c13,9,12,12-4,25
		c-11,8-36,15-55,15l-36,1l25,13c14,8,86,27,160,44c124,28,837,172,921,186l36,6l7-46c3-26,6-95,6-154v-108l-27-11
		c-28-11-35-15-103-58c-45-28-143-53-245-63c-44-4-111-15-150-23c-38-9-178-30-310-47c-131-17-255-34-275-40c-19-5-66-12-104-16
		c-58-6-74-12-105-39c-20-18-53-40-73-48l-37-16l6,44c3,25,1,50-5,57c-18,23-24,94-11,137c15,49,0,74-40,69c-26-3-26-3-25-93
		c0-49,4-113,8-141c8-46,6-53-12-63c-23-12-201-36-387-51c-71-6-134-16-140-21c-19-19,19-30,90-25c39,3,126,8,193,12l124,7l-4-23
		c-3-25-38-36-196-62c-67-11-75-11-83,5c-13,23-35,21-52-3s-123-40-289-44c-55-1-103-7-111-14c-7-6-65-18-128-27
		c-63-8-139-19-168-25c-85-16-101-14-101,14c0,31-57,156-71,156c-8,0-10-12-6-35c5-31,3-35-15-35c-11,0-36,9-54,21
		c-30,18-34,26-34,64c0,23,7,62,15,85c19,54,19,57-5,63c-17,4-20,14-20,59c0,29-3,63-6,76c-9,33-32,27-38-10c-42-299-84-498-105-498
		c-4,0-30,7-57,15s-66,15-86,15c-35,0-38-2-38-29c0-16,4-41,9-54c8-22,7-24-10-20c-10,3-26,3-34-1c-14-5-14-9-1-34
		c20-39,44-58,57-45c7,7,25,5,57-7c26-10,73-28,106-40c46-18,60-20,66-10c11,18,4,36-38,94c-25,36-29,47-16,41c11-4,31-10,47-13
		c27-4,27-4,27,52c0,31,4,56,8,56c12,0,37-30,46-54c4-12,13-17,26-13c11,3,20,1,20-4s35-9,79-9c57,0,82,4,91,15c7,8,29,19,49,25
		c61,16,322,52,329,45c10-10,7-240-4-315c-11-76,6-68-208-105c-160-27-199-40-204-68c-5-24,25-22,178,7c176,35,206,36,226,8
		c18-27,28-23-136-52c-180-31-185-32-188-58c-3-22-1-22,111-22c122,0,147,4,147,25s36,26,229,32l183,6l-7-34c-4-19-13-48-20-66
		l-14-32l-50,21c-28,12-53,19-57,15c-9-8,78-107,94-107c27,0,70,57,88,116c10,32,21,63,26,69c5,5,81,13,171,17c231,10,286,23,287,67
		c0,11-12,12-57,6c-32-4-89-11-128-15c-38-5-116-9-172-10h-102l6,33c13,71-9,65,332,88l164,11l19-24l19-23l16,23c12,17,25,22,59,22
		c58,0,94,15,94,39c0,21-18,31-57,31c-25,0-26,0-8,20c17,18,17,20,1,20c-9,0-33-7-54-16c-20-9-75-18-122-21c-47-2-103-11-124-19
		c-24-9-94-18-179-21l-140-6l6,24c3,13,9,100,13,192c6,160,8,169,28,177c12,4,107,13,212,20c104,6,202,16,218,21s30,8,31,7
		c21-27,25-50,10-70c-21-31-19-71,6-94c21-19,21-18,45,9c26,31,30,47,12,47c-7,0-2,7,10,16c12,8,22,22,22,31c0,28,124,184,164,205
		c24,13,25,15-36-62c-56-71-136-194-160-247c-12-26-24-51-26-55c-2-5,11-8,30-8c18,0,41-7,52-15c29-22,50-4,96,83
		c38,74,98,156,86,119c-3-9-8-46-12-82c-5-52-4-65,7-65c8,0-2-8-21-18c-42-21-50-52-20-80c13-12,17-22,11-26c-16-11-68-106-101-190
		c-32-80-34-126-5-126c8,0,15-1,15-3s-5-28-10-59c-12-66-1-108,29-108c28,0,45,34,29,59c-26,41,38,226,122,355c60,92,78,105,45,32
		c-14-31-36-80-49-109c-60-133-95-304-66-322c28-17,73,26,50,49c-18,18-11,65,21,144c35,90,120,253,155,299c25,33,62,59,71,50
		c2-3-16-40-41-84c-72-124-158-329-163-394c-9-97,35-131,78-61l21,32h-27c-25,0-26,2-20,32c7,32,24,76,76,198
		c47,108,156,285,178,288c12,2,21,0,21-3c0-4-20-44-45-89c-52-95-90-192-114-291c-15-58-21-71-40-73c-16-3-21-9-19-25
		c4-26,9-26,185-8c143,14,178,23,209,52c18,17,37,22,98,24c72,3,77,4,109,39c30,32,40,36,83,37c27,0,65,5,84,12c28,10,36,19,47,55
		c6,24,23,57,37,73c31,37,33,79,5,105c-33,30-41,51-28,76c22,44,62,78,91,78c15,0,28-1,28-2c0-2-15-79-34-173c-45-225-52-270-38-261
		c15,9,42,100,86,286c52,224,58,245,81,248c43,5,48-9,57-165c17-341,42-522,74-553c18-16,18-33-7,215c-5,50-12,206-15,347l-7,257
		l24,5c13,3,277,13,586,22c671,18,765,24,771,43c4,12-34,13-259,8c-145-4-456-10-690-14l-426-6l-6,24c-4,13-6,78-5,144l2,120l3-102
		c3-82,7-103,18-103c12,0,15,22,15,130v130h36c30,0,34,3,25,14s-2,14,39,19c28,3,79,4,114,0c38-3,85-1,117,7c29,7,69,13,89,12
		c19-1,42,3,50,8c35,23-20,30-242,30h-226l-6,63c-2,34-10,121-15,192c-14,165-58,517-72,570c-5,22-17,74-24,115c-13,63-13,77-1,88
		c12,12,16,8,26-24c17-55,38-84,59-84s31,35,31,106c0,51-16,58-32,13c-12-35-28-23-28,22c0,14-6,34-14,44c-12,17-17,18-41,7
		c-15-7-29-11-31-10c-6,7-44,285-43,323c0,22,9,58,19,80l19,40v-68c1-81,12-107,42-100c19,5,20,11,15,57c-17,150-17,233-2,304
		c16,72,16,75-5,103c-25,35-55,53-64,39c-4-6-1-32,5-58c11-43,10-52-14-107c-23-50-26-68-20-112l6-52l-54-54c-97-98-170-121-408-133
		c-69-3-219-21-333-40c-193-31-257-35-257-14c0,5,6,10,13,13c9,3,7,13-7,41c-17,31-17,40-6,61c11,20,11,30,0,56c-12,27-11,36,5,65
		c15,29,16,40,7,73c-7,21-12,48-12,60c0,28-26,38-49,17c-31-28-56-20-67,22l-10,39l195,27c108,14,261,33,341,41
		c184,20,498,71,564,93c32,11,52,24,54,35c4,20-30,23-74,7c-41-16-535-64-914-89c-141-10-229-4-202,13c17,10,342,41,642,60
		c420,27,533,37,554,48c46,25-22,27-330,13c-278-13-402-21-786-52c-74-6-78-5-78,15c0,16,8,21,38,26c77,12,434,46,637,61
		c380,28,425,36,425,71c0,13-7,15-32,11c-56-10-233-26-473-42c-126-9-292-23-369-31c-265-27-280-9-21,25c338,45,516,62,827,79
		c76,5,140,11,144,14c51,51-521,26-984-42c-176-26-212-26-212,0c0,10,9,24,19,30c42,22,504,73,821,90c193,10,230,16,230,33
		c0,7-76,8-237,4c-263-7-431-19-598-43c-129-18-188-16-193,7c-2,14,12,17,95,22c107,6,329,52,353,74c12,11,10,13-15,12
		C8368,4368,8312,4361,8260,4354z M7743,4200c-56-6-82-15-118-39l-46-31h-172c-95,0-246-5-337-11c-220-15-304-16-308-4
		c-4,15,240,43,438,50c96,3,207,13,245,20c110,22,113,22,245,22C7803,4207,7808,4207,7743,4200z M6676,4193l139-7l-90-12
		c-49-6-136-17-193-24c-83-11-142-12-314-2c-116,6-215,15-220,20c-6,6,26,12,89,16c54,4,109,8,123,10C6263,4200,6543,4200,6676,4193
		z M7523,4083l107-6v-28c0-18-7-32-20-39c-28-15-25-33,10-58c62-46,57-47-388-49c-444-2-474,2-270,38c61,10,114,21,116,24
		c2,2,2,11-1,19c-8,21-66,35-202,47c-66,5-124,11-130,13c-11,3,386,35,485,39C7379,4090,7422,4090,7523,4083z M6752,3688
		c3-22,7-23,103-23c55,0,151,4,213,9c106,8,112,8,112-10c0-17,49-74,64-74c11,0,6,66-6,78c-18,18-1,20,232,27c118,3,229,8,246,11
		c21,4,36,1,48-11c22-22,11-33-38-37c-22-2-41-8-43-14c-6-19,26-44,60-46c19-1,10-4-23-7c-72-8-73-28-2-51c29-10,55-20,58-23
		c14-14-10-25-66-31s-61-9-58-29c3-19,10-22,59-25c53-3,56-4,52-26c-3-13,0-27,6-30c19-12,13-65-9-78c-22-14-28-58-7-58
		c29-1-21-18-68-24c-43-5-46-4-22,5c26,10,38,39,17,39s-8,16,22,28c24,9,29,15,21,23c-9,9-52,6-170-12c-147-22-193-24-675-27
		c-285-2-518-2-518,0c-1,2-5,87-10,189s-12,198-15,212l-7,26l143,4c79,1,174,4,211,5C6744,3710,6749,3709,6752,3688z M6925,3209
		c-49-10-128-23-175-28c-96-13-420-27-420-19c0,3,5,19,11,37l11,31l331-1l332-1L6925,3209z M9205,2345c4-224,3-388-3-415l-10-45
		l-1,56c-1,31-8,78-16,105s-18,101-21,165c-7,111-6,118,15,135c26,23,27,50,1,57c-12,3-20,14-20,25c0,34-11,52-31,52
		c-10,0-19-5-19-11c0-5-4-7-10-4c-14,8-13,48,2,63c9,9,7,16-7,32c-21,23-24,124-6,173c10,25,15,28,39,22c21-4,33,0,48,16l19,21l7-38
		C9196,2732,9202,2549,9205,2345z M7340,2550c177-1,171-16-10-27c-58-3-108-10-111-15c-6-10-234-20-690-33l-225-6l-11,47l-11,46
		l452-6C6982,2553,7255,2550,7340,2550z M7870,2405c-6-51-8-104-5-118c8-30,32-42,51-26c11,9,14,5,14-20c0-33-21-48-93-66
		c-22-6-27-4-27,12c0,11,9,28,20,38c19,17,27,45,13,45c-3,0-14-7-24-16c-15-14-14-6,6,51c29,78,31,103,10,111c-20,8-19,30,1,38
		c12,5,15,14,11,35c-5,23-2,30,11,33C7882,2527,7884,2510,7870,2405z M9015,2465c0-18-20-24-175-57c-96-21-314-69-485-108
		c-170-39-320-73-332-75c-29-7-29,7-2,80c15,40,25,55,40,55c14,0,19-7,19-30c0-27,3-30,33-30c38,1,303,57,607,128
		C9020,2498,9015,2497,9015,2465z M9070,2395c22-27,19-27-251-75c-96-17-296-55-446-85c-242-49-319-62-288-49c6,2,80,20,165,40
		c491,113,632,146,695,163C9032,2413,9054,2414,9070,2395z M9124,1887c8-12,19-54,24-94c8-70,8-71-12-61c-12,7-51,8-103,4
		c-46-3-83-4-83-1c0,2,14,20,31,39c21,24,42,37,67,41c75,12,82,15,82,35c0,13-9,22-25,26c-25,6-31,15-18,27
		C9098,1915,9109,1911,9124,1887z M8822,1732l36-19l-76-11c-43-7-140-19-217-27c-159-17-192-23-217-39c-22-14-23-34-1-58
		c20-23,29-23,36,0c5,23,30,28,185,42c64,6,158,17,207,25c50,7,146,19,215,26c69,6,135,15,148,20c21,8,22,6,21-34c-2-73-11-91-49-97
		c-29-4-36-10-38-31c-3-30-23-39-84-39c-20,0-49-5-63-12c-21-9-31-9-46,1c-17,10-28,8-72-13c-66-33-178-61-320-82
		c-67-9-124-24-143-35c-40-24-42-24-46,8c-5,40-20,38-74-9c-27-24-58-50-69-58c-17-13-17-12,3,17c47,66,20,71-50,8
		c-55-49-95-66-108-45c-14,23,10,59,39,57c26-2,26-2,32,94c4,53,12,113,19,133c26,81-12,87-90,14c-31-29-25-22,12,15
		c38,37,79,72,92,77c13,4,145,22,293,39c148,18,290,35,314,40C8776,1752,8783,1752,8822,1732z M7116,1395c-4-14-1-78,5-142
		c12-135,6-198-20-213c-23-12-328-47-336-38c-4,3-1,23,5,45c7,21,15,102,19,180c3,82,11,147,17,153c12,12,191,37,273,39
		C7120,1420,7122,1419,7116,1395z M8530,1265c0-2-20-33-45-69c-57-81-118-204-140-280c-9-32-26-67-36-77c-24-24-52-25-45-1
		c3,9,10,37,16,61c27,105,163,355,198,364C8502,1270,8530,1271,8530,1265z M8701,1189c-55-104-85-201-78-255l5-44h-45
		c-24,0-58-7-74-16c-17-8-33-13-36-11c-8,8,55,127,112,212c67,99,145,198,151,192C8739,1265,8723,1229,8701,1189z M8850,1198
		c0-15-112-222-133-245c-16-18-22-20-32-9c-22,21,35,177,91,253c22,29,27,31,49,21C8839,1212,8850,1203,8850,1198z M7100,960
		c0-6-7-26-14-45l-15-35h-135h-136v25c0,33,24,43,130,54C7053,971,7100,971,7100,960z"/>
	<path class="st0" d="M7088,4343c-19-5-31-30-22-45c4-6,24-7,48-4c22,3,102,11,176,17c141,11,161,16,139,30
		C7415,4350,7120,4352,7088,4343z"/>
	<path class="st0" d="M13431,3904c-56-63-113-119-126-124c-44-17-41-69,4-70c36,0,251,256,251,299C13560,4039,13524,4009,13431,3904
		z"/>
	<path class="st0" d="M13550,3730c-73-77-137-140-141-140c-5,0-20,22-34,49c-42,85-72,83-37-2c27-65,27-61-3-91c-40-40-33-56,24-56
		h49l7-50c6-47,5-53-24-85c-35-41-37-48-16-65c13-11,20-11,40,0c14,7,26,11,28,9c37-45,37-52,11-80c-30-31-27-59,6-59
		c11,0,39,17,61,38c46,40,182,215,201,257c25,56-9,35-97-58l-92-99l-12,45l-13,45l55,73c49,67,87,129,87,144c0,3-7,5-15,5
		s-36-27-62-60c-42-55-48-59-63-45c-22,20-40,19-40-2c0-14-2-14-20,2c-21,19-20,19,33,74c145,150,246,291,209,291
		C13687,3870,13622,3807,13550,3730z"/>
	<path class="st0" d="M8599,3786c-2-2-65-12-139-21c-170-20-180-22-180-40c0-7,16-29,35-47s43-48,53-67c18-37,52-59,37-25
		c-4,11-10,31-13,46c-2,15-10,33-18,39c-23,19-16,27,29,34c163,25,307,60,307,75C8710,3789,8608,3795,8599,3786z"/>
	<path class="st0" d="M3181,3662c-7-5-11-16-9-23c3-10,25-14,74-15c38,0,164-4,279-9c207-8,305-3,305,16c0,5-42,9-92,9
		c-51,0-149,5-218,10C3291,3668,3195,3671,3181,3662z"/>
	<path class="st0" d="M4525,3353c-290-6-620-38-668-65c-21-11-21-12,13-19c19-4,82-1,140,6c148,19,351,33,592,41c170,6,210,4,224-7
		c25-20,181-17,202,5c9,8,12,19,8,23C5018,3356,4858,3361,4525,3353z"/>
	<path class="st0" d="M5344,3195c-12-67,0-147,30-191c23-36,28-57,35-143c4-56,11-104,14-108c16-15,22,15,25,122c3,105,2,116-23,165
		c-15,29-32,82-39,118C5372,3233,5354,3249,5344,3195z"/>
	<path class="st0" d="M5907,3143c-15-15-5-51,21-75c70-67,273-154,339-146c57,6,30,32-73,69c-147,53-153,58-69,59c39,0,76,4,84,9
		c20,13,4,31-27,31c-15,0-35,7-45,15c-12,8-31,11-52,8c-27-4-35-1-44,16c-10,18-21,21-70,21C5939,3150,5910,3147,5907,3143z"/>
	<path class="st0" d="M4395,2821c-127-7-155-13-155-31c0-14,823-7,827,7c2,6-9,13-24,17C4997,2823,4535,2829,4395,2821z"/>
	<path class="st0" d="M5963,2409c-5-17-11-19-32-14c-48,13-56,11-59-16c-2-19,8-39,36-72c30-35,38-51,35-71c-7-35,9-52,88-91
		c36-19,84-51,105-71l39-37l-23-10c-17-8-32-7-55,2c-18,7-50,18-72,25c-22,6-46,15-53,20c-17,11-27,0-41-46c-7-20-19-42-27-48
		c-19-16-18-60,1-60c18,0,18,14-1-213c-9-103-14-194-10-202c3-8,14-15,25-15c20,0,22,11,37,211c3,48,11,93,16,100c6,9,7-10,2-56
		c-5-38-8-106-9-150c0-75,1-80,22-83c26-4,29,11,38,178l6,115l37,32l37,33h-39c-52,0-40,9,30,24c61,12,80,30,42,39
		c-13,4-54,20-92,37c-50,23-66,34-58,42s31,2,82-21c52-24,78-31,98-26c42,10,52,24,52,71c0,38-4,46-43,78c-23,19-68,50-100,68
		c-51,29-61,41-88,97l-29,64l47-7c76-9,85,5,35,53C5995,2434,5971,2441,5963,2409z"/>
	<path class="st0" d="M10655,2340c-11-19,7-32,36-26c16,3,52,1,81-4s253-30,498-55c412-41,521-56,656-87c81-18,142,8,71,31
		c-56,19-373,60-664,86c-153,14-343,34-423,45C10750,2352,10664,2355,10655,2340z"/>
	<path class="st0" d="M4366,2265c-111-14-140-25-118-47c9-9,52-8,188,6c97,10,224,16,282,15c78-3,106-1,109,8c3,7-7,17-22,23
		C4769,2284,4498,2281,4366,2265z"/>
	<path class="st0" d="M7800,1866c0-19,9-32,33-46c27-17,49-20,147-19c131,1,203,15,208,42c3,14-5,17-52,17c-31,0-56,4-56,10
		s-34,9-82,7c-46-1-109,2-140,6C7800,1891,7800,1891,7800,1866z"/>
	<path class="st0" d="M14385,1718c28-92,219-328,266-328c10,0,19,3,19,6s-34,44-76,92c-41,47-93,113-114,147c-59,92-70,105-86,105
		C14383,1740,14380,1734,14385,1718z"/>
	<path class="st0" d="M5801,1106c-7-8-10-20-6-26c11-17-25-109-57-146c-31-35-58-45-58-20c0,7-10,26-22,42c-16,20-23,42-23,73
		c0,46-19,67-29,33c-4-11-7-45-8-76c-1-54,0-59,42-101l43-44l38,20c21,10,41,19,44,19s5-15,5-34c0-43,31-82,71-90
		c60-12,152-111,219-236c45-83,65-99,99-78c45,28,14,85-121,225c-62,64-68,74-57,92c10,15,10,25,1,46c-11,23-10,32,3,51
		c20,31,19,34-8,34c-31,0-67,27-67,50c0,14,5,18,17,13c13-5,15-2,10,11c-4,10-7,26-7,37c0,13-7,19-22,19c-36,0-46,12-50,55
		c-2,32-7,41-24,43C5823,1120,5808,1114,5801,1106z"/>
	<path class="st0" d="M9140,1105c-6-8-14-31-17-52c-5-41,34-373,45-385c4-4,13-4,19,0c17,11,18,364,1,415
		C9174,1122,9160,1129,9140,1105z"/>
	<path class="st0" d="M9530,885c0-19,36-25,229-36c97-5,188-12,204-15c32-7,35,6,7,31c-21,19-51,22-292,29
		C9562,897,9530,895,9530,885z"/>
	<path class="st0" d="M7588,768c-32-25-32-56,1-88c16-17,39-30,50-30c12,0,21-6,21-13c0-22-33-46-100-72c-34-13-67-31-74-40
		c-16-21-224-36-730-52c-97-3-127-1-157,13c-32,14-47,15-106,5c-129-22-143-28-143-61c0-25,4-29,40-35c22-4,42-11,46-16
		c11-18,83-12,354,31c30,5,154,16,275,25c306,22,433,33,560,50c137,19,135,19,135-5c0-11,14-29,30-42c17-12,30-27,30-34
		c0-29,28-37,91-25c69,14,100,2,50-18c-31-13-46-35-35-53c7-12,43-7,141,21c39,11,124,27,190,36c150,20,193,32,193,51
		c0,25-25,27-180,11c-83-9-162-12-177-8c-26,8-24,9,32,26c95,28,135,46,135,61c0,19-8,18-164-21c-137-34-219-44-230-26
		c-3,5,10,12,30,15c34,7,59,36,36,44c-6,2-8,10-5,18c8,22-40,34-141,34c-51,0-96,3-99,6c-4,4,1,20,10,35c17,29,17,29-22,69
		c-37,38-38,40-21,59c10,11,15,25,11,30C7656,784,7607,783,7588,768z"/>
	<path class="st0" d="M8846,659c-141-21-358-94-370-124c-3-8,1-19,9-25c11-9,42-2,137,29c166,54,276,75,347,67c92-10,125,31,43,54
		C8970,671,8930,671,8846,659z"/>
	<path class="st0" d="M13120,531c0-5,11-52,25-105c30-114,60-177,115-241c22-25,45-55,50-66c15-26,30-24,30,5c0,14-16,44-37,68
		s-46,64-56,88c-11,25-25,59-32,75c-7,17-28,65-46,108C13140,530,13120,559,13120,531z"/>
	<path class="st0" d="M8860,434c-146-16-281-43-624-125c-250-60-291-74-316-104c-32-39,13-33,325,46c449,112,430,109,640,119
		c217,11,290,24,290,55c0,18-7,20-95,22C9028,447,8929,442,8860,434z"/>
</g>
</svg>
